<svg width="1287" height="746" fill="none" xmlns="http://www.w3.org/2000/svg"><mask id="a" style="mask-type:luminance" maskUnits="userSpaceOnUse" x="0" y="0" width="1287" height="746"><path d="M1286.04 0H0v745.63h1286.04V0Z" fill="#fff"/></mask><g mask="url(#a)"><path d="M1218.18 449.458c-45.45 117.68-130.9 220.78-249.59 266.09a430.914 430.914 0 0 1-47.21 14.95c-84.68 21.59-177.32 14.08-255.38-25.26-33.13-16.71-63.34-38.79-96.59-55.26s-71.22-27.25-107.41-19.12c-31.16 7-57.45 27.06-83.92 44.93-62.4 42.13-137.43 75.47-211.32 61-34-6.65-67.48-25.07-83.27-55.86-34.9-68.07 30.92-149 17.59-224.28-8.53-48.18-47.49-84.26-71.71-126.78-41.45-72.73-36.55-169.34 12.05-237.49 48.6-68.15 138.32-104.3 220.58-88.84 100.31 18.86 176.15 103.75 273.69 133.79 61 18.77 127.23 13.17 185.49-11.55 94.13-39.95 223.45-101.22 329.38-91.24 56.33 5.31 111.58 30.31 148.76 73 47 53.89 61.09 130.4 53.25 201.46a563.275 563.275 0 0 1-34.39 140.46Z" fill="url(#b)"/><path d="M1248.42 542.54a25.923 25.923 0 0 1-21.78-11.843 25.937 25.937 0 0 1-3.74-18.759 25.91 25.91 0 0 1 10.13-16.224 25.943 25.943 0 0 1 18.5-4.866 25.926 25.926 0 0 1 16.8 9.137 25.945 25.945 0 0 1 5.98 18.172 25.96 25.96 0 0 1-8.11 17.325 25.938 25.938 0 0 1-17.78 7.058Zm0-40.18a14.093 14.093 0 0 0-13.94 12.418c-.4 3.413.45 6.858 2.41 9.686a14.053 14.053 0 0 0 8.21 5.666c1.93.465 3.94.515 5.9.147 1.95-.367 3.8-1.144 5.43-2.28a14.059 14.059 0 0 0 4.03-4.307 14.041 14.041 0 0 0 1.91-5.578 14.061 14.061 0 0 0-3.44-11.007 14.032 14.032 0 0 0-4.75-3.498 14.044 14.044 0 0 0-5.76-1.247Zm-23.67 67.688c1.47-6.081-2.26-12.207-8.35-13.681-6.08-1.475-12.2 2.26-13.68 8.341-1.47 6.081 2.26 12.206 8.34 13.681 6.09 1.474 12.21-2.26 13.69-8.341ZM55.19 540.068a26.089 26.089 0 0 1 .57-52.173A26.087 26.087 0 0 1 81.848 513.7a26.09 26.09 0 0 1-25.518 26.368h-1.14Zm0-40.17h-.59a14.093 14.093 0 0 0-13.784 14.24 14.09 14.09 0 1 0 14.394-14.24h-.02ZM36.589 583.85c6.252-.27 11.1-5.556 10.831-11.808-.27-6.251-5.556-11.101-11.808-10.831-6.251.27-11.1 5.556-10.83 11.808.269 6.251 5.555 11.101 11.807 10.831ZM709.08 118.257a26.062 26.062 0 0 1-22.16-39.811 26.06 26.06 0 1 1 22.16 39.811Zm-.08-40.16a14.141 14.141 0 1 0-.029 28.282A14.141 14.141 0 0 0 709 78.097Zm-53.115 38.736c5.123-3.593 6.364-10.658 2.771-15.782-3.593-5.123-10.658-6.364-15.781-2.771-5.124 3.593-6.364 10.658-2.772 15.782 3.593 5.123 10.659 6.364 15.782 2.771Z" fill="#E7F6FF"/><path d="M1286 252.657a41.478 41.478 0 0 0-12.14-29.316 41.466 41.466 0 0 0-29.32-12.144c-.92 0-1.83 0-2.73.09a41.433 41.433 0 0 0-3.6-19.815 41.406 41.406 0 0 0-10.4-14.048 41.47 41.47 0 0 0-49.16-4.133 41.488 41.488 0 0 0-12.6 12.114 41.571 41.571 0 0 0-6.49 16.23 41.49 41.49 0 0 0 .78 17.462 41.46 41.46 0 0 0-35.18-6.453 41.496 41.496 0 0 0-16.21 8.592 41.595 41.595 0 0 0-10.91 14.741 41.462 41.462 0 0 0 1.15 35.753 41.432 41.432 0 0 0 28.54 21.557 41.466 41.466 0 0 0 11.93 16.949 41.452 41.452 0 0 0 56.91-3.009 41.436 41.436 0 0 0 16.75 7.544 41.46 41.46 0 0 0 45.91-23.344 41.516 41.516 0 0 0 19.43-15.214 41.465 41.465 0 0 0 7.34-23.556ZM191.45 152.998a41.46 41.46 0 0 0-41.45-41.5c-.92 0-1.83 0-2.73.09a41.451 41.451 0 0 0-13.999-33.863A41.461 41.461 0 0 0 65.8 119.398a41.47 41.47 0 0 0-35.183-6.454 41.46 41.46 0 0 0 2.573 80.644 41.458 41.458 0 0 0 51.235 24.896A41.456 41.456 0 0 0 102 207.528a41.449 41.449 0 0 0 35.115 7.11 41.46 41.46 0 0 0 27.545-22.91 41.471 41.471 0 0 0 26.79-38.73Z" fill="#fff"/><path d="M954.18 742.93h-596.5v-13h596.5a6.503 6.503 0 0 1 6.5 6.5 6.5 6.5 0 0 1-6.5 6.5Zm-623.18 0h-36.47a6.5 6.5 0 0 1 0-13H331a6.503 6.503 0 0 1 6.5 6.5 6.5 6.5 0 0 1-6.5 6.5Zm-60.14 0h-11.62a6.5 6.5 0 0 1 0-13h11.62a6.503 6.503 0 0 1 6.5 6.5 6.5 6.5 0 0 1-6.5 6.5Zm892.48 0H980v-13h183.34c1.72 0 3.38.685 4.6 1.903a6.494 6.494 0 0 1 1.9 4.597 6.491 6.491 0 0 1-6.5 6.5Zm-937.34 0H42.65v-13H226a6.503 6.503 0 0 1 6.5 6.5 6.5 6.5 0 0 1-6.5 6.5Z" fill="#426572"/><path d="M284.1 235.559h667.82a45.46 45.46 0 0 1 45.46 45.44v432.26H238.64v-432.26a45.46 45.46 0 0 1 45.46-45.44Z" fill="#EBF0F9"/><path d="M971.01 268.707H268.02v401.6h702.99v-401.6Z" fill="#637F91"/><path d="M262.75 669.559H974a12.058 12.058 0 0 1-12 12.06H274.8a12.06 12.06 0 0 1-12.06-12.06h.01Z" fill="#fff"/><path opacity=".5" d="m478.09 267.207-105.11 405.36h-52.93l105.11-405.36h52.93Zm134.91 0-105.1 405.36h-111l105.11-405.36H613Z" fill="#A7BCD5"/><path d="M1003.38 719.259H232.64v-457.64a32.098 32.098 0 0 1 32.06-32.06h706.62a32.096 32.096 0 0 1 32.06 32.06v457.64Zm-758.74-12h746.74v-445.64a20.078 20.078 0 0 0-20.06-20.06H264.7a20.08 20.08 0 0 0-20.06 20.06v445.64Z" fill="#426572"/><path d="M142.95 698.949h970.47v3.19a39.013 39.013 0 0 1-11.42 27.577 39.023 39.023 0 0 1-27.58 11.423H181.95a39 39 0 0 1-39-39v-3.19Z" fill="#EBF0F9"/><path opacity=".5" d="M1108.45 719.289a29.373 29.373 0 0 1-10.8 13.682 29.4 29.4 0 0 1-16.65 5.158H169.32a29.391 29.391 0 0 1-27.43-18.84h966.56Z" fill="#A7BCD5"/><path d="M1069.89 745.628H177.43a45.053 45.053 0 0 1-45-45v-9.19h982.47v9.19a45.054 45.054 0 0 1-45.01 45Zm-925.35-42.19a33.002 33.002 0 0 0 32.88 30.19h892.47a33 33 0 0 0 32.88-30.19H144.54Zm830.96-29.391h-715v-411.34h715v411.34Zm-703-12h691v-387.34h-691v387.34Z" fill="#426572"/><path d="M863.55 139.789v528.26H384.34v-528.26a9.07 9.07 0 0 1 9-9h461.17a9.07 9.07 0 0 1 9.04 9Z" fill="#fff"/><path d="M391.88 174.45h473.18v-31.78l-9.05-11.92H400.92l-15.07 11.92v31.78h6.03Z" fill="#E2F2FF"/><path d="M871.06 674.049H379.85v-534.26a15.06 15.06 0 0 1 15-15H856a15.059 15.059 0 0 1 15 15l.06 534.26Zm-479.21-12h467.21v-522.26a3.08 3.08 0 0 0-3-3H394.89a3.08 3.08 0 0 0-3 3l-.04 522.26Z" fill="#426572"/><path d="M835.58 149.27H414.04a6.03 6.03 0 1 0 0 12.06h421.54a6.03 6.03 0 0 0 0-12.06Z" fill="#CADCE8"/><path d="M542.11 231.039h-98.53v112.27h98.53v-112.27Zm242.93 0H551.41v112.27h233.63v-112.27Z" fill="#E8837E"/><path d="M785.04 355.738H674.73v112.27h110.31v-112.27Zm-119.61 0H444.82v112.27h220.61v-112.27Zm120.23 124.7H444.82v112.27h340.84v-112.27Zm3.01 127.359h-87.4v12h87.4v-12Z" fill="#DDE4ED"/><path d="M311.22 639.439H168.16a13.996 13.996 0 0 1-6.75-1.68c-3-1.64-4.92-4.33-4.92-7.36l.08-196.66a7.24 7.24 0 0 1 1-3.66c1.82-3.16 5.93-5.38 10.67-5.38H311.3c5 0 9.21 2.42 10.89 5.8a7.182 7.182 0 0 1 .78 3.23l-.07 196.67c0 4.54-4.39 8.33-10.06 8.95-.538.061-1.079.091-1.62.09Z" fill="#fff"/><path d="M315.11 637.93 172 637.9a13.999 13.999 0 0 1-6.75-1.68c-3-1.64-4.92-4.33-4.92-7.36l.08-196.66a7.24 7.24 0 0 1 1-3.66c1.82-3.16 5.93-5.38 10.67-5.38h1.95L174 616.8c0 3 1.94 5.72 4.92 7.36a13.999 13.999 0 0 0 6.75 1.68h141.12v3c0 4.54-4.39 8.33-10.06 8.95-.537.077-1.078.124-1.62.14Z" fill="#D6DEE9"/><path d="M313.16 643.929H170.09a19.993 19.993 0 0 1-9.66-2.43c-5-2.77-8-7.49-8-12.61l.08-196.66a13.32 13.32 0 0 1 1.83-6.67c3-5.15 9-8.36 15.85-8.36h143.06c7 0 13.25 3.45 16.09 8.81l.8 1.23v.56c.518 1.427.782 2.933.78 4.45l-.08 196.66c0 7.54-6.63 14-15.41 14.91-.754.079-1.512.116-2.27.11Zm-143-214.78c-2.69 0-4.79 1.19-5.46 2.37-.131.2-.204.432-.21.67l-.08 196.66c0 .66.73 1.5 1.82 2.11a8.099 8.099 0 0 0 3.86.94h143.06c.314.002.628-.015.94-.05 3-.32 4.74-2 4.74-3l.08-196.66c0-.119-.02-.237-.06-.35l-.56-.86a7.133 7.133 0 0 0-5.06-1.83H170.16Z" fill="#426572"/><path d="M296.66 509.797h-97.02v12h97.02v-12Zm0-25.039h-97.02v12h97.02v-12Zm0 53.41h-97.02v12h97.02v-12Z" fill="#426572"/><path opacity=".2" d="M1072 284a111.313 111.313 0 0 0 7.8-86.197 111.32 111.32 0 0 0-21.51-38.56 111.281 111.281 0 0 0-77.428-38.665 111.322 111.322 0 0 0-81.724 28.493A111.309 111.309 0 0 0 872.9 184.58a111.329 111.329 0 0 0 89.46 163.31 110.5 110.5 0 0 1-9.79 1.85 111.328 111.328 0 0 0 51.88-4.841 111.354 111.354 0 0 0 43.99-27.919A111.53 111.53 0 0 0 1072 284Z" fill="#606060"/><path d="M958.76 321.897c61.47 0 111.3-49.831 111.3-111.3 0-61.469-49.83-111.3-111.3-111.3-61.469 0-111.3 49.831-111.3 111.3 0 61.469 49.831 111.3 111.3 111.3Z" fill="#A8EF9E"/><path d="M1064.75 218.55a111.316 111.316 0 0 1-79.984 106.79 111.302 111.302 0 0 1-47.206 3.36 111.305 111.305 0 0 0 95.38-110.155 111.31 111.31 0 0 0-95.38-110.155 111.314 111.314 0 0 1 88.76 26.028 111.325 111.325 0 0 1 28.37 37.884 111.173 111.173 0 0 1 10.07 46.248h-.01Z" fill="#A7E59C"/><path d="M956.11 333.19a117.3 117.3 0 1 1 117.3-117.3 117.412 117.412 0 0 1-34.39 82.906 117.444 117.444 0 0 1-82.91 34.394Zm0-222.59a105.302 105.302 0 0 0-103.277 125.843 105.295 105.295 0 0 0 28.819 53.915 105.295 105.295 0 0 0 162.008-15.957 105.306 105.306 0 0 0 17.75-58.501 105.415 105.415 0 0 0-30.87-74.426 105.431 105.431 0 0 0-74.43-30.874Z" fill="#426572"/><path d="M1012.33 170.38a10.64 10.64 0 0 0-14.27 3.739l-19.27 31.5-30.79 50.28-.86 1.41-35.55-28.44-6.48-5.179c-4.25-3.4-10.66-4.47-14.75 0-3.48 3.79-4.55 11.109 0 14.749l45.71 36.56 6.48 5.18c2.69 2.16 5.25 3.34 8.76 2.87a10.293 10.293 0 0 0 7.62-5l19.27-31.5 30.8-50.27 7.11-11.619c2.81-4.66 1.13-11.66-3.78-14.28Z" fill="#fff"/></g><defs><linearGradient id="b" x1="1.32" y1="371.188" x2="1254.6" y2="371.188" gradientUnits="userSpaceOnUse"><stop stop-color="#C5E9FA"/><stop offset="1" stop-color="#C4F4EA"/></linearGradient></defs></svg>