<svg width="1287" height="746" viewBox="0 0 1287 746" fill="none" xmlns="http://www.w3.org/2000/svg">
<mask id="mask0_333_3133" style="mask-type:luminance" maskUnits="userSpaceOnUse" x="0" y="0" width="1287" height="746">
<path d="M1286.04 0H0V745.63H1286.04V0Z" fill="white"/>
</mask>
<g mask="url(#mask0_333_3133)">
<path d="M1218.18 449.458C1172.73 567.138 1087.28 670.238 968.59 715.548C953.153 721.432 937.39 726.424 921.38 730.498C836.7 752.088 744.06 744.578 666 705.238C632.87 688.528 602.66 666.448 569.41 649.978C536.16 633.508 498.19 622.728 462 630.858C430.84 637.858 404.55 657.918 378.08 675.788C315.68 717.918 240.65 751.258 166.76 736.788C132.76 730.138 99.28 711.718 83.49 680.928C48.59 612.858 114.41 531.928 101.08 456.648C92.55 408.468 53.59 372.388 29.37 329.868C-12.08 257.138 -7.18003 160.528 41.42 92.3783C90.02 24.2283 179.74 -11.9217 262 3.5383C362.31 22.3983 438.15 107.288 535.69 137.328C596.69 156.098 662.92 150.498 721.18 125.778C815.31 85.8283 944.63 24.5583 1050.56 34.5383C1106.89 39.8483 1162.14 64.8483 1199.32 107.538C1246.32 161.428 1260.41 237.938 1252.57 308.998C1247.19 357.101 1235.63 404.31 1218.18 449.458Z" fill="url(#paint0_linear_333_3133)"/>
<path d="M1248.42 542.54C1246.33 542.537 1244.25 542.286 1242.22 541.79C1235.8 540.212 1230.23 536.245 1226.64 530.697C1223.05 525.149 1221.71 518.439 1222.9 511.938C1224.08 505.437 1227.71 499.634 1233.03 495.714C1238.35 491.795 1244.97 490.054 1251.53 490.848C1258.09 491.642 1264.1 494.91 1268.33 499.985C1272.57 505.06 1274.7 511.56 1274.31 518.157C1273.91 524.754 1271.01 530.951 1266.2 535.482C1261.39 540.014 1255.03 542.538 1248.42 542.54ZM1248.42 502.36C1244.98 502.373 1241.67 503.643 1239.1 505.93C1236.53 508.217 1234.89 511.364 1234.48 514.778C1234.08 518.191 1234.93 521.636 1236.89 524.464C1238.84 527.292 1241.76 529.307 1245.1 530.13C1247.03 530.595 1249.04 530.645 1251 530.277C1252.95 529.91 1254.8 529.133 1256.43 527.997C1258.06 526.862 1259.44 525.394 1260.46 523.69C1261.48 521.986 1262.14 520.085 1262.37 518.112C1262.61 516.138 1262.42 514.137 1261.83 512.24C1261.24 510.343 1260.25 508.593 1258.93 507.105C1257.61 505.617 1256 504.425 1254.18 503.607C1252.37 502.789 1250.41 502.364 1248.42 502.36Z" fill="#E7F6FF"/>
<path d="M1224.75 570.048C1226.22 563.967 1222.49 557.841 1216.4 556.367C1210.32 554.892 1204.2 558.627 1202.72 564.708C1201.25 570.789 1204.98 576.914 1211.06 578.389C1217.15 579.863 1223.27 576.129 1224.75 570.048Z" fill="#E7F6FF"/>
<path d="M55.1899 540.068C48.3214 539.918 41.7893 537.065 37.0117 532.128C32.234 527.191 29.5964 520.569 29.6715 513.7C29.7465 506.83 32.5282 500.267 37.4126 495.436C42.2969 490.604 48.8898 487.895 55.7599 487.895C62.6301 487.895 69.2229 490.604 74.1073 495.436C78.9917 500.267 81.7733 506.83 81.8484 513.7C81.9234 520.569 79.2858 527.191 74.5082 532.128C69.7305 537.065 63.1984 539.918 56.3299 540.068H55.1899ZM55.1899 499.898H54.5999C50.8903 499.979 47.3621 501.519 44.7813 504.185C42.2006 506.851 40.7756 510.427 40.8158 514.138C40.8559 517.848 42.358 521.392 44.9959 524.002C47.6337 526.611 51.1944 528.075 54.9049 528.075C58.6154 528.075 62.1761 526.611 64.814 524.002C67.4519 521.392 68.9539 517.848 68.9941 514.138C69.0343 510.427 67.6093 506.851 65.0285 504.185C62.4477 501.519 58.9195 499.979 55.2099 499.898H55.1899Z" fill="#E7F6FF"/>
<path d="M36.589 583.85C42.8406 583.58 47.6899 578.294 47.4202 572.042C47.1505 565.791 41.864 560.941 35.6124 561.211C29.3609 561.481 24.5116 566.767 24.7812 573.019C25.0509 579.27 30.3374 584.12 36.589 583.85Z" fill="#E7F6FF"/>
<path d="M709.08 118.257C702.854 118.262 696.832 116.039 692.104 111.989C687.375 107.939 684.253 102.33 683.302 96.1771C682.352 90.0244 683.635 83.7345 686.92 78.446C690.205 73.1575 695.275 69.2198 701.212 67.3456C707.148 65.4714 713.56 65.7846 719.286 68.2284C725.012 70.6723 729.674 75.0854 732.428 80.6688C735.182 86.2523 735.846 92.6373 734.3 98.668C732.754 104.699 729.1 109.977 724 113.547C719.626 116.607 714.418 118.251 709.08 118.257ZM709 78.0967C705.357 78.0929 701.854 79.4951 699.219 82.0111C696.585 84.527 695.023 87.9625 694.86 91.6015C694.696 95.2406 695.943 98.8024 698.341 101.545C700.739 104.287 704.102 105.998 707.731 106.321C711.359 106.644 714.972 105.555 717.817 103.279C720.662 101.004 722.519 97.7187 723.001 94.1081C723.483 90.4974 722.553 86.8399 720.405 83.898C718.257 80.9562 715.056 78.9568 711.47 78.3167C710.655 78.1713 709.828 78.0977 709 78.0967Z" fill="#E7F6FF"/>
<path d="M655.885 116.833C661.008 113.24 662.249 106.175 658.656 101.051C655.063 95.9282 647.998 94.6874 642.875 98.28C637.751 101.873 636.511 108.938 640.103 114.062C643.696 119.185 650.762 120.426 655.885 116.833Z" fill="#E7F6FF"/>
<path d="M1286 252.657C1286 241.662 1281.63 231.116 1273.86 223.341C1266.08 215.565 1255.54 211.197 1244.54 211.197C1243.62 211.197 1242.71 211.197 1241.81 211.287C1241.87 210.387 1241.9 209.477 1241.9 208.557C1241.9 202.665 1240.64 196.84 1238.21 191.472C1235.78 186.103 1232.24 181.314 1227.81 177.424C1223.38 173.534 1218.18 170.632 1212.54 168.912C1206.91 167.191 1200.97 166.692 1195.13 167.447C1189.28 168.203 1183.67 170.195 1178.65 173.291C1173.64 176.388 1169.34 180.518 1166.05 185.405C1162.76 190.293 1160.55 195.826 1159.56 201.635C1158.58 207.445 1158.84 213.398 1160.34 219.097C1155.33 215.464 1149.57 212.998 1143.48 211.881C1137.39 210.764 1131.13 211.025 1125.16 212.644C1119.18 214.262 1113.65 217.198 1108.95 221.236C1104.26 225.274 1100.54 230.311 1098.04 235.977C1095.55 241.644 1094.36 247.796 1094.56 253.983C1094.76 260.17 1096.34 266.233 1099.19 271.73C1102.03 277.226 1106.07 282.015 1111.01 285.745C1115.95 289.476 1121.66 292.053 1127.73 293.287C1130.21 299.855 1134.31 305.687 1139.66 310.236C1145 314.784 1151.42 317.901 1158.29 319.294C1165.17 320.687 1172.3 320.311 1178.99 318.201C1185.68 316.09 1191.73 312.314 1196.57 307.227C1201.52 310.963 1207.24 313.541 1213.32 314.771C1219.4 316.002 1225.67 315.854 1231.68 314.338C1237.7 312.822 1243.29 309.976 1248.06 306.012C1252.83 302.047 1256.64 297.063 1259.23 291.427C1267.1 288.444 1273.87 283.138 1278.66 276.213C1283.44 269.288 1286 261.073 1286 252.657Z" fill="white"/>
<path d="M191.45 152.998C191.455 147.551 190.387 142.156 188.307 137.122C186.226 132.088 183.174 127.513 179.324 123.659C175.475 119.805 170.904 116.747 165.872 114.661C160.841 112.574 155.447 111.499 150 111.498C149.08 111.498 148.17 111.498 147.27 111.588C147.33 110.688 147.36 109.778 147.36 108.858C147.359 102.966 146.102 97.1409 143.672 91.7724C141.243 86.4039 137.697 81.615 133.271 77.7249C128.845 73.8348 123.64 70.9328 118.004 69.2125C112.368 67.4921 106.43 66.993 100.586 67.7482C94.7423 68.5034 89.1264 70.4957 84.113 73.5922C79.0995 76.6888 74.8038 80.8185 71.5121 85.7059C68.2203 90.5934 66.0083 96.1265 65.0233 101.936C64.0383 107.746 64.3031 113.699 65.8 119.398C60.7892 115.764 55.0283 113.298 48.9401 112.182C42.8519 111.065 36.5909 111.326 30.6165 112.944C24.6422 114.563 19.1061 117.499 14.4146 121.537C9.72308 125.575 5.99518 130.612 3.50446 136.278C1.01375 141.945 -0.176575 148.097 0.0208526 154.284C0.21828 160.47 1.79845 166.534 4.64539 172.03C7.49233 177.527 11.5338 182.316 16.4732 186.046C21.4126 189.776 27.1246 192.354 33.19 193.588C35.6688 200.15 39.772 205.976 45.1155 210.52C50.459 215.065 56.8682 218.179 63.7431 219.572C70.618 220.965 77.7339 220.59 84.4248 218.484C91.1157 216.378 97.1627 212.608 102 207.528C106.949 211.264 112.673 213.842 118.75 215.072C124.827 216.303 131.103 216.155 137.115 214.638C143.127 213.122 148.723 210.277 153.49 206.312C158.257 202.347 162.074 197.364 164.66 191.728C172.526 188.751 179.301 183.452 184.086 176.535C188.871 169.618 191.439 161.409 191.45 152.998Z" fill="white"/>
<path d="M954.18 742.93H357.68V729.93H954.18C955.904 729.93 957.557 730.615 958.776 731.833C959.995 733.052 960.68 734.706 960.68 736.43C960.68 738.154 959.995 739.807 958.776 741.026C957.557 742.245 955.904 742.93 954.18 742.93Z" fill="#426572"/>
<path d="M331 742.93H294.53C292.806 742.93 291.153 742.245 289.934 741.026C288.715 739.807 288.03 738.154 288.03 736.43C288.03 734.706 288.715 733.052 289.934 731.833C291.153 730.615 292.806 729.93 294.53 729.93H331C332.724 729.93 334.377 730.615 335.596 731.833C336.815 733.052 337.5 734.706 337.5 736.43C337.5 738.154 336.815 739.807 335.596 741.026C334.377 742.245 332.724 742.93 331 742.93Z" fill="#426572"/>
<path d="M270.86 742.93H259.24C257.516 742.93 255.863 742.245 254.644 741.026C253.425 739.807 252.74 738.154 252.74 736.43C252.74 734.706 253.425 733.052 254.644 731.833C255.863 730.615 257.516 729.93 259.24 729.93H270.86C272.584 729.93 274.237 730.615 275.456 731.833C276.675 733.052 277.36 734.706 277.36 736.43C277.36 738.154 276.675 739.807 275.456 741.026C274.237 742.245 272.584 742.93 270.86 742.93Z" fill="#426572"/>
<path d="M1163.34 742.93H980V729.93H1163.34C1165.06 729.93 1166.72 730.615 1167.94 731.833C1169.16 733.052 1169.84 734.706 1169.84 736.43C1169.84 738.154 1169.16 739.807 1167.94 741.026C1166.72 742.245 1165.06 742.93 1163.34 742.93Z" fill="#426572"/>
<path d="M226 742.93H42.6499V729.93H226C227.724 729.93 229.377 730.615 230.596 731.833C231.815 733.052 232.5 734.706 232.5 736.43C232.5 738.154 231.815 739.807 230.596 741.026C229.377 742.245 227.724 742.93 226 742.93Z" fill="#426572"/>
<path d="M284.1 235.559H951.92C963.973 235.559 975.533 240.345 984.058 248.866C992.583 257.388 997.375 268.945 997.38 280.999V713.259H238.64V280.999C238.645 268.945 243.437 257.388 251.962 248.866C260.487 240.345 272.047 235.559 284.1 235.559Z" fill="#EBF0F9"/>
<path d="M971.01 268.707H268.02V670.307H971.01V268.707Z" fill="#637F91"/>
<path d="M262.75 669.559H974C974 672.747 972.738 675.805 970.489 678.065C968.24 680.325 965.188 681.603 962 681.619H274.8C271.601 681.619 268.534 680.348 266.272 678.086C264.011 675.825 262.74 672.757 262.74 669.559H262.75Z" fill="white"/>
<g opacity="0.5">
<path opacity="0.5" d="M478.09 267.207L372.98 672.567H320.05L425.16 267.207H478.09Z" fill="#A7BCD5"/>
<path opacity="0.5" d="M613 267.207L507.9 672.567H396.9L502.01 267.207H613Z" fill="#A7BCD5"/>
</g>
<path d="M1003.38 719.259H232.64V261.619C232.651 253.119 236.032 244.971 242.042 238.96C248.052 232.95 256.201 229.569 264.7 229.559H971.32C979.82 229.569 987.968 232.95 993.978 238.96C999.988 244.971 1003.37 253.119 1003.38 261.619V719.259ZM244.64 707.259H991.38V261.619C991.375 256.3 989.26 251.201 985.499 247.44C981.738 243.679 976.639 241.564 971.32 241.559H264.7C259.382 241.564 254.282 243.679 250.521 247.44C246.761 251.201 244.645 256.3 244.64 261.619V707.259Z" fill="#426572"/>
<path d="M142.95 698.949H1113.42V702.139C1113.42 712.483 1109.31 722.402 1102 729.716C1094.68 737.03 1084.76 741.139 1074.42 741.139H181.95C171.607 741.139 161.687 737.03 154.373 729.716C147.059 722.402 142.95 712.483 142.95 702.139V698.949Z" fill="#EBF0F9"/>
<path opacity="0.5" d="M1108.45 719.289C1106.32 724.837 1102.55 729.607 1097.65 732.971C1092.75 736.334 1086.94 738.133 1081 738.129H169.32C163.38 738.129 157.579 736.328 152.682 732.965C147.785 729.602 144.023 724.834 141.89 719.289H1108.45Z" fill="#A7BCD5"/>
<path d="M1069.89 745.628H177.43C165.499 745.614 154.061 740.869 145.625 732.433C137.188 723.996 132.443 712.558 132.43 700.628V691.438H1114.9V700.628C1114.89 712.56 1110.14 724 1101.7 732.436C1093.26 740.873 1081.82 745.617 1069.89 745.628ZM144.54 703.438C145.244 711.673 149.013 719.345 155.101 724.935C161.19 730.526 169.154 733.627 177.42 733.628H1069.89C1078.16 733.627 1086.12 730.526 1092.21 724.935C1098.3 719.345 1102.07 711.673 1102.77 703.438H144.54Z" fill="#426572"/>
<path d="M975.5 674.047H260.5V262.707H975.5V674.047ZM272.5 662.047H963.5V274.707H272.5V662.047Z" fill="#426572"/>
<path d="M863.55 139.789V668.049H384.34V139.789C384.358 137.408 385.312 135.129 386.996 133.445C388.68 131.761 390.959 130.807 393.34 130.789H854.51C855.054 130.789 855.596 130.84 856.13 130.939C858.202 131.322 860.077 132.415 861.431 134.03C862.785 135.645 863.534 137.682 863.55 139.789Z" fill="white"/>
<path d="M391.88 174.45H865.06V142.67L856.01 130.75H441.61H400.92L385.85 142.67V174.45H391.88Z" fill="#E2F2FF"/>
<path d="M871.06 674.049H379.85V139.789C379.866 135.816 381.451 132.01 384.261 129.2C387.071 126.39 390.877 124.805 394.85 124.789H856C859.973 124.805 863.78 126.39 866.589 129.2C869.399 132.01 870.984 135.816 871 139.789L871.06 674.049ZM391.85 662.049H859.06V139.789C859.04 139 858.717 138.248 858.159 137.69C857.601 137.132 856.849 136.809 856.06 136.789H394.89C394.101 136.809 393.349 137.132 392.791 137.69C392.233 138.248 391.91 139 391.89 139.789L391.85 662.049Z" fill="#426572"/>
<path d="M835.58 149.27H414.04C410.71 149.27 408.01 151.969 408.01 155.3C408.01 158.63 410.71 161.33 414.04 161.33H835.58C838.91 161.33 841.61 158.63 841.61 155.3C841.61 151.969 838.91 149.27 835.58 149.27Z" fill="#CADCE8"/>
<path d="M542.11 231.039H443.58V343.309H542.11V231.039Z" fill="#E8837E"/>
<path d="M785.04 231.039H551.41V343.309H785.04V231.039Z" fill="#E8837E"/>
<path d="M785.04 355.738H674.73V468.008H785.04V355.738Z" fill="#DDE4ED"/>
<path d="M665.43 355.738H444.82V468.008H665.43V355.738Z" fill="#DDE4ED"/>
<path d="M785.66 480.438H444.82V592.708H785.66V480.438Z" fill="#DDE4ED"/>
<path d="M788.67 607.797H701.27V619.797H788.67V607.797Z" fill="#DDE4ED"/>
<path d="M311.22 639.439H168.16C165.804 639.456 163.483 638.878 161.41 637.759C158.41 636.119 156.49 633.429 156.49 630.399L156.57 433.739C156.572 432.452 156.917 431.189 157.57 430.079C159.39 426.919 163.5 424.699 168.24 424.699H311.3C316.3 424.699 320.51 427.119 322.19 430.499C322.699 431.5 322.966 432.606 322.97 433.729L322.9 630.399C322.9 634.939 318.51 638.729 312.84 639.349C312.302 639.41 311.761 639.44 311.22 639.439Z" fill="white"/>
<path d="M315.11 637.93L172 637.9C169.645 637.917 167.323 637.339 165.25 636.22C162.25 634.58 160.33 631.89 160.33 628.86L160.41 432.2C160.412 430.913 160.757 429.65 161.41 428.54C163.23 425.38 167.34 423.16 172.08 423.16H174.03L174 616.8C174 619.8 175.94 622.52 178.92 624.16C180.993 625.279 183.315 625.857 185.67 625.84H326.79V628.84C326.79 633.38 322.4 637.17 316.73 637.79C316.193 637.867 315.652 637.914 315.11 637.93Z" fill="#D6DEE9"/>
<path d="M313.16 643.929H170.09C166.717 643.947 163.393 643.111 160.43 641.499C155.43 638.729 152.43 634.009 152.43 628.889L152.51 432.229C152.522 429.884 153.153 427.583 154.34 425.559C157.34 420.409 163.34 417.199 170.19 417.199H313.25C320.25 417.199 326.5 420.649 329.34 426.009L330.14 427.239V427.799C330.658 429.226 330.922 430.732 330.92 432.249L330.84 628.909C330.84 636.449 324.21 642.909 315.43 643.819C314.676 643.898 313.918 643.935 313.16 643.929ZM170.16 429.149C167.47 429.149 165.37 430.339 164.7 431.519C164.569 431.719 164.496 431.951 164.49 432.189L164.41 628.849C164.41 629.509 165.14 630.349 166.23 630.959C167.419 631.588 168.745 631.911 170.09 631.899H313.15C313.464 631.901 313.778 631.884 314.09 631.849C317.09 631.529 318.83 629.849 318.83 628.849L318.91 432.189C318.91 432.07 318.89 431.952 318.85 431.839L318.29 430.979C316.907 429.732 315.091 429.075 313.23 429.149H170.17H170.16Z" fill="#426572"/>
<path d="M296.66 509.797H199.64V521.797H296.66V509.797Z" fill="#426572"/>
<path d="M296.66 484.758H199.64V496.758H296.66V484.758Z" fill="#426572"/>
<path d="M296.66 538.168H199.64V550.168H296.66V538.168Z" fill="#426572"/>
<path opacity="0.2" d="M1072 284C1078.99 270.881 1083.28 256.495 1084.62 241.691C1085.96 226.886 1084.32 211.964 1079.8 197.803C1075.28 183.643 1067.96 170.532 1058.29 159.243C1048.62 147.955 1036.79 138.718 1023.49 132.077C1010.19 125.436 995.697 121.526 980.862 120.578C966.028 119.63 951.154 121.663 937.118 126.556C923.082 131.45 910.168 139.106 899.138 149.071C888.109 159.037 879.187 171.11 872.9 184.58C864.217 200.885 859.728 219.094 859.837 237.566C859.946 256.039 864.65 274.194 873.525 290.395C882.4 306.596 895.167 320.334 910.675 330.371C926.183 340.408 943.945 346.429 962.36 347.89C959.147 348.65 955.883 349.266 952.57 349.74C970.002 352.253 987.782 350.594 1004.45 344.899C1021.11 339.204 1036.19 329.636 1048.44 316.98C1058.24 307.517 1066.23 296.339 1072 284Z" fill="#606060"/>
<path d="M958.76 321.897C1020.23 321.897 1070.06 272.066 1070.06 210.597C1070.06 149.128 1020.23 99.2969 958.76 99.2969C897.291 99.2969 847.46 149.128 847.46 210.597C847.46 272.066 897.291 321.897 958.76 321.897Z" fill="#A8EF9E"/>
<path d="M1064.75 218.55C1064.75 234.508 1061.31 250.278 1054.68 264.792C1048.05 279.306 1038.37 292.224 1026.31 302.671C1014.25 313.118 1000.08 320.849 984.766 325.34C969.454 329.831 953.354 330.977 937.56 328.7C964.044 324.872 988.263 311.629 1005.78 291.399C1023.3 271.169 1032.94 245.305 1032.94 218.545C1032.94 191.785 1023.3 165.921 1005.78 145.691C988.263 125.461 964.044 112.219 937.56 108.39C953.356 106.112 969.457 107.257 984.772 111.748C1000.09 116.239 1014.26 123.97 1026.32 134.418C1038.38 144.866 1048.06 157.786 1054.69 172.302C1061.33 186.818 1064.76 202.591 1064.76 218.55H1064.75Z" fill="#A7E59C"/>
<path d="M956.11 333.19C932.91 333.19 910.232 326.31 890.942 313.421C871.652 300.532 856.617 282.212 847.739 260.779C838.861 239.345 836.538 215.76 841.064 193.006C845.59 170.252 856.762 149.351 873.166 132.946C889.571 116.542 910.472 105.37 933.226 100.844C955.98 96.3177 979.565 98.6407 1001 107.519C1022.43 116.397 1040.75 131.432 1053.64 150.722C1066.53 170.011 1073.41 192.69 1073.41 215.89C1073.38 246.989 1061.01 276.805 1039.02 298.796C1017.03 320.786 987.209 333.155 956.11 333.19ZM956.11 110.6C935.284 110.6 914.925 116.776 897.609 128.346C880.292 139.917 866.796 156.362 858.826 175.603C850.856 194.844 848.77 216.017 852.833 236.443C856.896 256.869 866.925 275.632 881.652 290.358C896.378 305.085 915.141 315.114 935.567 319.177C955.993 323.24 977.166 321.154 996.407 313.184C1015.65 305.214 1032.09 291.718 1043.66 274.401C1055.23 257.085 1061.41 236.726 1061.41 215.9C1061.38 187.982 1050.28 161.215 1030.54 141.474C1010.79 121.732 984.028 110.629 956.11 110.6Z" fill="#426572"/>
<path d="M1012.33 170.38C1009.93 169.038 1007.1 168.678 1004.44 169.375C1001.78 170.072 999.494 171.773 998.06 174.119L978.79 205.619L948 255.899L947.14 257.309L911.59 228.869L905.11 223.69C900.86 220.29 894.45 219.22 890.36 223.69C886.88 227.48 885.81 234.799 890.36 238.439L936.07 274.999L942.55 280.179C945.24 282.339 947.8 283.519 951.31 283.049C952.879 282.857 954.382 282.305 955.703 281.438C957.024 280.571 958.129 279.412 958.93 278.049L978.2 246.549L1009 196.279L1016.11 184.66C1018.92 180 1017.24 173 1012.33 170.38Z" fill="white"/>
</g>
<defs>
<linearGradient id="paint0_linear_333_3133" x1="1.31997" y1="371.188" x2="1254.6" y2="371.188" gradientUnits="userSpaceOnUse">
<stop stop-color="#C5E9FA"/>
<stop offset="1" stop-color="#C4F4EA"/>
</linearGradient>
</defs>
</svg>
