<svg width="1287" height="814" viewBox="0 0 1287 814" fill="none" xmlns="http://www.w3.org/2000/svg">
<mask id="mask0_333_3187" style="mask-type:luminance" maskUnits="userSpaceOnUse" x="0" y="0" width="1287" height="814">
<path d="M1286.04 0H0V813.89H1286.04V0Z" fill="white"/>
</mask>
<g mask="url(#mask0_333_3187)">
<path d="M1218.18 519.322C1172.73 637.002 1087.28 740.102 968.591 785.412C953.154 791.295 937.39 796.287 921.38 800.362C836.7 822.002 744.06 814.442 666 775.102C632.87 758.392 602.66 736.312 569.41 719.842C536.16 703.372 498.19 692.592 462 700.722C430.84 707.722 404.55 727.782 378.08 745.652C315.68 787.782 240.65 821.122 166.76 806.652C132.76 800.002 99.2805 781.582 83.4905 750.792C48.5905 682.722 114.41 601.792 101.08 526.512C92.5505 478.332 53.5905 442.252 29.3705 399.732C-12.0795 327.002 -7.17956 230.392 41.4205 162.242C90.0205 94.0916 179.74 57.9416 262 73.4016C362.3 92.2516 438.15 177.152 535.69 207.182C596.69 225.952 662.92 220.352 721.18 195.632C815.31 155.682 944.631 94.4116 1050.56 104.392C1106.89 109.702 1162.14 134.702 1199.32 177.392C1246.32 231.282 1260.41 307.792 1252.57 378.852C1247.19 426.958 1235.63 474.17 1218.18 519.322Z" fill="url(#paint0_linear_333_3187)"/>
<path d="M1248.42 612.4C1246.33 612.397 1244.25 612.146 1242.22 611.65C1235.8 610.072 1230.23 606.104 1226.64 600.556C1223.05 595.008 1221.71 588.299 1222.89 581.797C1224.08 575.296 1227.71 569.493 1233.03 565.574C1238.35 561.654 1244.97 559.914 1251.53 560.707C1258.09 561.501 1264.1 564.769 1268.33 569.844C1272.57 574.92 1274.7 581.419 1274.31 588.016C1273.91 594.613 1271.01 600.81 1266.2 605.342C1261.39 609.873 1255.03 612.398 1248.42 612.4ZM1248.35 572.22C1244.91 572.23 1241.59 573.501 1239.02 575.791C1236.45 578.082 1234.81 581.234 1234.4 584.652C1234 588.071 1234.86 591.52 1236.82 594.347C1238.78 597.175 1241.72 599.185 1245.06 600C1246.86 600.436 1248.72 600.513 1250.55 600.228C1252.38 599.943 1254.13 599.301 1255.71 598.339C1257.29 597.376 1258.66 596.112 1259.75 594.619C1260.84 593.125 1261.63 591.432 1262.06 589.635C1262.5 587.837 1262.58 585.972 1262.29 584.145C1262.01 582.318 1261.37 580.564 1260.4 578.985C1259.44 577.406 1258.18 576.032 1256.68 574.942C1255.19 573.851 1253.5 573.066 1251.7 572.63C1250.6 572.356 1249.48 572.216 1248.35 572.21V572.22Z" fill="#E7F6FF"/>
<path d="M1224.75 639.915C1226.22 633.834 1222.49 627.709 1216.41 626.234C1210.33 624.76 1204.2 628.494 1202.73 634.575C1201.25 640.656 1204.99 646.781 1211.07 648.256C1217.15 649.73 1223.27 645.996 1224.75 639.915Z" fill="#E7F6FF"/>
<path d="M55.1905 609.932C48.3221 609.781 41.79 606.928 37.0123 601.991C32.2346 597.055 29.5971 590.433 29.6721 583.563C29.7472 576.693 32.5288 570.13 37.4132 565.299C42.2976 560.468 48.8904 557.758 55.7605 557.758C62.6307 557.758 69.2235 560.468 74.1079 565.299C78.9923 570.13 81.7739 576.693 81.849 583.563C81.924 590.433 79.2864 597.055 74.5088 601.991C69.7311 606.928 63.199 609.781 56.3305 609.932H55.1905ZM55.1905 569.762H54.6005C50.8909 569.842 47.3627 571.382 44.782 574.048C42.2012 576.714 40.7762 580.291 40.8164 584.001C40.8565 587.711 42.3586 591.256 44.9965 593.865C47.6344 596.475 51.1951 597.938 54.9055 597.938C58.616 597.938 62.1767 596.475 64.8146 593.865C67.4525 591.256 68.9546 587.711 68.9947 584.001C69.0349 580.291 67.6099 576.714 65.0291 574.048C62.4484 571.382 58.9202 569.842 55.2105 569.762H55.1905Z" fill="#E7F6FF"/>
<path d="M36.5904 653.717C42.8419 653.447 47.6912 648.161 47.4216 641.909C47.1519 635.658 41.8654 630.808 35.6138 631.078C29.3622 631.348 24.5129 636.634 24.7826 642.886C25.0523 649.137 30.3388 653.987 36.5904 653.717Z" fill="#E7F6FF"/>
<path d="M709.08 188.128C702.852 188.138 696.826 185.918 692.093 181.869C687.36 177.82 684.233 172.211 683.278 166.057C682.323 159.902 683.602 153.609 686.885 148.316C690.168 143.023 695.238 139.081 701.176 137.202C707.114 135.324 713.529 135.633 719.259 138.075C724.988 140.516 729.655 144.928 732.413 150.512C735.172 156.097 735.84 162.484 734.296 168.518C732.753 174.552 729.101 179.834 724 183.408C719.627 186.472 714.419 188.12 709.08 188.128ZM709 147.998C705.36 147.995 701.859 149.396 699.227 151.91C696.594 154.424 695.034 157.858 694.871 161.494C694.707 165.13 695.953 168.69 698.35 171.43C700.746 174.17 704.107 175.88 707.733 176.203C711.358 176.525 714.969 175.437 717.812 173.163C720.654 170.89 722.51 167.607 722.992 163.999C723.474 160.391 722.545 156.736 720.398 153.796C718.252 150.856 715.053 148.858 711.47 148.218C710.655 148.073 709.828 147.999 709 147.998Z" fill="#E7F6FF"/>
<path d="M655.896 186.692C661.019 183.1 662.26 176.034 658.667 170.911C655.074 165.788 648.009 164.547 642.886 168.139C637.762 171.732 636.522 178.798 640.114 183.921C643.707 189.044 650.773 190.285 655.896 186.692Z" fill="#E7F6FF"/>
<path d="M1286 322.52C1286 311.524 1281.63 300.979 1273.86 293.203C1266.08 285.428 1255.54 281.06 1244.54 281.06C1243.62 281.06 1242.71 281.06 1241.81 281.15C1241.87 280.25 1241.9 279.34 1241.9 278.42C1241.92 272.513 1240.68 266.67 1238.26 261.282C1235.83 255.894 1232.29 251.086 1227.86 247.18C1223.43 243.274 1218.21 240.359 1212.56 238.632C1206.91 236.905 1200.96 236.405 1195.1 237.165C1189.25 237.926 1183.62 239.929 1178.6 243.041C1173.58 246.153 1169.28 250.302 1165.99 255.21C1162.7 260.118 1160.5 265.672 1159.54 271.5C1158.57 277.327 1158.86 283.294 1160.39 289C1155.38 285.366 1149.62 282.9 1143.53 281.783C1137.44 280.667 1131.18 280.927 1125.21 282.546C1119.23 284.165 1113.7 287.101 1109 291.139C1104.31 295.176 1100.58 300.213 1098.09 305.88C1095.6 311.546 1094.41 317.699 1094.61 323.885C1094.81 330.072 1096.39 336.136 1099.24 341.632C1102.08 347.128 1106.12 351.917 1111.06 355.648C1116 359.378 1121.71 361.955 1127.78 363.19C1130.26 369.758 1134.36 375.589 1139.71 380.138C1145.05 384.687 1151.47 387.804 1158.34 389.197C1165.22 390.59 1172.35 390.214 1179.04 388.103C1185.73 385.993 1191.78 382.217 1196.62 377.13C1201.57 380.865 1207.29 383.443 1213.37 384.674C1219.45 385.904 1225.72 385.756 1231.73 384.24C1237.75 382.724 1243.34 379.879 1248.11 375.914C1252.88 371.949 1256.69 366.965 1259.28 361.33C1267.15 358.336 1273.91 353.021 1278.69 346.088C1283.46 339.156 1286.01 330.936 1286 322.52Z" fill="white"/>
<path d="M191.45 222.821C191.45 211.827 187.083 201.283 179.31 193.508C171.537 185.733 160.994 181.364 150 181.361C149.08 181.361 148.17 181.361 147.27 181.451C147.33 180.551 147.36 179.641 147.36 178.721C147.359 172.829 146.102 167.004 143.672 161.636C141.243 156.267 137.697 151.478 133.271 147.588C128.845 143.698 123.64 140.796 118.004 139.076C112.368 137.355 106.43 136.856 100.586 137.611C94.7423 138.367 89.1264 140.359 84.113 143.456C79.0995 146.552 74.8038 150.682 71.5121 155.569C68.2203 160.457 66.0083 165.99 65.0233 171.799C64.0383 177.609 64.3031 183.562 65.8 189.261C60.7892 185.628 55.0283 183.162 48.9401 182.045C42.8519 180.928 36.5909 181.189 30.6165 182.808C24.6422 184.426 19.1061 187.362 14.4146 191.4C9.72308 195.438 5.99518 200.475 3.50446 206.141C1.01375 211.808 -0.176575 217.96 0.0208526 224.147C0.21828 230.334 1.79845 236.398 4.64539 241.894C7.49233 247.39 11.5338 252.179 16.4732 255.909C21.4126 259.64 27.1246 262.217 33.19 263.451C35.6688 270.014 39.772 275.839 45.1155 280.384C50.459 284.928 56.8682 288.042 63.7431 289.435C70.618 290.828 77.7339 290.454 84.4248 288.347C91.1157 286.241 97.1627 282.471 102 277.391C106.949 281.127 112.673 283.705 118.75 284.935C124.827 286.166 131.103 286.018 137.115 284.502C143.127 282.986 148.723 280.141 153.49 276.176C158.257 272.211 162.074 267.227 164.66 261.591C172.533 258.612 179.312 253.307 184.097 246.382C188.882 239.456 191.447 231.239 191.45 222.821Z" fill="white"/>
<path d="M954.18 812.789H357.68V799.789H954.18C955.904 799.789 957.557 800.474 958.776 801.693C959.995 802.912 960.68 804.565 960.68 806.289C960.68 808.013 959.995 809.666 958.776 810.885C957.557 812.104 955.904 812.789 954.18 812.789Z" fill="#426572"/>
<path d="M331.001 812.789H294.531C292.807 812.789 291.154 812.104 289.935 810.885C288.716 809.666 288.031 808.013 288.031 806.289C288.031 804.565 288.716 802.912 289.935 801.693C291.154 800.474 292.807 799.789 294.531 799.789H331.001C332.725 799.789 334.378 800.474 335.597 801.693C336.816 802.912 337.501 804.565 337.501 806.289C337.501 808.013 336.816 809.666 335.597 810.885C334.378 812.104 332.725 812.789 331.001 812.789Z" fill="#426572"/>
<path d="M270.86 812.789H259.24C257.516 812.789 255.863 812.104 254.644 810.885C253.425 809.666 252.74 808.013 252.74 806.289C252.74 804.565 253.425 802.912 254.644 801.693C255.863 800.474 257.516 799.789 259.24 799.789H270.86C272.584 799.789 274.237 800.474 275.456 801.693C276.675 802.912 277.36 804.565 277.36 806.289C277.36 808.013 276.675 809.666 275.456 810.885C274.237 812.104 272.584 812.789 270.86 812.789Z" fill="#426572"/>
<path d="M1163.34 812.789H980V799.789H1163.34C1165.06 799.789 1166.72 800.474 1167.94 801.693C1169.16 802.912 1169.84 804.565 1169.84 806.289C1169.84 808.013 1169.16 809.666 1167.94 810.885C1166.72 812.104 1165.06 812.789 1163.34 812.789Z" fill="#426572"/>
<path d="M226.001 812.789H42.6505V799.789H226.001C227.725 799.789 229.377 800.474 230.596 801.693C231.815 802.912 232.501 804.565 232.501 806.289C232.501 808.013 231.815 809.666 230.596 810.885C229.377 812.104 227.725 812.789 226.001 812.789Z" fill="#426572"/>
<g opacity="0.5">
<path opacity="0.5" d="M798.381 698.141H179.041V709.971H798.381V698.141Z" fill="white"/>
</g>
<path d="M852.331 328.23H232.99V561.78H852.331V328.23Z" fill="#FDE1CE"/>
<path d="M851.22 410.641H230.401V478.631H851.22V410.641Z" fill="white"/>
<path d="M851.22 370.73H230.401V375.9H851.22V370.73Z" fill="white"/>
<path d="M851.22 493.789H230.401V498.959H851.22V493.789Z" fill="white"/>
<path d="M851.22 510.422H230.401V515.592H851.22V510.422Z" fill="white"/>
<path d="M851.22 388.469H230.401V393.639H851.22V388.469Z" fill="white"/>
<path d="M848.631 328.969H229.291V340.799H848.631V328.969Z" fill="#EFC3A6"/>
<g opacity="0.5">
<path opacity="0.5" d="M848.631 548.48H229.291V560.31H848.631V548.48Z" fill="white"/>
</g>
<path d="M856.671 566.669H225.321V321.129H856.671V566.669ZM237.331 554.669H844.671V333.129H237.321L237.331 554.669Z" fill="#426572"/>
<path d="M720 507.092L799 521.182C807.44 522.682 815.31 516.932 815.31 509.262V501.172L720 507.092Z" fill="#EFC3A6"/>
<path d="M589.22 507.092L668.22 521.182C676.66 522.682 684.531 516.932 684.531 509.262V501.172L589.22 507.092Z" fill="#EFC3A6"/>
<path d="M653.081 379.781H617C601.249 379.781 588.48 392.55 588.48 408.301V479.861C588.48 495.612 601.249 508.381 617 508.381H653.081C668.832 508.381 681.6 495.612 681.6 479.861V408.301C681.6 392.55 668.832 379.781 653.081 379.781Z" fill="#87D6FE"/>
<path d="M783.161 379.781H747.081C731.33 379.781 718.561 392.55 718.561 408.301V479.861C718.561 495.612 731.33 508.381 747.081 508.381H783.161C798.912 508.381 811.681 495.612 811.681 479.861V408.301C811.681 392.55 798.912 379.781 783.161 379.781Z" fill="#87D6FE"/>
<path d="M681.601 394.2V405.66C681.601 399.84 676.881 393.27 671.061 393.27L593.061 387.36C587.241 387.36 588.431 394.3 588.431 400.12V394.2C588.431 392.814 588.705 391.441 589.236 390.16C589.768 388.879 590.547 387.716 591.529 386.737C592.511 385.758 593.676 384.982 594.958 384.454C596.241 383.926 597.614 383.656 599.001 383.66H671.001C672.39 383.652 673.767 383.919 675.053 384.445C676.339 384.972 677.508 385.747 678.493 386.726C679.478 387.706 680.26 388.87 680.793 390.153C681.327 391.436 681.601 392.811 681.601 394.2Z" fill="#307FC3"/>
<path opacity="0.5" d="M681.23 393.099V410.939L589.641 387.629C590.58 386.082 591.901 384.804 593.477 383.916C595.054 383.028 596.832 382.56 598.641 382.559H670.641C672.029 382.552 673.405 382.82 674.69 383.347C675.974 383.873 677.141 384.649 678.125 385.628C679.109 386.607 679.89 387.772 680.423 389.054C680.956 390.336 681.23 391.71 681.23 393.099Z" fill="#4DA7DF"/>
<path d="M810.941 394.201V405.661C810.941 399.841 806.221 393.271 800.401 393.271L722.401 387.361C716.581 387.361 717.771 394.301 717.771 400.121V394.201C717.771 391.405 718.882 388.724 720.858 386.748C722.835 384.771 725.516 383.661 728.311 383.661H800.311C801.703 383.649 803.083 383.913 804.372 384.437C805.661 384.961 806.834 385.736 807.822 386.716C808.81 387.696 809.595 388.861 810.13 390.146C810.665 391.431 810.941 392.809 810.941 394.201Z" fill="#307FC3"/>
<path opacity="0.5" d="M810.57 393.101V410.941L719 387.621C719.939 386.074 721.26 384.796 722.836 383.908C724.413 383.02 726.191 382.552 728 382.551H800C801.387 382.547 802.762 382.817 804.045 383.345C805.328 383.874 806.495 384.651 807.477 385.631C808.459 386.611 809.237 387.775 809.768 389.057C810.299 390.339 810.571 391.713 810.57 393.101Z" fill="#4DA7DF"/>
<path d="M811.68 442.32H717.45V447.32H811.68V442.32Z" fill="#426572"/>
<path d="M768.36 378.68H763.36V506.54H768.36V378.68Z" fill="#426572"/>
<path d="M783.161 515.12H747.071C737.919 515.11 729.145 511.47 722.673 504.998C716.202 498.527 712.562 489.752 712.551 480.6V409C712.562 399.848 716.202 391.074 722.673 384.603C729.145 378.131 737.919 374.491 747.071 374.48H783.161C792.313 374.491 801.087 378.131 807.559 384.603C814.03 391.074 817.67 399.848 817.681 409V480.57C817.678 489.728 814.042 498.51 807.569 504.987C801.097 511.465 792.318 515.11 783.161 515.12ZM747.071 386.52C741.109 386.528 735.392 388.898 731.173 393.112C726.955 397.325 724.577 403.038 724.561 409V480.57C724.566 486.542 726.941 492.266 731.163 496.489C735.385 500.711 741.11 503.085 747.081 503.09H783.171C789.142 503.085 794.867 500.711 799.089 496.489C803.311 492.266 805.686 486.542 805.691 480.57V409C805.686 403.029 803.311 397.304 799.089 393.082C794.867 388.86 789.142 386.486 783.171 386.48L747.071 386.52Z" fill="#426572"/>
<path d="M681.6 442.32H587.37V447.32H681.6V442.32Z" fill="#426572"/>
<path d="M638.281 378.68H633.281V506.54H638.281V378.68Z" fill="#426572"/>
<path d="M653.091 515.12H617C607.848 515.109 599.074 511.469 592.602 504.997C586.131 498.526 582.491 489.752 582.48 480.6V409C582.501 399.854 586.147 391.091 592.617 384.628C599.088 378.165 607.855 374.53 617 374.52H653.091C662.234 374.533 670.999 378.169 677.467 384.631C683.935 391.094 687.579 399.856 687.6 409V480.57C687.597 489.725 683.962 498.505 677.492 504.983C671.022 511.461 662.247 515.106 653.091 515.12ZM617 386.52C611.036 386.525 605.317 388.894 601.096 393.107C596.875 397.321 594.496 403.035 594.48 409V480.57C594.477 486.546 596.848 492.278 601.071 496.507C605.294 500.736 611.024 503.114 617 503.12H653.091C659.062 503.114 664.786 500.74 669.008 496.518C673.23 492.296 675.605 486.571 675.61 480.6V409C675.605 403.028 673.23 397.304 669.008 393.081C664.786 388.859 659.062 386.485 653.091 386.48L617 386.52Z" fill="#426572"/>
<path d="M420.71 507.092L499.71 521.182C508.15 522.682 516.02 516.932 516.02 509.262V501.172L420.71 507.092Z" fill="#EFC3A6"/>
<path d="M289.901 507.092L368.901 521.182C377.341 522.682 385.211 516.932 385.211 509.262V501.172L289.901 507.092Z" fill="#EFC3A6"/>
<path d="M353.761 379.781H317.681C301.93 379.781 289.161 392.55 289.161 408.301V479.861C289.161 495.612 301.93 508.381 317.681 508.381H353.761C369.512 508.381 382.281 495.612 382.281 479.861V408.301C382.281 392.55 369.512 379.781 353.761 379.781Z" fill="#87D6FE"/>
<path d="M483.83 379.781H447.75C431.999 379.781 419.23 392.55 419.23 408.301V479.861C419.23 495.612 431.999 508.381 447.75 508.381H483.83C499.581 508.381 512.35 495.612 512.35 479.861V408.301C512.35 392.55 499.581 379.781 483.83 379.781Z" fill="#87D6FE"/>
<path d="M382.281 394.201V405.661C382.281 399.841 377.561 393.271 371.741 393.271L293.741 387.361C287.921 387.361 289.111 394.301 289.111 400.121V394.201C289.111 391.405 290.221 388.724 292.198 386.748C294.175 384.771 296.856 383.661 299.651 383.661H371.651C373.043 383.649 374.423 383.913 375.712 384.437C377.001 384.961 378.174 385.736 379.162 386.716C380.15 387.696 380.935 388.861 381.47 390.146C382.006 391.431 382.281 392.809 382.281 394.201Z" fill="#307FC3"/>
<path opacity="0.5" d="M381.911 393.099V410.939L290.321 387.629C291.26 386.082 292.581 384.804 294.157 383.916C295.734 383.028 297.512 382.56 299.321 382.559H371.321C372.709 382.552 374.085 382.82 375.37 383.347C376.654 383.873 377.822 384.649 378.806 385.628C379.79 386.607 380.571 387.772 381.104 389.054C381.637 390.336 381.911 391.71 381.911 393.099Z" fill="#4DA7DF"/>
<path d="M511.62 394.2V405.66C511.62 399.84 506.9 393.27 501.08 393.27L423.08 387.36C417.26 387.36 418.45 394.3 418.45 400.12V394.2C418.45 392.815 418.723 391.444 419.253 390.165C419.784 388.885 420.561 387.723 421.541 386.744C422.521 385.765 423.684 384.989 424.964 384.46C426.243 383.931 427.615 383.659 429 383.66H501C502.391 383.65 503.77 383.915 505.058 384.44C506.346 384.965 507.518 385.739 508.505 386.719C509.492 387.699 510.276 388.864 510.81 390.148C511.345 391.432 511.62 392.81 511.62 394.2Z" fill="#307FC3"/>
<path opacity="0.5" d="M511.251 393.099V410.939L419.661 387.629C420.6 386.082 421.921 384.804 423.497 383.916C425.074 383.028 426.852 382.56 428.661 382.559H500.661C502.049 382.552 503.425 382.82 504.71 383.347C505.994 383.873 507.162 384.649 508.146 385.628C509.13 386.607 509.911 387.772 510.444 389.054C510.977 390.336 511.251 391.71 511.251 393.099Z" fill="#4DA7DF"/>
<path d="M512.35 442.32H418.12V447.32H512.35V442.32Z" fill="#426572"/>
<path d="M469.031 378.68H464.031V506.54H469.031V378.68Z" fill="#426572"/>
<path d="M483.84 515.12H447.75C438.598 515.11 429.824 511.47 423.352 504.998C416.881 498.527 413.241 489.752 413.23 480.6V409C413.241 399.848 416.881 391.074 423.352 384.603C429.824 378.131 438.598 374.491 447.75 374.48H483.84C492.992 374.491 501.766 378.131 508.238 384.603C514.709 391.074 518.349 399.848 518.36 409V480.57C518.357 489.728 514.721 498.51 508.248 504.987C501.776 511.465 492.997 515.11 483.84 515.12ZM447.75 386.52C441.786 386.526 436.067 388.895 431.846 393.108C427.625 397.322 425.246 403.036 425.23 409V480.57C425.235 486.542 427.61 492.266 431.832 496.489C436.054 500.711 441.779 503.085 447.75 503.09H483.84C489.811 503.085 495.536 500.711 499.758 496.489C503.98 492.266 506.355 486.542 506.36 480.57V409C506.355 403.029 503.98 397.304 499.758 393.082C495.536 388.86 489.811 386.486 483.84 386.48L447.75 386.52Z" fill="#426572"/>
<path d="M382.281 442.32H288.051V447.32H382.281V442.32Z" fill="#426572"/>
<path d="M338.96 378.68H333.96V506.54H338.96V378.68Z" fill="#426572"/>
<path d="M353.761 515.12H317.671C308.519 515.11 299.745 511.47 293.273 504.998C286.802 498.527 283.162 489.752 283.151 480.6V409C283.162 399.848 286.802 391.074 293.273 384.603C299.745 378.131 308.519 374.491 317.671 374.48H353.761C362.913 374.491 371.687 378.131 378.159 384.603C384.63 391.074 388.27 399.848 388.281 409V480.57C388.278 489.728 384.642 498.51 378.169 504.987C371.697 511.465 362.918 515.11 353.761 515.12ZM317.671 386.52C311.709 386.528 305.992 388.898 301.773 393.112C297.555 397.325 295.177 403.038 295.161 409V480.57C295.166 486.542 297.541 492.266 301.763 496.489C305.985 500.711 311.71 503.085 317.681 503.09H353.771C359.742 503.085 365.467 500.711 369.689 496.489C373.911 492.266 376.286 486.542 376.291 480.57V409C376.286 403.029 373.911 397.304 369.689 393.082C365.467 388.86 359.742 386.486 353.771 386.48L317.671 386.52Z" fill="#426572"/>
<path d="M852.331 81.0195H232.99V314.57H852.331V81.0195Z" fill="#FDE1CE"/>
<path d="M851.22 166.75H230.401V234.74H851.22V166.75Z" fill="white"/>
<path d="M851.22 126.84H230.401V132.01H851.22V126.84Z" fill="white"/>
<path d="M851.22 249.891H230.401V255.061H851.22V249.891Z" fill="white"/>
<path d="M851.22 266.52H230.401V271.69H851.22V266.52Z" fill="white"/>
<path d="M851.22 144.578H230.401V149.748H851.22V144.578Z" fill="white"/>
<path d="M848.631 81.75H229.291V93.58H848.631V81.75Z" fill="#EFC3A6"/>
<g opacity="0.5">
<path opacity="0.5" d="M848.631 301.262H229.291V313.092H848.631V301.262Z" fill="white"/>
</g>
<path d="M856.671 319.45H225.321V73.9102H856.671V319.45ZM237.331 307.45H844.671V85.9102H237.321L237.331 307.45Z" fill="#426572"/>
<path d="M720 259.87L799 273.96C807.44 275.46 815.31 269.71 815.31 262.04V254L720 259.87Z" fill="#EFC3A6"/>
<path d="M589.22 259.87L668.22 273.96C676.66 275.46 684.531 269.71 684.531 262.04V254L589.22 259.87Z" fill="#EFC3A6"/>
<path d="M653.081 132.57H617C601.249 132.57 588.48 145.339 588.48 161.09V232.65C588.48 248.401 601.249 261.17 617 261.17H653.081C668.832 261.17 681.6 248.401 681.6 232.65V161.09C681.6 145.339 668.832 132.57 653.081 132.57Z" fill="#87D6FE"/>
<path d="M783.161 132.57H747.081C731.33 132.57 718.561 145.339 718.561 161.09V232.65C718.561 248.401 731.33 261.17 747.081 261.17H783.161C798.912 261.17 811.681 248.401 811.681 232.65V161.09C811.681 145.339 798.912 132.57 783.161 132.57Z" fill="#87D6FE"/>
<path d="M681.601 146.999V158.459C681.601 152.639 676.881 146.069 671.061 146.069L593.061 140.159C587.241 140.159 588.431 147.099 588.431 152.919V146.999C588.43 145.612 588.702 144.238 589.233 142.956C589.764 141.674 590.543 140.51 591.525 139.529C592.507 138.549 593.673 137.773 594.956 137.244C596.239 136.715 597.614 136.445 599.001 136.449H671.001C672.391 136.441 673.769 136.709 675.055 137.235C676.342 137.762 677.511 138.538 678.496 139.519C679.482 140.499 680.263 141.665 680.796 142.949C681.329 144.233 681.602 145.609 681.601 146.999Z" fill="#307FC3"/>
<path opacity="0.5" d="M681.23 145.878V163.718L589.641 140.398C590.58 138.852 591.901 137.573 593.477 136.685C595.054 135.797 596.832 135.33 598.641 135.328H670.641C672.03 135.322 673.406 135.59 674.691 136.117C675.976 136.644 677.146 137.421 678.13 138.401C679.114 139.382 679.895 140.547 680.427 141.83C680.959 143.113 681.231 144.489 681.23 145.878Z" fill="#4DA7DF"/>
<path d="M810.941 147.001V158.461C810.941 152.641 806.221 146.071 800.401 146.071L722.401 140.161C716.581 140.161 717.771 147.101 717.771 152.921V147.001C717.771 144.206 718.882 141.525 720.858 139.548C722.835 137.572 725.516 136.461 728.311 136.461H800.311C801.703 136.449 803.083 136.713 804.372 137.238C805.661 137.762 806.834 138.536 807.822 139.516C808.81 140.496 809.595 141.662 810.13 142.947C810.665 144.232 810.941 145.61 810.941 147.001Z" fill="#307FC3"/>
<path opacity="0.5" d="M810.57 145.878V163.718L719 140.398C719.939 138.852 721.26 137.573 722.836 136.685C724.413 135.797 726.191 135.33 728 135.328H800C801.387 135.324 802.762 135.594 804.045 136.123C805.328 136.651 806.495 137.428 807.477 138.408C808.459 139.388 809.237 140.553 809.768 141.835C810.299 143.117 810.571 144.491 810.57 145.878Z" fill="#4DA7DF"/>
<path d="M811.68 195.102H717.45V200.102H811.68V195.102Z" fill="#426572"/>
<path d="M768.36 131.461H763.36V259.321H768.36V131.461Z" fill="#426572"/>
<path d="M783.161 267.901H747.071C737.919 267.89 729.145 264.25 722.673 257.778C716.202 251.307 712.562 242.533 712.551 233.381V161.821C712.562 152.669 716.202 143.895 722.673 137.423C729.145 130.952 737.919 127.311 747.071 127.301H783.161C792.313 127.311 801.087 130.952 807.559 137.423C814.03 143.895 817.67 152.669 817.681 161.821V233.391C817.668 242.541 814.026 251.313 807.555 257.782C801.084 264.251 792.311 267.89 783.161 267.901ZM747.071 139.301C741.1 139.306 735.375 141.68 731.153 145.903C726.931 150.125 724.556 155.85 724.551 161.821V233.391C724.556 239.362 726.931 245.087 731.153 249.309C735.375 253.531 741.1 255.905 747.071 255.911H783.161C789.132 255.905 794.857 253.531 799.079 249.309C803.301 245.087 805.676 239.362 805.681 233.391V161.821C805.676 155.85 803.301 150.125 799.079 145.903C794.857 141.68 789.132 139.306 783.161 139.301H747.071Z" fill="#426572"/>
<path d="M681.6 195.102H587.37V200.102H681.6V195.102Z" fill="#426572"/>
<path d="M638.281 131.461H633.281V259.321H638.281V131.461Z" fill="#426572"/>
<path d="M653.091 267.901H617C607.848 267.89 599.074 264.25 592.602 257.778C586.131 251.307 582.491 242.533 582.48 233.381V161.821C582.491 152.669 586.131 143.895 592.602 137.423C599.074 130.952 607.848 127.311 617 127.301H653.091C662.243 127.311 671.016 130.952 677.488 137.423C683.959 143.895 687.599 152.669 687.61 161.821V233.391C687.597 242.541 683.955 251.313 677.484 257.782C671.013 264.251 662.241 267.89 653.091 267.901ZM617 139.301C611.029 139.306 605.304 141.68 601.082 145.903C596.86 150.125 594.485 155.85 594.48 161.821V233.391C594.488 239.36 596.864 245.082 601.086 249.303C605.308 253.523 611.031 255.895 617 255.901H653.091C659.062 255.895 664.786 253.521 669.008 249.299C673.23 245.077 675.605 239.352 675.61 233.381V161.821C675.605 155.85 673.23 150.125 669.008 145.903C664.786 141.68 659.062 139.306 653.091 139.301H617Z" fill="#426572"/>
<path d="M420.71 259.87L499.71 273.96C508.15 275.46 516.02 269.71 516.02 262.04V254L420.71 259.87Z" fill="#EFC3A6"/>
<path d="M289.901 259.87L368.901 273.96C377.341 275.46 385.211 269.71 385.211 262.04V254L289.901 259.87Z" fill="#EFC3A6"/>
<path d="M353.761 132.57H317.681C301.93 132.57 289.161 145.339 289.161 161.09V232.65C289.161 248.401 301.93 261.17 317.681 261.17H353.761C369.512 261.17 382.281 248.401 382.281 232.65V161.09C382.281 145.339 369.512 132.57 353.761 132.57Z" fill="#87D6FE"/>
<path d="M483.83 132.57H447.75C431.999 132.57 419.23 145.339 419.23 161.09V232.65C419.23 248.401 431.999 261.17 447.75 261.17H483.83C499.581 261.17 512.35 248.401 512.35 232.65V161.09C512.35 145.339 499.581 132.57 483.83 132.57Z" fill="#87D6FE"/>
<path d="M382.281 147.001V158.461C382.281 152.641 377.561 146.071 371.741 146.071L293.741 140.161C287.921 140.161 289.111 147.101 289.111 152.921V147.001C289.111 144.206 290.221 141.525 292.198 139.548C294.175 137.572 296.856 136.461 299.651 136.461H371.651C373.043 136.449 374.423 136.713 375.712 137.238C377.001 137.762 378.174 138.536 379.162 139.516C380.15 140.496 380.935 141.662 381.47 142.947C382.006 144.232 382.281 145.61 382.281 147.001Z" fill="#307FC3"/>
<path opacity="0.5" d="M381.911 145.878V163.718L290.321 140.398C291.26 138.852 292.581 137.573 294.157 136.685C295.734 135.797 297.512 135.33 299.321 135.328H371.321C372.71 135.322 374.087 135.59 375.372 136.117C376.657 136.644 377.826 137.421 378.81 138.401C379.794 139.382 380.575 140.547 381.107 141.83C381.639 143.113 381.912 144.489 381.911 145.878Z" fill="#4DA7DF"/>
<path d="M511.62 147V158.46C511.62 152.64 506.9 146.07 501.08 146.07L423.08 140.16C417.26 140.16 418.45 147.1 418.45 152.92V147C418.449 145.614 418.721 144.241 419.25 142.961C419.78 141.68 420.557 140.517 421.537 139.537C422.517 138.557 423.681 137.78 424.961 137.25C426.242 136.72 427.614 136.448 429 136.45H501C502.392 136.439 503.772 136.704 505.06 137.23C506.349 137.755 507.521 138.531 508.508 139.512C509.496 140.493 510.279 141.659 510.813 142.944C511.347 144.23 511.621 145.608 511.62 147Z" fill="#307FC3"/>
<path opacity="0.5" d="M511.251 145.878V163.718L419.651 140.398C420.59 138.852 421.911 137.573 423.487 136.685C425.064 135.797 426.842 135.33 428.651 135.328H500.651C502.041 135.32 503.419 135.587 504.705 136.114C505.992 136.641 507.161 137.417 508.146 138.398C509.132 139.378 509.913 140.544 510.446 141.828C510.979 143.112 511.252 144.488 511.251 145.878Z" fill="#4DA7DF"/>
<path d="M512.35 195.102H418.12V200.102H512.35V195.102Z" fill="#426572"/>
<path d="M469.031 131.461H464.031V259.321H469.031V131.461Z" fill="#426572"/>
<path d="M483.84 267.901H447.75C438.598 267.89 429.824 264.25 423.352 257.778C416.881 251.307 413.241 242.533 413.23 233.381V161.821C413.241 152.669 416.881 143.895 423.352 137.423C429.824 130.952 438.598 127.311 447.75 127.301H483.84C492.992 127.311 501.766 130.952 508.238 137.423C514.709 143.895 518.349 152.669 518.36 161.821V233.391C518.347 242.541 514.705 251.313 508.234 257.782C501.763 264.251 492.99 267.89 483.84 267.901ZM447.75 139.301C441.779 139.306 436.054 141.68 431.832 145.903C427.61 150.125 425.235 155.85 425.23 161.821V233.391C425.235 239.362 427.61 245.087 431.832 249.309C436.054 253.531 441.779 255.905 447.75 255.911H483.84C489.811 255.905 495.536 253.531 499.758 249.309C503.98 245.087 506.355 239.362 506.36 233.391V161.821C506.355 155.85 503.98 150.125 499.758 145.903C495.536 141.68 489.811 139.306 483.84 139.301H447.75Z" fill="#426572"/>
<path d="M382.281 195.102H288.051V200.102H382.281V195.102Z" fill="#426572"/>
<path d="M338.96 131.461H333.96V259.321H338.96V131.461Z" fill="#426572"/>
<path d="M353.761 267.901H317.671C308.519 267.89 299.745 264.25 293.273 257.778C286.802 251.307 283.162 242.533 283.151 233.381V161.821C283.162 152.669 286.802 143.895 293.273 137.423C299.745 130.952 308.519 127.311 317.671 127.301H353.761C362.913 127.311 371.687 130.952 378.159 137.423C384.63 143.895 388.27 152.669 388.281 161.821V233.391C388.268 242.541 384.626 251.313 378.155 257.782C371.684 264.251 362.911 267.89 353.761 267.901ZM317.671 139.301C311.7 139.306 305.975 141.68 301.753 145.903C297.531 150.125 295.156 155.85 295.151 161.821V233.391C295.156 239.362 297.531 245.087 301.753 249.309C305.975 253.531 311.7 255.905 317.671 255.911H353.761C359.732 255.905 365.457 253.531 369.679 249.309C373.901 245.087 376.276 239.362 376.281 233.391V161.821C376.276 155.85 373.901 150.125 369.679 145.903C365.457 141.68 359.732 139.306 353.761 139.301H317.671Z" fill="#426572"/>
<path d="M363.091 6H306.151V58.61H363.091V6Z" fill="#DEE6F1"/>
<path d="M366.93 58.8094V59.2094H309.99V6.60938H313.73V58.8094H366.93Z" fill="white"/>
<path d="M358.06 52.1401V7.41016H353.01V52.1401H358.06Z" fill="#A7BCD5"/>
<path d="M368.231 64.61H299.291V0H368.231V64.61ZM311.291 52.61H356.231V12H311.291V52.61Z" fill="#426572"/>
<path d="M883.971 46.2812H197.421V80.6513H883.971V46.2812Z" fill="#E8837E"/>
<path d="M885.16 45.1719H198.61V55.8919H885.16V45.1719Z" fill="#D87673"/>
<path d="M889 85.7194H190.46V39.3594H889V85.7194ZM202.45 73.7194H877V51.3594H202.46L202.45 73.7194Z" fill="#426572"/>
<path d="M883.98 62.2617H196.641V67.2617H883.98V62.2617Z" fill="#426572"/>
<path d="M233.01 64.0195H229.01V79.9095H233.01V64.0195Z" fill="#426572"/>
<path d="M245.94 64.0195H241.94V79.9095H245.94V64.0195Z" fill="#426572"/>
<path d="M258.88 64.0195H254.88V79.9095H258.88V64.0195Z" fill="#426572"/>
<path d="M271.811 64.0195H267.811V79.9095H271.811V64.0195Z" fill="#426572"/>
<path d="M284.74 64.0195H280.74V79.9095H284.74V64.0195Z" fill="#426572"/>
<path d="M294.26 64.0195H290.26V79.9095H294.26V64.0195Z" fill="#426572"/>
<path d="M307.19 64.0195H303.19V79.9095H307.19V64.0195Z" fill="#426572"/>
<path d="M320.13 64.0195H316.13V79.9095H320.13V64.0195Z" fill="#426572"/>
<path d="M333.061 64.0195H329.061V79.9095H333.061V64.0195Z" fill="#426572"/>
<path d="M346 64.0195H342V79.9095H346V64.0195Z" fill="#426572"/>
<path d="M355.51 64.0195H351.51V79.9095H355.51V64.0195Z" fill="#426572"/>
<path d="M368.44 64.0195H364.44V79.9095H368.44V64.0195Z" fill="#426572"/>
<path d="M381.38 64.0195H377.38V79.9095H381.38V64.0195Z" fill="#426572"/>
<path d="M394.311 64.0195H390.311V79.9095H394.311V64.0195Z" fill="#426572"/>
<path d="M407.25 64.0195H403.25V79.9095H407.25V64.0195Z" fill="#426572"/>
<path d="M416.76 64.0195H412.76V79.9095H416.76V64.0195Z" fill="#426572"/>
<path d="M429.69 64.0195H425.69V79.9095H429.69V64.0195Z" fill="#426572"/>
<path d="M442.63 64.0195H438.63V79.9095H442.63V64.0195Z" fill="#426572"/>
<path d="M455.561 64.0195H451.561V79.9095H455.561V64.0195Z" fill="#426572"/>
<path d="M468.5 64.0195H464.5V79.9095H468.5V64.0195Z" fill="#426572"/>
<path d="M478.01 64.0195H474.01V79.9095H478.01V64.0195Z" fill="#426572"/>
<path d="M490.95 64.0195H486.95V79.9095H490.95V64.0195Z" fill="#426572"/>
<path d="M503.88 64.0195H499.88V79.9095H503.88V64.0195Z" fill="#426572"/>
<path d="M516.811 64.0195H512.811V79.9095H516.811V64.0195Z" fill="#426572"/>
<path d="M529.75 64.0195H525.75V79.9095H529.75V64.0195Z" fill="#426572"/>
<path d="M542.311 64.0195H538.311V79.9095H542.311V64.0195Z" fill="#426572"/>
<path d="M555.24 64.0195H551.24V79.9095H555.24V64.0195Z" fill="#426572"/>
<path d="M568.18 64.0195H564.18V79.9095H568.18V64.0195Z" fill="#426572"/>
<path d="M581.11 64.0195H577.11V79.9095H581.11V64.0195Z" fill="#426572"/>
<path d="M594.051 64.0195H590.051V79.9095H594.051V64.0195Z" fill="#426572"/>
<path d="M603.561 64.0195H599.561V79.9095H603.561V64.0195Z" fill="#426572"/>
<path d="M616.5 64.0195H612.5V79.9095H616.5V64.0195Z" fill="#426572"/>
<path d="M629.43 64.0195H625.43V79.9095H629.43V64.0195Z" fill="#426572"/>
<path d="M642.36 64.0195H638.36V79.9095H642.36V64.0195Z" fill="#426572"/>
<path d="M655.301 64.0195H651.301V79.9095H655.301V64.0195Z" fill="#426572"/>
<path d="M664.811 64.0195H660.811V79.9095H664.811V64.0195Z" fill="#426572"/>
<path d="M677.75 64.0195H673.75V79.9095H677.75V64.0195Z" fill="#426572"/>
<path d="M690.68 64.0195H686.68V79.9095H690.68V64.0195Z" fill="#426572"/>
<path d="M703.61 64.0195H699.61V79.9095H703.61V64.0195Z" fill="#426572"/>
<path d="M716.551 64.0195H712.551V79.9095H716.551V64.0195Z" fill="#426572"/>
<path d="M726.061 64.0195H722.061V79.9095H726.061V64.0195Z" fill="#426572"/>
<path d="M739 64.0195H735V79.9095H739V64.0195Z" fill="#426572"/>
<path d="M751.93 64.0195H747.93V79.9095H751.93V64.0195Z" fill="#426572"/>
<path d="M764.86 64.0195H760.86V79.9095H764.86V64.0195Z" fill="#426572"/>
<path d="M777.801 64.0195H773.801V79.9095H777.801V64.0195Z" fill="#426572"/>
<path d="M787.311 64.0195H783.311V79.9095H787.311V64.0195Z" fill="#426572"/>
<path d="M800.25 64.0195H796.25V79.9095H800.25V64.0195Z" fill="#426572"/>
<path d="M813.18 64.0195H809.18V79.9095H813.18V64.0195Z" fill="#426572"/>
<path d="M826.11 64.0195H822.11V79.9095H826.11V64.0195Z" fill="#426572"/>
<path d="M839.051 64.0195H835.051V79.9095H839.051V64.0195Z" fill="#426572"/>
<path d="M852.331 575.449H232.99V808.999H852.331V575.449Z" fill="#FDE1CE"/>
<path d="M851.22 657.859H230.401V725.849H851.22V657.859Z" fill="white"/>
<path d="M851.22 617.949H230.401V623.119H851.22V617.949Z" fill="white"/>
<path d="M851.22 741.012H230.401V746.182H851.22V741.012Z" fill="white"/>
<path d="M851.22 757.629H230.401V762.799H851.22V757.629Z" fill="white"/>
<path d="M851.22 635.691H230.401V640.861H851.22V635.691Z" fill="white"/>
<path d="M848.631 579.148H229.291V590.978H848.631V579.148Z" fill="#EFC3A6"/>
<path d="M293.421 806.041V625.711H416.101V806.041" fill="#87D6FE"/>
<path d="M366.09 624.23L302.21 804.57H291.51L355.38 624.23H366.09Z" fill="#65AEE2"/>
<path d="M412.57 624.23L348.701 804.57H329.5L393.37 624.23H412.57Z" fill="#65AEE2"/>
<path d="M422.111 806.779H410.111V632.449H299.421V806.779H287.421V620.449H422.111V806.779Z" fill="#426572"/>
<path d="M856.671 813.89H225.321V568.34H856.671V813.89ZM237.331 801.89H844.671V580.34H237.321L237.331 801.89Z" fill="#426572"/>
<path d="M864.091 553.871H215.631C207.976 553.871 201.771 560.076 201.771 567.731C201.771 575.386 207.976 581.591 215.631 581.591H864.091C871.746 581.591 877.951 575.386 877.951 567.731C877.951 560.076 871.746 553.871 864.091 553.871Z" fill="#DEE6F1"/>
<path d="M212.001 555.922H870.741C873.056 555.922 875.277 556.842 876.914 558.479C878.551 560.116 879.471 562.337 879.471 564.652H203.291C203.291 562.337 204.211 560.116 205.848 558.479C207.485 556.842 209.706 555.922 212.021 555.922H212.001Z" fill="#A7BCD5"/>
<path d="M866 588.111H217.54C212.273 588.111 207.221 586.018 203.497 582.294C199.772 578.569 197.68 573.518 197.68 568.251C197.68 562.983 199.772 557.932 203.497 554.207C207.221 550.483 212.273 548.391 217.54 548.391H866C871.267 548.391 876.319 550.483 880.043 554.207C883.768 557.932 885.86 562.983 885.86 568.251C885.86 573.518 883.768 578.569 880.043 582.294C876.319 586.018 871.267 588.111 866 588.111ZM217.54 560.381C215.455 560.381 213.456 561.209 211.982 562.683C210.508 564.157 209.68 566.156 209.68 568.241C209.68 570.325 210.508 572.324 211.982 573.798C213.456 575.272 215.455 576.101 217.54 576.101H866C868.085 576.101 870.084 575.272 871.558 573.798C873.032 572.324 873.86 570.325 873.86 568.241C873.86 566.156 873.032 564.157 871.558 562.683C870.084 561.209 868.085 560.381 866 560.381H217.54Z" fill="#426572"/>
<path d="M864.091 305.539H215.631C207.976 305.539 201.771 311.744 201.771 319.399C201.771 327.054 207.976 333.259 215.631 333.259H864.091C871.746 333.259 877.951 327.054 877.951 319.399C877.951 311.744 871.746 305.539 864.091 305.539Z" fill="#DEE6F1"/>
<path d="M212.001 307.602H870.741C873.056 307.602 875.277 308.521 876.914 310.159C878.551 311.796 879.471 314.016 879.471 316.332H203.291C203.291 314.02 204.208 311.802 205.841 310.166C207.474 308.529 209.689 307.607 212.001 307.602Z" fill="#A7BCD5"/>
<path d="M866 339.779H217.54C212.273 339.779 207.221 337.686 203.497 333.962C199.772 330.237 197.68 325.186 197.68 319.919C197.68 314.651 199.772 309.6 203.497 305.875C207.221 302.151 212.273 300.059 217.54 300.059H866C871.267 300.059 876.319 302.151 880.043 305.875C883.768 309.6 885.86 314.651 885.86 319.919C885.86 325.186 883.768 330.237 880.043 333.962C876.319 337.686 871.267 339.779 866 339.779ZM217.54 312.049C215.455 312.049 213.456 312.877 211.982 314.351C210.508 315.825 209.68 317.824 209.68 319.909C209.68 321.993 210.508 323.992 211.982 325.466C213.456 326.94 215.455 327.769 217.54 327.769H866C868.085 327.769 870.084 326.94 871.558 325.466C873.032 323.992 873.86 321.993 873.86 319.909C873.86 317.824 873.032 315.825 871.558 314.351C870.084 312.877 868.085 312.049 866 312.049H217.54Z" fill="#426572"/>
<path d="M414.62 642.43H297.11V647.43H414.62V642.43Z" fill="#426572"/>
<path d="M413.891 657.949H296.38V662.949H413.891V657.949Z" fill="#426572"/>
<path d="M331.021 625.34H326.021V661.92H331.021V625.34Z" fill="#426572"/>
<path d="M385.72 625.34H380.72V661.92H385.72V625.34Z" fill="#426572"/>
<path d="M359.13 661.191H351.13V807.531H359.13V661.191Z" fill="#426572"/>
<path d="M621.86 609.82H479.45V762.81H621.86V609.82Z" fill="#87D6FE"/>
<path d="M563.501 606.941L530.361 759.931H502.791L535.931 606.941H563.501Z" fill="#65AEE2"/>
<path d="M599.841 606.941L566.69 759.931H557.72L590.86 606.941H599.841Z" fill="#65AEE2"/>
<path d="M520.19 605.531H515.19V762.521H520.19V605.531Z" fill="#426572"/>
<path d="M555.791 605.531H550.791V762.521H555.791V605.531Z" fill="#426572"/>
<path d="M591.401 605.531H586.401V762.521H591.401V605.531Z" fill="#426572"/>
<path d="M626.66 645.922H479.921V650.922H626.66V645.922Z" fill="#426572"/>
<path d="M626.66 681.52H479.921V686.52H626.66V681.52Z" fill="#426572"/>
<path d="M626.66 717.129H479.921V722.129H626.66V717.129Z" fill="#426572"/>
<path d="M630.5 766.52H476.09V601.52H630.5V766.52ZM488.09 754.52H618.5V613.52H488.09V754.52Z" fill="#426572"/>
<path d="M800.51 609.82H658.1V762.81H800.51V609.82Z" fill="#87D6FE"/>
<path d="M742.15 606.941L709.01 759.931H681.44L714.58 606.941H742.15Z" fill="#65AEE2"/>
<path d="M776.491 606.941L743.341 759.931H734.371L767.511 606.941H776.491Z" fill="#65AEE2"/>
<path d="M698.841 605.531H693.841V762.521H698.841V605.531Z" fill="#426572"/>
<path d="M734.44 605.531H729.44V762.521H734.44V605.531Z" fill="#426572"/>
<path d="M770.041 605.531H765.041V762.521H770.041V605.531Z" fill="#426572"/>
<path d="M805.311 645.922H658.571V650.922H805.311V645.922Z" fill="#426572"/>
<path d="M805.311 681.52H658.571V686.52H805.311V681.52Z" fill="#426572"/>
<path d="M805.311 717.129H658.571V722.129H805.311V717.129Z" fill="#426572"/>
<path d="M809.151 766.52H654.74V601.52H809.151V766.52ZM666.74 754.52H797.151V613.52H666.74V754.52Z" fill="#426572"/>
<path opacity="0.1" d="M914.24 204.25C912.674 204.978 910.967 205.354 909.24 205.35H914.24V204.25Z" fill="#606060"/>
<path opacity="0.2" d="M629.12 90.3516V212.602C629.12 215.784 630.384 218.836 632.635 221.087C634.885 223.337 637.937 224.602 641.12 224.602H858.61V202.602H914.24V63.3516C914.24 60.169 912.976 57.1167 910.725 54.8663C908.475 52.6158 905.423 51.3516 902.24 51.3516H657.12V90.3516H629.12Z" fill="#606060"/>
<path d="M930.24 29.3516H669.24C662.613 29.3516 657.24 34.7241 657.24 41.3516V188.352C657.24 194.979 662.613 200.352 669.24 200.352H930.24C936.867 200.352 942.24 194.979 942.24 188.352V41.3516C942.24 34.7241 936.867 29.3516 930.24 29.3516Z" fill="white"/>
<path d="M844.24 185.852H659.24V196.852H844.24V185.852Z" fill="#DEE6F1"/>
<path d="M940.12 189.602V42.6016C940.12 39.419 938.856 36.3667 936.605 34.1163C934.355 31.8658 931.303 30.6016 928.12 30.6016H843.24V201.602H928.12C931.303 201.602 934.355 200.337 936.605 198.087C938.856 195.836 940.12 192.784 940.12 189.602Z" fill="#E8837E"/>
<path d="M914.24 204.252C912.674 204.98 910.967 205.355 909.24 205.352H926.24C927.878 205.35 929.5 205.013 931.003 204.361C932.506 203.709 933.859 202.756 934.98 201.562C935.938 200.535 936.714 199.351 937.271 198.062C937.454 197.633 937.613 197.196 937.75 196.752C938.076 195.648 938.241 194.503 938.24 193.352V46.3516C938.24 43.169 936.976 40.1167 934.725 37.8663C932.475 35.6158 929.423 34.3516 926.24 34.3516H909.24C912.423 34.3516 915.475 35.6158 917.725 37.8663C919.976 40.1167 921.24 43.169 921.24 46.3516V193.352C921.243 195.866 920.448 198.317 918.97 200.352C918.667 200.791 918.333 201.209 917.97 201.602C917.63 201.953 917.274 202.287 916.901 202.602C916.092 203.268 915.196 203.823 914.24 204.252Z" fill="#D66765"/>
<path d="M930.12 208.602H669.12C666.247 208.597 663.417 207.904 660.867 206.582C658.317 205.26 656.12 203.346 654.46 201.002C652.283 197.964 651.114 194.319 651.12 190.582V43.6016C651.115 42.7316 651.176 41.8626 651.3 41.0016C651.938 36.7281 654.087 32.8248 657.356 29.9995C660.626 27.1742 664.799 25.6139 669.12 25.6016H930.12C931.914 25.599 933.697 25.8687 935.41 26.4016H935.75L936.75 26.8916C940.091 28.2325 942.956 30.538 944.981 33.5141C947.006 36.4901 948.099 40.0019 948.12 43.6016V190.602C948.11 194.076 947.094 197.474 945.195 200.384C943.297 203.294 940.596 205.592 937.42 207.002C935.128 208.048 932.639 208.594 930.12 208.602ZM669.12 37.6016C667.673 37.6021 666.275 38.1257 665.183 39.0758C664.092 40.0258 663.38 41.3384 663.18 42.7716C663.139 43.0464 663.119 43.3238 663.12 43.6016V190.602C663.12 191.839 663.508 193.046 664.23 194.052C664.782 194.837 665.514 195.478 666.365 195.922C667.216 196.365 668.16 196.599 669.12 196.602H930.12C930.947 196.604 931.765 196.43 932.52 196.092C933.589 195.625 934.498 194.858 935.137 193.883C935.777 192.908 936.118 191.768 936.12 190.602V43.6016C936.119 42.5494 935.841 41.516 935.315 40.6051C934.788 39.6941 934.031 38.9377 933.12 38.4116L932.12 37.9316C931.478 37.704 930.801 37.5923 930.12 37.6016H669.12Z" fill="#426572"/>
<path d="M851.24 33.3516H839.24V201.352H851.24V33.3516Z" fill="#426572"/>
<path d="M699.46 146.869C699.493 146.559 699.549 146.251 699.63 145.949L716.33 91.5793C716.538 90.9861 716.876 90.4467 717.319 90.0004C717.762 89.5541 718.298 89.2121 718.89 88.9993C720.353 88.3787 721.931 88.0721 723.52 88.0993C725.132 88.0755 726.729 88.4174 728.19 89.0993C728.809 89.3595 729.362 89.755 729.809 90.2568C730.255 90.7587 730.584 91.354 730.77 91.9993L747.45 146.369C747.53 146.651 747.587 146.938 747.62 147.229C747.62 148.496 746.843 149.589 745.29 150.509C743.862 151.393 742.219 151.87 740.54 151.889C738.407 151.889 737.14 151.139 736.74 149.639L733.45 138.139H714.93L711.71 149.639C711.257 151.133 709.83 151.879 707.43 151.879C705.54 151.877 703.683 151.384 702.04 150.449C700.32 149.483 699.46 148.289 699.46 146.869ZM717.4 129.299H732.35L724.83 102.759L717.4 129.299Z" fill="#426572"/>
<path d="M754.91 148.4V92.1304C754.927 91.6455 755.062 91.172 755.302 90.7505C755.542 90.329 755.881 89.9721 756.29 89.7104C757.329 88.9984 758.572 88.6471 759.83 88.7104H775.13C781.297 88.7104 786.223 90.2937 789.91 93.4604C793.597 96.6271 795.44 101.627 795.44 108.46V132.06C795.44 138.92 793.597 143.92 789.91 147.06C786.223 150.2 781.297 151.784 775.13 151.81H759.83C758.572 151.874 757.329 151.522 756.29 150.81C755.883 150.55 755.545 150.194 755.304 149.775C755.064 149.355 754.929 148.884 754.91 148.4ZM766.15 142H775.15C781.203 142 784.23 138.687 784.23 132.06V108.46C784.23 101.834 781.203 98.5204 775.15 98.5204H766.15V142Z" fill="#426572"/>
<path opacity="0.2" d="M829.541 469.08C806.313 464.302 782.167 467.067 760.621 476.972C739.075 486.877 721.255 503.405 709.759 524.146C698.263 544.887 693.691 568.757 696.71 592.278C699.729 615.799 710.181 637.741 726.543 654.906C742.905 672.072 764.321 683.563 787.67 687.705C811.019 691.848 835.081 688.425 856.349 677.936C877.617 667.447 894.979 650.439 905.906 629.393C916.832 608.346 920.751 584.359 917.091 560.93C918.571 563.876 919.928 566.906 921.161 570.02C919.567 552.48 913.834 535.568 904.433 520.675C895.031 505.782 882.23 493.333 867.081 484.35C855.605 477.011 842.882 471.835 829.541 469.08Z" fill="#606060"/>
<path d="M817.33 447.762C788.597 447.812 761.059 459.268 740.769 479.612C720.478 499.956 709.095 527.524 709.12 556.257C709.145 584.99 720.577 612.537 740.903 632.846C761.229 653.154 788.787 664.562 817.52 664.562C846.253 664.562 873.811 653.154 894.137 632.846C914.463 612.537 925.895 584.99 925.92 556.257C925.945 527.524 914.562 499.956 894.271 479.612C873.98 459.268 846.443 447.812 817.71 447.762H817.33Z" fill="#87D6FE"/>
<path d="M926.851 557.421C926.819 583.046 917.721 607.834 901.168 627.396C884.615 646.958 861.675 660.032 836.408 664.305C811.142 668.577 785.178 663.772 763.114 650.741C741.049 637.709 724.307 617.291 715.851 593.101C716.415 592.809 717 592.558 717.601 592.351C728.671 588.491 738.601 599.571 746.861 607.871C764.291 625.381 790.131 634.701 814.471 630.521C838.811 626.341 860.641 608.021 867.281 584.231C873.281 562.821 867.671 538.041 879.641 519.311C883.119 514.015 887.793 509.61 893.285 506.45C898.777 503.291 904.934 501.465 911.261 501.121C921.54 518.095 926.935 537.577 926.851 557.421Z" fill="#37B5FF"/>
<path d="M820.331 672.06C789.956 672.06 760.825 659.993 739.346 638.515C717.868 617.036 705.801 587.905 705.801 557.53C705.801 527.155 717.868 498.024 739.346 476.545C760.825 455.067 789.956 443 820.331 443H820.711C851.086 443.05 880.197 455.165 901.64 476.679C923.083 498.194 935.101 527.345 935.051 557.72C935.001 588.095 922.886 617.206 901.372 638.649C879.857 660.092 850.706 672.11 820.331 672.06ZM820.331 455C793.223 455.049 767.244 465.858 748.102 485.052C728.96 504.246 718.222 530.255 718.246 557.362C718.271 584.47 729.056 610.459 748.233 629.618C767.41 648.778 793.408 659.54 820.516 659.54C847.624 659.54 873.622 648.778 892.799 629.618C911.976 610.459 922.762 584.47 922.786 557.362C922.811 530.255 912.072 504.246 892.93 485.052C873.788 465.858 847.809 455.049 820.701 455H820.331Z" fill="#426572"/>
<path d="M861.861 612.539C829.201 617.169 788.941 605.189 788.941 605.189L769.091 609.139C768.221 609.306 767.324 609.276 766.467 609.048C765.611 608.821 764.817 608.404 764.144 607.827C763.471 607.25 762.937 606.529 762.582 605.718C762.226 604.906 762.058 604.024 762.091 603.139C762.493 588.943 762.129 574.736 761.001 560.579C760.901 559.556 761.071 558.525 761.494 557.588C761.918 556.652 762.58 555.843 763.414 555.242C764.249 554.642 765.226 554.271 766.248 554.167C767.271 554.063 768.303 554.229 769.241 554.649C773.713 556.856 778.615 558.058 783.601 558.169C795.651 558.069 806.171 548.829 811.551 537.859C816.931 526.889 818.151 519.779 819.281 507.579C819.771 502.249 820.551 496.339 824.601 492.919C831.601 486.989 843.121 493.919 845.391 502.869C847.661 511.819 844.031 515.749 840.921 524.479C838.921 530.159 839.361 530.479 837.741 536.329C837.535 536.804 837.433 537.318 837.444 537.835C837.454 538.353 837.576 538.863 837.801 539.329C838.091 539.654 838.445 539.916 838.841 540.099C839.236 540.281 839.665 540.38 840.101 540.389C846.641 541.229 850.931 543.669 857.481 544.389C860.491 544.718 863.35 545.878 865.737 547.739C868.125 549.601 869.948 552.09 871.001 554.929V603.999C871.011 605.17 870.778 606.331 870.317 607.407C869.855 608.483 869.175 609.452 868.32 610.252C867.464 611.052 866.452 611.666 865.347 612.054C864.242 612.443 863.069 612.598 861.901 612.509L861.861 612.539Z" fill="white"/>
</g>
<defs>
<linearGradient id="paint0_linear_333_3187" x1="1.32044" y1="441.052" x2="1254.6" y2="441.052" gradientUnits="userSpaceOnUse">
<stop stop-color="#C5E9FA"/>
<stop offset="1" stop-color="#C4F4EA"/>
</linearGradient>
</defs>
</svg>
