<svg width="1287" height="814" fill="none" xmlns="http://www.w3.org/2000/svg"><mask id="a" style="mask-type:luminance" maskUnits="userSpaceOnUse" x="0" y="0" width="1287" height="814"><path d="M1286.04 0H0v813.89h1286.04V0Z" fill="#fff"/></mask><g mask="url(#a)"><path d="M1218.18 519.322c-45.45 117.68-130.9 220.78-249.589 266.09a431.363 431.363 0 0 1-47.211 14.95c-84.68 21.64-177.32 14.08-255.38-25.26-33.13-16.71-63.34-38.79-96.59-55.26s-71.22-27.25-107.41-19.12c-31.16 7-57.45 27.06-83.92 44.93-62.4 42.13-137.43 75.47-211.32 61-34-6.65-67.48-25.07-83.27-55.86-34.9-68.07 30.92-149 17.59-224.28-8.53-48.18-47.49-84.26-71.71-126.78-41.45-72.73-36.55-169.34 12.05-237.49 48.6-68.15 138.32-104.3 220.58-88.84 100.3 18.85 176.15 103.75 273.69 133.78 61 18.77 127.23 13.17 185.49-11.55 94.13-39.95 223.451-101.22 329.38-91.24 56.33 5.31 111.58 30.31 148.76 73 47 53.89 61.09 130.4 53.25 201.46a563.361 563.361 0 0 1-34.39 140.47Z" fill="url(#b)"/><path d="M1248.42 612.4a25.925 25.925 0 0 1-21.78-11.844 25.99 25.99 0 0 1-3.75-18.759 25.961 25.961 0 0 1 10.14-16.223 25.943 25.943 0 0 1 18.5-4.867 25.926 25.926 0 0 1 16.8 9.137 25.946 25.946 0 0 1 5.98 18.172 25.943 25.943 0 0 1-25.89 24.384Zm-.07-40.18a14.09 14.09 0 0 0-3.29 27.78 14.082 14.082 0 0 0 14.69-5.381 13.987 13.987 0 0 0 2.31-4.984c.44-1.798.52-3.663.23-5.49a13.866 13.866 0 0 0-1.89-5.16 13.948 13.948 0 0 0-3.72-4.043 14.003 14.003 0 0 0-4.98-2.312c-1.1-.274-2.22-.414-3.35-.42v.01Zm-23.6 67.695c1.47-6.081-2.26-12.206-8.34-13.681-6.08-1.474-12.21 2.26-13.68 8.341-1.48 6.081 2.26 12.206 8.34 13.681 6.08 1.474 12.2-2.26 13.68-8.341ZM55.19 609.932a26.094 26.094 0 0 1-25.518-26.369 26.09 26.09 0 1 1 26.659 26.369h-1.14Zm0-40.17h-.59a14.088 14.088 0 0 0-13.784 14.239 14.088 14.088 0 0 0 23.999 9.864 14.088 14.088 0 0 0-9.604-24.103h-.02Zm-18.6 83.955c6.252-.27 11.101-5.556 10.832-11.808-.27-6.251-5.557-11.101-11.808-10.831-6.252.27-11.101 5.556-10.831 11.808.27 6.251 5.556 11.101 11.807 10.831Zm672.49-465.589a26.067 26.067 0 0 1-25.802-22.071 26.073 26.073 0 0 1 17.898-28.855 26.072 26.072 0 0 1 33.12 31.316 26.065 26.065 0 0 1-25.216 19.61Zm-.08-40.13a14.132 14.132 0 0 0-14.129 13.496A14.13 14.13 0 1 0 709 147.998Zm-53.104 38.694c5.123-3.592 6.364-10.658 2.771-15.781-3.593-5.123-10.658-6.364-15.781-2.772-5.124 3.593-6.364 10.659-2.772 15.782 3.593 5.123 10.659 6.364 15.782 2.771Z" fill="#E7F6FF"/><path d="M1286 322.52a41.48 41.48 0 0 0-12.14-29.317 41.47 41.47 0 0 0-29.32-12.143c-.92 0-1.83 0-2.73.09.06-.9.09-1.81.09-2.73a41.485 41.485 0 0 0-3.64-17.138 41.58 41.58 0 0 0-10.4-14.102 41.467 41.467 0 0 0-61.87 8.03 41.316 41.316 0 0 0-6.45 16.29 41.351 41.351 0 0 0 .85 17.5 41.448 41.448 0 0 0-35.18-6.454 41.458 41.458 0 0 0-27.12 23.334 41.458 41.458 0 0 0 1.15 35.752 41.362 41.362 0 0 0 11.82 14.016 41.459 41.459 0 0 0 16.72 7.542 41.463 41.463 0 0 0 11.93 16.948 41.443 41.443 0 0 0 39.33 7.965 41.5 41.5 0 0 0 17.58-10.973 41.463 41.463 0 0 0 51.49-1.216 41.477 41.477 0 0 0 11.17-14.584 41.491 41.491 0 0 0 19.41-15.242 41.49 41.49 0 0 0 7.31-23.568ZM191.45 222.821a41.46 41.46 0 0 0-41.45-41.46c-.92 0-1.83 0-2.73.09a41.447 41.447 0 0 0-3.598-19.815 41.448 41.448 0 0 0-25.668-22.56 41.454 41.454 0 0 0-46.492 16.493 41.466 41.466 0 0 0-5.712 33.692 41.455 41.455 0 0 0-51.385 2.139A41.466 41.466 0 0 0 .02 224.147a41.459 41.459 0 0 0 33.169 39.304 41.46 41.46 0 0 0 68.81 13.94 41.453 41.453 0 0 0 62.66-15.8 41.46 41.46 0 0 0 19.437-15.209 41.476 41.476 0 0 0 7.353-23.561Z" fill="#fff"/><path d="M954.18 812.789h-596.5v-13h596.5a6.5 6.5 0 0 1 0 13Zm-623.179 0h-36.47a6.5 6.5 0 0 1 0-13h36.47a6.5 6.5 0 0 1 0 13Zm-60.141 0h-11.62a6.5 6.5 0 0 1 0-13h11.62a6.5 6.5 0 0 1 0 13Zm892.48 0H980v-13h183.34a6.491 6.491 0 0 1 6.5 6.5 6.491 6.491 0 0 1-6.5 6.5Zm-937.339 0H42.651v-13H226a6.5 6.5 0 0 1 0 13Z" fill="#426572"/><path opacity=".5" d="M798.381 698.141h-619.34v11.83h619.34v-11.83Z" fill="#fff"/><path d="M852.331 328.23H232.99v233.55h619.341V328.23Z" fill="#FDE1CE"/><path d="M851.22 410.641H230.401v67.99H851.22v-67.99Zm0-39.911H230.401v5.17H851.22v-5.17Zm0 123.059H230.401v5.17H851.22v-5.17Zm0 16.633H230.401v5.17H851.22v-5.17Zm0-121.953H230.401v5.17H851.22v-5.17Z" fill="#fff"/><path d="M848.631 328.969h-619.34v11.83h619.34v-11.83Z" fill="#EFC3A6"/><path opacity=".5" d="M848.631 548.48h-619.34v11.83h619.34v-11.83Z" fill="#fff"/><path d="M856.671 566.669h-631.35v-245.54h631.35v245.54Zm-619.34-12h607.34v-221.54h-607.35l.01 221.54Z" fill="#426572"/><path d="m720 507.092 79 14.09c8.44 1.5 16.31-4.25 16.31-11.92v-8.09l-95.31 5.92Zm-130.78 0 79 14.09c8.44 1.5 16.311-4.25 16.311-11.92v-8.09l-95.311 5.92Z" fill="#EFC3A6"/><path d="M653.081 379.781H617c-15.751 0-28.52 12.769-28.52 28.52v71.56c0 15.751 12.769 28.52 28.52 28.52h36.081c15.751 0 28.519-12.769 28.519-28.52v-71.56c0-15.751-12.768-28.52-28.519-28.52Zm130.08 0h-36.08c-15.751 0-28.52 12.769-28.52 28.52v71.56c0 15.751 12.769 28.52 28.52 28.52h36.08c15.751 0 28.52-12.769 28.52-28.52v-71.56c0-15.751-12.769-28.52-28.52-28.52Z" fill="#87D6FE"/><path d="M681.601 394.2v11.46c0-5.82-4.72-12.39-10.54-12.39l-78-5.91c-5.82 0-4.63 6.94-4.63 12.76v-5.92a10.552 10.552 0 0 1 3.098-7.463 10.545 10.545 0 0 1 7.472-3.077h72a10.543 10.543 0 0 1 9.792 6.493 10.53 10.53 0 0 1 .808 4.047Z" fill="#307FC3"/><path opacity=".5" d="M681.23 393.099v17.84l-91.589-23.31a10.537 10.537 0 0 1 9-5.07h72a10.531 10.531 0 0 1 7.484 3.069 10.543 10.543 0 0 1 3.105 7.471Z" fill="#4DA7DF"/><path d="M810.941 394.201v11.46c0-5.82-4.72-12.39-10.54-12.39l-78-5.91c-5.82 0-4.63 6.94-4.63 12.76v-5.92a10.54 10.54 0 0 1 10.54-10.54h72a10.542 10.542 0 0 1 10.63 10.54Z" fill="#307FC3"/><path opacity=".5" d="M810.57 393.101v17.84L719 387.621a10.537 10.537 0 0 1 9-5.07h72a10.55 10.55 0 0 1 7.477 3.08 10.533 10.533 0 0 1 3.093 7.47Z" fill="#4DA7DF"/><path d="M811.68 442.32h-94.23v5h94.23v-5Z" fill="#426572"/><path d="M768.36 378.68h-5v127.86h5V378.68Z" fill="#426572"/><path d="M783.161 515.12h-36.09a34.557 34.557 0 0 1-34.52-34.52V409a34.561 34.561 0 0 1 34.52-34.52h36.09a34.562 34.562 0 0 1 34.52 34.52v71.57a34.557 34.557 0 0 1-34.52 34.55Zm-36.09-128.6a22.54 22.54 0 0 0-22.51 22.48v71.57a22.541 22.541 0 0 0 22.52 22.52h36.09a22.538 22.538 0 0 0 22.52-22.52V409a22.539 22.539 0 0 0-22.52-22.52l-36.1.04Zm-65.471 55.8h-94.23v5h94.23v-5Z" fill="#426572"/><path d="M638.281 378.68h-5v127.86h5V378.68Z" fill="#426572"/><path d="M653.091 515.12H617a34.562 34.562 0 0 1-34.52-34.52V409A34.56 34.56 0 0 1 617 374.52h36.091A34.559 34.559 0 0 1 687.6 409v71.57a34.562 34.562 0 0 1-34.509 34.55ZM617 386.52A22.54 22.54 0 0 0 594.48 409v71.57A22.538 22.538 0 0 0 617 503.12h36.091a22.54 22.54 0 0 0 22.519-22.52V409a22.541 22.541 0 0 0-22.519-22.52l-36.091.04Z" fill="#426572"/><path d="m420.71 507.092 79 14.09c8.44 1.5 16.31-4.25 16.31-11.92v-8.09l-95.31 5.92Zm-130.809 0 79 14.09c8.44 1.5 16.31-4.25 16.31-11.92v-8.09l-95.31 5.92Z" fill="#EFC3A6"/><path d="M353.761 379.781h-36.08c-15.751 0-28.52 12.769-28.52 28.52v71.56c0 15.751 12.769 28.52 28.52 28.52h36.08c15.751 0 28.52-12.769 28.52-28.52v-71.56c0-15.751-12.769-28.52-28.52-28.52Zm130.069 0h-36.08c-15.751 0-28.52 12.769-28.52 28.52v71.56c0 15.751 12.769 28.52 28.52 28.52h36.08c15.751 0 28.52-12.769 28.52-28.52v-71.56c0-15.751-12.769-28.52-28.52-28.52Z" fill="#87D6FE"/><path d="M382.281 394.201v11.46c0-5.82-4.72-12.39-10.54-12.39l-78-5.91c-5.82 0-4.63 6.94-4.63 12.76v-5.92a10.536 10.536 0 0 1 10.54-10.54h72a10.542 10.542 0 0 1 10.63 10.54Z" fill="#307FC3"/><path opacity=".5" d="M381.911 393.099v17.84l-91.59-23.31a10.537 10.537 0 0 1 9-5.07h72a10.531 10.531 0 0 1 7.485 3.069 10.543 10.543 0 0 1 3.105 7.471Z" fill="#4DA7DF"/><path d="M511.62 394.2v11.46c0-5.82-4.72-12.39-10.54-12.39l-78-5.91c-5.82 0-4.63 6.94-4.63 12.76v-5.92A10.54 10.54 0 0 1 429 383.66h72a10.55 10.55 0 0 1 9.81 6.488c.535 1.284.81 2.662.81 4.052Z" fill="#307FC3"/><path opacity=".5" d="M511.251 393.099v17.84l-91.59-23.31a10.537 10.537 0 0 1 9-5.07h72a10.531 10.531 0 0 1 7.485 3.069 10.543 10.543 0 0 1 3.105 7.471Z" fill="#4DA7DF"/><path d="M512.35 442.32h-94.23v5h94.23v-5Z" fill="#426572"/><path d="M469.031 378.68h-5v127.86h5V378.68Z" fill="#426572"/><path d="M483.84 515.12h-36.09a34.557 34.557 0 0 1-34.52-34.52V409a34.561 34.561 0 0 1 34.52-34.52h36.09A34.562 34.562 0 0 1 518.36 409v71.57a34.557 34.557 0 0 1-34.52 34.55Zm-36.09-128.6A22.54 22.54 0 0 0 425.23 409v71.57a22.541 22.541 0 0 0 22.52 22.52h36.09a22.538 22.538 0 0 0 22.52-22.52V409a22.539 22.539 0 0 0-22.52-22.52l-36.09.04Zm-65.469 55.8h-94.23v5h94.23v-5Z" fill="#426572"/><path d="M338.96 378.68h-5v127.86h5V378.68Z" fill="#426572"/><path d="M353.761 515.12h-36.09a34.557 34.557 0 0 1-34.52-34.52V409a34.561 34.561 0 0 1 34.52-34.52h36.09a34.562 34.562 0 0 1 34.52 34.52v71.57a34.557 34.557 0 0 1-34.52 34.55Zm-36.09-128.6a22.54 22.54 0 0 0-22.51 22.48v71.57a22.541 22.541 0 0 0 22.52 22.52h36.09a22.538 22.538 0 0 0 22.52-22.52V409a22.539 22.539 0 0 0-22.52-22.52l-36.1.04Z" fill="#426572"/><path d="M852.331 81.02H232.99v233.55h619.341V81.02Z" fill="#FDE1CE"/><path d="M851.22 166.75H230.401v67.99H851.22v-67.99Zm0-39.91H230.401v5.17H851.22v-5.17Zm0 123.051H230.401v5.17H851.22v-5.17Zm0 16.629H230.401v5.17H851.22v-5.17Zm0-121.942H230.401v5.17H851.22v-5.17Z" fill="#fff"/><path d="M848.631 81.75h-619.34v11.83h619.34V81.75Z" fill="#EFC3A6"/><path opacity=".5" d="M848.631 301.262h-619.34v11.83h619.34v-11.83Z" fill="#fff"/><path d="M856.671 319.45h-631.35V73.91h631.35v245.54Zm-619.34-12h607.34V85.91h-607.35l.01 221.54Z" fill="#426572"/><path d="m720 259.87 79 14.09c8.44 1.5 16.31-4.25 16.31-11.92V254L720 259.87Zm-130.78 0 79 14.09c8.44 1.5 16.311-4.25 16.311-11.92V254l-95.311 5.87Z" fill="#EFC3A6"/><path d="M653.081 132.57H617c-15.751 0-28.52 12.769-28.52 28.52v71.56c0 15.751 12.769 28.52 28.52 28.52h36.081c15.751 0 28.519-12.769 28.519-28.52v-71.56c0-15.751-12.768-28.52-28.519-28.52Zm130.08 0h-36.08c-15.751 0-28.52 12.769-28.52 28.52v71.56c0 15.751 12.769 28.52 28.52 28.52h36.08c15.751 0 28.52-12.769 28.52-28.52v-71.56c0-15.751-12.769-28.52-28.52-28.52Z" fill="#87D6FE"/><path d="M681.601 146.999v11.46c0-5.82-4.72-12.39-10.54-12.39l-78-5.91c-5.82 0-4.63 6.94-4.63 12.76v-5.92a10.545 10.545 0 0 1 3.094-7.47 10.548 10.548 0 0 1 7.476-3.08h72a10.55 10.55 0 0 1 7.495 3.07 10.523 10.523 0 0 1 3.105 7.48Z" fill="#307FC3"/><path opacity=".5" d="M681.23 145.878v17.84l-91.589-23.32a10.545 10.545 0 0 1 9-5.07h72a10.552 10.552 0 0 1 7.489 3.073 10.547 10.547 0 0 1 3.1 7.477Z" fill="#4DA7DF"/><path d="M810.941 147.001v11.46c0-5.82-4.72-12.39-10.54-12.39l-78-5.91c-5.82 0-4.63 6.94-4.63 12.76v-5.92c0-2.795 1.111-5.476 3.087-7.453a10.544 10.544 0 0 1 7.453-3.087h72a10.524 10.524 0 0 1 4.061.777 10.53 10.53 0 0 1 5.758 5.709c.535 1.285.811 2.663.811 4.054Z" fill="#307FC3"/><path opacity=".5" d="M810.57 145.878v17.84L719 140.398a10.545 10.545 0 0 1 9-5.07h72a10.537 10.537 0 0 1 10.57 10.55Z" fill="#4DA7DF"/><path d="M811.68 195.102h-94.23v5h94.23v-5Z" fill="#426572"/><path d="M768.36 131.461h-5v127.86h5v-127.86Z" fill="#426572"/><path d="M783.161 267.901h-36.09a34.562 34.562 0 0 1-34.52-34.52v-71.56a34.561 34.561 0 0 1 34.52-34.52h36.09a34.561 34.561 0 0 1 34.52 34.52v71.57a34.56 34.56 0 0 1-34.52 34.51Zm-36.09-128.6a22.539 22.539 0 0 0-22.52 22.52v71.57a22.539 22.539 0 0 0 22.52 22.52h36.09a22.543 22.543 0 0 0 22.52-22.52v-71.57a22.539 22.539 0 0 0-22.52-22.52h-36.09ZM681.6 195.102h-94.23v5h94.23v-5Z" fill="#426572"/><path d="M638.281 131.461h-5v127.86h5v-127.86Z" fill="#426572"/><path d="M653.091 267.901H617a34.562 34.562 0 0 1-34.52-34.52v-71.56a34.561 34.561 0 0 1 34.52-34.52h36.091a34.559 34.559 0 0 1 34.519 34.52v71.57a34.56 34.56 0 0 1-34.519 34.51ZM617 139.301a22.539 22.539 0 0 0-22.52 22.52v71.57a22.543 22.543 0 0 0 22.52 22.51h36.091a22.54 22.54 0 0 0 22.519-22.52v-71.56a22.539 22.539 0 0 0-22.519-22.52H617Z" fill="#426572"/><path d="m420.71 259.87 79 14.09c8.44 1.5 16.31-4.25 16.31-11.92V254l-95.31 5.87Zm-130.809 0 79 14.09c8.44 1.5 16.31-4.25 16.31-11.92V254l-95.31 5.87Z" fill="#EFC3A6"/><path d="M353.761 132.57h-36.08c-15.751 0-28.52 12.769-28.52 28.52v71.56c0 15.751 12.769 28.52 28.52 28.52h36.08c15.751 0 28.52-12.769 28.52-28.52v-71.56c0-15.751-12.769-28.52-28.52-28.52Zm130.069 0h-36.08c-15.751 0-28.52 12.769-28.52 28.52v71.56c0 15.751 12.769 28.52 28.52 28.52h36.08c15.751 0 28.52-12.769 28.52-28.52v-71.56c0-15.751-12.769-28.52-28.52-28.52Z" fill="#87D6FE"/><path d="M382.281 147.001v11.46c0-5.82-4.72-12.39-10.54-12.39l-78-5.91c-5.82 0-4.63 6.94-4.63 12.76v-5.92a10.54 10.54 0 0 1 10.54-10.54h72a10.524 10.524 0 0 1 4.061.777 10.53 10.53 0 0 1 5.758 5.709 10.53 10.53 0 0 1 .811 4.054Z" fill="#307FC3"/><path opacity=".5" d="M381.911 145.878v17.84l-91.59-23.32a10.545 10.545 0 0 1 9-5.07h72a10.557 10.557 0 0 1 7.489 3.073 10.547 10.547 0 0 1 3.101 7.477Z" fill="#4DA7DF"/><path d="M511.62 147v11.46c0-5.82-4.72-12.39-10.54-12.39l-78-5.91c-5.82 0-4.63 6.94-4.63 12.76V147A10.54 10.54 0 0 1 429 136.45h72a10.519 10.519 0 0 1 4.06.78 10.53 10.53 0 0 1 6.56 9.77Z" fill="#307FC3"/><path opacity=".5" d="M511.251 145.878v17.84l-91.6-23.32a10.545 10.545 0 0 1 9-5.07h72a10.532 10.532 0 0 1 7.495 3.07 10.523 10.523 0 0 1 3.105 7.48Z" fill="#4DA7DF"/><path d="M512.35 195.102h-94.23v5h94.23v-5Z" fill="#426572"/><path d="M469.031 131.461h-5v127.86h5v-127.86Z" fill="#426572"/><path d="M483.84 267.901h-36.09a34.562 34.562 0 0 1-34.52-34.52v-71.56a34.561 34.561 0 0 1 34.52-34.52h36.09a34.561 34.561 0 0 1 34.52 34.52v71.57a34.56 34.56 0 0 1-34.52 34.51Zm-36.09-128.6a22.539 22.539 0 0 0-22.52 22.52v71.57a22.539 22.539 0 0 0 22.52 22.52h36.09a22.543 22.543 0 0 0 22.52-22.52v-71.57a22.539 22.539 0 0 0-22.52-22.52h-36.09Zm-65.469 55.801h-94.23v5h94.23v-5Z" fill="#426572"/><path d="M338.96 131.461h-5v127.86h5v-127.86Z" fill="#426572"/><path d="M353.761 267.901h-36.09a34.562 34.562 0 0 1-34.52-34.52v-71.56a34.561 34.561 0 0 1 34.52-34.52h36.09a34.561 34.561 0 0 1 34.52 34.52v71.57a34.56 34.56 0 0 1-34.52 34.51Zm-36.09-128.6a22.539 22.539 0 0 0-22.52 22.52v71.57a22.539 22.539 0 0 0 22.52 22.52h36.09a22.543 22.543 0 0 0 22.52-22.52v-71.57a22.539 22.539 0 0 0-22.52-22.52h-36.09Z" fill="#426572"/><path d="M363.091 6h-56.94v52.61h56.94V6Z" fill="#DEE6F1"/><path d="M366.93 58.81v.4h-56.94V6.61h3.74v52.2h53.2Z" fill="#fff"/><path d="M358.06 52.14V7.41h-5.05v44.73h5.05Z" fill="#A7BCD5"/><path d="M368.231 64.61h-68.94V0h68.94v64.61Zm-56.94-12h44.94V12h-44.94v40.61Z" fill="#426572"/><path d="M883.971 46.281h-686.55v34.37h686.55v-34.37Z" fill="#E8837E"/><path d="M885.16 45.172H198.61v10.72h686.55v-10.72Z" fill="#D87673"/><path d="M889 85.72H190.46V39.36H889v46.36Zm-686.55-12H877V51.36H202.46l-.01 22.36Z" fill="#426572"/><path d="M883.98 62.262H196.641v5H883.98v-5Z" fill="#426572"/><path d="M233.01 64.02h-4v15.89h4V64.02Zm12.93 0h-4v15.89h4V64.02Zm12.94 0h-4v15.89h4V64.02Zm12.931 0h-4v15.89h4V64.02Zm12.929 0h-4v15.89h4V64.02Zm9.52 0h-4v15.89h4V64.02Zm12.93 0h-4v15.89h4V64.02Zm12.94 0h-4v15.89h4V64.02Zm12.931 0h-4v15.89h4V64.02Zm12.939 0h-4v15.89h4V64.02Zm9.51 0h-4v15.89h4V64.02Zm12.93 0h-4v15.89h4V64.02Zm12.94 0h-4v15.89h4V64.02Zm12.931 0h-4v15.89h4V64.02Zm12.939 0h-4v15.89h4V64.02Zm9.51 0h-4v15.89h4V64.02Zm12.93 0h-4v15.89h4V64.02Zm12.94 0h-4v15.89h4V64.02Zm12.931 0h-4v15.89h4V64.02Zm12.939 0h-4v15.89h4V64.02Zm9.51 0h-4v15.89h4V64.02Zm12.94 0h-4v15.89h4V64.02Zm12.93 0h-4v15.89h4V64.02Zm12.931 0h-4v15.89h4V64.02Zm12.939 0h-4v15.89h4V64.02Zm12.561 0h-4v15.89h4V64.02Zm12.929 0h-4v15.89h4V64.02Zm12.94 0h-4v15.89h4V64.02Zm12.93 0h-4v15.89h4V64.02Zm12.941 0h-4v15.89h4V64.02Zm9.51 0h-4v15.89h4V64.02Zm12.939 0h-4v15.89h4V64.02Zm12.93 0h-4v15.89h4V64.02Zm12.93 0h-4v15.89h4V64.02Zm12.941 0h-4v15.89h4V64.02Zm9.51 0h-4v15.89h4V64.02Zm12.939 0h-4v15.89h4V64.02Zm12.93 0h-4v15.89h4V64.02Zm12.93 0h-4v15.89h4V64.02Zm12.941 0h-4v15.89h4V64.02Zm9.51 0h-4v15.89h4V64.02Zm12.939 0h-4v15.89h4V64.02Zm12.93 0h-4v15.89h4V64.02Zm12.93 0h-4v15.89h4V64.02Zm12.941 0h-4v15.89h4V64.02Zm9.51 0h-4v15.89h4V64.02Zm12.939 0h-4v15.89h4V64.02Zm12.93 0h-4v15.89h4V64.02Zm12.93 0h-4v15.89h4V64.02Zm12.941 0h-4v15.89h4V64.02Z" fill="#426572"/><path d="M852.331 575.449H232.99v233.55h619.341v-233.55Z" fill="#FDE1CE"/><path d="M851.22 657.859H230.401v67.99H851.22v-67.99Zm0-39.91H230.401v5.17H851.22v-5.17Zm0 123.063H230.401v5.17H851.22v-5.17Zm0 16.617H230.401v5.17H851.22v-5.17Zm0-121.938H230.401v5.17H851.22v-5.17Z" fill="#fff"/><path d="M848.631 579.148h-619.34v11.83h619.34v-11.83Z" fill="#EFC3A6"/><path d="M293.421 806.041v-180.33h122.68v180.33" fill="#87D6FE"/><path d="m366.09 624.23-63.88 180.34h-10.7l63.87-180.34h10.71Zm46.48 0-63.869 180.34H329.5l63.87-180.34h19.2Z" fill="#65AEE2"/><path d="M422.111 806.779h-12v-174.33h-110.69v174.33h-12v-186.33h134.69v186.33Z" fill="#426572"/><path d="M856.671 813.89h-631.35V568.34h631.35v245.55Zm-619.34-12h607.34V580.34h-607.35l.01 221.55Z" fill="#426572"/><path d="M864.091 553.871h-648.46c-7.655 0-13.86 6.205-13.86 13.86 0 7.655 6.205 13.86 13.86 13.86h648.46c7.655 0 13.86-6.205 13.86-13.86 0-7.655-6.205-13.86-13.86-13.86Z" fill="#DEE6F1"/><path d="M212.001 555.922h658.74a8.731 8.731 0 0 1 8.73 8.73h-676.18a8.731 8.731 0 0 1 8.73-8.73h-.02Z" fill="#A7BCD5"/><path d="M866 588.111H217.54a19.861 19.861 0 0 1-14.043-33.904 19.86 19.86 0 0 1 14.043-5.816H866a19.86 19.86 0 1 1 0 39.72Zm-648.46-27.73a7.86 7.86 0 1 0 0 15.72H866a7.86 7.86 0 0 0 0-15.72H217.54Z" fill="#426572"/><path d="M864.091 305.539h-648.46c-7.655 0-13.86 6.205-13.86 13.86 0 7.655 6.205 13.86 13.86 13.86h648.46c7.655 0 13.86-6.205 13.86-13.86 0-7.655-6.205-13.86-13.86-13.86Z" fill="#DEE6F1"/><path d="M212.001 307.602h658.74a8.727 8.727 0 0 1 8.73 8.73h-676.18a8.728 8.728 0 0 1 8.71-8.73Z" fill="#A7BCD5"/><path d="M866 339.779H217.54a19.861 19.861 0 0 1-14.043-33.904 19.86 19.86 0 0 1 14.043-5.816H866a19.86 19.86 0 1 1 0 39.72Zm-648.46-27.73a7.86 7.86 0 1 0 0 15.72H866a7.86 7.86 0 0 0 0-15.72H217.54ZM414.62 642.43H297.11v5h117.51v-5Zm-.729 15.519H296.38v5h117.511v-5Z" fill="#426572"/><path d="M331.021 625.34h-5v36.58h5v-36.58Zm54.699 0h-5v36.58h5v-36.58Zm-26.59 35.851h-8v146.34h8v-146.34Z" fill="#426572"/><path d="M621.86 609.82H479.45v152.99h142.41V609.82Z" fill="#87D6FE"/><path d="m563.501 606.941-33.14 152.99h-27.57l33.14-152.99h27.57Zm36.34 0-33.151 152.99h-8.97l33.14-152.99h8.981Z" fill="#65AEE2"/><path d="M520.19 605.531h-5v156.99h5v-156.99Zm35.601 0h-5v156.99h5v-156.99Zm35.61 0h-5v156.99h5v-156.99Z" fill="#426572"/><path d="M626.66 645.922H479.921v5H626.66v-5Zm0 35.598H479.921v5H626.66v-5Zm0 35.609H479.921v5H626.66v-5Z" fill="#426572"/><path d="M630.5 766.52H476.09v-165H630.5v165Zm-142.41-12H618.5v-141H488.09v141Z" fill="#426572"/><path d="M800.51 609.82H658.1v152.99h142.41V609.82Z" fill="#87D6FE"/><path d="m742.15 606.941-33.14 152.99h-27.57l33.14-152.99h27.57Zm34.341 0-33.15 152.99h-8.97l33.14-152.99h8.98Z" fill="#65AEE2"/><path d="M698.841 605.531h-5v156.99h5v-156.99Zm35.599 0h-5v156.99h5v-156.99Zm35.601 0h-5v156.99h5v-156.99Z" fill="#426572"/><path d="M805.311 645.922h-146.74v5h146.74v-5Zm0 35.598h-146.74v5h146.74v-5Zm0 35.609h-146.74v5h146.74v-5Z" fill="#426572"/><path d="M809.151 766.52H654.74v-165h154.411v165Zm-142.411-12h130.411v-141H666.74v141Z" fill="#426572"/><path opacity=".1" d="M914.24 204.25a11.797 11.797 0 0 1-5 1.1h5v-1.1Z" fill="#606060"/><path opacity=".2" d="M629.12 90.352v122.25a12 12 0 0 0 12 12h217.49v-22h55.63V63.352a11.998 11.998 0 0 0-12-12H657.12v39h-28Z" fill="#606060"/><path d="M930.24 29.352h-261c-6.627 0-12 5.372-12 12v147c0 6.627 5.373 12 12 12h261c6.627 0 12-5.373 12-12v-147c0-6.628-5.373-12-12-12Z" fill="#fff"/><path d="M844.24 185.852h-185v11h185v-11Z" fill="#DEE6F1"/><path d="M940.12 189.602v-147a11.998 11.998 0 0 0-12-12h-84.88v171h84.88a12 12 0 0 0 12-12Z" fill="#E8837E"/><path d="M914.24 204.252a11.812 11.812 0 0 1-5 1.1h17a12.008 12.008 0 0 0 8.74-3.79 12.267 12.267 0 0 0 2.77-4.81c.326-1.104.491-2.249.49-3.4v-147a11.998 11.998 0 0 0-12-12h-17a11.998 11.998 0 0 1 12 12v147a11.889 11.889 0 0 1-2.27 7c-.303.439-.637.857-1 1.25-.34.351-.696.685-1.069 1a11.77 11.77 0 0 1-2.661 1.65Z" fill="#D66765"/><path d="M930.12 208.602h-261a18 18 0 0 1-14.66-7.6 17.841 17.841 0 0 1-3.34-10.42V43.602c-.005-.87.056-1.74.18-2.6a18.069 18.069 0 0 1 17.82-15.4h261a17.719 17.719 0 0 1 5.29.8h.34l1 .49a18.118 18.118 0 0 1 11.37 16.71v147a17.996 17.996 0 0 1-10.7 16.4 17.72 17.72 0 0 1-7.3 1.6Zm-261-171a6.001 6.001 0 0 0-6 6v147c0 1.237.388 2.444 1.11 3.45a6.005 6.005 0 0 0 4.89 2.55h261a5.84 5.84 0 0 0 2.4-.51 5.999 5.999 0 0 0 3.6-5.49v-147a6.004 6.004 0 0 0-3-5.19l-1-.48a5.75 5.75 0 0 0-2-.33h-261Z" fill="#426572"/><path d="M851.24 33.352h-12v168h12v-168ZM699.46 146.869c.033-.31.089-.618.17-.92l16.7-54.37a4.227 4.227 0 0 1 2.56-2.58 11.36 11.36 0 0 1 4.63-.9 10.67 10.67 0 0 1 4.67 1 4.508 4.508 0 0 1 2.58 2.9l16.68 54.37c.08.282.137.569.17.86 0 1.267-.777 2.36-2.33 3.28a9.224 9.224 0 0 1-4.75 1.38c-2.133 0-3.4-.75-3.8-2.25l-3.29-11.5h-18.52l-3.22 11.5c-.453 1.494-1.88 2.24-4.28 2.24a10.921 10.921 0 0 1-5.39-1.43c-1.72-.966-2.58-2.16-2.58-3.58Zm17.94-17.57h14.95l-7.52-26.54-7.43 26.54Zm37.51 19.101V92.13a3.002 3.002 0 0 1 1.38-2.42 5.75 5.75 0 0 1 3.54-1h15.3c6.167 0 11.093 1.584 14.78 4.75 3.687 3.167 5.53 8.167 5.53 15v23.6c0 6.86-1.843 11.86-5.53 15-3.687 3.14-8.613 4.724-14.78 4.75h-15.3a5.745 5.745 0 0 1-3.54-1 3.006 3.006 0 0 1-.986-1.035 3.007 3.007 0 0 1-.394-1.375Zm11.24-6.4h9c6.053 0 9.08-3.313 9.08-9.94v-23.6c0-6.626-3.027-9.94-9.08-9.94h-9V142Z" fill="#426572"/><path opacity=".2" d="M829.541 469.08a111.309 111.309 0 1 0 26.808 208.856 111.308 111.308 0 0 0 60.742-117.006 112.483 112.483 0 0 1 4.07 9.09 111.315 111.315 0 0 0-54.08-85.67 111.554 111.554 0 0 0-37.54-15.27Z" fill="#606060"/><path d="M817.33 447.762a108.397 108.397 0 0 0-108.21 108.495 108.401 108.401 0 1 0 108.59-108.495h-.38Z" fill="#87D6FE"/><path d="M926.851 557.421a108.539 108.539 0 0 1-211 35.68 13.052 13.052 0 0 1 1.75-.75c11.07-3.86 21 7.22 29.26 15.52 17.43 17.51 43.27 26.83 67.61 22.65 24.34-4.18 46.17-22.5 52.81-46.29 6-21.41.39-46.19 12.36-64.92a40.468 40.468 0 0 1 31.62-18.19 107.807 107.807 0 0 1 15.59 56.3Z" fill="#37B5FF"/><path d="M820.331 672.06a114.534 114.534 0 0 1-114.53-114.53A114.534 114.534 0 0 1 820.331 443h.38a114.529 114.529 0 0 1 80.661 195.649 114.535 114.535 0 0 1-81.041 33.411Zm0-217.06a102.27 102.27 0 1 0 .37 0h-.37Z" fill="#426572"/><path d="M861.861 612.539c-32.66 4.63-72.92-7.35-72.92-7.35l-19.85 3.95a5.888 5.888 0 0 1-6.509-3.421 5.879 5.879 0 0 1-.491-2.579 395.048 395.048 0 0 0-1.09-42.56c-.1-1.023.07-2.054.493-2.991a5.877 5.877 0 0 1 7.747-2.939 34.169 34.169 0 0 0 14.36 3.52c12.05-.1 22.57-9.34 27.95-20.31 5.38-10.97 6.6-18.08 7.73-30.28.49-5.33 1.27-11.24 5.32-14.66 7-5.93 18.52 1 20.79 9.95 2.27 8.95-1.36 12.88-4.47 21.61-2 5.68-1.56 6-3.18 11.85a3.595 3.595 0 0 0 .06 3 3.183 3.183 0 0 0 2.3 1.06c6.54.84 10.83 3.28 17.38 4a16.31 16.31 0 0 1 13.52 10.54v49.07a8.472 8.472 0 0 1-.684 3.408 8.459 8.459 0 0 1-8.416 5.102l-.04.03Z" fill="#fff"/></g><defs><linearGradient id="b" x1="1.32" y1="441.052" x2="1254.6" y2="441.052" gradientUnits="userSpaceOnUse"><stop stop-color="#C5E9FA"/><stop offset="1" stop-color="#C4F4EA"/></linearGradient></defs></svg>