<svg width="677" height="385" fill="none" xmlns="http://www.w3.org/2000/svg"><mask id="a" style="mask-type:luminance" maskUnits="userSpaceOnUse" x="0" y="0" width="677" height="385"><path d="M676.99 0H0v384.01h676.99V0Z" fill="#fff"/></mask><g mask="url(#a)"><path d="M603.5 207.07h30.4v32.48a15.196 15.196 0 0 1-15.2 15.2 15.198 15.198 0 0 1-15.2-15.2v-32.48Z" fill="#F7BD3D"/><path d="M618.86 256.079a16.431 16.431 0 0 1-16.42-16.42v-32.47a1.216 1.216 0 0 1 .354-.866 1.225 1.225 0 0 1 .866-.354h30.4a1.22 1.22 0 0 1 1.22 1.22v32.47a16.442 16.442 0 0 1-16.42 16.42Zm-14-47.68v31.26a14 14 0 1 0 28 0v-31.26h-28Z" fill="#181828"/><path d="M585.23 168.901a61.109 61.109 0 0 0-12-21.92c11-4.5 23.31-3.22 32.37 4.56" fill="#F7BD3D"/><path opacity=".48" d="M601.05 157.521c-2.43-8.05-19.31-10.2-28.95-9.36 11-4.5 23.31-3.22 32.37 4.56" fill="#fff"/><path d="M574.58 146.18c.44.51-1.37 1.19-.94 1.73 10.1-3.5 21.09-2.45 29.51 4.11l1.56-1.14c-9.01-7.74-19.05-9.21-30.13-4.7Z" fill="#D39021"/><path d="m590.78 164.391-5.78 4.61a61.132 61.132 0 0 0-11.2-22.31 60.913 60.913 0 0 1 16.98 17.7Z" fill="#181828"/><path d="M586.21 159.001a.996.996 0 0 1-.8-.44c-4.91-8.05-11.82-9.68-11.93-9.68a.932.932 0 0 1-.71-1.07 1 1 0 0 1 1.08-.71c.31.07 7.79 1.84 13.11 10.54a.913.913 0 0 1 .114.697.923.923 0 0 1-.414.573.997.997 0 0 1-.45.09Z" fill="#181828"/><path d="M588.78 149.939a7.175 7.175 0 0 0-2.63-.62.322.322 0 0 1-.114-.027.29.29 0 0 1-.157-.168.302.302 0 0 1-.019-.115.31.31 0 0 1 .31-.29 7.99 7.99 0 0 1 2.86.65.303.303 0 0 1 .165.171.308.308 0 0 1-.005.239.326.326 0 0 1-.069.1.327.327 0 0 1-.103.065.322.322 0 0 1-.238-.005Z" fill="#fff"/><path opacity=".61" d="M583.07 148.472c.012-.596-.583-1.091-1.329-1.105-.745-.015-1.359.457-1.37 1.053-.012.597.583 1.092 1.328 1.106.746.015 1.359-.457 1.371-1.054Z" fill="#fff"/><path d="M584.67 170.12a1.21 1.21 0 0 1-1.16-.87 59.49 59.49 0 0 0-11.72-21.48 1.216 1.216 0 0 1-.25-1.07 1.203 1.203 0 0 1 .72-.84c11.92-4.87 24.49-3.09 33.63 4.76a1.217 1.217 0 0 1 .42.828 1.207 1.207 0 0 1-.29.882 1.217 1.217 0 0 1-1.72.13c-8-6.89-19-8.69-29.56-4.94a61.722 61.722 0 0 1 11.1 21 1.22 1.22 0 0 1-.095.926 1.202 1.202 0 0 1-.725.584.99.99 0 0 1-.35.09Z" fill="#181828"/><path opacity=".2" d="M645.38 180.889a2.69 2.69 0 0 1-2.69-2.68v-15.21a2.69 2.69 0 1 1 5.38 0v15.22a2.68 2.68 0 0 1-2.68 2.7l-.01-.03Zm0-22.171a2.69 2.69 0 0 1-2.69-2.69v-5.69a2.69 2.69 0 1 1 5.38 0v5.66a2.687 2.687 0 0 1-.774 1.925 2.68 2.68 0 0 1-1.916.795Z" fill="#113C47"/><path d="M650.18 160.47a60.689 60.689 0 0 1 11.94-21.92c-11-4.5-23.32-3.23-32.38 4.56" fill="#F7BD3D"/><path opacity=".48" d="M631.27 154.46c2.42-8.05 18.52-16.64 30.85-15.91-11-4.5-23.32-3.23-32.38 4.56" fill="#fff"/><path d="M630.12 149.402c2.42-8.05 22.41-14.4 32.37-10.48-11-4.49-23.31-3.22-32.37 4.57" fill="#fff"/><path d="m646.3 151.072 5.14 7.34c2.15-8.13 5.86-14 11.09-20.56l.1-1.75c-6.78 4.68-11.97 7.99-16.33 14.97Z" fill="#181828"/><path d="M615.4 142.719h6.12a35.458 35.458 0 0 1 25.087 10.385A35.47 35.47 0 0 1 657 178.189a35.48 35.48 0 0 1-21.901 32.782 35.484 35.484 0 0 1-13.579 2.698h-6.12a35.484 35.484 0 0 1-25.091-10.389 35.48 35.48 0 0 1 11.514-57.864 35.458 35.458 0 0 1 13.577-2.697Z" fill="#F7BD3D"/><path d="M615.4 142.719h6.12a35.458 35.458 0 0 1 25.087 10.385A35.47 35.47 0 0 1 657 178.189c-4.23-15.44-15.3-31.14-34.89-31.14H616c-19.59 0-29.82 13.42-36.06 31.14a35.47 35.47 0 0 1 35.46-35.47Z" fill="#fff"/><path d="M657.57 177.762a35.47 35.47 0 0 1-35.47 35.47H616a35.47 35.47 0 0 1-35.47-35.47c0-.76 0-1.52.07-2.27a35.469 35.469 0 0 0 35.47 33.21h6.13a35.459 35.459 0 0 0 35.4-33.21c-.05.75-.03 1.51-.03 2.27Z" fill="#DF8A3A"/><path d="M652.77 197.229c-7.41-1.75-6.87-.88-13.6-8.53 0 0-2 9.61 5.58 15.2l8.02-6.67Z" fill="#181828"/><path d="M646.41 202.39s-5.81-.82-11.32-6.66c0 0-1.25 7.92 4.41 12.09l6.91-5.43Zm19.89-15.448a1.002 1.002 0 0 1-.77-.42c-1.77-2.68-3.45-2.93-6.26-3.32a33.653 33.653 0 0 1-3.74-.69 33.654 33.654 0 0 0-5.37-.89.995.995 0 0 1-.84-1 .92.92 0 0 1 .322-.631.89.89 0 0 1 .318-.173c.116-.036.239-.048.36-.036 1.912.155 3.808.466 5.67.93a30.76 30.76 0 0 0 3.55.66c2.85.41 5.31.75 7.52 4.12a.94.94 0 0 1 .001 1.043.94.94 0 0 1-.261.257.996.996 0 0 1-.51.16l.01-.01Zm9.75 9.197a.936.936 0 0 1-.78-.42c-1.75-2.66-8.95-5.77-19.74-8.6a34.96 34.96 0 0 0-5.37-.88.941.941 0 0 1 .17-1.86 36.26 36.26 0 0 1 5.67.94c8.06 2.09 18.27 5.38 20.83 9.34a.927.927 0 0 1 .008 1.034.938.938 0 0 1-.258.256.888.888 0 0 1-.53.19Zm-11.6 2.011h-.16a13.495 13.495 0 0 1-8-4.15 15.972 15.972 0 0 0-3.85-2.88 34.566 34.566 0 0 0-5.07-2 .932.932 0 0 1-.542-.455.935.935 0 0 1-.058-.705.94.94 0 0 1 1.16-.6 38.409 38.409 0 0 1 5.38 2.15 19.04 19.04 0 0 1 4.29 3.17c1.86 1.71 3.47 3.23 7 3.68a.94.94 0 0 1-.14 1.86l-.01-.07Zm-93.53-11.208a.994.994 0 0 0 .78-.42c1.76-2.68 3.45-2.93 6.25-3.32a33.653 33.653 0 0 0 3.74-.69 33.767 33.767 0 0 1 5.37-.89 1 1 0 0 0 .84-1 .92.92 0 0 0-.322-.631.915.915 0 0 0-.678-.209 35.197 35.197 0 0 0-5.67.93 30.8 30.8 0 0 1-3.55.66c-2.85.41-5.31.75-7.52 4.12a.926.926 0 0 0-.001 1.043.94.94 0 0 0 .261.257.993.993 0 0 0 .51.16l-.01-.01Zm-9.75 9.197a.939.939 0 0 0 .78-.42c1.75-2.66 8.95-5.77 19.74-8.6a34.96 34.96 0 0 1 5.37-.88.942.942 0 0 0-.17-1.86 36.26 36.26 0 0 0-5.67.94c-8.06 2.09-18.27 5.38-20.83 9.34a.91.91 0 0 0-.146.697.914.914 0 0 0 .396.593.886.886 0 0 0 .53.19Zm11.6 2.011h.16a13.495 13.495 0 0 0 8-4.15 16.19 16.19 0 0 1 3.86-2.88 33.966 33.966 0 0 1 5.06-2 .932.932 0 0 0 .542-.455.935.935 0 0 0 .058-.705.94.94 0 0 0-1.16-.6 38.409 38.409 0 0 0-5.38 2.15 19.017 19.017 0 0 0-4.29 3.17c-1.86 1.71-3.46 3.23-7 3.68a.935.935 0 0 0-.562.354.939.939 0 0 0 .702 1.506l.01-.07Z" fill="#181828"/><path d="M603.63 158.309h-.02c-6.567 0-11.89 5.323-11.89 11.89v5.19c0 6.566 5.323 11.89 11.89 11.89h.02c6.566 0 11.89-5.324 11.89-11.89v-5.19c0-6.567-5.324-11.89-11.89-11.89Z" fill="#fff"/><path d="M603.35 182.51a8.79 8.79 0 1 0 0-17.58 8.79 8.79 0 0 0 0 17.58Z" fill="#181828"/><path opacity=".2" d="M605.84 179.69a2.22 2.22 0 1 0 0-4.44 2.22 2.22 0 0 0 0 4.44Z" fill="#fff"/><path d="M601.53 173.729c2.458 0 4.45-1.518 4.45-3.39s-1.992-3.39-4.45-3.39-4.45 1.518-4.45 3.39 1.992 3.39 4.45 3.39Zm33.2-15.42h-.02c-6.567 0-11.89 5.323-11.89 11.89v5.19c0 6.566 5.323 11.89 11.89 11.89h.02c6.566 0 11.89-5.324 11.89-11.89v-5.19c0-6.567-5.324-11.89-11.89-11.89Z" fill="#fff"/><path d="M634.45 182.51a8.79 8.79 0 1 0 0-17.58 8.79 8.79 0 0 0 0 17.58Z" fill="#181828"/><path opacity=".2" d="M636.94 179.69a2.22 2.22 0 1 0 0-4.44 2.22 2.22 0 0 0 0 4.44Z" fill="#fff"/><path d="M632.62 173.729c2.458 0 4.45-1.518 4.45-3.39s-1.992-3.39-4.45-3.39-4.45 1.518-4.45 3.39 1.992 3.39 4.45 3.39Zm-29.88-21.538a26.464 26.464 0 0 1 5.66-1.95 29.646 29.646 0 0 1 5.93-.69.637.637 0 0 1 .64.62.63.63 0 0 1-.59.63 29.499 29.499 0 0 0-5.61 1 32.52 32.52 0 0 0-5.33 1.92.829.829 0 0 1-1.09-.42.82.82 0 0 1 .39-1.11Zm17.184-2.07c.012-.596-.583-1.092-1.329-1.106-.745-.014-1.359.457-1.37 1.054-.012.596.583 1.091 1.328 1.106.746.014 1.359-.458 1.371-1.054Z" fill="#fff"/><path d="M621.52 214.891h-6.12a36.703 36.703 0 0 1-37.306-36.695 36.708 36.708 0 0 1 10.964-26.164 36.714 36.714 0 0 1 26.342-10.531h6.12a36.703 36.703 0 0 1 37.306 36.695 36.704 36.704 0 0 1-23.077 34.078 36.703 36.703 0 0 1-14.229 2.617Zm-6.12-71a34.262 34.262 0 0 0-24.226 58.486 34.261 34.261 0 0 0 24.226 10.034h6.12a34.259 34.259 0 1 0 0-68.52h-6.12Z" fill="#181828"/><path d="M652.35 160.221a1.31 1.31 0 0 1-.28 0 1.222 1.222 0 0 1-.76-.54 1.226 1.226 0 0 1-.15-.92 57.793 57.793 0 0 1 8.94-20.92c-10.81-3.06-21.62-.57-29.18 6.83a1.231 1.231 0 0 1-.87.365 1.213 1.213 0 0 1-.871-.365 1.217 1.217 0 0 1 .031-1.74c8.61-8.41 21-11 33.26-6.91a1.234 1.234 0 0 1 .807 1.364c-.031.19-.105.37-.217.526-4.57 6.11-7.51 12.71-9.53 21.4a1.215 1.215 0 0 1-1.18.91Z" fill="#181828"/><path d="M624.94 206.12c1.431 0 2.59-.435 2.59-.97 0-.536-1.159-.97-2.59-.97-1.43 0-2.59.434-2.59.97 0 .535 1.16.97 2.59.97Zm-4.9.239a1 1 0 1 0 0-2 1 1 0 0 0 0 2Z" fill="#DF8A3A"/><path d="M644.652 145.78c.871-.503 1.377-1.255 1.131-1.681-.245-.425-1.15-.363-2.021.139-.87.503-1.377 1.256-1.131 1.681.246.426 1.151.364 2.021-.139Zm1.648 1.27a.41.41 0 1 0 .001-.819.41.41 0 0 0-.001.819Z" fill="#fff"/><path d="M617.76 185.469a1.743 1.743 0 0 0-1.597 1.017 1.736 1.736 0 0 0 .277 1.873c.79.87 1.93 1.91 3.2 1.91 1.27 0 2.41-1 3.19-1.91a1.736 1.736 0 0 0-.16-2.46 1.796 1.796 0 0 0-1.1-.43h-3.81Z" fill="#181828"/><path d="M399.95 323.789h-23.87v2.17h23.87v-2.17Zm2.32-25.078-.21 2.44h-29.23l-.21-2.44h29.65Z" fill="#C0DBE2"/><path d="M396.56 346.711h-17.69a3.201 3.201 0 0 1-3.17-2.92l-3.81-46.08a1 1 0 0 1 1-1.09h29.65a.995.995 0 0 1 .74.32c.096.102.17.224.217.356.046.133.064.274.053.414l-2.55 30.36a1.003 1.003 0 0 1-2-.16l2.42-29.28H374l3.73 45a1.173 1.173 0 0 0 1.16 1.07h17.69a1.169 1.169 0 0 0 1.16-1.07l.93-11.2a.997.997 0 0 1 1.09-.92c.132.01.261.046.379.107a.983.983 0 0 1 .499.591c.04.127.054.26.042.392l-.93 11.19a3.202 3.202 0 0 1-3.19 2.92Z" fill="#181828"/><path d="M407.25 293.281h-39.06v4.7h39.06v-4.7Z" fill="#fff"/><path d="M404.89 299.16h-34.35a3.32 3.32 0 0 1 0-6.64h34.35a3.316 3.316 0 0 1 3.32 3.32c0 .88-.35 1.725-.973 2.347a3.317 3.317 0 0 1-2.347.973Zm-34.35-4.7a1.38 1.38 0 1 0 0 2.76h34.35a1.38 1.38 0 0 0 0-2.76h-34.35Z" fill="#181828"/><path d="M373.8 294.179a.72.72 0 0 1-.68-.76c0-.22.36-5.38 4.8-7.07a.731.731 0 0 1 1 .68v6a.72.72 0 0 1-1.44 0v-4.84c-2.67 1.7-2.9 5.28-2.91 5.32a.7.7 0 0 1-.243.498.715.715 0 0 1-.527.172Z" fill="#181828"/><path d="M392.19 305.279a.2.2 0 1 0 0-.4.2.2 0 0 0 0 .4Z" fill="#fff"/><path d="M394.3 303.319a1.56 1.56 0 1 0 0-3.12 1.56 1.56 0 0 0 0 3.12Zm3.08 1.561a.44.44 0 1 0 0-.88.44.44 0 0 0 0 .88Zm1.19-2.58a.41.41 0 1 0 .001-.819.41.41 0 0 0-.001.819Zm-7.16-.211a.98.98 0 1 0 0-1.96.98.98 0 0 0 0 1.96Zm3.19 5.561a.37.37 0 1 0 0-.74.37.37 0 0 0 0 .74Z" fill="#C0DBE2"/><path d="m370.95 305.891 1.27 16.63h31.41l1.45-16.63h-34.13Z" fill="#F7B14B"/><path d="M403.45 324.07H372a1 1 0 0 1-1-.93l-1.26-16.63a1.003 1.003 0 0 1 1-1.08h34.12a.992.992 0 0 1 .75.32 1.005 1.005 0 0 1 .26.77l-1.45 16.63a1.003 1.003 0 0 1-.97.92Zm-30.48-2h29.56l1.27-14.62h-31.94l1.11 14.62Z" fill="#181828"/><path d="M381.05 311.24h-9a.471.471 0 0 1 0-.93h9a.473.473 0 0 1 .496.66.462.462 0 0 1-.296.256.483.483 0 0 1-.2.014Z" fill="#181828"/><path opacity=".7" d="M380.298 318.84c1.437-1.437 1.687-3.517.559-4.645-1.129-1.129-3.209-.879-4.646.558-1.437 1.437-1.687 3.517-.559 4.646 1.129 1.129 3.209.879 4.646-.559Zm4.52-3.605c.562-.563.657-1.38.212-1.825-.445-.445-1.262-.35-1.824.212-.563.563-.658 1.38-.212 1.825.445.445 1.262.35 1.824-.212Z" fill="#fff"/><path d="M322.51 327.961H210.13v17.46h112.38v-17.46Z" fill="#91DCDC"/><path d="M322.51 327.961H210.13v4.12h112.38v-4.12Z" fill="#5BA3BA"/><path d="M322.52 346.881H210.13a1.453 1.453 0 0 1-1.343-.902 1.443 1.443 0 0 1-.107-.558v-17.42a1.45 1.45 0 0 1 1.45-1.45h112.39a1.453 1.453 0 0 1 1.48 1.45v17.46a1.463 1.463 0 0 1-.446 1.017 1.453 1.453 0 0 1-1.034.403Zm-110.93-2.88h109.47v-14.58H211.59v14.58Z" fill="#181828"/><path d="M115.69 353.621h516.7a30.24 30.24 0 0 1-30.24 30.24H145.94a30.24 30.24 0 0 1-30.24-30.24h-.01Z" fill="#F7B14B"/><path d="M631.59 360.301a28.345 28.345 0 0 1-1.23 4H117.73a28.345 28.345 0 0 1-1.23-4h515.09Z" fill="#D17E1C"/><path d="M602.15 383.999H145.94a31.436 31.436 0 0 1-31.4-31.4 1.16 1.16 0 0 1 2.31 0 29.12 29.12 0 0 0 29.09 29.09h456.21a29.12 29.12 0 0 0 29.09-29.09 1.149 1.149 0 1 1 2.3 0 31.43 31.43 0 0 1-31.39 31.4Z" fill="#181828"/><path d="M647.38 220.969h-62.69c-8.947 0-16.2 7.253-16.2 16.2v91.74c0 8.947 7.253 16.2 16.2 16.2h62.69c8.947 0 16.2-7.253 16.2-16.2v-91.74c0-8.947-7.253-16.2-16.2-16.2Z" fill="#6F6372"/><path d="M595.82 344.38h-11.14a16.19 16.19 0 0 1-16.19-16.19v-91.74a16.18 16.18 0 0 1 4.738-11.455 16.195 16.195 0 0 1 11.452-4.745h11.14a16.2 16.2 0 0 0-16.2 16.2v91.74a16.195 16.195 0 0 0 4.745 11.452 16.206 16.206 0 0 0 11.455 4.738Z" fill="#63456B"/><path opacity=".5" d="M616.03 264.32c5.611 0 10.16-4.549 10.16-10.16S621.641 244 616.03 244s-10.16 4.549-10.16 10.16 4.549 10.16 10.16 10.16Z" fill="#181828"/><path opacity=".5" d="M616.03 261.349a7.19 7.19 0 1 0 0-14.38 7.19 7.19 0 0 0 0 14.38Z" fill="#181828"/><path d="M616 265.541a11.376 11.376 0 0 1-11.161-13.6 11.383 11.383 0 0 1 20.623-4.102 11.375 11.375 0 0 1 1.918 6.322 11.398 11.398 0 0 1-11.38 11.38Zm0-20.33a8.95 8.95 0 1 0 9 8.95 9 9 0 0 0-9-8.95Z" fill="#181828"/><path opacity=".5" d="M616.03 319.85c12.228 0 22.14-9.912 22.14-22.14 0-12.227-9.912-22.14-22.14-22.14-12.227 0-22.14 9.913-22.14 22.14 0 12.228 9.913 22.14 22.14 22.14Z" fill="#181828"/><path opacity=".5" d="M616.03 313.359c8.643 0 15.65-7.007 15.65-15.65 0-8.644-7.007-15.65-15.65-15.65s-15.65 7.006-15.65 15.65c0 8.643 7.007 15.65 15.65 15.65Z" fill="#181828"/><path d="M616 321.4a23.689 23.689 0 0 1-23.235-28.312 23.69 23.69 0 0 1 46.925 4.622A23.72 23.72 0 0 1 616 321.4Zm0-44.28a20.586 20.586 0 0 0-19.023 12.71 20.587 20.587 0 0 0 4.464 22.439 20.595 20.595 0 0 0 22.439 4.463 20.584 20.584 0 0 0 6.674-33.576A20.612 20.612 0 0 0 616 277.12Zm-25.77-40.648a3.733 3.733 0 0 1-3.669-4.456 3.729 3.729 0 0 1 5.091-2.718 3.726 3.726 0 0 1 2.298 3.454 3.733 3.733 0 0 1-3.72 3.72Zm0-5.59a1.868 1.868 0 0 0-1.336 3.188 1.869 1.869 0 1 0 1.336-3.188Zm51.61 5.59a3.733 3.733 0 0 1-3.669-4.456 3.729 3.729 0 0 1 5.091-2.718 3.726 3.726 0 0 1 2.298 3.454 3.73 3.73 0 0 1-3.72 3.72Zm0-5.59a1.874 1.874 0 0 0-1.735 1.147 1.87 1.87 0 1 0 1.735-1.147Z" fill="#181828"/><path d="M616.03 233.49a3.54 3.54 0 1 0 0-7.08 3.54 3.54 0 0 0 0 7.08Z" fill="#F04D6A"/><path d="M616 234.42a4.466 4.466 0 0 1-4.123-2.766A4.47 4.47 0 1 1 616 234.42Zm0-7.08a2.61 2.61 0 1 0 .001 5.219 2.61 2.61 0 0 0-.001-5.219Zm-25.77 110.272a3.719 3.719 0 1 1 3.72-3.72 3.73 3.73 0 0 1-3.72 3.72Zm0-5.58a1.865 1.865 0 0 0-1.719 1.148 1.865 1.865 0 0 0 .404 2.027 1.86 1.86 0 0 0 3.175-1.315 1.853 1.853 0 0 0-.534-1.335 1.868 1.868 0 0 0-1.326-.555v.03Zm51.61 5.58a3.719 3.719 0 1 1 3.72-3.72 3.73 3.73 0 0 1-3.72 3.72Zm0-5.58a1.861 1.861 0 0 0-1.824 2.223 1.86 1.86 0 0 0 3.684-.363 1.853 1.853 0 0 0-.534-1.335 1.863 1.863 0 0 0-1.326-.555v.03Z" fill="#181828"/><path d="M582.16 273.649a2.18 2.18 0 1 0-4.36 0v14.73a2.18 2.18 0 1 0 4.36 0v-14.73Z" fill="#63456B"/><path d="M662.27 250.2a2.18 2.18 0 1 0-4.36 0v14.73a2.18 2.18 0 1 0 4.36 0V250.2Zm-1.62 57.999h-1.12a1.62 1.62 0 0 0-1.62 1.62v15.85c0 .895.726 1.62 1.62 1.62h1.12a1.62 1.62 0 0 0 1.62-1.62v-15.85a1.62 1.62 0 0 0-1.62-1.62Z" fill="#928F93"/><path d="M647.38 346.662h-62.69a17.766 17.766 0 0 1-12.545-5.205 17.766 17.766 0 0 1-5.205-12.545v-91.74a17.766 17.766 0 0 1 5.205-12.545 17.766 17.766 0 0 1 12.545-5.205h62.69a17.766 17.766 0 0 1 12.545 5.205 17.766 17.766 0 0 1 5.205 12.545v91.74a17.766 17.766 0 0 1-5.205 12.545 17.766 17.766 0 0 1-12.545 5.205Zm-62.69-124.13a14.666 14.666 0 0 0-13.566 9.029 14.68 14.68 0 0 0-1.124 5.611v91.74a14.662 14.662 0 0 0 14.65 14.65h62.69a14.662 14.662 0 0 0 14.66-14.65v-91.74a14.655 14.655 0 0 0-4.294-10.346 14.655 14.655 0 0 0-10.346-4.294h-62.67Z" fill="#181828"/><path d="M171.91 220.969h-62.69c-8.947 0-16.2 7.253-16.2 16.2v91.74c0 8.947 7.253 16.2 16.2 16.2h62.69c8.947 0 16.2-7.253 16.2-16.2v-91.74c0-8.947-7.253-16.2-16.2-16.2Z" fill="#6F6372"/><path d="M120.35 344.38h-11.13a16.187 16.187 0 0 1-14.985-9.987A16.194 16.194 0 0 1 93 328.19v-91.74a16.199 16.199 0 0 1 16.2-16.2h11.13a16.2 16.2 0 0 0-16.2 16.2v91.74a16.197 16.197 0 0 0 16.22 16.19Z" fill="#63456B"/><path opacity=".5" d="M140.57 264.32c5.611 0 10.16-4.549 10.16-10.16S146.181 244 140.57 244s-10.16 4.549-10.16 10.16 4.549 10.16 10.16 10.16Z" fill="#181828"/><path opacity=".5" d="M140.57 261.349a7.19 7.19 0 1 0 0-14.38 7.19 7.19 0 0 0 0 14.38Z" fill="#181828"/><path d="M140.57 265.541a11.385 11.385 0 0 1-10.478-7.059 11.376 11.376 0 0 1 2.499-12.385 11.374 11.374 0 0 1 12.395-2.445 11.38 11.38 0 0 1 6.14 14.874 11.382 11.382 0 0 1-6.188 6.161c-1.385.569-2.87.859-4.368.854Zm0-20.33a8.95 8.95 0 1 0 8.94 8.95 8.996 8.996 0 0 0-2.633-6.31 8.996 8.996 0 0 0-6.307-2.64Z" fill="#181828"/><path opacity=".5" d="M140.57 319.85c12.228 0 22.14-9.912 22.14-22.14 0-12.227-9.912-22.14-22.14-22.14-12.227 0-22.14 9.913-22.14 22.14 0 12.228 9.913 22.14 22.14 22.14Z" fill="#181828"/><path opacity=".5" d="M140.57 313.359c8.643 0 15.65-7.007 15.65-15.65 0-8.644-7.007-15.65-15.65-15.65s-15.65 7.006-15.65 15.65c0 8.643 7.007 15.65 15.65 15.65Z" fill="#181828"/><path d="M140.57 321.4a23.692 23.692 0 0 1-23.235-28.312 23.689 23.689 0 0 1 46.925 4.622 23.72 23.72 0 0 1-23.69 23.69Zm0-44.28a20.591 20.591 0 0 0-4.031 40.783 20.594 20.594 0 0 0 21.14-8.753 20.59 20.59 0 0 0 3.471-11.44 20.608 20.608 0 0 0-20.58-20.59Zm-25.81-40.648a3.73 3.73 0 1 1-.018-7.46 3.73 3.73 0 0 1 .018 7.46Zm0-5.59a1.874 1.874 0 0 0-1.735 1.147 1.87 1.87 0 1 0 1.735-1.147Zm51.61 5.59c-.738 0-1.46-.219-2.073-.63a3.726 3.726 0 0 1-1.584-3.832 3.729 3.729 0 0 1 7.387.742 3.73 3.73 0 0 1-3.73 3.72Zm0-5.59a1.874 1.874 0 0 0-1.735 1.147 1.87 1.87 0 1 0 1.735-1.147Zm-51.61 106.73a3.719 3.719 0 1 1 3.72-3.72 3.73 3.73 0 0 1-3.72 3.72Zm0-5.58a1.861 1.861 0 0 0-1.824 2.223 1.86 1.86 0 0 0 3.684-.363 1.853 1.853 0 0 0-.534-1.335 1.868 1.868 0 0 0-1.326-.555v.03Zm51.61 5.58a3.722 3.722 0 0 1-3.637-4.452 3.725 3.725 0 0 1 2.925-2.917 3.717 3.717 0 0 1 3.346 6.28 3.73 3.73 0 0 1-2.634 1.089Zm0-5.58a1.861 1.861 0 0 0-1.824 2.223 1.86 1.86 0 0 0 3.684-.363 1.853 1.853 0 0 0-.534-1.335 1.863 1.863 0 0 0-1.326-.555v.03Z" fill="#181828"/><path d="M106.69 273.649a2.18 2.18 0 1 0-4.36 0v14.73a2.18 2.18 0 1 0 4.36 0v-14.73Z" fill="#63456B"/><path d="M185.18 248.02h-1.12a1.62 1.62 0 0 0-1.62 1.62v15.85c0 .894.725 1.62 1.62 1.62h1.12a1.62 1.62 0 0 0 1.62-1.62v-15.85a1.62 1.62 0 0 0-1.62-1.62Zm0 60.179h-1.12a1.62 1.62 0 0 0-1.62 1.62v15.85c0 .895.725 1.62 1.62 1.62h1.12a1.62 1.62 0 0 0 1.62-1.62v-15.85a1.62 1.62 0 0 0-1.62-1.62Z" fill="#928F93"/><path d="M171.91 346.662h-62.69a17.768 17.768 0 0 1-17.75-17.75v-91.74a17.768 17.768 0 0 1 17.75-17.75h62.69a17.767 17.767 0 0 1 17.75 17.75v91.74a17.77 17.77 0 0 1-17.75 17.75Zm-62.69-124.13a14.658 14.658 0 0 0-14.64 14.64v91.74a14.662 14.662 0 0 0 14.64 14.65h62.69a14.662 14.662 0 0 0 14.65-14.65v-91.74a14.663 14.663 0 0 0-14.65-14.64h-62.69Z" fill="#181828"/><path d="M331.21 343.91a17.992 17.992 0 0 1 17.96-19.199 17.997 17.997 0 0 1 17.96 19.199" fill="#83C3DB"/><path d="M352.41 326.07a18.002 18.002 0 0 0-15.82 17.84h-4.29a18 18 0 0 1 18-18c.706.009 1.411.063 2.11.16Z" fill="#C0F3FF"/><path d="M367.13 345.15a1.242 1.242 0 0 1-1.23-1.24 16.632 16.632 0 0 0-2.71-9.12 1.243 1.243 0 0 1 2.08-1.36 19.159 19.159 0 0 1 3.1 10.48 1.24 1.24 0 0 1-1.24 1.24Zm-35.92.001a1.25 1.25 0 0 1-.877-.363 1.24 1.24 0 0 1-.363-.877 19.199 19.199 0 0 1 31.21-15 1.242 1.242 0 0 1-.137 2.109 1.236 1.236 0 0 1-1.413-.179 16.581 16.581 0 0 0-10.46-3.67 16.753 16.753 0 0 0-16.73 16.73 1.252 1.252 0 0 1-.356.88 1.25 1.25 0 0 1-.874.37Z" fill="#181828"/><path d="M488.94 54.371a25.944 25.944 0 0 1-25.935 25.431 25.942 25.942 0 0 1-25.935-25.43c0-14.33 11.61-27.18 25.93-27.18s25.94 12.81 25.94 27.18Z" fill="#E89176"/><path d="M487.66 55.168a25.653 25.653 0 0 1-.75 5.57h-1.16a51.462 51.462 0 0 1-36.52-15.13 52.217 52.217 0 0 1-6.82-8.42 25.135 25.135 0 0 1 2.32-2.29 51.135 51.135 0 0 0 4.5 5.14 51.47 51.47 0 0 0 36.52 15.13h1.91Z" fill="#CE7057"/><path d="M463 81.67a27.29 27.29 0 0 1-24-14.35 1.371 1.371 0 0 1-.105-1.037 1.364 1.364 0 0 1 2.505-.253 24.58 24.58 0 0 0 46.21-11.66c0-14-11.26-25.82-24.58-25.82-13.32 0-24.57 11.82-24.57 25.82a24.77 24.77 0 0 0 .83 6.37 1.372 1.372 0 0 1-.138 1.033 1.35 1.35 0 0 1-.827.632 1.362 1.362 0 0 1-1.665-.965 27.05 27.05 0 0 1-.93-7.07c0-15.48 12.5-28.55 27.3-28.55s27.31 13.07 27.31 28.55A27.342 27.342 0 0 1 463 81.67Z" fill="#181828"/><path d="M521.88 72.422a25.939 25.939 0 1 0 51.88 0c0-14.33-11.61-27.18-25.94-27.18-14.33 0-25.94 12.85-25.94 27.18Z" fill="#E89176"/><path d="M523.16 73.22c.049 1.879.304 3.747.76 5.57h1.16a51.698 51.698 0 0 0 43.33-23.55A26.221 26.221 0 0 0 566.1 53c-1.39 1.81-4.91.48-6.52 2.09-9.34 9.35-20.24 18.18-34.5 18.18l-1.92-.05Z" fill="#CE7057"/><path d="M547.82 99.721a27.339 27.339 0 0 1-27.3-27.3c0-15.48 12.5-28.55 27.3-28.55s27.3 13.07 27.3 28.55a27.6 27.6 0 0 1-.92 7.08 1.373 1.373 0 0 1-1.652.88 1.374 1.374 0 0 1-.808-.6 1.374 1.374 0 0 1-.18-.99c.56-2.077.842-4.219.84-6.37 0-14-11.26-25.82-24.58-25.82-13.32 0-24.57 11.82-24.57 25.82a24.576 24.576 0 0 0 18.566 23.817 24.58 24.58 0 0 0 27.644-12.157 1.363 1.363 0 0 1 2.4 1.29 27.301 27.301 0 0 1-24.04 14.35Z" fill="#181828"/><path d="m450.17 338.662-52.1 11.16v-95a26.044 26.044 0 0 1 16.079-24.076 26.043 26.043 0 0 1 19.942 0 26.036 26.036 0 0 1 14.099 14.104 26.063 26.063 0 0 1 1.98 9.972v83.84Z" fill="#FFBB59"/><path d="M426.66 228.91a26 26 0 0 0-23 25.87v93.73l-6.15 1.31v-95a26.043 26.043 0 0 1 7.633-18.423 26.043 26.043 0 0 1 18.427-7.627 23.98 23.98 0 0 1 3.09.14Z" fill="#FFDBAB"/><path d="M398.07 351.002a1.213 1.213 0 0 1-.77-.27 1.248 1.248 0 0 1-.45-.95v-95a27.27 27.27 0 1 1 54.54 0v83.88a1.219 1.219 0 0 1-1 1.19l-52.07 11.15a1.16 1.16 0 0 1-.25 0Zm26.05-121.1a24.859 24.859 0 0 0-24.83 24.84v93.54l49.71-10.6v-82.9a24.86 24.86 0 0 0-24.88-24.84v-.04Z" fill="#181828"/><path d="M512.58 199a42.11 42.11 0 0 1 42.11 42.11v111.5H412.1v-53.13A100.479 100.479 0 0 1 512.58 199Z" fill="#FFBB59"/><path d="M554.55 241.898v106.48H544v-96a10.53 10.53 0 0 1 10.55-10.48Z" fill="#F4A031"/><path d="M517.36 199.22a100.51 100.51 0 0 0-93.67 100.26v53.13h-11.2v-53.13a100.482 100.482 0 0 1 29.443-71.058A100.497 100.497 0 0 1 513 199a42.334 42.334 0 0 1 4.36.22Z" fill="#FFDBAB"/><path d="M554.69 353.831H412.1a1.197 1.197 0 0 1-.866-.354 1.216 1.216 0 0 1-.354-.866v-53.13a101.81 101.81 0 0 1 101.7-101.7 43.371 43.371 0 0 1 43.33 43.32v111.51a1.22 1.22 0 0 1-1.22 1.22Zm-141.37-2.44h140.15v-110.29a40.943 40.943 0 0 0-40.89-40.89 99.382 99.382 0 0 0-99.26 99.27v51.91Z" fill="#181828"/><path d="M551.96 226.801h-.01c-11.543 0-20.9 9.357-20.9 20.9v73.29c0 11.543 9.357 20.9 20.9 20.9h.01c11.543 0 20.9-9.357 20.9-20.9v-73.29c0-11.543-9.357-20.9-20.9-20.9Z" fill="#FFBB59"/><path d="M555.56 341.781c-.72.07-1.44.11-2.18.11a20.912 20.912 0 0 1-20.9-20.89v-73.3a20.904 20.904 0 0 1 6.121-14.779 20.904 20.904 0 0 1 14.779-6.121c.74 0 1.46 0 2.18.11a20.912 20.912 0 0 0-18.73 20.79v73.3a20.917 20.917 0 0 0 18.73 20.78Z" fill="#FFDBAB"/><path d="M552 343.112a22.146 22.146 0 0 1-22.16-22.11v-73.3a22.12 22.12 0 1 1 44.24 0v73.3a22.15 22.15 0 0 1-22.08 22.11Zm0-115.11a19.71 19.71 0 0 0-19.69 19.68v73.32a19.69 19.69 0 1 0 39.38 0v-73.3a19.713 19.713 0 0 0-19.69-19.7Z" fill="#181828"/><path d="M560.38 347.172c9.781 0 17.71-7.927 17.71-17.705 0-9.778-7.929-17.705-17.71-17.705h-79.67c-9.781 0-17.71 7.927-17.71 17.705 0 9.778 7.929 17.705 17.71 17.705h79.67Z" fill="#FFBB59"/><path d="M560.38 348.39h-79.67a18.928 18.928 0 0 1-13.104-32.156 18.937 18.937 0 0 1 13.104-5.694h79.67a18.932 18.932 0 0 1 13.666 32.464 18.935 18.935 0 0 1-13.666 5.386ZM480.71 313a16.5 16.5 0 0 0 0 33h79.67a16.5 16.5 0 0 0 0-33h-79.67Z" fill="#181828"/><path d="M457.99 347.51c12.46 0 22.56-7.889 22.56-17.62 0-9.732-10.1-17.62-22.56-17.62-12.459 0-22.56 7.888-22.56 17.62 0 9.731 10.101 17.62 22.56 17.62Z" fill="#FDC6A2"/><path opacity=".62" d="M460.53 347.001a1.528 1.528 0 0 1-1.362-1.404 1.532 1.532 0 0 1 1.132-1.596 27.234 27.234 0 0 0 7.8-2.68c4.95-2.66 7.59-6.4 7.84-11.11a1.502 1.502 0 0 1 1.015-1.37c.191-.066.394-.093.595-.08a1.54 1.54 0 0 1 1.45 1.61c-.31 5.8-3.6 10.54-9.53 13.69a30.356 30.356 0 0 1-8.72 3l-.22-.06Z" fill="#E89176"/><path d="M458 348.631c-6.56 0-13.09-2.12-17.75-6.26-4.15-3.7-6.27-8.47-5.95-13.42.32-5.17 3.22-9.87 8.15-13.25a1.156 1.156 0 0 1 1.279-.014 1.143 1.143 0 0 1 .498.727 1.148 1.148 0 0 1-.477 1.187c-4.33 3-6.88 7-7.16 11.49-.27 4.24 1.58 8.34 5.19 11.56 7.84 7 21.49 7.66 30.43 1.53 4.33-3 6.87-7.05 7.16-11.49.26-4.24-1.58-8.34-5.2-11.56a1.152 1.152 0 0 1 1.53-1.72c4.16 3.7 6.27 8.47 6 13.42-.33 5.17-3.22 9.87-8.15 13.25a27.603 27.603 0 0 1-15.55 4.55Z" fill="#181828"/><path d="M454.12 332.039c5.782 0 10.47-2.838 10.47-6.34 0-3.501-4.688-6.34-10.47-6.34-5.783 0-10.47 2.839-10.47 6.34 0 3.502 4.687 6.34 10.47 6.34Z" fill="#FFDBC7"/><path d="M430.05 312.718a1.82 1.82 0 0 0-3.64 0v15.98a1.82 1.82 0 1 0 3.64 0v-15.98Zm114.19-57.816a1.82 1.82 0 0 0-3.64 0v15.98a1.82 1.82 0 0 0 3.64 0v-15.98Zm-133.2-1.961a1.82 1.82 0 0 0-3.64 0v15.98a1.82 1.82 0 0 0 3.64 0v-15.98Z" fill="#FFE8DC"/><path d="M148.16 353.129h58.16v-54.73h-58.16v54.73Z" fill="#5BA3BA"/><path d="M206.32 354.37h-58.16a1.248 1.248 0 0 1-1.24-1.24V298.4a1.24 1.24 0 0 1 1.24-1.24h58.16c.163 0 .324.032.474.095a1.23 1.23 0 0 1 .766 1.145v54.73a1.252 1.252 0 0 1-1.24 1.24Zm-56.92-2.48h55.68v-52.25H149.4v52.25Z" fill="#181828"/><path d="M160.05 353.129h58.16v-54.73h-58.16v54.73Z" fill="#91DCDC"/><path d="M218.21 354.37h-58.16a1.239 1.239 0 0 1-1.24-1.24V298.4a1.234 1.234 0 0 1 1.24-1.24h58.16a1.232 1.232 0 0 1 .877.363 1.24 1.24 0 0 1 .363.877v54.73a1.252 1.252 0 0 1-1.24 1.24Zm-56.92-2.48H217v-52.25h-55.71v52.25Z" fill="#181828"/><path d="M198.61 325.16H161.4v-8.68h37.21a4.34 4.34 0 1 1 0 8.68ZM59.65 315.039h236c6.583 0 11.92-5.337 11.92-11.92v-161.22c0-6.583-5.337-11.92-11.92-11.92h-236c-6.583 0-11.92 5.337-11.92 11.92v161.22c0 6.583 5.337 11.92 11.92 11.92Z" fill="#5BA3BA"/><path d="M295.65 316.282h-236a13.178 13.178 0 0 1-13.16-13.16v-161.22a13.182 13.182 0 0 1 13.16-13.16h117a1.241 1.241 0 0 1 1.145.766 1.223 1.223 0 0 1 0 .949 1.237 1.237 0 0 1-1.145.765h-117A10.69 10.69 0 0 0 49 141.902v161.22a10.692 10.692 0 0 0 10.65 10.68h236a10.691 10.691 0 0 0 10.68-10.68v-161.22a10.694 10.694 0 0 0-10.68-10.68h-44.17a1.25 1.25 0 0 1-.877-.363 1.24 1.24 0 0 1 .877-2.117h44.17a13.18 13.18 0 0 1 13.16 13.16v161.22a13.183 13.183 0 0 1-13.16 13.16Z" fill="#181828"/><path d="M70.94 315.039h236c6.583 0 11.92-5.337 11.92-11.92v-161.22c0-6.583-5.337-11.92-11.92-11.92h-236c-6.583 0-11.92 5.337-11.92 11.92v161.22c0 6.583 5.337 11.92 11.92 11.92Z" fill="#91DCDC"/><path d="M78.37 307.621H303.4a7.94 7.94 0 0 0 7.94-7.94v-151.95a7.94 7.94 0 0 0-7.94-7.94H78.37a7.94 7.94 0 0 0-7.94 7.94v151.95a7.94 7.94 0 0 0 7.94 7.94Z" fill="#B4E4F9"/><path d="M188.68 325.941c.851 0 1.54-.295 1.54-.66 0-.364-.689-.66-1.54-.66-.85 0-1.54.296-1.54.66 0 .365.69.66 1.54.66Zm-3.38 2.918a.9.9 0 1 0 0-1.8.9.9 0 0 0 0 1.8Zm6.09-.45a.9.9 0 1 0 0-1.8.9.9 0 0 0 0 1.8Zm-19.37-1.837a2.11 2.11 0 1 0 0-4.22 2.11 2.11 0 0 0 0 4.22Zm22.15 0a2.11 2.11 0 1 0 0-4.22 2.11 2.11 0 0 0 0 4.22Zm-16.88 1.91a.95.95 0 1 0 0-1.9.95.95 0 0 0 0 1.9Zm-5.18 2.437a.94.94 0 1 0 0-1.88.94.94 0 0 0 0 1.88Zm-4.38-2.528a.43.43 0 1 0 0-.86.43.43 0 0 0 0 .86Zm1.72.091a.95.95 0 1 0 0-1.9.95.95 0 0 0 0 1.9Z" fill="#5BA3BA"/><path d="M303.74 291.21a3.38 3.38 0 1 0 6.76 0v-87.48a3.38 3.38 0 1 0-6.76 0v87.48Zm6.77-133.459a3.38 3.38 0 1 0-6.76 0v23.04a3.38 3.38 0 1 0 6.76 0v-23.04Z" fill="#73C7E5"/><path d="M71.77 233.94a3.38 3.38 0 1 0 6.76 0v-37.91a3.38 3.38 0 0 0-6.76 0v37.91Zm0-60.449a3.38 3.38 0 1 0 6.76 0v-23.04a3.38 3.38 0 1 0-6.76 0v23.04Zm0 95.828a3.38 3.38 0 1 0 6.76 0v-6.51a3.38 3.38 0 0 0-6.76 0v6.51Z" fill="#EEFBFF"/><path d="M70.43 170.511a1.252 1.252 0 0 1-1.24-1.24v-21.54a9.192 9.192 0 0 1 9.18-9.18h166.84a1.24 1.24 0 1 1 0 2.48H78.37a6.707 6.707 0 0 0-6.7 6.7v21.54a1.25 1.25 0 0 1-1.24 1.24ZM303.4 308.86H125.51a1.243 1.243 0 0 1-1.24-1.24 1.243 1.243 0 0 1 1.24-1.24H303.4a6.712 6.712 0 0 0 6.7-6.7v-152a6.712 6.712 0 0 0-6.7-6.7h-47.33a1.25 1.25 0 0 1-.877-.363 1.25 1.25 0 0 1-.269-1.352 1.256 1.256 0 0 1 .671-.671 1.25 1.25 0 0 1 .475-.094h47.33a9.19 9.19 0 0 1 9.18 9.18v152a9.19 9.19 0 0 1-9.18 9.18Zm-187.79.001H78.37a9.187 9.187 0 0 1-9.18-9.18v-48a1.239 1.239 0 0 1 2.48 0v48a6.71 6.71 0 0 0 6.7 6.7h37.24a1.24 1.24 0 0 1 0 2.48ZM70.43 242.72a1.247 1.247 0 0 1-1.24-1.24v-62.26a1.239 1.239 0 0 1 2.48 0v62.26a1.249 1.249 0 0 1-1.24 1.24Z" fill="#181828"/><path d="M64.84 154.9v-4.63a2.79 2.79 0 0 0-2.79-2.79h-.01a2.79 2.79 0 0 0-2.79 2.79v4.63a2.79 2.79 0 0 0 2.79 2.79h.01a2.79 2.79 0 0 0 2.79-2.79Zm0 104.392v-8.76a2.79 2.79 0 0 0-2.79-2.79h-.01a2.79 2.79 0 0 0-2.79 2.79v8.76a2.79 2.79 0 0 0 2.79 2.79h.01a2.79 2.79 0 0 0 2.79-2.79Zm0-67.712v-4.63a2.79 2.79 0 0 0-2.79-2.79h-.01a2.79 2.79 0 0 0-2.79 2.79v4.63a2.79 2.79 0 0 0 2.79 2.79h.01a2.79 2.79 0 0 0 2.79-2.79Z" fill="#5BA3BA"/><path d="M306.94 316.282h-236a13.178 13.178 0 0 1-13.16-13.16v-161.22a13.182 13.182 0 0 1 13.16-13.16h154.72a1.241 1.241 0 0 1 1.145.766 1.223 1.223 0 0 1 0 .949 1.237 1.237 0 0 1-1.145.765H70.94a10.693 10.693 0 0 0-10.68 10.68v161.22a10.689 10.689 0 0 0 10.68 10.68h236a10.691 10.691 0 0 0 10.68-10.68v-161.22a10.694 10.694 0 0 0-10.68-10.68h-71.87a1.25 1.25 0 0 1-.877-.363 1.24 1.24 0 0 1 .877-2.117h71.87a13.18 13.18 0 0 1 13.16 13.16v161.22a13.18 13.18 0 0 1-13.16 13.16Z" fill="#181828"/><g opacity=".15" fill="#1B3C47"><path opacity=".15" d="M392.13 192.342H379v-22.19h39.07a1.58 1.58 0 0 1 0 3.16h-35.9v15.87h10a1.58 1.58 0 0 1 0 3.16h-.04Z"/><path opacity=".15" d="M402.47 192.344h-5.69a1.58 1.58 0 1 1 0-3.16h5.69a1.58 1.58 0 1 1 0 3.16Zm4.39 0h-.12a1.58 1.58 0 0 1 0-3.16h.12a1.58 1.58 0 1 1 0 3.16Zm27.65-.002h-23.23c-.419 0-.821-.166-1.118-.462a1.584 1.584 0 0 1 0-2.235 1.585 1.585 0 0 1 1.118-.463h20.08v-15.87h-7c-.419 0-.821-.166-1.118-.462a1.584 1.584 0 0 1 0-2.235 1.585 1.585 0 0 1 1.118-.463h10.18l-.03 22.19Zm-26.6-19.03h-55.49v-22.14h55.49v22.14Zm-52.35-3.16h49.19v-15.83h-49.18l-.01 15.83Z"/></g><g opacity=".15" fill="#1B3C47"><path opacity=".15" d="M110.6 111.998H97.45v-22.17h39.08a1.578 1.578 0 0 1 1.035 2.647 1.578 1.578 0 0 1-1.035.503h-35.89v15.88h10a1.589 1.589 0 0 1 1.198.414 1.577 1.577 0 0 1 .508 1.161 1.574 1.574 0 0 1-.508 1.161 1.584 1.584 0 0 1-1.198.414l-.04-.01Z"/><path opacity=".15" d="M121 112.002h-5.7a1.58 1.58 0 0 1 0-3.15h5.7a1.578 1.578 0 0 1 0 3.15Zm4.33-.003h-.11a1.591 1.591 0 0 1-1.197-.414 1.582 1.582 0 0 1 1.197-2.736h.11a1.575 1.575 0 0 1 1.573 2.208 1.577 1.577 0 0 1-1.573.942Zm27.67 0h-23.24a1.591 1.591 0 0 1-1.197-.414 1.582 1.582 0 0 1 1.197-2.736h20.07v-15.85h-7a1.58 1.58 0 1 1 0-3.15H153v22.15ZM126.38 93H70.89V70.84h55.49V93ZM74 89.83h49.19V74H74.05L74 89.83Z"/></g><g opacity=".15" fill="#1B3C47"><path opacity=".15" d="M625.65 103.131H612.5v-22.19h39.07a1.58 1.58 0 1 1 0 3.16h-35.88v15.9h10a1.58 1.58 0 0 1 0 3.16l-.04-.03Z"/><path opacity=".15" d="M636 103.129h-5.7a1.57 1.57 0 0 1-1.117-.463 1.572 1.572 0 0 1-.463-1.117 1.588 1.588 0 0 1 .463-1.117 1.587 1.587 0 0 1 1.117-.463h5.7a1.582 1.582 0 0 1 1.117 2.697 1.57 1.57 0 0 1-.513.342c-.191.08-.397.121-.604.121Zm4.38 0h-.12a1.58 1.58 0 1 1 0-3.16h.12a1.58 1.58 0 0 1 0 3.16Zm27.62.002h-23.2a1.58 1.58 0 1 1 0-3.16h20.08v-15.87h-7a1.58 1.58 0 1 1 0-3.16h10.17l-.05 22.19ZM641.43 84.1h-55.49V62h55.49v22.1Zm-52.35-3.16h49.19V65.11h-49.18l-.01 15.83Z"/></g><path d="M295.59 345.899h-11.73a.93.93 0 0 1 0-1.86h11.73a.933.933 0 0 1 .93.93.933.933 0 0 1-.93.93Zm0 4.812h-11.73a.94.94 0 1 1 0-1.87h11.73a.941.941 0 0 1 0 1.87Z" fill="#181828"/><path d="M262.75 356.15c.773 0 1.4-.949 1.4-2.12 0-1.171-.627-2.12-1.4-2.12-.773 0-1.4.949-1.4 2.12 0 1.171.627 2.12 1.4 2.12Zm-.41 4.15a.99.99 0 1 0 0-1.98.99.99 0 0 0 0 1.98Z" fill="#fff"/><path d="M298.2 359.13a1.02 1.02 0 1 0 0-2.04 1.02 1.02 0 0 0 0 2.04Z" fill="#181828"/><path d="M641.99 344.59H103.58a7.478 7.478 0 0 0-7.48 7.475 7.478 7.478 0 0 0 7.48 7.475h538.41a7.478 7.478 0 0 0 7.48-7.475 7.478 7.478 0 0 0-7.48-7.475Z" fill="#F7B14B"/><path d="M641.99 344.59H103.58a7.478 7.478 0 0 0-7.48 7.475 7.478 7.478 0 0 0 7.48 7.475h538.41a7.478 7.478 0 0 0 7.48-7.475 7.478 7.478 0 0 0-7.48-7.475Z" fill="#F7B14B"/><path d="M649.46 351.721a7.478 7.478 0 0 1-7.46 7.48H103.57a7.48 7.48 0 0 1-7.48-7.48c0-1.005.207-2 .61-2.92a7.463 7.463 0 0 0 6.87 4.54H642a7.494 7.494 0 0 0 5.28-2.18 7.332 7.332 0 0 0 1.59-2.36 7.27 7.27 0 0 1 .59 2.92Z" fill="#E59328"/><path d="M547.49 345.48h-20a1.147 1.147 0 0 1-1.15-1.15 1.147 1.147 0 0 1 1.15-1.15h20a1.149 1.149 0 1 1 0 2.3Zm-429.59 5.15H96.74a.89.89 0 0 1 0-1.77h21.16a.888.888 0 0 1 .984.885.89.89 0 0 1-.984.885Zm8.01-.001h-3.49a.886.886 0 0 1-.796-.885.892.892 0 0 1 .796-.885h3.49a.895.895 0 0 1 .796.885.889.889 0 0 1-.796.885Z" fill="#181828"/><path d="M336.34 345.23h-57.69c-1.187 0-2.15.961-2.15 2.145 0 1.185.963 2.145 2.15 2.145h57.69c1.187 0 2.15-.96 2.15-2.145a2.148 2.148 0 0 0-2.15-2.145Zm-70.58 0h-30.34c-1.187 0-2.15.961-2.15 2.145 0 1.185.963 2.145 2.15 2.145h30.34c1.187 0 2.15-.96 2.15-2.145a2.148 2.148 0 0 0-2.15-2.145Zm-72.65 0h-30.34c-1.187 0-2.15.961-2.15 2.145 0 1.185.963 2.145 2.15 2.145h30.34c1.188 0 2.15-.96 2.15-2.145a2.148 2.148 0 0 0-2.15-2.145Z" fill="#FFD097"/><path d="M642 360.431H103.57a8.628 8.628 0 0 1 0-17.25h412.29a1.147 1.147 0 0 1 1.15 1.15 1.149 1.149 0 0 1-1.15 1.15H103.57a6.33 6.33 0 0 0 0 12.65H642a6.331 6.331 0 0 0 4.313-10.711 6.331 6.331 0 0 0-4.313-1.939h-81.76a1.149 1.149 0 1 1 0-2.3H642a8.614 8.614 0 0 1 3.392.57 8.649 8.649 0 0 1 2.9 1.849 8.641 8.641 0 0 1 1.947 9.576 8.636 8.636 0 0 1-8.239 5.255Z" fill="#181828"/><path d="m446.88 100.57 6.66.13a15.764 15.764 0 0 1 15.4 16A15.678 15.678 0 0 1 453 132.15l-6.66-.13a15.758 15.758 0 0 1-15.42-16 15.67 15.67 0 0 1 4.783-11.009 15.673 15.673 0 0 1 11.167-4.401l.01-.04Z" fill="#FDC6A2"/><path d="M430.4 117.119a1.358 1.358 0 0 1-1.35-1.38 16.804 16.804 0 0 1 3.32-9.82 1.354 1.354 0 0 1 .893-.537 1.357 1.357 0 0 1 1.012.252 1.357 1.357 0 0 1 .537.894c.026.177.018.357-.025.531a1.386 1.386 0 0 1-.227.48 14.065 14.065 0 0 0-2.78 8.24 1.361 1.361 0 0 1-1.38 1.34Z" fill="#181828"/><path d="M452.75 133.309h-.3l-6.68-.13a17.08 17.08 0 0 1-15.65-11 1.37 1.37 0 0 1 1.315-1.85 1.348 1.348 0 0 1 .953.428c.123.13.219.284.282.452a14.329 14.329 0 0 0 13.16 9.27l6.64.14a14.388 14.388 0 0 0 10.08-4.11 14.38 14.38 0 0 0-9.53-24.64l-6.65-.14a14.27 14.27 0 0 0-7.47 1.91 1.356 1.356 0 0 1-1.031.14 1.368 1.368 0 0 1-.829-.63 1.37 1.37 0 0 1 .49-1.87 16.997 16.997 0 0 1 8.9-2.27l6.65.13a17.112 17.112 0 0 1 16.565 17.266 17.108 17.108 0 0 1-16.895 16.944v-.04Z" fill="#181828"/><path d="m449.18 113.439 3.46.06a8.19 8.19 0 0 1 8 8.34 8.183 8.183 0 0 1-8.32 8l-3.46-.07a8.19 8.19 0 0 1-8-8.33 8.171 8.171 0 0 1 8.32-8Z" fill="#E89176"/><path d="M437.52 110.879a5.804 5.804 0 0 1 2.91-3.17c1.16-.45.69-2.34-.51-1.88a7.698 7.698 0 0 0-4.1 4.09c-.48 1.14 1.19 2.13 1.68 1l.02-.04Zm.809 3.935c.129-.847-.317-1.618-.995-1.72-.678-.103-1.331.501-1.46 1.348-.128.848.317 1.618.995 1.721.678.102 1.332-.501 1.46-1.349Z" fill="#fff"/><path d="m557 100.57 6.66.13a15.762 15.762 0 0 1 15.42 16 15.67 15.67 0 0 1-4.783 11.009 15.67 15.67 0 0 1-11.167 4.401l-6.65-.13A15.757 15.757 0 0 1 541 116a15.679 15.679 0 0 1 16-15.41v-.02Z" fill="#FDC6A2"/><path d="M563.36 133.332h-.29l-6.69-.14a17.162 17.162 0 0 1-16.76-17.43 17.047 17.047 0 0 1 17-16.75h.38l6.65.13a17.09 17.09 0 1 1-.28 34.18l-.01.01Zm-6.69-31.59a14.319 14.319 0 0 0-14.32 14.07 14.43 14.43 0 0 0 14.09 14.66l6.65.13a14.364 14.364 0 0 0 10.581-24.338 14.365 14.365 0 0 0-10.081-4.382l-6.65-.14h-.27Z" fill="#181828"/><path d="m559.79 113.439 3.47.06a8.198 8.198 0 0 1 8 8.33 8.19 8.19 0 0 1-8.33 8l-3.45-.07a8.19 8.19 0 0 1-8-8.33 8.18 8.18 0 0 1 8.31-7.99Z" fill="#E89176"/><path d="M440.47 118.541a.996.996 0 0 1-.953-.571 1.002 1.002 0 0 1 .163-1.099 13.555 13.555 0 0 1 7.79-4.71 1.023 1.023 0 0 1 1.057 1.563 1.018 1.018 0 0 1-.647.437 11.431 11.431 0 0 0-6.61 4 .995.995 0 0 1-.8.38Zm131.6 0a.995.995 0 0 1-.8-.38 11.461 11.461 0 0 0-6.61-4 1.018 1.018 0 0 1-.795-1.205 1.02 1.02 0 0 1 1.205-.795 13.555 13.555 0 0 1 7.79 4.71.992.992 0 0 1 .233.753.999.999 0 0 1-.383.687.991.991 0 0 1-.64.23Z" fill="#1B1B2B"/><path d="M545.17 34.62c.69.59 1.29 1.21 1.91 1.83a58.199 58.199 0 0 1 17.11 41.29V130a58.4 58.4 0 0 1-57.765 59.035 58.402 58.402 0 0 1-59.035-57.765V77.74a58.256 58.256 0 0 1 19-43.13c21.23-19.37 57.49-19.24 78.78.01Z" fill="#FDC6A2"/><path d="M547.4 36.718a54.71 54.71 0 0 0-1.91-1.82 57.956 57.956 0 0 1-6 3.18c.28.28.53.58.79.88l2.11 2.47a62 62 0 0 1 7.9 12.57h-70a6.293 6.293 0 0 0 6.29 6.28h66.17a52.68 52.68 0 0 1 2.48 16.29v53.73a58.402 58.402 0 0 1-53.77 58.22c1.52.12 3.07.18 4.62.18a58.381 58.381 0 0 0 53.957-36.049 58.387 58.387 0 0 0 4.443-22.351v-52.3a58.205 58.205 0 0 0-17.08-41.28Z" fill="#E89176"/><path d="M518.28 199.552c0 2.51.71 5.34-.47 7.3-2.34 3.91-8.07 5.9-13.06 5.81a13.649 13.649 0 0 1-13.35-13.85l.68-10.89v-.68l27 .13" fill="#FDC6A2"/><path opacity=".49" d="m520 188.398-1.7 14.13c-3.088.678-6.308.42-9.25-.74a75.176 75.176 0 0 0-16.28-5.19h-.13l.14-8.18a77.541 77.541 0 0 0 27.22 0v-.02Z" fill="#E89176"/><path opacity=".55" d="M482.74 183.049a.72.72 0 1 0 0-1.44.72.72 0 0 0 0 1.44Zm10.02 3.71a.95.95 0 1 0 0-1.9.95.95 0 0 0 0 1.9Z" fill="#fff"/><path d="M511 187.581c-1.49.11-3 .17-4.53.17-32.25 0-61.86-25.73-58.4-58.4v-52.29a58.233 58.233 0 0 1 19-43.12c1.85 1.12 1.45 2.17 3.53 3.13-9.83 10.44-17.44 24.54-17.44 40v52.29c.06 30.73 23.74 57.21 57.84 58.22Z" fill="#fff"/><path d="M538.87 100.419a4.28 4.28 0 1 0 .001-8.559 4.28 4.28 0 0 0-.001 8.559Z" fill="#FDC6A2"/><path d="M452.37 154.799a1.365 1.365 0 0 1-1.23-.78 21.355 21.355 0 0 1-1.46-4 1.37 1.37 0 1 1 2.65-.66 18.2 18.2 0 0 0 1.27 3.52 1.359 1.359 0 0 1-.64 1.82c-.187.076-.389.11-.59.1Z" fill="#181828"/><path opacity=".62" d="M486.67 121.48c4.148 0 7.51-4.253 7.51-9.5 0-5.246-3.362-9.5-7.51-9.5-4.147 0-7.51 4.254-7.51 9.5 0 5.247 3.363 9.5 7.51 9.5Z" fill="#E89176"/><path d="M486.33 119.299c4.087 0 7.4-4.2 7.4-9.38 0-5.18-3.313-9.38-7.4-9.38s-7.4 4.2-7.4 9.38c0 5.18 3.313 9.38 7.4 9.38Z" fill="#181828"/><path d="M483.69 109.491c1.508 0 2.73-1.334 2.73-2.98s-1.222-2.98-2.73-2.98-2.73 1.334-2.73 2.98 1.222 2.98 2.73 2.98Z" fill="#fff"/><path opacity=".62" d="M525.69 121.48c4.147 0 7.51-4.253 7.51-9.5 0-5.246-3.363-9.5-7.51-9.5-4.148 0-7.51 4.254-7.51 9.5 0 5.247 3.362 9.5 7.51 9.5Z" fill="#E89176"/><path d="M525.36 119.299c4.087 0 7.4-4.2 7.4-9.38 0-5.18-3.313-9.38-7.4-9.38s-7.4 4.2-7.4 9.38c0 5.18 3.313 9.38 7.4 9.38Z" fill="#181828"/><path d="M522.71 109.491c1.508 0 2.73-1.334 2.73-2.98s-1.222-2.98-2.73-2.98-2.73 1.334-2.73 2.98 1.222 2.98 2.73 2.98Z" fill="#fff"/><path d="M505.75 189.859a60.007 60.007 0 0 1-51.45-29.36 1.369 1.369 0 1 1 2.35-1.39 57.254 57.254 0 0 0 49.1 28h.07a57.112 57.112 0 0 0 57-57.11v-52.26a57.231 57.231 0 0 0-16.7-40.33l-.12-.11c-.58-.58-1.13-1.13-1.74-1.66-9.94-9-24-14.13-38.52-14.15h-.09c-14.75 0-28.36 5-38.33 14.13a57.005 57.005 0 0 0-18.59 42.12v52.26c.001 3.453.309 6.9.92 10.3a1.37 1.37 0 0 1-2.69.48 60.8 60.8 0 0 1-.96-10.78v-52.26a59.782 59.782 0 0 1 19.46-44.14c21.71-19.84 58.61-19.85 80.59 0 .66.57 1.27 1.18 1.86 1.77l.1.11a60 60 0 0 1 17.51 42.26v52.26a59.838 59.838 0 0 1-59.7 59.84l-.07.02Z" fill="#181828"/><path d="M505.3 213.891a14.281 14.281 0 0 1-9.67-3.79 15.047 15.047 0 0 1-4.91-11.1v-10.58a1.36 1.36 0 1 1 2.72 0v10.58a12.338 12.338 0 0 0 4 9.11 11.577 11.577 0 0 0 9 3l.82-.1a12.113 12.113 0 0 0 10.11-12v-10.61a1.378 1.378 0 0 1 .355-1.043 1.37 1.37 0 0 1 2.375 1.043v10.6a14.844 14.844 0 0 1-12.43 14.68c-.33.05-.65.09-1 .12-.455.055-.912.085-1.37.09Z" fill="#181828"/><path d="M458.69 88.86h-.01a2.12 2.12 0 0 0-2.12 2.12v18.689a2.12 2.12 0 0 0 2.12 2.12h.01a2.12 2.12 0 0 0 2.12-2.12v-18.69a2.12 2.12 0 0 0-2.12-2.12Z" fill="#FFE8DC"/><path d="M508.12 130.22a1.371 1.371 0 0 1-1.27-.88 36.999 36.999 0 0 1-2.33-10.85v-15.95a1.36 1.36 0 1 1 2.72 0v15.83a34.3 34.3 0 0 0 2.16 10 1.364 1.364 0 0 1-.338 1.478 1.372 1.372 0 0 1-.942.372Z" fill="#181828"/><path d="M531.07 17.71h-28.69a39.353 39.353 0 0 0-31.32-15.55h-35.68c0 28.52 22.88 52.88 51.1 52.88h80.3c0-19.93-15.99-37.33-35.71-37.33Z" fill="#E89176"/><path d="M550.67 23.509c9.25 6.54 15.3 18.55 15.3 30.74H484.8a51.538 51.538 0 0 1-40.6-19.75 51.411 51.411 0 0 0 31.9 11h65.65c10.45 0 16.37-13.63 9.45-21.46l-.53-.57" fill="#CE7057"/><path d="M467.14 6.4v-.01a2.12 2.12 0 0 0-2.12-2.12h-18.69a2.12 2.12 0 0 0-2.12 2.12v.01c0 1.17.949 2.12 2.12 2.12h18.69a2.12 2.12 0 0 0 2.12-2.12Z" fill="#FFC1B3"/><path d="M337.53 340.7c.53 0 .96-.676.96-1.51s-.43-1.51-.96-1.51-.96.676-.96 1.51.43 1.51.96 1.51Zm1.82-3.578a.52.52 0 1 0 0-1.04.52.52 0 0 0 0 1.04Zm-.34-1.684a.52.52 0 1 0 0-1.04.52.52 0 0 0 0 1.04Zm1.88-.269a.43.43 0 1 0-.001-.861.43.43 0 0 0 .001.861Zm-.7 4.041a.32.32 0 1 0 0-.64.32.32 0 0 0 0 .64Z" fill="#C0F3FF"/><path d="M338.49 339.661a.77.77 0 1 0 0-1.54.77.77 0 0 0 0 1.54Zm-1.44 1.729a.48.48 0 1 0 0-.96.48.48 0 0 0 0 .96Zm2.3-.62a.34.34 0 1 0 0-.68.34.34 0 0 0 0 .68Zm1.32-3.74a.22.22 0 1 0 0-.44.22.22 0 0 0 0 .44Zm-2.4 4.582a.22.22 0 1 0 0-.44.22.22 0 0 0 0 .44Zm1.42-3.711a.22.22 0 1 0 0-.44.22.22 0 0 0 0 .44Z" fill="#C0F3FF"/><path d="M162.43 367.371c4.948 0 8.96-1.379 8.96-3.08s-4.012-3.08-8.96-3.08c-4.949 0-8.96 1.379-8.96 3.08s4.011 3.08 8.96 3.08Zm17.01-.77a2.15 2.15 0 1 0-.001-4.301 2.15 2.15 0 0 0 .001 4.301Zm-1.1 6.611a1.1 1.1 0 1 0-.001-2.201 1.1 1.1 0 0 0 .001 2.201Zm-7.16-2.93a1.1 1.1 0 1 0 .001-2.199 1.1 1.1 0 0 0-.001 2.199Zm-8.75 2.897a1.07 1.07 0 1 0 0-2.14 1.07 1.07 0 0 0 0 2.14Z" fill="#D17E1C"/><path d="M161.69 368.8a1.07 1.07 0 1 0 0-2.14 1.07 1.07 0 0 0 0 2.14Zm-15.29-2.201a2.61 2.61 0 1 0 0-5.22 2.61 2.61 0 0 0 0 5.22Zm7.07 9.182a2.75 2.75 0 1 0 0-5.5 2.75 2.75 0 0 0 0 5.5Z" fill="#D17E1C"/><path d="M145.37 370.809a2.75 2.75 0 1 0 0-5.5 2.75 2.75 0 0 0 0 5.5Zm410.51-2.751c4.948 0 8.96-1.379 8.96-3.08s-4.012-3.08-8.96-3.08c-4.949 0-8.96 1.379-8.96 3.08s4.011 3.08 8.96 3.08Zm17.01-.766a2.15 2.15 0 1 0 0-4.3 2.15 2.15 0 0 0 0 4.3Zm-1.1 6.607a1.1 1.1 0 1 0 0-2.2 1.1 1.1 0 0 0 0 2.2Zm-7.16-2.929a1.1 1.1 0 1 0-.001-2.201 1.1 1.1 0 0 0 .001 2.201Zm-2.81 3.971a1.07 1.07 0 1 0 0-2.14 1.07 1.07 0 0 0 0 2.14Zm-5.94-1.071a1.07 1.07 0 1 0 0-2.14 1.07 1.07 0 0 0 0 2.14Z" fill="#D17E1C"/><path d="M555.14 369.492a1.07 1.07 0 1 0 0-2.14 1.07 1.07 0 0 0 0 2.14Zm-15.28-2.202a2.61 2.61 0 1 0 0-5.22 2.61 2.61 0 0 0 0 5.22Zm7.06 9.179a2.75 2.75 0 1 0 0-5.5 2.75 2.75 0 0 0 0 5.5Z" fill="#D17E1C"/><path d="M538.82 371.492a2.75 2.75 0 1 0 0-5.5 2.75 2.75 0 0 0 0 5.5Z" fill="#D17E1C"/><path d="M579.86 255.402c.933 0 1.69-2.194 1.69-4.9 0-2.707-.757-4.9-1.69-4.9-.933 0-1.69 2.193-1.69 4.9 0 2.706.757 4.9 1.69 4.9Zm.08-13.03a1.18 1.18 0 1 0-.002-2.362 1.18 1.18 0 0 0 .002 2.362Zm4.19.019a.6.6 0 1 0 0-1.2.6.6 0 0 0 0 1.2Zm-1.6 3.918a.6.6 0 1 0 0-1.2.6.6 0 0 0 0 1.2Zm2.19 1.531a.59.59 0 1 0 0-1.18.59.59 0 0 0 0 1.18Zm-.59 3.25a.59.59 0 1 0 0-1.18.59.59 0 0 0 0 1.18Z" fill="#63456B"/><path d="M581.74 251.5a.59.59 0 1 0 0-1.18.59.59 0 0 0 0 1.18Zm-2.05 9.2a1.43 1.43 0 1 0 0-2.86 1.43 1.43 0 0 0 0 2.86Zm4.95-3.802a1.5 1.5 0 1 0 .001-2.999 1.5 1.5 0 0 0-.001 2.999Z" fill="#63456B"/><path d="M581.92 261.34a1.5 1.5 0 1 0-.001-3.001 1.5 1.5 0 0 0 .001 3.001Z" fill="#63456B"/><path d="M446.088 26.151c.597-.324.315-1.995-.63-3.732-.945-1.737-2.194-2.882-2.791-2.557-.597.324-.315 1.995.63 3.732.944 1.737 2.194 2.882 2.791 2.557Zm-4.928-8.329a.86.86 0 1 0 0-1.72.86.86 0 0 0 0 1.72Zm2.9-1.492a.44.44 0 1 0 0-.88.44.44 0 0 0 0 .88Zm.34 3.07a.44.44 0 1 0 0-.88.44.44 0 0 0 0 .88Zm1.94.21a.43.43 0 1 0 0-.86.43.43 0 0 0 0 .86Zm.76 2.29a.43.43 0 1 0 0-.862.43.43 0 0 0 0 .861Z" fill="#FFC1B3"/><path d="M445.71 23a.43.43 0 1 0 0-.86.43.43 0 0 0 0 .86Zm1.11 4.74a1 1 0 0 1 1.41.41c.28.51.09 2.38-.42 2.66a1.001 1.001 0 0 1-1.41-.42c-.27-.5-.09-2.39.42-2.65Zm2.32-2.2a1.1 1.1 0 1 0 0-2.2 1.1 1.1 0 0 0 0 2.2Z" fill="#FFC1B3"/><path d="M448.41 27.281a1.096 1.096 0 0 1 1.217.109c.112.09.205.204.273.331.29.53.1 2.44-.44 2.73-.54.29-1.2-1.15-1.48-1.69a1.078 1.078 0 0 1 .102-1.208 1.09 1.09 0 0 1 .328-.272Z" fill="#FFC1B3"/><path d="M580.23 311.698c.933 0 1.69-2.193 1.69-4.9 0-2.706-.757-4.9-1.69-4.9-.933 0-1.69 2.194-1.69 4.9 0 2.707.757 4.9 1.69 4.9Zm.09-13.029a1.18 1.18 0 1 0 0-2.36 1.18 1.18 0 0 0 0 2.36Zm4.19.023a.6.6 0 1 0 .002-1.198.6.6 0 0 0-.002 1.198Zm-1.6 3.918a.6.6 0 1 0 0-1.2.6.6 0 0 0 0 1.2Zm2.19 1.531a.59.59 0 1 0 0-1.18.59.59 0 0 0 0 1.18Zm-.59 3.25a.59.59 0 1 0 0-1.18.59.59 0 0 0 0 1.18Z" fill="#63456B"/><path d="M582.12 307.801a.59.59 0 1 0 0-1.18.59.59 0 0 0 0 1.18Zm-2.05 9.2a1.43 1.43 0 1 0 0-2.86 1.43 1.43 0 0 0 0 2.86Zm4.94-3.802a1.5 1.5 0 1 0 0-3 1.5 1.5 0 0 0 0 3Z" fill="#63456B"/><path d="M582.29 317.641a1.5 1.5 0 1 0-.001-3.001 1.5 1.5 0 0 0 .001 3.001Z" fill="#63456B"/><path d="M616 320.4a.617.617 0 0 1-.438-.182.617.617 0 0 1-.182-.438v-45.13a.622.622 0 0 1 .62-.65.619.619 0 0 1 .62.62v45.13a.622.622 0 0 1-.62.65Zm-3.51-1.24a.62.62 0 0 1-.62-.62v-42.65a.617.617 0 0 1 .62-.62.62.62 0 0 1 .62.62v42.65a.62.62 0 0 1-.62.62Zm-3.6 0a.62.62 0 0 1-.62-.62v-42.65a.617.617 0 0 1 .62-.62.62.62 0 0 1 .62.62v42.65a.62.62 0 0 1-.62.62Zm-3.59-2.49a.634.634 0 0 1-.445-.178.629.629 0 0 1-.185-.442V279a.627.627 0 0 1 .625-.551c.153 0 .301.056.416.158.116.101.19.241.209.393v37.05a.617.617 0 0 1-.182.438.617.617 0 0 1-.438.182Zm-3.6-1.238a.62.62 0 0 1-.62-.62v-33.95a.62.62 0 0 1 1.24 0v33.95a.619.619 0 0 1-.62.62Zm-3.6-3.113a.602.602 0 0 1-.441-.179.602.602 0 0 1-.179-.441v-27.7a.602.602 0 0 1 .179-.441.602.602 0 0 1 .441-.179c.164 0 .322.065.438.182a.617.617 0 0 1 .182.438v27.7a.617.617 0 0 1-.182.438.617.617 0 0 1-.438.182Zm21.56 7.463a.62.62 0 0 1-.62-.62v-42.65a.628.628 0 0 1 .625-.551.632.632 0 0 1 .625.551v42.65a.632.632 0 0 1-.63.62Zm3.6-.001a.62.62 0 0 1-.62-.62v-42.65a.617.617 0 0 1 .62-.62.62.62 0 0 1 .62.62v42.65a.62.62 0 0 1-.62.62Zm3.6-2.491a.619.619 0 0 1-.62-.62v-37.05a.62.62 0 1 1 1.24 0v37.05a.612.612 0 0 1-.62.62Zm3.6-1.241a.62.62 0 0 1-.62-.62v-33.95a.62.62 0 1 1 1.24 0v33.95a.621.621 0 0 1-.62.62Zm3.6-4.35a.62.62 0 0 1-.62-.62v-26.49a.619.619 0 1 1 1.24 0v26.49a.62.62 0 0 1-.62.62Z" fill="#181828"/><path opacity=".25" d="M615 320.401a.622.622 0 0 1-.439-.181.622.622 0 0 1-.181-.439v-45.13a.62.62 0 1 1 1.24 0v45.13a.619.619 0 0 1-.62.62Zm-3.56-1.241a.623.623 0 0 1-.62-.62v-42.65a.62.62 0 1 1 1.24 0v42.65a.62.62 0 0 1-.62.62Zm-3.6 0a.623.623 0 0 1-.62-.62v-42.65a.62.62 0 1 1 1.24 0v42.65a.62.62 0 0 1-.62.62Zm-3.6-2.487a.62.62 0 0 1-.62-.62v-37.05a.619.619 0 1 1 1.24 0v37.05a.62.62 0 0 1-.62.62Zm-3.6-1.241a.62.62 0 0 1-.62-.62v-33.95a.62.62 0 0 1 1.24 0v33.95a.619.619 0 0 1-.62.62ZM597 310.46a.619.619 0 0 1-.62-.62v-24.63c0-.165.065-.322.181-.439a.622.622 0 0 1 1.059.439v24.63a.617.617 0 0 1-.182.438.617.617 0 0 1-.438.182Zm21.61 9.321a.623.623 0 0 1-.62-.62v-42.65a.62.62 0 1 1 1.24 0v42.65a.62.62 0 0 1-.62.62Zm3.6 0a.623.623 0 0 1-.62-.62v-42.65a.62.62 0 1 1 1.24 0v42.65a.62.62 0 0 1-.62.62Zm3.6-2.491a.602.602 0 0 1-.441-.179.602.602 0 0 1-.179-.441v-37.05c0-.164.065-.322.182-.438a.617.617 0 0 1 .876 0 .617.617 0 0 1 .182.438v37.05a.617.617 0 0 1-.182.438.617.617 0 0 1-.438.182Zm3.6-1.24a.63.63 0 0 1-.63-.62v-33.95a.627.627 0 0 1 .625-.55.63.63 0 0 1 .625.55v33.95a.621.621 0 0 1-.62.62ZM633 313a.632.632 0 0 1-.62-.63v-27.78a.632.632 0 0 1 .625-.551.63.63 0 0 1 .625.551v27.73a.618.618 0 0 1-.166.478.63.63 0 0 1-.464.202Z" fill="#181828"/><path d="M332.3 337.919h-70.61a21.889 21.889 0 0 1-21.87-21.87 1.237 1.237 0 0 1 1.24-1.24 1.239 1.239 0 0 1 1.24 1.24 19.41 19.41 0 0 0 19.39 19.39h70.61a1.239 1.239 0 1 1 0 2.48Z" fill="#181828"/><path d="M487.69 9.358a2.27 2.27 0 0 1-.72-.12l-6.62-2.32a31.929 31.929 0 0 0-10.57-1.79h-28.91a2.177 2.177 0 0 1-2.147-1.306A2.18 2.18 0 0 1 440.87.778h28.91a36.12 36.12 0 0 1 12 2l6.61 2.31a2.177 2.177 0 0 1 1.409 2.412 2.179 2.179 0 0 1-2.119 1.818l.01.04ZM447.38 35.83a2.19 2.19 0 0 1-1.63-.73c-7.95-9-9.87-21.16-9.95-21.67a2.186 2.186 0 0 1 .329-1.703 2.168 2.168 0 0 1 1.468-.924 2.18 2.18 0 0 1 2.503 1.968c0 .11 1.82 11.42 8.91 19.45a2.17 2.17 0 0 1-1.63 3.61Z" fill="#FFC1B3"/><path d="M523.49 18.282h-6.17a1.369 1.369 0 0 1 0-2.73h6.17a1.37 1.37 0 1 1 0 2.73Z" fill="#181828"/><path d="M566.78 55.61h-81.17a51.89 51.89 0 0 1-37.49-16.16 54.5 54.5 0 0 1-15.51-38.09 1.364 1.364 0 0 1 .409-.972A1.358 1.358 0 0 1 434 0h36a41.126 41.126 0 0 1 32.32 15.55h9a1.369 1.369 0 0 1 0 2.73h-9.69a1.313 1.313 0 0 1-1.07-.53A38.405 38.405 0 0 0 470 2.73h-34.65a51.86 51.86 0 0 0 14.72 34.82 49.184 49.184 0 0 0 35.54 15.33h79.78c-.72-18.89-16.32-34.6-34.7-34.6h-1.44a1.368 1.368 0 0 1-1.487-1.365 1.36 1.36 0 0 1 .443-1.009 1.373 1.373 0 0 1 1.044-.356h1.44c20.3 0 37.45 17.72 37.45 38.7a1.357 1.357 0 0 1-1.36 1.36Z" fill="#181828"/><path d="M217 257.27h88.39v24.27H227.6a10.63 10.63 0 0 1-10.6-10.63v-13.64Z" fill="#73C7E5"/><path d="M349.03 180.492h-124.7a7.36 7.36 0 0 0-7.36 7.36v77.91a7.36 7.36 0 0 0 7.36 7.36h124.7a7.36 7.36 0 0 0 7.36-7.36v-77.91a7.36 7.36 0 0 0-7.36-7.36Z" fill="#fff"/><path opacity=".8" d="M356.39 253.492v9.11a9.702 9.702 0 0 1-9.69 9.7h-120a9.701 9.701 0 0 1-9.69-9.7v-9.11a9.69 9.69 0 0 0 9.69 9.69h120a9.692 9.692 0 0 0 9.69-9.69Z" fill="#DFF5F7"/><path d="M348.89 274.35H224.47a8.752 8.752 0 0 1-8.74-8.73V188a8.748 8.748 0 0 1 8.74-8.73h124.42a8.747 8.747 0 0 1 8.74 8.73v77.64a8.752 8.752 0 0 1-8.74 8.71Zm-124.42-92.62a6.262 6.262 0 0 0-6.26 6.25v77.64a6.272 6.272 0 0 0 6.26 6.26h124.42a6.272 6.272 0 0 0 6.26-6.26V188a6.262 6.262 0 0 0-6.26-6.25l-124.42-.02Z" fill="#181828"/><path d="M344.75 196.641H217a.933.933 0 0 1-.93-.93.93.93 0 0 1 .93-.93h127.75c.246 0 .483.098.657.273a.927.927 0 0 1 0 1.315.93.93 0 0 1-.657.272Z" fill="#181828"/><path d="M228.01 191.072a2.28 2.28 0 1 0 0-4.56 2.28 2.28 0 0 0 0 4.56Z" fill="#F1665D"/><path d="M236.44 191.001a2.28 2.28 0 1 0 0-4.56 2.28 2.28 0 0 0 0 4.56Z" fill="#F7BD3B"/><path d="M244.86 190.919a2.28 2.28 0 1 0 0-4.56 2.28 2.28 0 0 0 0 4.56Z" fill="#56C643"/><path d="M227.65 191.49h-.31a2.82 2.82 0 0 1-2.48-3.1 2.722 2.722 0 0 1 1-1.88 2.796 2.796 0 0 1 3.659.168 2.81 2.81 0 0 1 .846 2.419 2.79 2.79 0 0 1-1.476 2.095 2.805 2.805 0 0 1-1.279.318l.04-.02Zm0-4.56a1.77 1.77 0 0 0-1.75 1.56 1.765 1.765 0 0 0 1.894 1.953 1.758 1.758 0 0 0 1.531-1.217 1.758 1.758 0 0 0-1.475-2.286l-.2-.01Zm8.43 4.489h-.32a2.811 2.811 0 0 1-1.368-4.939 2.814 2.814 0 0 1 1.998-.641 2.798 2.798 0 0 1 2.379 2.01 2.789 2.789 0 0 1-.829 2.857 2.807 2.807 0 0 1-1.86.713Zm0-4.56a1.76 1.76 0 1 0 1.75 1.95 1.769 1.769 0 0 0-.37-1.29 1.731 1.731 0 0 0-1.18-.65h-.2v-.01Zm8.42 4.491c-.103.01-.207.01-.31 0a2.76 2.76 0 0 1-1.88-1 2.797 2.797 0 0 1-.6-2.07 2.757 2.757 0 0 1 1-1.88 2.82 2.82 0 0 1 2.06-.59 2.823 2.823 0 0 1 2.48 3.1 2.859 2.859 0 0 1-1 1.88c-.503.38-1.12.577-1.75.56Zm0-4.56a1.751 1.751 0 0 0-1.74 1.56 1.771 1.771 0 0 0 1.55 1.94 1.746 1.746 0 0 0 1.865-1.211 1.756 1.756 0 0 0-.54-1.874 1.763 1.763 0 0 0-.935-.405l-.2-.01Zm29.19 30.801a.707.707 0 0 1-.71-.71.713.713 0 0 1 .71-.71l54-.48a.711.711 0 0 1 .71.7.717.717 0 0 1-.71.72l-54 .48Zm0 4.788a.717.717 0 0 1-.66-.971.707.707 0 0 1 .65-.439l38.51-.48a.705.705 0 0 1 .556.174.717.717 0 0 1 .238.531.707.707 0 0 1-.794.705l-38.51.48h.01Zm0 4.802a.71.71 0 0 1 0-1.42l21.11-.48a.73.73 0 0 1 .72.7.693.693 0 0 1-.69.72l-21.11.48h-.03Zm0 8.168a.71.71 0 0 1 0-1.42l54-.48a.711.711 0 0 1 .71.7.717.717 0 0 1-.71.72l-54 .48Zm0 4.792a.721.721 0 0 1-.71-.7.707.707 0 0 1 .7-.71l38.51-.48a.705.705 0 0 1 .556.174.717.717 0 0 1 .238.531.71.71 0 0 1-.794.705l-38.51.48h.01Zm0 4.798a.71.71 0 0 1 0-1.42l21.11-.48a.73.73 0 0 1 .72.7.698.698 0 0 1-.69.72l-21.11.48h-.03Z" fill="#181828"/><path d="m261.177 209.604-.813 6.499a.77.77 0 0 0 .668.86l.01.001a.77.77 0 0 0 .86-.668l.813-6.5a.77.77 0 0 0-.669-.859l-.01-.002a.77.77 0 0 0-.859.669Zm2.644 4.519-.813 6.5a.768.768 0 0 0 .668.859l.01.002a.771.771 0 0 0 .86-.669l.813-6.499a.771.771 0 0 0-.669-.86l-.01-.001a.768.768 0 0 0-.859.668Zm-6.077 25.557-.466 3.731a.44.44 0 0 0 .382.491l.01.002a.44.44 0 0 0 .491-.382l.467-3.731a.441.441 0 0 0-.382-.492l-.01-.001a.442.442 0 0 0-.492.382Z" fill="#8C7F93"/><path d="M267.46 221.232v-8.57a4.248 4.248 0 0 0-4.23-4.27l-29.82-.06a4.263 4.263 0 0 0-4.28 4.23l-.07 36.07a4.263 4.263 0 0 0 4.23 4.28l29.82.06a4.263 4.263 0 0 0 4.28-4.23v-7.59" fill="#5FFD9F"/><path d="M230.14 229.91a.942.942 0 0 1-.95-.92l-.11-16.73c-.07-4.25 3.15-4.42 7.4-4.5a.95.95 0 0 1 .7.178.937.937 0 0 1 .37.622.951.951 0 0 1-.453.947.948.948 0 0 1-.347.123h-.23a5.854 5.854 0 0 0-4.106 1.812 5.835 5.835 0 0 0-1.614 4.188l.26 13.36a1.002 1.002 0 0 1-.92.92Z" fill="#AEFFCF"/><path d="M231.245 227.548c.624-.012 1.118-.657 1.103-1.441-.015-.784-.533-1.41-1.157-1.398-.624.012-1.118.657-1.103 1.441.015.784.533 1.41 1.157 1.398Zm1.265-3.139a.3.3 0 1 0 0-.6.3.3 0 0 0 0 .6Z" fill="#AEFFCF"/><path d="M232.1 228.74a.36.36 0 1 0 0-.72.36.36 0 0 0 0 .72Z" fill="#7DC4FF"/><path d="M233.33 226.929a.56.56 0 1 0 0-1.12.56.56 0 0 0 0 1.12Zm-2.33-6.428a.53.53 0 1 0 0-1.06.53.53 0 0 0 0 1.06Zm.44 2.268a.15.15 0 1 0 0-.3.15.15 0 0 0 0 .3Zm1.07-5.028a.47.47 0 1 0 0-.94.47.47 0 0 0 0 .94Zm-.18-2.86a.3.3 0 1 0 0-.6.3.3 0 0 0 0 .6Zm.43-2.75a.79.79 0 1 0 0-1.58.79.79 0 0 0 0 1.58Z" fill="#AEFFCF"/><path d="m262.79 253.069-29.85-.07a5.002 5.002 0 0 1-5.01-5.04l.07-36.08c0-1.326.527-2.598 1.464-3.536a5.004 5.004 0 0 1 3.536-1.464l29.83.06a5 5 0 0 1 5 5v8.57l-.06 27.54a4.993 4.993 0 0 1-1.49 3.56 4.923 4.923 0 0 1-1.6 1.077 4.928 4.928 0 0 1-1.89.383ZM233 208.389a3.503 3.503 0 0 0-3.49 3.47l-.06 36.14a3.476 3.476 0 0 0 1.002 2.479 3.465 3.465 0 0 0 2.468 1.031l29.85.06a3.528 3.528 0 0 0 2.48-1 3.442 3.442 0 0 0 1-2.46l.08-36.13a3.512 3.512 0 0 0-3.49-3.5l-29.84-.09Z" fill="#181828"/><path d="M262.75 236a1.205 1.205 0 0 1 .848.345 1.196 1.196 0 0 1 .352.845l.05 9.2a1.2 1.2 0 0 1-2.038.855 1.194 1.194 0 0 1-.352-.845l-.05-9.2a1.196 1.196 0 0 1 .732-1.108c.145-.061.301-.092.458-.092Z" fill="#12DD65"/><path d="M231.74 226.781c.244 0 .478.097.65.27.173.172.27.406.27.65v7.07a.92.92 0 0 1-1.84.01v-7.07a.926.926 0 0 1 .92-.93Z" fill="#fff"/><path d="M71.77 275.23v8.18l15.11 5.29s3.39 13 16.45 13c13.06 0 15.27-17.42 15.27-17.42l-46.83-9.05Z" fill="#73C7E5"/><path d="m26.582 254.001-2.88 8.601 69.016 23.105 2.88-8.601-69.016-23.105Z" fill="#fff"/><path d="M92.73 286.792a.994.994 0 0 1-.35-.06l-69-23.1a1.067 1.067 0 0 1-.63-.55 1.088 1.088 0 0 1-.06-.85l2.88-8.6a1.089 1.089 0 0 1 1.39-.69L96 276.002a1.1 1.1 0 0 1 .69 1.39l-2.92 8.61a1.09 1.09 0 0 1-1.04.79Zm-67.62-24.9 66.89 22.4 2.18-6.51-66.92-22.4-2.15 6.51Z" fill="#181828"/><path d="M15.54 269.602c7.97 0 14.43-6.46 14.43-14.43 0-7.969-6.46-14.43-14.43-14.43s-14.43 6.461-14.43 14.43c0 7.97 6.46 14.43 14.43 14.43Z" fill="#fff"/><path d="M15.57 270.7a15.519 15.519 0 1 1 7.027-29.355A15.519 15.519 0 0 1 15.57 270.7Zm-.05-28.87a13.35 13.35 0 0 0-12.686 17.396A13.328 13.328 0 0 0 22 266.84a13.33 13.33 0 0 0-2.76-24.48 13.494 13.494 0 0 0-3.72-.53Z" fill="#181828"/><path d="M15.54 263.151a7.98 7.98 0 1 0 0-15.96 7.98 7.98 0 0 0 0 15.96Z" fill="#F04D6A"/><path d="M15.56 264.25a9.087 9.087 0 0 1-9.035-7.933 9.089 9.089 0 0 1 13.13-9.263 9.09 9.09 0 0 1-4.095 17.196Zm0-16a6.822 6.822 0 0 0-3.31.86 6.902 6.902 0 0 0-2.7 9.35 6.881 6.881 0 0 0 12.786-2.08 6.88 6.88 0 0 0-4.856-7.86 7.009 7.009 0 0 0-1.95-.23l.03-.04Z" fill="#181828"/><path d="M123.54 222.34c6.727 0 12.18-5.453 12.18-12.18 0-6.726-5.453-12.18-12.18-12.18-6.727 0-12.18 5.454-12.18 12.18 0 6.727 5.453 12.18 12.18 12.18Z" fill="#73C7E5"/><path d="m99.57 274.896 8.813 2.139 17.163-70.727-8.814-2.139-17.163 70.727Z" fill="#fff"/><path opacity=".8" d="m122.67 217.83-1.1 4.52a14.425 14.425 0 0 1-8.65-2.82l.93-3.85a14.457 14.457 0 0 0 8.82 2.15Z" fill="#B5E5E8"/><path d="M108.38 278.142a.81.81 0 0 1-.26 0l-8.81-2.14a1.093 1.093 0 0 1-.832-.9 1.09 1.09 0 0 1 .022-.43l17.16-70.73a1.075 1.075 0 0 1 .5-.68c.248-.151.547-.198.83-.13l8.82 2.14a1.112 1.112 0 0 1 .681.497 1.105 1.105 0 0 1 .129.833l-17.17 70.72a1.108 1.108 0 0 1-1.07.85v-.03Zm-7.48-4.06 6.67 1.62 16.65-68.58-6.68-1.62-16.64 68.58Z" fill="#181828"/><path d="M121.67 217.489c7.969 0 14.43-6.461 14.43-14.43 0-7.97-6.461-14.43-14.43-14.43-7.97 0-14.43 6.46-14.43 14.43 0 7.969 6.46 14.43 14.43 14.43Z" fill="#fff"/><path d="M121.69 218.591a15.517 15.517 0 0 1-10.263-3.874 15.517 15.517 0 0 1-2.585-20.36 15.518 15.518 0 0 1 27.266 2.984 15.521 15.521 0 0 1-14.418 21.25Zm0-28.86a13.332 13.332 0 0 0-6.625 1.74 13.325 13.325 0 0 0-5.065 18.04 13.332 13.332 0 0 0 23.154.31 13.325 13.325 0 0 0-4.816-18.3 13.325 13.325 0 0 0-6.698-1.79h.05Z" fill="#181828"/><path d="M121.67 211.042a7.98 7.98 0 1 0 0-15.96 7.98 7.98 0 0 0 0 15.96Z" fill="#F04D6A"/><path d="M121.68 212.14a9.085 9.085 0 0 1-9.098-9.133 9.082 9.082 0 0 1 13.747-7.735 9.083 9.083 0 0 1 3.281 3.398 9.074 9.074 0 0 1-.115 9.002 9.065 9.065 0 0 1-7.815 4.468Zm0-16a6.879 6.879 0 0 0-6.654 5.054 6.885 6.885 0 0 0 3.13 7.748 6.872 6.872 0 0 0 4.315.91 6.882 6.882 0 0 0 5.209-10.162 6.919 6.919 0 0 0-6.03-3.51l.03-.04Z" fill="#181828"/><path d="M104.16 297.641c7.969 0 14.43-6.46 14.43-14.43 0-7.969-6.461-14.43-14.43-14.43-7.97 0-14.43 6.461-14.43 14.43 0 7.97 6.46 14.43 14.43 14.43Z" fill="#fff"/><path d="M104.19 298.74a15.525 15.525 0 0 1-13.496-7.815 15.53 15.53 0 1 1 13.496 7.815Zm0-28.87a13.192 13.192 0 0 0-6.43 1.67 13.332 13.332 0 0 0-6.794 13.159 13.334 13.334 0 0 0 9.555 11.315 13.333 13.333 0 0 0 16.973-11.686 13.334 13.334 0 0 0-1.614-7.568 13.398 13.398 0 0 0-11.69-6.89Z" fill="#181828"/><path d="M104.16 291.19a7.98 7.98 0 1 0 0-15.96 7.98 7.98 0 0 0 0 15.96Z" fill="#F04D6A"/><path d="M104.17 292.289a9.085 9.085 0 0 1-7.89-4.572 9.08 9.08 0 1 1 7.89 4.572Zm0-16a6.879 6.879 0 1 0 .791 13.712 6.878 6.878 0 0 0 5.209-10.162 6.841 6.841 0 0 0-4.12-3.28 6.922 6.922 0 0 0-1.9-.23l.02-.04Zm416.38 35.01a1.171 1.171 0 0 1-1.17-1.17v-30.65a1.17 1.17 0 1 1 2.34 0v30.65a1.169 1.169 0 0 1-1.17 1.17Zm0-37.788a1.167 1.167 0 0 1-1.17-1.17v-5.8a1.167 1.167 0 0 1 1.17-1.17 1.167 1.167 0 0 1 1.17 1.17v5.8a1.167 1.167 0 0 1-1.17 1.17Z" fill="#181828"/><path opacity=".39" d="M538.86 152.619c0 19.29-14.61 34.93-32.68 35h-1.33c-17.68-.07-32.1-15.12-32.65-34l-.31-14.83c1.42-5.57 5.44-6.1 10.47-7.16h46c5 1.05 9.05.09 10.48 5.7l.02 15.29Z" fill="#C08976"/><path d="M482 139.281h47.82v10.57a23.909 23.909 0 1 1-47.82 0v-10.57Z" fill="#AF143B"/><path d="M510.83 173.211a23.9 23.9 0 0 1-17.992-3.355 23.904 23.904 0 0 1-10.348-15.095 23.248 23.248 0 0 1-.52-4.92v-10.56h9.93v10.56a23.895 23.895 0 0 0 18.93 23.37Z" fill="#91052D"/><path d="M529.77 139.281h-39.66v14.51h39.66v-14.51Z" fill="#fff"/><path d="M529.77 139.281h-39.66v6.05h39.66v-6.05Z" fill="#FFDEDE"/><path d="M527.58 155.372v2.78c0 8.41-6.81 14-15.22 14-2.65 0-5.15 1.84-7.32.63l-.11-.92a16.75 16.75 0 0 1-.28-2.93 15.481 15.481 0 0 1 22.84-13.59l.09.03Z" fill="#EA3D90"/><path d="M515.17 172.052a15.03 15.03 0 0 1-2.76.24c-2.66 0-5.15 1.85-7.32.63l-.09-.92a15.588 15.588 0 0 1-.01-5.83c1.91 4.17 5.65 4.83 10.18 5.88Z" fill="#C60C6E"/><path d="M505 173.249a.8.8 0 0 1-.79-.66 16.27 16.27 0 0 1 .848-9.02 16.27 16.27 0 0 1 14.05-10.27 16.27 16.27 0 0 1 8.852 1.93.811.811 0 0 1-.77 1.42 14.668 14.668 0 0 0-20.634 7.514 14.663 14.663 0 0 0-.766 8.126.795.795 0 0 1-.12.606.803.803 0 0 1-.52.334l-.15.02Z" fill="#181828"/><path d="M508.67 161.492a.339.339 0 0 1-.23-.08.405.405 0 0 1-.156-.418.419.419 0 0 1 .066-.142 15.005 15.005 0 0 1 10.65-5.94.401.401 0 0 1 .376.667.393.393 0 0 1-.14.094.39.39 0 0 1-.166.029 14.198 14.198 0 0 0-10.07 5.63.36.36 0 0 1-.33.16Z" fill="#FF7DC7"/><path d="M511.049 161.13c.48-.689.514-1.495.074-1.802-.439-.306-1.184.003-1.665.691-.481.689-.514 1.495-.075 1.802.44.307 1.185-.003 1.666-.691Zm1.851-.841a.49.49 0 1 0 0-.98.49.49 0 0 0 0 .98Zm-.99 2.632a.49.49 0 1 0 .001-.979.49.49 0 0 0-.001.979Z" fill="#FF7DC7"/><path d="M528.5 155.06h-38.39a1.27 1.27 0 0 1-1.27-1.27V139.9a1.267 1.267 0 0 1 1.265-1.158 1.27 1.27 0 0 1 1.265 1.158v12.62h37.13a1.266 1.266 0 0 1 1.27 1.27 1.274 1.274 0 0 1-1.27 1.27Z" fill="#181828"/><path d="M506.93 174.939h-2.12a24.079 24.079 0 0 1-24.05-24v-9.42a3.41 3.41 0 0 1 3.41-3.41h43.39c.902 0 1.768.358 2.407.996.64.637 1 1.502 1.003 2.404v9.41a24.055 24.055 0 0 1-14.844 22.229 24.057 24.057 0 0 1-9.206 1.831l.01-.04Zm-22.76-34.45a1.001 1.001 0 0 0-.7.29 1 1 0 0 0-.29.7v9.42a21.642 21.642 0 0 0 21.62 21.61h2.12a21.598 21.598 0 0 0 15.3-6.327 21.598 21.598 0 0 0 6.32-15.303v-9.4a1.003 1.003 0 0 0-1-1l-43.37.01Z" fill="#181828"/><path d="M545.93 133.711h-2.72a2.003 2.003 0 0 1-2-1.63L533 89.301a2.006 2.006 0 0 1 1.132-2.211c.273-.124.569-.185.868-.18h2.72a2 2 0 0 1 2 1.63l8.26 42.781c.059.297.05.604-.026.898-.077.293-.22.565-.417.796-.198.23-.445.412-.723.533-.279.12-.581.176-.884.163Z" fill="#fff"/><path opacity=".25" d="M535 132.44a1.998 1.998 0 0 1-2-1.63L524.73 88a2.006 2.006 0 0 1 1.132-2.21c.273-.125.569-.186.868-.18a2 2 0 0 1 2 1.63l8.26 42.78a2.005 2.005 0 0 1-1.117 2.236 2.006 2.006 0 0 1-.873.184Z" fill="#fff"/><path d="M535.58 82.54a27.59 27.59 0 1 0 27.58 27.579 27.58 27.58 0 0 0-27.58-27.58Zm0 47.699a20.13 20.13 0 1 1 20.12-20.12 20.12 20.12 0 0 1-20.12 20.12Z" fill="#6F6372"/><path d="M563.16 110.121v1.6a27.583 27.583 0 0 0-27.535-26.005 27.579 27.579 0 0 0-27.535 26.005c0-.53-.06-1.07-.06-1.6a27.579 27.579 0 0 1 8.081-19.509 27.584 27.584 0 0 1 19.509-8.08 27.59 27.59 0 0 1 27.59 27.589h-.05Z" fill="#928F93"/><path d="M535.81 138.559a28.844 28.844 0 0 1-28.286-34.466 28.836 28.836 0 0 1 22.659-22.66 28.84 28.84 0 0 1 34.467 28.286 28.87 28.87 0 0 1-28.84 28.84Zm0-55.18a26.342 26.342 0 0 0-18.639 44.962 26.344 26.344 0 0 0 28.706 5.714 26.343 26.343 0 0 0 16.263-24.336 26.37 26.37 0 0 0-26.33-26.34Z" fill="#181828"/><path d="M535.81 131.092a21.379 21.379 0 0 1-15.128-36.498 21.38 21.38 0 0 1 36.498 15.128 21.4 21.4 0 0 1-21.37 21.37Zm0-40.24a18.873 18.873 0 0 0-17.434 11.649 18.871 18.871 0 1 0 36.304 7.221 18.882 18.882 0 0 0-18.87-18.87Z" fill="#181828"/><path d="M485.85 133.711h-2.72a2.003 2.003 0 0 1-2-1.63l-8.23-42.78a1.99 1.99 0 0 1 .428-1.674 1.99 1.99 0 0 1 1.572-.716h2.71a2 2 0 0 1 2 1.63l8.25 42.78a2.002 2.002 0 0 1-2.01 2.39Z" fill="#fff"/><path opacity=".25" d="M474.88 132.44a1.998 1.998 0 0 1-2-1.63L464.65 88a1.99 1.99 0 0 1 .428-1.674 1.99 1.99 0 0 1 1.572-.716 2 2 0 0 1 2 1.63l8.25 42.78a1.997 1.997 0 0 1-.42 1.702 1.994 1.994 0 0 1-1.6.718Z" fill="#fff"/><path d="M475.49 82.54a27.589 27.589 0 0 0-27.059 32.975 27.592 27.592 0 0 0 21.682 21.675 27.584 27.584 0 0 0 28.322-11.74 27.595 27.595 0 0 0-12.388-40.814 27.576 27.576 0 0 0-10.557-2.097Zm0 47.699a20.128 20.128 0 0 1-19.754-24.055 20.136 20.136 0 0 1 15.819-15.819 20.131 20.131 0 1 1 3.935 39.874Z" fill="#6F6372"/><path d="M503.08 110.121c0 .53 0 1.07-.06 1.6a27.583 27.583 0 0 0-27.53-25.92 27.58 27.58 0 0 0-27.53 25.92c0-.53-.06-1.07-.06-1.6a27.59 27.59 0 0 1 55.18 0Z" fill="#928F93"/><path d="M475.72 138.559a28.85 28.85 0 0 1-16.023-4.86 28.837 28.837 0 0 1-4.37-44.373 28.837 28.837 0 0 1 44.372 4.37 28.84 28.84 0 0 1 4.861 16.023 28.881 28.881 0 0 1-28.84 28.84Zm0-55.18a26.34 26.34 0 1 0 26.34 26.34 26.371 26.371 0 0 0-26.34-26.34Z" fill="#181828"/><path d="M475.72 131.092a21.377 21.377 0 0 1-19.754-13.201 21.384 21.384 0 0 1 4.639-23.3 21.381 21.381 0 0 1 36.495 15.131 21.403 21.403 0 0 1-21.38 21.37Zm0-40.24a18.87 18.87 0 1 0 18.87 18.87 18.887 18.887 0 0 0-18.87-18.87Z" fill="#181828"/><path d="M482.792 176.762c.502-1.515.204-2.977-.666-3.265-.87-.289-1.983.706-2.485 2.221-.502 1.515-.204 2.977.666 3.265.87.289 1.983-.706 2.485-2.221Z" fill="#fff"/><path opacity=".55" d="M486.45 178.79a.93.93 0 1 0 0-1.86.93.93 0 0 0 0 1.86Zm-2.84.011a.72.72 0 1 1 0 1.44.72.72 0 0 1 0-1.44Zm.95-4.979a.95.95 0 1 0 0-1.9.95.95 0 0 0 0 1.9Z" fill="#fff"/><path d="M543.44 180.22a1.154 1.154 0 0 1-.87-.39l-4.57-5.05a1.172 1.172 0 0 1 .944-1.905c.3.009.585.133.796.345l4.53 5.05a1.169 1.169 0 0 1-.09 1.65 1.182 1.182 0 0 1-.74.3Zm12.56-14.1a1.168 1.168 0 0 1-.87-.39l-4.53-5a1.17 1.17 0 0 1 1.74-1.56l4.53 5a1.17 1.17 0 0 1-.87 1.95Zm-30.74 23.08a1.172 1.172 0 0 1-1.1-.78L521.9 182a1.174 1.174 0 0 1 .267-1.337 1.179 1.179 0 0 1 .89-.312 1.175 1.175 0 0 1 1.043.879l2.26 6.39c.052.145.075.298.068.451a1.173 1.173 0 0 1-.385.808 1.156 1.156 0 0 1-.393.231 1.068 1.068 0 0 1-.39.09Zm8.23-1.748a1.17 1.17 0 0 1-1.1-.78l-1.46-4.14a1.17 1.17 0 1 1 2.21-.77l1.46 4.13a1.175 1.175 0 0 1-.326 1.258 1.172 1.172 0 0 1-.394.232 1.085 1.085 0 0 1-.39.07Zm.64-17.901a1.144 1.144 0 0 1-.585-.173 1.144 1.144 0 0 1-.415-.447l-1.66-3.08a1.167 1.167 0 0 1-.272-.972 1.17 1.17 0 0 1 2.272-.138l1.66 3.09a1.147 1.147 0 0 1 .094.888 1.155 1.155 0 0 1-.564.692 1.255 1.255 0 0 1-.53.14Zm11.24-2.611a1.16 1.16 0 0 1-1-.48l-2.08-2.89a1.167 1.167 0 0 1 .306-1.566 1.173 1.173 0 0 1 1.584.196l2.09 2.9a1.173 1.173 0 0 1-.27 1.62 1.148 1.148 0 0 1-.63.22Zm-78.06 13.28a1.172 1.172 0 0 1-.87-1.95l4.53-5.05a1.173 1.173 0 0 1 .816-.431 1.161 1.161 0 0 1 .875.295 1.161 1.161 0 0 1 .388.837 1.173 1.173 0 0 1-.339.859l-4.53 5.05a1.153 1.153 0 0 1-.87.39Zm-12.56-14.101a1.167 1.167 0 0 1-.87-1.95l4.53-5a1.17 1.17 0 1 1 1.74 1.56l-4.53 5a1.17 1.17 0 0 1-.87.39Zm30.74 23.081a1.08 1.08 0 0 1-.39-.07 1.158 1.158 0 0 1-.71-1.49l2.26-6.39a1.168 1.168 0 0 1 1.521-.817 1.176 1.176 0 0 1 .689.644 1.16 1.16 0 0 1-.01.943l-2.26 6.4a1.173 1.173 0 0 1-1.1.78Zm-8.23-1.748a1.002 1.002 0 0 1-.39-.07 1.158 1.158 0 0 1-.393-.232 1.172 1.172 0 0 1-.327-1.258l1.46-4.13a1.172 1.172 0 0 1 1.49-.72 1.169 1.169 0 0 1 .72 1.49l-1.46 4.14a1.17 1.17 0 0 1-1.1.78Zm-.64-17.903a1.166 1.166 0 0 1-1.114-.832 1.157 1.157 0 0 1 .094-.888l1.66-3.09a1.171 1.171 0 1 1 2.05 1.11l-1.66 3.08a1.163 1.163 0 0 1-.427.456 1.154 1.154 0 0 1-.603.164Zm-11.24-2.608a1.164 1.164 0 0 1-1.147-.975c-.051-.303.02-.614.197-.865l2.08-2.9a1.182 1.182 0 0 1 1.219-.455 1.183 1.183 0 0 1 .727.525 1.168 1.168 0 0 1-.046 1.3l-2.08 2.89a1.161 1.161 0 0 1-.95.48Zm7.84-10.282a1.16 1.16 0 0 1-.979-.581 1.164 1.164 0 0 1-.021-1.139l1.66-3.09a1.169 1.169 0 0 1 2.06 1.11l-1.66 3.09a1.15 1.15 0 0 1-.443.456 1.15 1.15 0 0 1-.617.154ZM462 154.06a1.208 1.208 0 0 1-.68-.22 1.155 1.155 0 0 1-.476-.759 1.167 1.167 0 0 1 .206-.871l2.08-2.89a1.156 1.156 0 0 1 1.63-.27 1.183 1.183 0 0 1 .27 1.63l-2.08 2.89a1.18 1.18 0 0 1-.95.49Zm80.11 1.02a1.155 1.155 0 0 1-1-.61l-1.66-3.09a1.181 1.181 0 0 1-.177-.447 1.182 1.182 0 0 1 .23-.914 1.164 1.164 0 0 1 1.719-.141c.119.11.213.244.278.392l1.67 3.09a1.164 1.164 0 0 1-.021 1.139 1.176 1.176 0 0 1-.979.581h-.06Zm11.24-2.599a1.177 1.177 0 0 1-1-.49l-2.08-2.89a1.185 1.185 0 0 1-.246-.892 1.181 1.181 0 0 1 .478-.791 1.16 1.16 0 0 1 .904-.197 1.155 1.155 0 0 1 .764.52l2.08 2.89a1.166 1.166 0 0 1-.27 1.63 1.137 1.137 0 0 1-.63.22Z" fill="#181828"/><path d="M638.68 228.721a8.47 8.47 0 0 0 8.47-8.47 8.47 8.47 0 0 0-8.47-8.47 8.47 8.47 0 0 0-8.47 8.47 8.47 8.47 0 0 0 8.47 8.47Z" fill="#F7BD3D"/><path d="M647.15 220.249a8.467 8.467 0 0 1-8.47 8.47 8.467 8.467 0 0 1-8.47-8.47c0-4.68 3.79 1.05 8.47 1.05 4.68 0 8.47-5.73 8.47-1.05Z" fill="#fff"/><path d="M638.68 229.931a9.694 9.694 0 0 1-8.954-5.984 9.689 9.689 0 0 1 7.069-13.211 9.69 9.69 0 1 1 1.885 19.195Zm0-16.93a7.247 7.247 0 0 0-6.698 4.475 7.247 7.247 0 0 0 5.283 9.885 7.246 7.246 0 0 0 7.443-3.082 7.257 7.257 0 0 0 1.222-4.028 7.263 7.263 0 0 0-7.25-7.25Z" fill="#181828"/><path d="M598.1 228.721a8.47 8.47 0 0 0 8.47-8.47 8.47 8.47 0 0 0-8.47-8.47 8.47 8.47 0 0 0-8.47 8.47 8.47 8.47 0 0 0 8.47 8.47Z" fill="#F7BD3D"/><path d="M606.57 220.249a8.471 8.471 0 0 1-14.459 5.989 8.467 8.467 0 0 1-2.481-5.989c0-4.68 3.79 1.05 8.47 1.05 4.68 0 8.47-5.73 8.47-1.05Z" fill="#fff"/><path d="M598.1 229.931a9.69 9.69 0 1 1 9.68-9.68 9.7 9.7 0 0 1-9.68 9.68Zm0-16.93a7.247 7.247 0 0 0-6.698 4.475 7.247 7.247 0 0 0 5.284 9.885 7.242 7.242 0 0 0 7.442-3.082 7.25 7.25 0 0 0 1.222-4.028 7.259 7.259 0 0 0-7.25-7.25Z" fill="#181828"/></g></svg>