<svg width="2030" height="1763" viewBox="0 0 2030 1763" fill="none" xmlns="http://www.w3.org/2000/svg">
<g clip-path="url(#clip0_333_3834)">
<mask id="mask0_333_3834" style="mask-type:luminance" maskUnits="userSpaceOnUse" x="0" y="0" width="2030" height="1763">
<path d="M2029.57 0H0V1762.24H2029.57V0Z" fill="white"/>
</mask>
<g mask="url(#mask0_333_3834)">
<g opacity="0.2">
<path opacity="0.2" d="M1539.99 200.668H505.05V1272.03H1539.99V200.668Z" fill="#D9FAFF"/>
<path opacity="0.2" d="M939.68 221.906L780.06 724.206H689.29L848.92 221.906H939.68Z" fill="white"/>
<path opacity="0.2" d="M799.56 221.906L639.94 724.206H587.39L747 221.906H799.56Z" fill="white"/>
<path opacity="0.2" d="M1476.88 217.359L1317.25 719.659H1226.49L1386.12 217.359H1476.88Z" fill="white"/>
<path opacity="0.2" d="M1336.75 217.359L1177.14 719.659H1124.59L1284.2 217.359H1336.75Z" fill="white"/>
<path opacity="0.2" d="M1476.88 756.078L1317.25 1258.37H1226.49L1386.12 756.078H1476.88Z" fill="white"/>
<path opacity="0.2" d="M1336.75 756.078L1177.14 1258.37H1124.59L1284.2 756.078H1336.75Z" fill="white"/>
<path opacity="0.2" d="M939.68 756.078L780.06 1258.37H689.29L848.92 756.078H939.68Z" fill="white"/>
<path opacity="0.2" d="M799.56 756.078L639.94 1258.37H587.39L747 756.078H799.56Z" fill="white"/>
<path opacity="0.2" d="M1040.73 1274.65V220.809C1040.73 216.39 1037.15 212.809 1032.73 212.809H1010.79C1006.37 212.809 1002.79 216.39 1002.79 220.809V1274.65C1002.79 1279.07 1006.37 1282.65 1010.79 1282.65H1032.73C1037.15 1282.65 1040.73 1279.07 1040.73 1274.65Z" fill="#E2B38E"/>
<path opacity="0.2" d="M486.85 217.777V1271.62C486.85 1276.04 490.431 1279.62 494.85 1279.62H516.79C521.208 1279.62 524.79 1276.04 524.79 1271.62V217.777C524.79 213.359 521.208 209.777 516.79 209.777H494.85C490.431 209.777 486.85 213.359 486.85 217.777Z" fill="#E2B38E"/>
<path opacity="0.2" d="M1521.78 217.777V1271.62C1521.78 1276.04 1525.36 1279.62 1529.78 1279.62H1551.72C1556.14 1279.62 1559.72 1276.04 1559.72 1271.62V217.777C1559.72 213.359 1556.14 209.777 1551.72 209.777H1529.78C1525.36 209.777 1521.78 213.359 1521.78 217.777Z" fill="#E2B38E"/>
<path opacity="0.2" d="M1031.21 1287.65H1009.27C1005.82 1287.65 1002.52 1286.28 1000.08 1283.84C997.639 1281.4 996.27 1278.1 996.27 1274.65V220.809C996.27 217.361 997.639 214.054 1000.08 211.616C1002.52 209.178 1005.82 207.809 1009.27 207.809H1031.21C1034.66 207.809 1037.96 209.178 1040.4 211.616C1042.84 214.054 1044.21 217.361 1044.21 220.809V1274.65C1044.21 1278.1 1042.84 1281.4 1040.4 1283.84C1037.96 1286.28 1034.66 1287.65 1031.21 1287.65ZM1009.28 217.809C1008.48 217.809 1007.72 218.125 1007.16 218.687C1006.6 219.25 1006.28 220.013 1006.28 220.809V1274.65C1006.28 1275.44 1006.6 1276.21 1007.16 1276.77C1007.72 1277.33 1008.48 1277.65 1009.28 1277.65H1031.22C1032.02 1277.65 1032.78 1277.33 1033.34 1276.77C1033.9 1276.21 1034.22 1275.44 1034.22 1274.65V220.809C1034.22 220.013 1033.9 219.25 1033.34 218.687C1032.78 218.125 1032.02 217.809 1031.22 217.809H1009.28Z" fill="#385868"/>
<path opacity="0.2" d="M515.26 1284.62H493.33C489.882 1284.62 486.575 1283.25 484.137 1280.81C481.699 1278.37 480.33 1275.07 480.33 1271.62V217.777C480.33 214.33 481.699 211.023 484.137 208.585C486.575 206.147 489.882 204.777 493.33 204.777H515.27C518.717 204.777 522.024 206.147 524.462 208.585C526.9 211.023 528.27 214.33 528.27 217.777V1271.62C528.27 1273.33 527.933 1275.02 527.279 1276.59C526.625 1278.17 525.667 1279.61 524.458 1280.81C523.25 1282.02 521.816 1282.98 520.238 1283.63C518.659 1284.28 516.968 1284.62 515.26 1284.62ZM493.33 214.777C492.534 214.777 491.771 215.093 491.208 215.656C490.646 216.219 490.33 216.982 490.33 217.777V1271.62C490.33 1272.41 490.646 1273.18 491.208 1273.74C491.771 1274.3 492.534 1274.62 493.33 1274.62H515.27C516.065 1274.62 516.828 1274.3 517.391 1273.74C517.954 1273.18 518.27 1272.41 518.27 1271.62V217.777C518.27 216.982 517.954 216.219 517.391 215.656C516.828 215.093 516.065 214.777 515.27 214.777H493.33Z" fill="#385868"/>
<path opacity="0.2" d="M1550.2 1284.62H1528.26C1524.81 1284.62 1521.51 1283.25 1519.07 1280.81C1516.63 1278.37 1515.26 1275.07 1515.26 1271.62V217.777C1515.26 214.33 1516.63 211.023 1519.07 208.585C1521.51 206.147 1524.81 204.777 1528.26 204.777H1550.2C1553.65 204.777 1556.95 206.147 1559.39 208.585C1561.83 211.023 1563.2 214.33 1563.2 217.777V1271.62C1563.2 1275.07 1561.83 1278.37 1559.39 1280.81C1556.95 1283.25 1553.65 1284.62 1550.2 1284.62ZM1528.26 214.777C1527.46 214.777 1526.7 215.093 1526.14 215.656C1525.58 216.219 1525.26 216.982 1525.26 217.777V1271.62C1525.26 1272.41 1525.58 1273.18 1526.14 1273.74C1526.7 1274.3 1527.46 1274.62 1528.26 1274.62H1550.2C1551 1274.62 1551.76 1274.3 1552.32 1273.74C1552.88 1273.18 1553.2 1272.41 1553.2 1271.62V217.777C1553.2 216.982 1552.88 216.219 1552.32 215.656C1551.76 215.093 1551 214.777 1550.2 214.777H1528.26Z" fill="#385868"/>
<path opacity="0.2" d="M1560.82 180.938H488.8C484.382 180.938 480.8 184.519 480.8 188.938V210.878C480.8 215.296 484.382 218.878 488.8 218.878H1560.82C1565.24 218.878 1568.82 215.296 1568.82 210.878V188.938C1568.82 184.519 1565.24 180.938 1560.82 180.938Z" fill="#E2B38E"/>
<path opacity="0.2" d="M1559.28 223.878H487.28C483.832 223.878 480.525 222.508 478.087 220.07C475.649 217.632 474.28 214.325 474.28 210.878V188.938C474.28 185.49 475.649 182.183 478.087 179.745C480.525 177.307 483.832 175.938 487.28 175.938H1559.28C1562.73 175.938 1566.03 177.307 1568.47 179.745C1570.91 182.183 1572.28 185.49 1572.28 188.938V210.878C1572.28 214.325 1570.91 217.632 1568.47 220.07C1566.03 222.508 1562.73 223.878 1559.28 223.878ZM487.28 185.938C486.484 185.938 485.721 186.254 485.158 186.816C484.596 187.379 484.28 188.142 484.28 188.938V210.878C484.28 211.673 484.596 212.436 485.158 212.999C485.721 213.561 486.484 213.878 487.28 213.878H1559.28C1560.08 213.878 1560.84 213.561 1561.4 212.999C1561.96 212.436 1562.28 211.673 1562.28 210.878V188.938C1562.28 188.142 1561.96 187.379 1561.4 186.816C1560.84 186.254 1560.08 185.938 1559.28 185.938H487.28Z" fill="#385868"/>
<path opacity="0.2" d="M1560.82 1252.3H488.8C484.382 1252.3 480.8 1255.88 480.8 1260.3V1282.24C480.8 1286.66 484.382 1290.24 488.8 1290.24H1560.82C1565.24 1290.24 1568.82 1286.66 1568.82 1282.24V1260.3C1568.82 1255.88 1565.24 1252.3 1560.82 1252.3Z" fill="#E2B38E"/>
<path opacity="0.2" d="M1559.28 1295.24H487.28C483.832 1295.24 480.525 1293.87 478.087 1291.43C475.649 1288.99 474.28 1285.68 474.28 1282.24V1260.3C474.28 1256.85 475.649 1253.54 478.087 1251.1C480.525 1248.67 483.832 1247.3 487.28 1247.3H1559.28C1562.73 1247.3 1566.03 1248.67 1568.47 1251.1C1570.91 1253.54 1572.28 1256.85 1572.28 1260.3V1282.24C1572.28 1285.68 1570.91 1288.99 1568.47 1291.43C1566.03 1293.87 1562.73 1295.24 1559.28 1295.24ZM487.28 1257.3C486.484 1257.3 485.721 1257.61 485.158 1258.18C484.596 1258.74 484.28 1259.5 484.28 1260.3V1282.24C484.28 1283.03 484.596 1283.8 485.158 1284.36C485.721 1284.92 486.484 1285.24 487.28 1285.24H1559.28C1560.08 1285.24 1560.84 1284.92 1561.4 1284.36C1561.96 1283.8 1562.28 1283.03 1562.28 1282.24V1260.3C1562.28 1259.5 1561.96 1258.74 1561.4 1258.18C1560.84 1257.61 1560.08 1257.3 1559.28 1257.3H487.28Z" fill="#385868"/>
<path opacity="0.2" d="M1560.82 721.168H488.8C484.382 721.168 480.8 724.75 480.8 729.168V751.108C480.8 755.526 484.382 759.108 488.8 759.108H1560.82C1565.24 759.108 1568.82 755.526 1568.82 751.108V729.168C1568.82 724.75 1565.24 721.168 1560.82 721.168Z" fill="#E2B38E"/>
<path opacity="0.2" d="M1559.28 764.108H487.28C483.832 764.108 480.525 762.738 478.087 760.3C475.649 757.862 474.28 754.556 474.28 751.108V729.168C474.28 725.72 475.649 722.414 478.087 719.976C480.525 717.538 483.832 716.168 487.28 716.168H1559.28C1562.73 716.168 1566.03 717.538 1568.47 719.976C1570.91 722.414 1572.28 725.72 1572.28 729.168V751.108C1572.28 754.556 1570.91 757.862 1568.47 760.3C1566.03 762.738 1562.73 764.108 1559.28 764.108ZM487.28 726.168C486.484 726.168 485.721 726.484 485.158 727.047C484.596 727.609 484.28 728.372 484.28 729.168V751.108C484.28 751.904 484.596 752.667 485.158 753.229C485.721 753.792 486.484 754.108 487.28 754.108H1559.28C1560.08 754.108 1560.84 753.792 1561.4 753.229C1561.96 752.667 1562.28 751.904 1562.28 751.108V729.168C1562.28 728.372 1561.96 727.609 1561.4 727.047C1560.84 726.484 1560.08 726.168 1559.28 726.168H487.28Z" fill="#385868"/>
</g>
<g opacity="0.2">
<path opacity="0.2" d="M151.38 1050.15V1058.15H275.38V1050.15H151.38Z" fill="#385868"/>
<path opacity="0.2" d="M313.361 1083.96L313.322 1091.96L437.321 1092.56L437.36 1084.56L313.361 1083.96Z" fill="#385868"/>
<path opacity="0.2" d="M158.699 1145.55L157.98 1217.45L165.98 1217.53L166.699 1145.63L158.699 1145.55Z" fill="#385868"/>
<path opacity="0.2" d="M327.262 1016.88L326.543 1088.78L334.543 1088.86L335.262 1016.96L327.262 1016.88Z" fill="#385868"/>
<path opacity="0.2" d="M217.04 1114.4H372.81C383.171 1114.4 391.57 1106 391.57 1095.64V1077.76C391.57 1067.4 383.171 1059 372.81 1059H217.04C206.679 1059 198.28 1067.4 198.28 1077.76V1095.64C198.28 1106 206.679 1114.4 217.04 1114.4Z" fill="#F2F2F2"/>
<path opacity="0.2" d="M372.81 1118.41H217C210.966 1118.4 205.181 1116 200.915 1111.73C196.648 1107.47 194.248 1101.68 194.24 1095.65V1077.78C194.242 1071.74 196.641 1065.95 200.908 1061.68C205.175 1057.41 210.962 1055.01 217 1055H372.81C378.844 1055.01 384.628 1057.41 388.895 1061.68C393.161 1065.94 395.562 1071.73 395.57 1077.76V1095.63C395.567 1101.67 393.169 1107.46 388.902 1111.73C384.635 1116 378.847 1118.4 372.81 1118.41ZM217 1063C213.087 1063.01 209.336 1064.56 206.569 1067.33C203.802 1070.1 202.245 1073.85 202.24 1077.76V1095.63C202.24 1099.55 203.794 1103.3 206.562 1106.07C209.329 1108.85 213.083 1110.4 217 1110.41H372.81C376.723 1110.4 380.474 1108.85 383.241 1106.08C386.008 1103.31 387.564 1099.56 387.57 1095.65V1077.78C387.57 1073.86 386.015 1070.11 383.248 1067.34C380.48 1064.56 376.726 1063.01 372.81 1063H217Z" fill="#385868"/>
<path opacity="0.2" d="M84.0799 1169.8H239.85C250.211 1169.8 258.61 1161.4 258.61 1151.04V1133.16C258.61 1122.8 250.211 1114.4 239.85 1114.4H84.0799C73.719 1114.4 65.3199 1122.8 65.3199 1133.16V1151.04C65.3199 1161.4 73.719 1169.8 84.0799 1169.8Z" fill="#F2F2F2"/>
<path opacity="0.2" d="M239.85 1173.81H84.0898C81.097 1173.8 78.134 1173.21 75.37 1172.06C72.606 1170.92 70.0951 1169.24 67.9807 1167.12C65.8663 1165 64.1898 1162.49 63.047 1159.72C61.9041 1156.95 61.3172 1153.99 61.3198 1151V1133.13C61.3278 1127.09 63.7282 1121.31 67.9949 1117.04C72.2615 1112.78 78.0459 1110.38 84.0798 1110.37H239.85C245.884 1110.38 251.668 1112.78 255.935 1117.04C260.201 1121.31 262.602 1127.09 262.61 1133.13V1151C262.615 1157.04 260.221 1162.84 255.952 1167.11C251.684 1171.39 245.892 1173.8 239.85 1173.81ZM84.0898 1118.41C80.1769 1118.41 76.4257 1119.97 73.6588 1122.74C70.8919 1125.5 69.3351 1129.25 69.3298 1133.17V1151C69.3351 1154.91 70.8919 1158.66 73.6588 1161.43C76.4257 1164.2 80.1769 1165.75 84.0898 1165.76H239.85C243.763 1165.75 247.514 1164.2 250.281 1161.43C253.048 1158.66 254.605 1154.91 254.61 1151V1133.13C254.605 1129.21 253.048 1125.46 250.281 1122.7C247.514 1119.93 243.763 1118.37 239.85 1118.37L84.0898 1118.41Z" fill="#385868"/>
</g>
<g opacity="0.2">
<path opacity="0.2" d="M90.3501 223.039V231.039H214.35V223.039H90.3501Z" fill="#385868"/>
<path opacity="0.2" d="M252.042 252.777L252.002 260.777L376.001 261.383L376.04 253.383L252.042 252.777Z" fill="#385868"/>
<path opacity="0.2" d="M97.2263 312.983L96.5073 384.883L104.507 384.963L105.226 313.063L97.2263 312.983Z" fill="#385868"/>
<path opacity="0.2" d="M265.809 184.33L265.09 256.23L273.09 256.31L273.809 184.41L265.809 184.33Z" fill="#385868"/>
<path opacity="0.2" d="M155.72 283.262H311.49C321.851 283.262 330.25 274.863 330.25 264.502V246.622C330.25 236.261 321.851 227.862 311.49 227.862H155.72C145.359 227.862 136.96 236.261 136.96 246.622V264.502C136.96 274.863 145.359 283.262 155.72 283.262Z" fill="#F2F2F2"/>
<path opacity="0.2" d="M311.48 287.249H155.73C149.701 287.234 143.925 284.83 139.664 280.564C135.404 276.298 133.008 270.518 133 264.489V246.619C133.008 240.585 135.408 234.801 139.675 230.534C143.942 226.268 149.726 223.867 155.76 223.859H311.48C317.514 223.867 323.298 226.268 327.565 230.534C331.832 234.801 334.232 240.585 334.24 246.619V264.489C334.232 270.523 331.832 276.308 327.565 280.574C323.298 284.841 317.514 287.241 311.48 287.249ZM155.72 231.849C151.812 231.865 148.07 233.428 145.311 236.196C142.553 238.964 141.003 242.712 141 246.619V264.489C141.005 268.402 142.562 272.154 145.329 274.92C148.096 277.687 151.847 279.244 155.76 279.249H311.48C315.393 279.244 319.144 277.687 321.911 274.92C324.678 272.154 326.235 268.402 326.24 264.489V246.619C326.235 242.706 324.678 238.955 321.911 236.188C319.144 233.421 315.393 231.865 311.48 231.859L155.72 231.849Z" fill="#385868"/>
<path opacity="0.2" d="M22.76 338.648H178.53C188.891 338.648 197.29 330.249 197.29 319.888V302.008C197.29 291.648 188.891 283.248 178.53 283.248H22.76C12.3992 283.248 4.00005 291.648 4.00005 302.008V319.888C4.00005 330.249 12.3992 338.648 22.76 338.648Z" fill="#F2F2F2"/>
<path opacity="0.2" d="M178.52 342.658H22.76C16.7244 342.65 10.9384 340.249 6.67149 335.98C2.40459 331.711 0.00529151 325.924 0 319.888V301.998C0.0079376 295.964 2.40841 290.18 6.67502 285.913C10.9416 281.647 16.7261 279.246 22.76 279.238H178.52C184.556 279.244 190.343 281.643 194.611 285.91C198.88 290.177 201.282 295.963 201.29 301.998V319.868C201.29 325.909 198.892 331.703 194.622 335.976C190.352 340.25 184.561 342.653 178.52 342.658ZM22.76 287.248C18.8488 287.254 15.0991 288.809 12.3325 291.574C9.56587 294.338 8.00794 298.087 8 301.998V319.868C8.00529 323.781 9.56206 327.532 12.3289 330.299C15.0958 333.066 18.847 334.623 22.76 334.628H178.52C182.433 334.623 186.184 333.066 188.951 330.299C191.718 327.532 193.275 323.781 193.28 319.868V301.998C193.275 298.085 191.718 294.334 188.951 291.567C186.184 288.8 182.433 287.244 178.52 287.238L22.76 287.248Z" fill="#385868"/>
</g>
<g opacity="0.2">
<path opacity="0.2" d="M1744.7 1087.88L1744.66 1095.88L1868.67 1096.48L1868.7 1088.48L1744.7 1087.88Z" fill="#385868"/>
<path opacity="0.2" d="M1905.61 1116.8L1905.57 1124.8L2029.58 1125.4L2029.62 1117.4L1905.61 1116.8Z" fill="#385868"/>
<path opacity="0.2" d="M1753.62 1178.4L1752.9 1250.3L1760.9 1250.38L1761.62 1178.48L1753.62 1178.4Z" fill="#385868"/>
<path opacity="0.2" d="M1922.18 1049.75L1921.47 1121.65L1929.47 1121.73L1930.18 1049.83L1922.18 1049.75Z" fill="#385868"/>
<path opacity="0.2" d="M1809.26 1147.25H1965.03C1975.39 1147.25 1983.79 1138.85 1983.79 1128.49V1110.61C1983.79 1100.25 1975.39 1091.85 1965.03 1091.85H1809.26C1798.9 1091.85 1790.5 1100.25 1790.5 1110.61V1128.49C1790.5 1138.85 1798.9 1147.25 1809.26 1147.25Z" fill="#F2F2F2"/>
<path opacity="0.2" d="M1965 1151.26H1809.27C1803.24 1151.25 1797.45 1148.85 1793.18 1144.58C1788.92 1140.32 1786.52 1134.53 1786.51 1128.5V1110.63C1786.52 1104.59 1788.92 1098.81 1793.18 1094.54C1797.45 1090.28 1803.24 1087.88 1809.27 1087.87H1965C1971.03 1087.88 1976.82 1090.28 1981.08 1094.54C1985.35 1098.81 1987.75 1104.59 1987.76 1110.63V1128.5C1987.75 1134.53 1985.35 1140.32 1981.08 1144.58C1976.82 1148.85 1971.03 1151.25 1965 1151.26ZM1809.24 1095.86C1805.33 1095.86 1801.58 1097.42 1798.81 1100.19C1796.04 1102.95 1794.49 1106.7 1794.48 1110.62V1128.49C1794.49 1132.4 1796.04 1136.15 1798.81 1138.92C1801.58 1141.69 1805.33 1143.24 1809.24 1143.25H1965C1968.91 1143.24 1972.66 1141.69 1975.43 1138.92C1978.2 1136.15 1979.75 1132.4 1979.76 1128.49V1110.62C1979.75 1106.7 1978.2 1102.95 1975.43 1100.19C1972.66 1097.42 1968.91 1095.86 1965 1095.86H1809.24Z" fill="#385868"/>
<path opacity="0.2" d="M1676.3 1202.66H1832.07C1842.43 1202.66 1850.83 1194.26 1850.83 1183.9V1166.02C1850.83 1155.66 1842.43 1147.26 1832.07 1147.26H1676.3C1665.94 1147.26 1657.54 1155.66 1657.54 1166.02V1183.9C1657.54 1194.26 1665.94 1202.66 1676.3 1202.66Z" fill="#F2F2F2"/>
<path opacity="0.2" d="M1832.06 1206.66H1676.3C1670.27 1206.65 1664.48 1204.25 1660.21 1199.98C1655.95 1195.72 1653.55 1189.93 1653.54 1183.9V1166C1653.55 1159.96 1655.95 1154.18 1660.21 1149.91C1664.48 1145.65 1670.27 1143.25 1676.3 1143.24H1832.06C1838.09 1143.25 1843.88 1145.65 1848.15 1149.91C1852.41 1154.18 1854.81 1159.96 1854.82 1166V1183.87C1854.82 1189.91 1852.42 1195.7 1848.16 1199.97C1843.89 1204.25 1838.1 1206.65 1832.06 1206.66ZM1676.3 1151.26C1672.39 1151.26 1668.64 1152.82 1665.87 1155.59C1663.1 1158.35 1661.55 1162.11 1661.54 1166.02V1183.89C1661.55 1187.8 1663.1 1191.55 1665.87 1194.32C1668.64 1197.09 1672.39 1198.64 1676.3 1198.65H1832.06C1835.97 1198.64 1839.72 1197.09 1842.49 1194.32C1845.26 1191.55 1846.81 1187.8 1846.82 1183.89V1166C1846.81 1162.09 1845.26 1158.33 1842.49 1155.57C1839.72 1152.8 1835.97 1151.24 1832.06 1151.24L1676.3 1151.26Z" fill="#385868"/>
</g>
<g opacity="0.2">
<path opacity="0.2" d="M1744.71 39.8829L1744.67 47.8828L1868.68 48.4888L1868.72 40.4889L1744.71 39.8829Z" fill="#385868"/>
<path opacity="0.2" d="M1905.6 68.8048L1905.57 76.8047L2029.57 77.4107L2029.61 69.4108L1905.6 68.8048Z" fill="#385868"/>
<path opacity="0.2" d="M1753.57 128.643L1752.85 200.543L1760.85 200.623L1761.57 128.723L1753.57 128.643Z" fill="#385868"/>
<path opacity="0.2" d="M1922.14 -0.0133057L1921.43 71.8867L1929.43 71.9667L1930.14 0.0666943L1922.14 -0.0133057Z" fill="#385868"/>
<path opacity="0.2" d="M1809.26 99.2891H1965.03C1975.39 99.2891 1983.79 90.8899 1983.79 80.5291V62.6491C1983.79 52.2882 1975.39 43.8891 1965.03 43.8891H1809.26C1798.9 43.8891 1790.5 52.2882 1790.5 62.6491V80.5291C1790.5 90.8899 1798.9 99.2891 1809.26 99.2891Z" fill="#F2F2F2"/>
<path opacity="0.2" d="M1965 103.287H1809.27C1803.24 103.279 1797.45 100.878 1793.18 96.6117C1788.92 92.3451 1786.52 86.5606 1786.51 80.5267V62.6467C1786.52 56.6128 1788.92 50.8283 1793.18 46.5617C1797.45 42.2951 1803.24 39.8947 1809.27 39.8867H1965C1971.03 39.8947 1976.82 42.2951 1981.08 46.5617C1985.35 50.8283 1987.75 56.6128 1987.76 62.6467V80.5167C1987.75 86.5523 1985.36 92.3394 1981.09 96.6082C1976.82 100.877 1971.04 103.279 1965 103.287ZM1809.24 47.8867C1805.33 47.892 1801.58 49.4488 1798.81 52.2157C1796.04 54.9826 1794.49 58.7337 1794.48 62.6467V80.5167C1794.49 84.4297 1796.04 88.1809 1798.81 90.9478C1801.58 93.7147 1805.33 95.2714 1809.24 95.2767H1965C1968.91 95.2714 1972.66 93.7147 1975.43 90.9478C1978.2 88.1809 1979.75 84.4297 1979.76 80.5167V62.6467C1979.76 58.732 1978.2 54.9783 1975.43 52.2092C1972.67 49.4402 1968.91 47.882 1965 47.8767L1809.24 47.8867Z" fill="#385868"/>
<path opacity="0.2" d="M1676.3 154.68H1832.07C1842.43 154.68 1850.83 146.281 1850.83 135.92V118.04C1850.83 107.679 1842.43 99.2797 1832.07 99.2797H1676.3C1665.94 99.2797 1657.54 107.679 1657.54 118.04V135.92C1657.54 146.281 1665.94 154.68 1676.3 154.68Z" fill="#F2F2F2"/>
<path opacity="0.2" d="M1832.06 158.688H1676.3C1670.27 158.68 1664.48 156.28 1660.21 152.013C1655.95 147.747 1653.55 141.962 1653.54 135.928V117.998C1653.55 111.964 1655.95 106.18 1660.21 101.913C1664.48 97.6467 1670.27 95.2462 1676.3 95.2383H1832.06C1838.1 95.2436 1843.88 97.6429 1848.15 101.91C1852.42 106.177 1854.82 111.963 1854.83 117.998V135.868C1854.83 138.862 1854.25 141.827 1853.11 144.594C1851.96 147.361 1850.29 149.876 1848.17 151.996C1846.06 154.115 1843.55 155.797 1840.78 156.945C1838.02 158.093 1835.05 158.686 1832.06 158.688ZM1676.3 103.288C1672.4 103.294 1668.65 104.843 1665.89 107.6C1663.12 110.356 1661.56 114.094 1661.54 117.998V135.868C1661.55 139.781 1663.1 143.532 1665.87 146.299C1668.64 149.066 1672.39 150.623 1676.3 150.628H1832.06C1835.97 150.623 1839.72 149.066 1842.49 146.299C1845.26 143.532 1846.81 139.781 1846.82 135.868V117.998C1846.81 114.085 1845.26 110.334 1842.49 107.567C1839.72 104.8 1835.97 103.244 1832.06 103.238L1676.3 103.288Z" fill="#385868"/>
</g>
<path d="M1675.78 1752.24H312.78V1762.24H1675.78V1752.24Z" fill="#385868"/>
<path d="M1828.78 1752.24H1703.78V1762.24H1828.78V1752.24Z" fill="#385868"/>
<path d="M291.78 1752.24H204.78V1762.24H291.78V1752.24Z" fill="#385868"/>
<path d="M1120.67 957.379V1007C1120.67 1020.15 1125.89 1032.76 1135.19 1042.06C1144.49 1051.36 1157.11 1056.59 1170.26 1056.59H1230.77C1258.04 1056.59 1284.19 1067.42 1303.47 1086.7C1322.75 1105.98 1333.58 1132.13 1333.58 1159.4V1443.13H795.1V1159.4C795.103 1132.13 805.936 1105.99 825.216 1086.71C844.496 1067.43 870.645 1056.6 897.91 1056.6H958.42C964.932 1056.6 971.381 1055.31 977.397 1052.82C983.413 1050.33 988.879 1046.67 993.483 1042.07C998.087 1037.46 1001.74 1031.99 1004.23 1025.98C1006.72 1019.96 1008 1013.51 1008 1007V957.379" fill="#FFC6AD"/>
<path d="M1329.44 1162.5V1446.24H795.1V1162.5C795.103 1135.23 805.936 1109.09 825.216 1089.81C844.496 1070.53 870.645 1059.7 897.91 1059.7H926.68C929.39 1085.47 947.5 1109.92 969.94 1122.85C992.73 1135.98 1019.51 1140.49 1045.78 1141.68C1079.47 1143.21 1113.97 1139.46 1144.78 1125.74C1174.03 1112.74 1199.78 1089.05 1212.51 1059.74H1226.63C1253.89 1059.74 1280.03 1070.56 1299.31 1089.83C1318.59 1109.1 1329.43 1135.24 1329.44 1162.5Z" fill="#82F0B7"/>
<path d="M1327.37 1162.5V1211.08C1327.37 1183.81 1316.54 1157.66 1297.26 1138.38C1277.98 1119.1 1251.83 1108.27 1224.56 1108.27H1210.44C1197.68 1137.62 1171.96 1161.27 1142.71 1174.27C1111.9 1187.99 1077.4 1191.74 1043.71 1190.21C1017.44 1189.02 990.66 1184.5 967.87 1171.38C945.42 1158.45 927.31 1134 924.61 1108.23H895.84C882.333 1108.23 868.957 1110.88 856.478 1116.05C843.998 1121.22 832.659 1128.79 823.109 1138.35C813.558 1147.9 805.984 1159.24 800.817 1171.72C795.651 1184.2 792.995 1197.57 793 1211.08V1162.5C793.001 1149 795.663 1135.63 800.832 1123.15C806.001 1110.68 813.577 1099.34 823.126 1089.8C832.676 1080.25 844.013 1072.68 856.489 1067.52C868.966 1062.35 882.337 1059.7 895.84 1059.7H924.61C927.32 1085.47 945.43 1109.92 967.87 1122.85C990.66 1135.98 1017.44 1140.49 1043.71 1141.68C1077.4 1143.21 1111.9 1139.46 1142.71 1125.74C1171.96 1112.74 1197.71 1089.05 1210.44 1059.74H1224.56C1251.82 1059.74 1277.96 1070.56 1297.24 1089.83C1316.52 1109.1 1327.36 1135.24 1327.37 1162.5Z" fill="#BEF8D9"/>
<path d="M1118.6 964.609V1002.32L1117.7 1002.54C1081.1 1011.28 1043.15 1012.88 1005.94 1007.25V964.609H1118.6Z" fill="#E39493"/>
<path d="M1110.53 957.38C1110.53 974.15 1110.23 990.94 1110.53 1007.7C1110.68 1016.11 1112.72 1024.38 1116.49 1031.89C1120.27 1039.41 1125.69 1045.97 1132.35 1051.11C1142.9 1059.22 1155.35 1062.59 1168.54 1062.59C1187.72 1062.59 1206.9 1062.51 1226.08 1062.59C1257.55 1062.72 1287.74 1077.74 1305.84 1103.73C1318.33 1121.66 1323.41 1142.07 1323.41 1163.73V1407.83C1323.41 1418.96 1322.53 1430.51 1323.41 1441.62C1323.41 1442.13 1323.41 1442.62 1323.41 1443.18L1329.41 1437.18H812.81C806.01 1437.18 798.67 1436.39 791.89 1437.18C791.58 1437.2 791.27 1437.2 790.96 1437.18L796.96 1443.18V1169.8C796.96 1154.45 797.75 1139.64 803.23 1124.99C814.89 1093.83 842.97 1070.68 875.48 1064.31C884.99 1062.45 894.55 1062.6 904.18 1062.6H939.76C948.49 1062.6 957.44 1063.13 966.03 1061.34C974.132 1059.58 981.738 1056.03 988.295 1050.96C994.852 1045.88 1000.19 1039.41 1003.93 1032.01C1009.17 1021.44 1009.87 1010.56 1009.87 999.06V957.38C1009.87 949.66 997.87 949.65 997.87 957.38C997.87 974.15 998.17 990.94 997.87 1007.7C997.692 1015.77 995.301 1023.64 990.957 1030.44C986.614 1037.25 980.485 1042.73 973.24 1046.29C964.1 1050.8 954.5 1050.59 944.65 1050.59H909.65C901.16 1050.59 892.54 1050.25 884.07 1051.05C867.292 1052.64 851.103 1058.06 836.757 1066.91C822.41 1075.75 810.289 1087.77 801.33 1102.05C789.67 1120.75 785 1141.87 785 1163.69V1344.6C785 1376.89 784.24 1409.29 785 1441.6C785 1442.12 785 1442.6 785 1443.16C785.023 1444.74 785.663 1446.26 786.783 1447.38C787.903 1448.5 789.416 1449.14 791 1449.16H1263.27C1284.98 1449.16 1306.84 1449.94 1328.54 1449.16C1328.85 1449.16 1329.16 1449.16 1329.47 1449.16C1331.05 1449.14 1332.57 1448.5 1333.69 1447.38C1334.81 1446.26 1335.45 1444.74 1335.47 1443.16V1169.8C1335.47 1154.33 1334.79 1139.15 1329.67 1124.3C1324.18 1108.48 1315.15 1094.12 1303.27 1082.32C1291.39 1070.51 1276.98 1061.58 1261.13 1056.18C1238.95 1048.7 1214.99 1050.6 1191.93 1050.6C1183.43 1050.6 1174.93 1050.69 1166.42 1050.6C1159.06 1050.6 1151.82 1048.76 1145.36 1045.25C1138.9 1041.74 1133.42 1036.66 1129.42 1030.49C1123.19 1020.66 1122.57 1010.25 1122.57 999.07V957.38C1122.57 949.66 1110.57 949.65 1110.57 957.38H1110.53Z" fill="#385868"/>
<path d="M992.77 375.477C999.89 395.477 1021.44 406.077 1041.58 412.747C1077.93 424.762 1116.05 430.566 1154.33 429.917C1181.67 429.437 1209.33 425.697 1236.12 431.317C1262.91 436.937 1289.47 454.797 1295.12 481.547" fill="#EF7679"/>
<path d="M966.73 288.37C1021.52 247.69 1087.92 219.28 1156.13 221.37C1224.34 223.46 1293.52 260.15 1322.83 321.77C1362.34 404.77 1325.99 507.24 1313.06 592.87C1298.74 687.974 1300.95 784.836 1319.58 879.19C1328.19 922.68 1340.68 966.44 1363.92 1004.56C1369.49 1013.7 1380.05 1023.11 1384.11 1032.68C1389.28 1044.87 1385.11 1045.28 1370.82 1049.27C1349.55 1055.2 1326.45 1052.6 1304.82 1051.02C1280.76 1049.27 1256.46 1047.23 1233.52 1039.8C1195.52 1027.49 1156.52 993.42 1163.15 949.36" fill="#EF7679"/>
<path d="M1373.92 1049.25C1352.65 1055.18 1329.55 1052.58 1307.92 1051.01C1283.86 1049.25 1259.56 1047.22 1236.62 1039.79C1198.62 1027.47 1159.62 993.41 1166.24 949.35L1153.9 908C1174.65 947 1214.43 976.26 1257.7 988.22C1290.97 997.42 1325.78 997.73 1359.97 992.22C1362.2 996.393 1364.56 1000.51 1367.03 1004.57C1372.6 1013.71 1383.16 1023.11 1387.21 1032.68C1392.39 1044.86 1388.22 1045.26 1373.92 1049.25Z" fill="#DB6A72"/>
<path d="M916 544.998C973.68 538.998 959.53 465.328 982 411.868C996.38 377.648 1001.25 335.468 979.39 305.458C947.59 261.798 883.85 252.038 835.28 269.408C769 293.108 756.71 363.408 754.04 426.348C751.52 485.638 764.75 544.118 780.63 600.848C789.94 633.998 795.69 667.998 800.75 701.998C811.43 773.848 818.97 847.998 801.32 918.448C783.67 988.898 736.23 1055.81 667.17 1078.33C724.17 1087.28 784.73 1083.57 835.99 1057.13C887.25 1030.69 927.36 978.838 929.77 921.208" fill="#EF7679"/>
<path d="M828.75 1027.2C791.63 1046.35 749.62 1053.56 707.64 1052.7C693.144 1063.38 677.044 1071.7 659.94 1077.34C716.94 1086.29 777.5 1082.58 828.76 1056.14C880.02 1029.7 920.13 977.848 922.54 920.218L921.82 900.418C915.8 954.348 877.29 1002.17 828.75 1027.2Z" fill="#DB6A72"/>
<path d="M1226.21 427.5C1240.33 452.24 1248.09 479.85 1247.75 511.56C1247.27 556.71 1231.11 601.63 1238.75 645.48C1240.97 658.19 1245.11 670.06 1248.3 682.36C1267.2 755.16 1250.11 841.05 1211.9 896.95C1173.69 952.85 1117.3 980.18 1062.13 980.12H1061.77C1006.6 980.18 950.21 952.85 912 896.95C873.79 841.05 856.7 755.16 875.6 682.36C878.79 670.06 882.93 658.2 885.15 645.48C892.8 601.62 876.64 556.7 876.15 511.56C875.82 479.86 883.57 448.11 897.69 423.37L933.56 368.27L1035.88 338.27L1098.88 350.67" fill="#FFC6AD"/>
<path d="M1211.92 864.91C1173.71 920.81 1117.32 948.14 1062.15 948.08H1061.79C1006.62 948.14 950.23 920.81 912.02 864.91C886.68 827.83 870.64 777.55 868.22 726.66C865.22 786.32 882.22 848.18 912.02 891.79C950.23 947.69 1006.62 975.02 1061.79 974.96H1062.15C1117.32 975.02 1173.71 947.69 1211.92 891.79C1241.73 848.18 1258.68 786.32 1255.72 726.67C1253.3 777.55 1237.26 827.83 1211.92 864.91Z" fill="#E39493"/>
<path d="M1238.58 455.169C1238.45 455.169 1238.31 455.109 1238.18 455.079C1236.18 454.652 1234.16 454.279 1232.11 453.959C1207.24 450.009 1181.67 453.239 1156.39 453.679C1110.93 454.469 1031.39 453.279 1003.47 410.149C1030.58 451.959 902.73 523.069 876.47 537.379L874.47 518.639C874.26 516.639 874.09 514.559 875.16 512.909C876.16 511.649 877.489 510.69 879 510.139C924.47 488.679 957.58 457.669 977.93 410.839C978.06 410.529 978.19 410.219 978.31 409.909C978.89 408.509 979.46 407.099 979.99 405.669L980.08 405.449C984.97 393.87 988.497 381.762 990.59 369.369L996.89 390.589C997.18 387.589 997.36 384.529 997.43 381.529V381.259C997.49 377.999 997.43 374.759 997.18 371.539C996.676 363.816 995.166 356.191 992.69 348.859V344.149L1013.46 338.059C1011.92 346.639 1009 355.689 1012.23 363.789C1015.84 372.849 1025.81 377.389 1034.98 380.729C1082.84 398.14 1133.47 406.66 1184.39 405.869C1188.91 405.799 1193.44 405.649 1197.98 405.489L1224.17 421.299C1224.6 422.059 1225.04 422.839 1225.46 423.619L1225.07 423.559C1225.64 424.559 1226.19 425.559 1226.73 426.559C1231.58 435.695 1235.55 445.276 1238.58 455.169Z" fill="#E39493"/>
<path d="M994.83 378.577C1001.95 398.577 1023.5 409.177 1043.64 415.847C1079.99 427.856 1118.11 433.654 1156.39 432.997C1183.73 432.517 1211.39 428.777 1238.18 434.397C1264.97 440.017 1291.53 457.877 1297.18 484.627L1318.06 326.907L994.56 310.367L994.83 378.577Z" fill="#EF7679"/>
<path d="M1339.83 1058C1330.11 1058 1320.37 1057.25 1310.83 1056.51L1304.45 1056.03C1278.24 1054.12 1254.7 1051.94 1231.97 1044.58C1210.97 1037.79 1191.28 1025.12 1177.84 1009.81C1161.74 991.479 1154.94 970.319 1158.19 948.639L1168.08 950.119C1164.55 973.719 1175.52 992.019 1185.35 1003.21C1197.64 1017.21 1215.75 1028.82 1235.05 1035.07C1256.71 1042.07 1279.63 1044.2 1305.18 1046.07L1311.6 1046.56C1331.06 1048.06 1351.18 1049.56 1369.53 1044.49L1371.68 1043.9C1375.74 1042.78 1380.33 1041.51 1381.29 1040.56C1381.29 1040.22 1381.29 1038.8 1379.56 1034.68C1377.48 1029.78 1373.11 1024.5 1368.88 1019.39C1365.54 1015.55 1362.47 1011.48 1359.7 1007.22C1347.09 986.539 1328.7 950.869 1314.7 880.219C1295.87 785.322 1293.65 687.876 1308.14 592.219C1310.97 573.449 1314.84 554.309 1318.93 534.029C1333.48 461.979 1348.52 387.479 1318.33 324.029C1304.76 295.499 1281.67 271.169 1251.57 253.669C1222.43 236.884 1189.61 227.5 1156 226.339C1078.68 223.979 1012 260.969 969.73 292.339L963.73 284.339C1007.32 251.979 1076.1 213.929 1156.27 216.339C1191.55 217.391 1226.02 227.199 1256.57 244.879C1288.42 263.399 1312.89 289.229 1327.34 319.589C1341.53 349.409 1347.4 384.269 1345.34 426.169C1343.51 462.789 1336 499.949 1328.75 535.889C1324.68 556.039 1320.84 575.069 1318.04 593.589C1303.72 688.117 1305.91 784.412 1324.52 878.189C1338.2 947.279 1356.01 981.899 1368.23 1001.93C1370.76 1005.78 1373.54 1009.46 1376.57 1012.93C1381.26 1018.59 1386.1 1024.45 1388.75 1030.69C1390.75 1035.49 1392.38 1040.52 1390.29 1044.84C1387.94 1049.7 1382.52 1051.2 1374.29 1053.46L1372.17 1054.05C1361.58 1057 1350.72 1058 1339.83 1058Z" fill="#385868"/>
<path d="M1062.35 985.767H1061.59C1000.99 985.767 944.98 954.667 907.9 900.417C867.2 840.887 852.29 752.997 870.78 681.757C871.85 677.617 873.04 673.497 874.2 669.507C876.658 661.547 878.677 653.458 880.25 645.277C884.71 619.727 880.87 594.047 876.8 566.867C874.14 549.057 871.38 530.637 871.19 512.267C870.84 479.447 878.73 447.267 893.39 421.547L902.08 426.547C888.48 450.367 880.87 481.547 881.2 512.207C881.39 529.887 884.09 547.957 886.7 565.437C890.7 592.217 894.85 619.897 890.11 647.047C888.474 655.581 886.374 664.021 883.82 672.327C882.69 676.247 881.52 680.327 880.48 684.327C862.67 752.947 877.01 837.547 916.17 894.837C951.36 946.317 1004.37 975.837 1061.61 975.837H1062.36C1119.62 975.837 1172.62 946.327 1207.81 894.837C1246.97 837.547 1261.32 752.947 1243.5 684.327C1242.5 680.327 1241.29 676.257 1240.16 672.327C1237.61 664.02 1235.51 655.581 1233.87 647.047C1229.13 619.907 1233.28 592.217 1237.28 565.437C1239.89 547.957 1242.6 529.887 1242.78 512.207C1243.09 482.517 1236.26 455.847 1221.89 430.687L1230.58 425.687C1245.85 452.437 1253.11 480.757 1252.78 512.277C1252.59 530.647 1249.83 549.067 1247.17 566.877C1243.1 594.057 1239.26 619.737 1243.72 645.287C1245.29 653.468 1247.31 661.557 1249.77 669.517C1250.92 673.517 1252.11 677.627 1253.19 681.767C1271.69 753.017 1256.77 840.897 1216.08 900.437C1179 954.667 1123 985.767 1062.35 985.767Z" fill="#385868"/>
<path d="M980 416.997C959.57 465.597 918.28 508.097 867.59 519.887C863.033 520.954 858.419 521.759 853.77 522.297C835.65 503.867 802.94 466.797 804.44 440.577C806.51 404.407 867.44 346.527 881.95 325.857C888.6 316.357 896.34 291.807 902.77 268.027C904.28 268.257 905.77 268.517 907.28 268.787C934.94 273.947 960.61 287.547 977.39 310.587C999.2 340.637 994.35 382.817 980 416.997Z" fill="#EF7679"/>
<path d="M721.57 1087.73C703.093 1087.68 684.648 1086.2 666.4 1083.31L645.82 1080.08L665.63 1073.62C727.22 1053.53 777.36 993.617 796.48 917.277C814.55 845.117 805.61 768.717 795.81 702.777C790.99 670.357 785.24 635.777 775.81 602.197C760.4 546.997 746.47 487.507 749.07 426.137C751.7 364.137 763.7 289.707 833.62 264.697C859.669 255.535 887.753 253.804 914.73 259.697C943.97 266.147 967.73 280.957 983.46 302.547C994.3 317.437 999.63 335.817 999.31 357.187C999.04 375.187 994.65 394.757 986.64 413.837C975.066 441.644 957.25 466.416 934.57 486.237C910.57 506.947 882.96 519.427 854.68 522.357L853.68 512.406C904.93 507.106 953.51 466.897 977.45 409.967C984.98 392.057 989.09 373.757 989.35 357.047C989.64 337.887 984.95 321.537 975.42 308.437C961.16 288.857 939.42 275.377 912.62 269.437C887.467 263.947 861.283 265.567 837 274.117C808.24 284.397 788.12 304.337 775.47 335.057C762.97 365.437 760.12 401.827 759.07 426.567C756.52 486.567 770.26 545.127 785.48 599.507C795.02 633.577 800.84 668.567 805.7 701.307C815.64 768.207 824.7 845.767 806.18 919.707C788.18 991.707 743.37 1049.81 687.03 1075.92C729.35 1080.29 784.14 1078.3 833.7 1052.73C886.82 1025.33 922.57 973.637 924.78 921.047L934.78 921.466C932.43 977.586 894.56 1032.6 838.3 1061.62C799.72 1081.51 758.3 1087.73 721.57 1087.73Z" fill="#385868"/>
<path d="M1290.23 482.567C1284.54 455.697 1256.97 440.797 1235.09 436.197C1215.88 432.197 1195.52 433.147 1175.83 434.097C1168.83 434.437 1161.57 434.787 1154.42 434.907C1115.57 435.597 1076.88 429.707 1040 417.487C1011.33 407.997 994.34 394.807 988 377.157L997.42 373.797C1002.68 388.557 1017.19 399.427 1043.1 407.997C1078.91 419.861 1116.47 425.582 1154.19 424.917C1161.19 424.797 1168.36 424.447 1175.29 424.117C1195.61 423.117 1216.62 422.117 1237.09 426.427C1251.47 429.391 1264.98 435.607 1276.59 444.597C1289 454.467 1297.08 466.887 1299.96 480.507L1290.23 482.567Z" fill="#385868"/>
<path d="M966.21 592.538C966.49 582.278 974.53 573.738 985.01 573.738C995.49 573.738 1003.54 582.278 1003.81 592.538C1004.02 600.248 1016.02 600.278 1015.81 592.538C1015.36 575.798 1002.1 561.738 985.01 561.738C967.92 561.738 954.66 575.808 954.21 592.538C954 600.258 966 600.258 966.21 592.538Z" fill="#385868"/>
<path d="M1109.87 592.538C1110.15 582.278 1118.19 573.738 1128.67 573.738C1139.15 573.738 1147.2 582.278 1147.47 592.538C1147.68 600.248 1159.68 600.278 1159.47 592.538C1159.02 575.798 1145.76 561.738 1128.67 561.738C1111.58 561.738 1098.32 575.808 1097.87 592.538C1097.66 600.258 1109.66 600.258 1109.87 592.538Z" fill="#385868"/>
<path d="M1075.65 702.087C1075.37 712.347 1067.33 720.887 1056.85 720.887C1046.37 720.887 1038.32 712.347 1038.05 702.087C1037.84 694.377 1025.84 694.347 1026.05 702.087C1026.5 718.827 1039.76 732.887 1056.85 732.887C1073.94 732.887 1087.2 718.817 1087.65 702.087C1087.86 694.367 1075.86 694.367 1075.65 702.087Z" fill="#385868"/>
<path d="M1320.91 382.757C1319.27 361.977 1310.35 342.297 1298.36 325.247C1268.36 282.547 1218.7 255.247 1166.9 248.827C1115.1 242.407 1061.73 256.047 1017.1 283.107C1014.22 284.857 1011.19 286.867 1009.97 290.017C1008.43 294.017 1010.26 298.397 1011.76 302.397C1016.72 315.756 1018.01 330.199 1015.51 344.227C1013.96 352.817 1011.04 361.887 1014.27 369.997C1017.88 379.057 1027.85 383.607 1037.02 386.947C1084.88 404.353 1135.51 412.87 1186.43 412.077C1210.55 411.687 1235.04 409.247 1258.53 414.697C1282.02 420.147 1305.06 435.627 1311.32 458.927C1315.09 456.326 1318.15 452.836 1320.24 448.766C1322.34 444.696 1323.39 440.173 1323.32 435.597" fill="#DB6A72"/>
<path d="M774.62 503.187C762.748 455.464 764.061 405.412 778.42 358.377C784.42 338.867 793.07 319.377 808.31 305.827C823.55 292.277 843.83 285.927 864.03 283.927C879.59 282.397 895.58 283.317 910.33 288.487C949.15 302.087 973.41 345.557 969.56 386.487C965.71 427.417 936.9 463.797 900 481.937C880.25 491.647 858.47 496.667 838.65 506.237C818.83 515.807 800.11 531.597 795.43 553.107" fill="#DB6A72"/>
<path d="M1249.09 268.057C1255.34 272.449 1261.28 277.274 1266.86 282.497C1272.01 287.4 1276.85 292.609 1281.37 298.097C1288.94 307.422 1295.44 317.577 1300.72 328.367C1302.95 332.967 1304.72 337.237 1306.15 341.027C1306.83 342.937 1307.46 344.707 1308.01 346.357L1309.33 350.917L1309.85 352.857L1310.22 354.587C1310.44 355.667 1310.6 356.587 1310.71 357.327C1310.93 358.817 1310.92 359.637 1310.71 359.707C1310.5 359.777 1309.97 359.117 1309.28 357.787C1308.94 357.127 1308.54 356.297 1308.1 355.307L1307.4 353.717L1306.56 351.917L1304.65 347.687L1302.26 342.687C1300.51 339.147 1298.44 335.167 1295.98 330.877C1290.21 320.848 1283.52 311.383 1275.98 302.607C1271.5 297.49 1266.75 292.614 1261.76 287.997C1256.37 283.087 1250.67 278.521 1244.7 274.327C1238.71 270.124 1232.46 266.297 1226 262.867L1223.67 261.597L1221.32 260.427C1219.76 259.667 1218.23 258.857 1216.68 258.137C1213.57 256.737 1210.55 255.297 1207.51 254.137C1201.81 251.799 1196 249.75 1190.1 247.997L1185.98 246.887C1184.63 246.517 1183.31 246.137 1181.98 245.887C1179.35 245.347 1176.85 244.667 1174.42 244.337C1171.99 244.007 1169.69 243.467 1167.48 243.337L1164.27 242.977L1162.73 242.797L1161.24 242.727L1155.78 242.427C1154.11 242.427 1152.57 242.427 1151.18 242.427H1149.18L1147.46 242.527C1146.39 242.577 1145.46 242.607 1144.73 242.597C1143.24 242.597 1142.42 242.457 1142.37 242.197C1142.32 241.937 1143.03 241.557 1144.46 241.077C1145.18 240.837 1146.07 240.567 1147.14 240.277L1148.87 239.817L1150.87 239.487C1152.28 239.261 1153.86 239.027 1155.6 238.787C1157.34 238.647 1159.23 238.557 1161.28 238.447L1162.84 238.367H1164.45L1167.82 238.447C1170.15 238.447 1172.57 238.757 1175.13 238.987C1177.69 239.217 1180.34 239.697 1183.13 240.107C1184.52 240.297 1185.92 240.617 1187.34 240.927L1191.69 241.877C1197.92 243.425 1204.06 245.342 1210.07 247.617C1213.27 248.757 1216.44 250.167 1219.71 251.557C1221.33 252.267 1222.94 253.067 1224.58 253.837L1227.04 255.017L1229.48 256.297C1236.28 259.762 1242.83 263.691 1249.09 268.057Z" fill="white"/>
<path d="M1217.9 575.938C1216.4 590.458 1217.02 603.558 1218.7 612.878C1219.51 617.548 1220.5 621.268 1221.08 623.878C1221.66 626.488 1221.95 628.078 1221.47 628.318C1220.99 628.558 1219.89 627.408 1218.33 625.038C1216.28 621.607 1214.64 617.949 1213.44 614.138C1210.24 604.518 1208.7 590.328 1210.27 575.138C1210.99 568.06 1212.12 561.029 1213.64 554.078C1215 547.708 1216.42 542.078 1217.64 537.338C1220.17 527.908 1221.99 522.118 1223.04 522.268C1224.09 522.418 1224.14 528.598 1222.96 538.358C1222.39 543.238 1221.51 548.998 1220.56 555.358C1219.61 561.718 1218.58 568.688 1217.9 575.938Z" fill="white"/>
<path d="M1223 462.327C1224.96 467.292 1226.04 472.561 1226.19 477.897C1226.19 481.987 1225.5 484.517 1224.47 484.637C1223.44 484.757 1222.22 482.477 1220.86 478.877C1219.5 475.277 1217.86 470.357 1215.86 465.107C1214.86 462.487 1213.78 460.027 1212.81 457.777L1210.09 451.777C1208.52 448.337 1207.62 445.967 1208.43 445.247C1209.24 444.527 1211.61 445.727 1214.53 448.677C1216.22 450.417 1217.72 452.327 1219.01 454.377C1220.59 456.896 1221.92 459.558 1223 462.327Z" fill="white"/>
<path d="M774 487.999C772.873 475.579 772.539 463.101 773 450.639C773.38 444.899 773.62 439.439 774.31 434.379C774.62 431.839 774.84 429.379 775.21 427.039L776.35 420.309C776.99 416.009 777.99 412.199 778.74 408.839C779.14 407.159 779.48 405.589 779.86 404.169L781.02 400.299C782.43 395.649 783.28 393.119 783.45 393.169C783.62 393.219 783.09 395.849 781.98 400.549L781.04 404.459C780.73 405.899 780.47 407.459 780.14 409.149C779.52 412.519 778.66 416.329 778.14 420.609L777.14 427.309C776.83 429.639 776.66 432.089 776.4 434.599C775.8 439.599 775.65 445.049 775.33 450.739C775.011 463.085 775.408 475.439 776.52 487.739C777.77 500.839 779.81 513.219 782 524.409L783.73 532.569C784 533.899 784.29 535.189 784.62 536.459L785.53 540.219C786.14 542.679 786.67 545.079 787.29 547.349L789.06 553.889C790.13 558.079 791.31 561.799 792.26 565.099L793.6 569.689L794.8 573.529C796.22 578.149 796.93 580.739 796.8 580.799C796.67 580.859 795.61 578.379 793.9 573.799L792.49 570.019C791.99 568.629 791.49 567.109 790.94 565.479C789.86 562.209 788.56 558.479 787.37 554.339L785.44 547.809C784.77 545.539 784.19 543.139 783.53 540.679L782.53 536.909C782.19 535.639 781.87 534.339 781.53 533.009L779.69 524.829C777.127 512.664 775.228 500.369 774 487.999Z" fill="#516D7B"/>
<path d="M784.65 435.07C785.578 428.334 786.887 421.657 788.57 415.07C789.4 412.07 790.17 409.16 791.06 406.52C791.5 405.2 791.88 403.9 792.32 402.69L793.61 399.2C794.4 396.97 795.28 395.01 796.01 393.27C796.38 392.41 796.72 391.6 797.01 390.87L798.01 388.87C799.19 386.5 799.92 385.23 800.08 385.3C800.46 385.47 798.21 390.85 795.3 399.78L794.18 403.29C793.79 404.51 793.46 405.8 793.07 407.12C792.27 409.76 791.59 412.62 790.83 415.63C789.43 421.63 788.12 428.35 787.15 435.43C786.18 442.51 785.75 449.31 785.53 455.5C785.53 458.6 785.39 461.5 785.47 464.29C785.47 465.67 785.47 467 785.54 468.29L785.7 471.97C786.17 481.34 786.94 487.13 786.53 487.19C786.36 487.19 785.99 485.8 785.46 483.19L785.04 481.02C784.9 480.23 784.79 479.36 784.66 478.43C784.41 476.57 784.07 474.43 783.89 472.08L783.56 468.37C783.45 467.08 783.42 465.73 783.34 464.37C783.17 461.58 783.18 458.6 783.16 455.47C783.27 448.647 783.767 441.836 784.65 435.07Z" fill="#516D7B"/>
<path d="M931.6 307.619C938.844 314.785 945.139 322.851 950.33 331.619C952.76 335.619 954.75 339.619 956.55 343.349C958.35 347.079 959.77 350.699 960.97 354.019C962.906 359.244 964.503 364.589 965.75 370.019C966.61 373.869 966.9 376.019 966.75 376.019C966.6 376.019 965.94 374.019 964.75 370.239C963.56 366.459 961.85 361.109 959.25 354.639C957.96 351.399 956.38 347.919 954.6 344.229C952.82 340.539 950.72 336.699 948.28 332.799C943.079 324.297 936.867 316.457 929.78 309.449C926.078 305.874 922.135 302.556 917.98 299.519C914.1 296.697 910.03 294.144 905.8 291.879L902.8 290.319C901.8 289.819 900.8 289.389 899.8 288.919C897.8 287.919 895.85 287.259 893.97 286.469C892.09 285.679 890.2 285.109 888.39 284.549C886.58 283.989 884.84 283.439 883.14 283.089C877.806 281.752 872.365 280.882 866.88 280.489C865.88 280.379 865.04 280.339 864.29 280.319L862.39 280.209C861.39 280.129 860.81 280.049 860.81 279.969C860.81 279.889 861.35 279.789 862.38 279.699L864.3 279.559C865.172 279.493 866.046 279.473 866.92 279.499C872.513 279.513 878.089 280.13 883.55 281.339C885.3 281.649 887.07 282.209 888.95 282.669C890.83 283.129 892.72 283.829 894.7 284.489C896.68 285.149 898.7 285.929 900.7 286.869C901.7 287.319 902.76 287.749 903.79 288.249L906.9 289.799C911.263 292.057 915.457 294.627 919.45 297.489C923.738 300.57 927.798 303.955 931.6 307.619Z" fill="#516D7B"/>
<path d="M942.7 343.759C945.854 350.03 948.324 356.621 950.07 363.419C950.798 366.386 951.365 369.391 951.77 372.419C951.94 373.849 952.19 375.209 952.27 376.539L952.47 380.369C952.597 382.557 952.597 384.751 952.47 386.939C952.47 387.939 952.41 388.809 952.34 389.629L952.04 391.879C951.66 394.579 951.37 396.039 951.19 396.019C951.01 395.999 950.97 394.489 951.05 391.809L951.13 389.579C951.13 388.759 951.08 387.879 951.05 386.929C950.96 385.029 951.05 382.859 950.71 380.489L950.35 376.759C950.22 375.469 949.92 374.139 949.71 372.759C949.34 369.979 948.55 367.079 947.83 364.019C944.282 350.772 937.936 338.438 929.22 327.849C927.15 325.479 925.22 323.159 923.22 321.229C922.22 320.229 921.3 319.229 920.33 318.379L917.5 315.919C915.75 314.279 913.95 313.069 912.5 311.919C911.74 311.349 911.05 310.779 910.39 310.309L908.53 309.079C906.3 307.579 905.1 306.669 905.18 306.509C905.26 306.349 906.63 306.969 909.04 308.229L911.04 309.289C911.76 309.709 912.49 310.219 913.31 310.739C915.172 311.9 916.965 313.169 918.68 314.539L921.68 316.929C922.68 317.769 923.68 318.769 924.74 319.739C926.974 321.83 929.094 324.04 931.09 326.359C935.57 331.728 939.462 337.562 942.7 343.759Z" fill="#516D7B"/>
<path d="M836.69 843.217C836.54 853.587 835.96 863.707 835.02 873.437C834.08 883.167 832.65 892.507 831.02 901.347L829.72 907.877C829.27 910.017 828.72 912.117 828.27 914.197C827.36 918.357 826.18 922.327 825.16 926.197C824.62 928.117 824.01 929.987 823.45 931.837C822.89 933.687 822.37 935.507 821.72 937.247L819.92 942.397L819.04 944.887L818.1 947.287C816.84 950.447 815.72 953.477 814.43 956.287C813.14 959.097 812.09 961.757 810.84 964.157C809.59 966.557 808.56 968.837 807.48 970.887L804.42 976.417C803.95 977.247 803.53 978.037 803.1 978.757L801.86 980.757L799.86 983.887C799.368 984.78 798.778 985.615 798.1 986.377C798.436 985.411 798.879 984.485 799.42 983.617L801.18 980.377L802.32 978.317C802.71 977.577 803.1 976.777 803.53 975.927L806.37 970.317C807.37 968.247 808.37 965.967 809.52 963.537C810.67 961.107 811.71 958.437 812.9 955.647C814.09 952.857 815.18 949.827 816.38 946.647L817.28 944.247L818.11 941.767L819.82 936.637C820.43 934.897 820.9 933.077 821.46 931.247C822.02 929.417 822.58 927.547 823.09 925.637C824.09 921.787 825.19 917.847 826.09 913.707C826.54 911.647 827.09 909.557 827.47 907.427L828.71 900.937C830.26 892.157 831.71 882.937 832.52 873.217C833.33 863.497 833.97 853.507 834.12 843.217C834.242 823.842 833.241 804.476 831.12 785.217C829.23 767.437 826.82 751.507 824.62 738.157C822.42 724.807 820.47 714.017 819.15 706.557C818.5 702.827 817.99 699.927 817.68 697.957C817.453 696.973 817.336 695.967 817.33 694.957C817.722 695.899 818.007 696.882 818.18 697.887C818.65 699.827 819.32 702.697 820.12 706.397C821.74 713.797 823.96 724.537 826.39 737.877C828.82 751.217 831.39 767.157 833.45 784.997C835.723 804.319 836.805 823.762 836.69 843.217Z" fill="#516D7B"/>
<path d="M862.43 1005C867.991 996.745 872.803 988.011 876.81 978.9L879.31 972.68L879.92 971.18C880.11 970.68 880.26 970.18 880.43 969.67L881.43 966.67C882.05 964.72 882.75 962.87 883.24 961.04L884.61 955.76C885.61 952.42 886.04 949.3 886.61 946.59C886.87 945.23 887.15 943.97 887.34 942.8L887.77 939.59C888.31 935.73 888.69 933.59 888.86 933.59C889.03 933.59 888.99 935.77 888.76 939.69L888.55 942.96C888.43 944.15 888.21 945.43 888.02 946.81C887.629 949.952 887.078 953.073 886.37 956.16L885.14 961.55C884.69 963.42 884.03 965.31 883.45 967.3L882.52 970.3C882.36 970.81 882.22 971.3 882.03 971.84L881.44 973.38L879 979.83C871.234 998.596 859.614 1015.52 844.89 1029.51L839.83 1034.07L838.61 1035.17C838.2 1035.53 837.76 1035.85 837.34 1036.17L834.85 1038.17C833.2 1039.43 831.68 1040.72 830.09 1041.81L825.5 1044.9C822.875 1046.67 820.161 1048.31 817.37 1049.8C816.15 1050.48 815.03 1051.14 813.96 1051.68L810.96 1053.05C807.38 1054.68 805.38 1055.5 805.3 1055.34C805.22 1055.18 807.09 1054.06 810.5 1052.17L813.34 1050.61C814.34 1050.01 815.44 1049.29 816.61 1048.61C818.93 1047.11 821.68 1045.61 824.45 1043.45L828.88 1040.27C830.41 1039.16 831.88 1037.84 833.48 1036.56L835.89 1034.56C836.29 1034.22 836.72 1033.9 837.12 1033.56L838.3 1032.45L843.21 1027.88C850.287 1020.84 856.719 1013.19 862.43 1005Z" fill="#516D7B"/>
<path d="M873.71 931.117C874.36 926.957 874.77 922.967 875.02 919.327C875.11 917.507 875.23 915.767 875.24 914.147C875.25 912.527 875.29 911.007 875.24 909.617C875.24 904.077 874.96 900.617 875.34 900.617C875.72 900.617 876.53 903.957 877.04 909.617C877.16 911.017 877.28 912.557 877.31 914.217C877.34 915.877 877.31 917.647 877.31 919.517C877.079 927.626 875.791 935.671 873.48 943.447C872.92 945.227 872.4 946.927 871.81 948.447C871.22 949.967 870.67 951.447 870.12 952.737C867.88 957.917 865.99 960.857 865.71 960.737C865.43 960.617 866.71 957.367 868.44 952.117C868.88 950.807 869.36 949.367 869.81 947.807C870.26 946.247 870.74 944.577 871.22 942.807C872.17 939.197 873 935.277 873.71 931.117Z" fill="#516D7B"/>
<path d="M1093.57 402.787C1102.35 404.778 1111.23 406.32 1120.17 407.407C1124.3 407.827 1128.22 408.287 1131.92 408.477C1133.76 408.587 1135.54 408.757 1137.26 408.817L1142.19 408.987C1145.33 409.147 1148.19 409.077 1150.68 409.107H1154.17L1157.1 409.037C1160.63 408.977 1162.59 409.037 1162.6 409.197C1162.61 409.357 1160.68 409.657 1157.15 410.027L1154.22 410.317C1153.15 410.397 1151.98 410.447 1150.72 410.507C1148.21 410.617 1145.34 410.817 1142.17 410.767H1137.17C1135.44 410.767 1133.64 410.637 1131.78 410.567C1128.05 410.467 1124.08 410.077 1119.9 409.717C1101.76 407.881 1083.92 403.741 1066.83 397.397C1062.92 395.877 1059.18 394.477 1055.83 392.927C1054.13 392.167 1052.46 391.477 1050.9 390.727L1046.43 388.537C1043.56 387.187 1041.08 385.737 1038.87 384.537C1037.77 383.927 1036.74 383.367 1035.81 382.817L1033.3 381.257C1030.3 379.377 1028.69 378.257 1028.78 378.107C1028.87 377.957 1030.65 378.777 1033.78 380.387L1036.38 381.737L1039.52 383.257C1041.78 384.337 1044.3 385.657 1047.19 386.887L1051.69 388.887C1053.26 389.587 1054.93 390.217 1056.63 390.887C1060.03 392.347 1063.75 393.657 1067.63 395.097C1076.14 398.1 1084.8 400.667 1093.57 402.787Z" fill="#516D7B"/>
<path d="M1141.85 400.8C1148.09 401.42 1154.06 401.73 1159.5 401.86C1162.22 401.86 1164.8 401.94 1167.22 401.86C1169.64 401.78 1171.89 401.76 1173.95 401.67C1182.18 401.31 1187.27 400.79 1187.33 401.18C1187.39 401.57 1182.33 402.64 1174.08 403.47C1172.01 403.67 1169.74 403.87 1167.3 403.97C1164.86 404.07 1162.24 404.16 1159.49 404.2C1153.99 404.2 1147.93 403.96 1141.6 403.33C1135.27 402.7 1129.3 401.68 1123.91 400.57C1121.22 399.97 1118.67 399.42 1116.31 398.77C1113.95 398.12 1111.75 397.52 1109.77 396.91C1101.83 394.43 1097.14 392.28 1097.25 391.99C1097.36 391.7 1102.25 393.16 1110.25 395.17C1112.25 395.67 1114.43 396.17 1116.8 396.71C1119.17 397.25 1121.7 397.71 1124.36 398.26C1129.71 399.24 1135.61 400.14 1141.85 400.8Z" fill="#516D7B"/>
<path d="M1051.14 265.92C1056.38 262.951 1061.78 260.261 1067.3 257.86C1069.86 256.8 1072.3 255.77 1074.62 254.95C1075.78 254.53 1076.89 254.1 1077.98 253.74L1081.11 252.74C1089.11 250.23 1094.24 249.35 1094.31 249.65C1094.38 249.95 1089.47 251.53 1081.7 254.45L1078.7 255.61C1077.64 256.01 1076.56 256.49 1075.43 256.95C1073.16 257.85 1070.8 258.95 1068.29 260.04C1063.29 262.34 1057.94 265.04 1052.44 268.17C1046.94 271.3 1041.91 274.59 1037.44 277.71C1035.22 279.31 1033.08 280.79 1031.15 282.29C1030.15 283.03 1029.23 283.72 1028.34 284.43L1025.8 286.43C1019.34 291.65 1015.55 295.15 1015.27 294.87C1014.99 294.59 1018.4 290.69 1024.63 285.06L1027.1 282.88C1027.96 282.13 1028.9 281.39 1029.85 280.6C1031.74 279.01 1033.85 277.44 1036.07 275.77C1040.92 272.225 1045.95 268.937 1051.14 265.92Z" fill="#516D7B"/>
<path d="M1077.16 263.069C1080.42 261.628 1083.76 260.36 1087.16 259.269C1089.95 258.388 1092.78 257.65 1095.64 257.059C1100.53 256.059 1103.64 255.919 1103.64 256.239C1103.79 257.009 1091.75 259.239 1078.12 265.409C1064.49 271.579 1054.69 278.839 1054.22 278.219C1054.02 277.969 1056.22 275.769 1060.22 272.799C1062.58 271.068 1065.02 269.459 1067.54 267.979C1070.66 266.173 1073.87 264.534 1077.16 263.069Z" fill="#516D7B"/>
<path d="M1300.79 557.157C1295.4 582.329 1293.14 608.071 1294.06 633.797C1294.42 643.667 1295.17 651.637 1295.69 657.147C1296.21 662.657 1296.58 665.707 1296.4 665.727C1296.1 665.04 1295.91 664.312 1295.83 663.567C1295.55 662.137 1295.14 660.017 1294.71 657.277C1293.89 651.787 1292.86 643.807 1292.27 633.877C1290.79 607.968 1292.81 581.978 1298.27 556.607C1299.92 549.197 1301.72 541.997 1303.77 535.147C1305.82 528.297 1307.87 521.737 1309.77 515.477C1311.67 509.217 1313.39 503.257 1314.77 497.617C1315.5 494.807 1316.03 492.067 1316.61 489.437C1317.19 486.807 1317.61 484.267 1317.89 481.817C1319.06 474.131 1319.31 466.333 1318.64 458.587C1318.46 455.837 1318.06 453.727 1317.87 452.287C1317.7 451.553 1317.64 450.798 1317.7 450.047C1318.03 450.718 1318.26 451.436 1318.38 452.177C1318.94 454.242 1319.36 456.344 1319.63 458.467C1320.7 466.286 1320.71 474.213 1319.68 482.037C1319.45 484.527 1318.95 487.087 1318.55 489.787C1318.15 492.487 1317.55 495.247 1316.83 498.087C1315.55 503.807 1313.89 509.827 1312.05 516.087L1306.21 535.787C1304.19 542.677 1302.43 549.807 1300.79 557.157Z" fill="#516D7B"/>
<path d="M1313.21 949.238C1317.56 961.4 1322.62 973.3 1328.35 984.878L1332.35 992.598C1333.6 995.128 1335.06 997.458 1336.35 999.768C1337.64 1002.08 1338.89 1004.32 1340.19 1006.41L1343.95 1012.41C1346.27 1016.28 1348.67 1019.58 1350.66 1022.56C1351.66 1024.04 1352.59 1025.44 1353.47 1026.69L1355.95 1030.08C1358.95 1034.17 1360.5 1036.48 1360.37 1036.59C1360.24 1036.7 1358.37 1034.59 1355.17 1030.68L1352.5 1027.41C1351.55 1026.19 1350.58 1024.83 1349.5 1023.41C1347.39 1020.49 1344.87 1017.24 1342.44 1013.41L1338.52 1007.46C1337.17 1005.38 1335.91 1003.14 1334.52 1000.85C1333.13 998.558 1331.68 996.218 1330.38 993.688L1326.24 985.958C1314.29 962.759 1305.6 938.022 1300.41 912.448L1298.81 903.818C1298.24 901.028 1297.96 898.278 1297.56 895.638C1297.16 892.998 1296.79 890.448 1296.56 887.978L1295.9 880.888C1295.4 876.378 1295.33 872.268 1295.16 868.668C1295.09 866.868 1295 865.198 1294.98 863.668V859.448C1295.05 854.378 1295.17 851.578 1295.34 851.578C1295.51 851.578 1295.73 854.378 1295.97 859.418L1296.15 863.618C1296.24 865.148 1296.41 866.818 1296.54 868.618C1296.85 872.188 1297.05 876.268 1297.65 880.738L1298.47 887.738C1298.76 890.178 1299.23 892.738 1299.62 895.318C1300.01 897.898 1300.38 900.658 1300.99 903.418L1302.69 911.958C1305.47 924.577 1308.99 937.025 1313.21 949.238Z" fill="#516D7B"/>
<path d="M1292.13 901.059C1293.51 907.809 1295.05 914.189 1296.56 919.969C1297.35 922.849 1298.07 925.589 1298.84 928.139C1299.61 930.689 1300.3 933.059 1300.97 935.219C1303.66 943.849 1305.53 949.139 1305.17 949.289C1304.81 949.439 1302.41 944.339 1299.26 935.799C1298.48 933.659 1297.64 931.319 1296.82 928.799C1296 926.279 1295.16 923.519 1294.3 920.629C1292.65 914.839 1291.03 908.409 1289.64 901.629C1288.25 894.849 1287.26 888.269 1286.52 882.289C1286.19 879.289 1285.85 876.459 1285.66 873.789C1285.47 871.119 1285.28 868.639 1285.16 866.359C1284.73 857.269 1285.03 851.639 1285.34 851.629C1285.65 851.619 1286.07 857.219 1286.96 866.219C1287.19 868.469 1287.43 870.929 1287.76 873.569C1288.09 876.209 1288.45 879.019 1288.85 881.979C1289.7 887.829 1290.78 894.299 1292.13 901.059Z" fill="#516D7B"/>
<path d="M1211.06 1007.47C1216.16 1011.25 1221.56 1014.6 1227.23 1017.47C1229.89 1018.7 1232.38 1019.95 1234.83 1020.85C1236.05 1021.32 1237.2 1021.85 1238.35 1022.22L1241.66 1023.31C1243.75 1024.07 1245.72 1024.5 1247.42 1024.98C1248.28 1025.21 1249.07 1025.45 1249.8 1025.62L1251.8 1026.05C1254.24 1026.59 1255.59 1026.97 1255.57 1027.15C1255.55 1027.33 1254.16 1027.28 1251.64 1027.03L1249.55 1026.81C1248.79 1026.7 1247.97 1026.53 1247.09 1026.37C1245.07 1026.03 1243.07 1025.58 1241.09 1025.04L1237.66 1024.04C1236.47 1023.7 1235.27 1023.22 1234.01 1022.78C1231.47 1021.95 1228.88 1020.78 1226.13 1019.54C1214.3 1013.97 1203.76 1005.97 1195.21 996.077C1193.31 993.757 1191.45 991.587 1189.97 989.357C1189.21 988.257 1188.43 987.237 1187.78 986.187L1185.94 983.187C1184.89 981.445 1183.93 979.649 1183.06 977.807C1182.67 976.997 1182.28 976.257 1181.97 975.557L1181.2 973.557C1180.29 971.197 1179.87 969.867 1180.03 969.807C1180.19 969.747 1180.93 970.937 1182.1 973.137L1183.1 974.977C1183.47 975.637 1183.91 976.337 1184.36 977.097C1185.28 978.607 1186.22 980.387 1187.52 982.197L1189.46 985.087C1190.14 986.087 1190.95 987.087 1191.73 988.087C1193.25 990.207 1195.12 992.277 1197.03 994.497C1201.33 999.214 1206.02 1003.55 1211.06 1007.47Z" fill="#516D7B"/>
<path d="M1248 1012.35C1254.31 1014.98 1260.76 1017.23 1267.34 1019.09C1270.39 1019.88 1273.28 1020.68 1276.03 1021.22C1277.4 1021.51 1278.72 1021.83 1280.03 1022.06L1283.72 1022.7C1286.07 1023.16 1288.22 1023.38 1290.1 1023.7L1292.72 1024.07L1294.94 1024.31C1297.6 1024.61 1299.08 1024.86 1299.08 1025.04C1299.08 1025.22 1297.58 1025.3 1294.88 1025.3H1292.63C1291.81 1025.3 1290.92 1025.2 1289.96 1025.14C1288.05 1024.99 1285.86 1024.9 1283.46 1024.55L1279.69 1024.06C1278.38 1023.88 1277.04 1023.6 1275.63 1023.35C1272.82 1022.89 1269.87 1022.15 1266.75 1021.42C1253.26 1017.97 1240.37 1012.49 1228.53 1005.17C1225.84 1003.44 1223.26 1001.82 1220.98 1000.12C1219.83 999.277 1218.69 998.507 1217.66 997.687L1214.66 995.317C1212.75 993.837 1211.16 992.317 1209.72 991.057C1209.01 990.407 1208.34 989.817 1207.72 989.247L1206.15 987.637C1204.28 985.687 1203.3 984.557 1203.43 984.437C1203.56 984.317 1204.76 985.197 1206.83 986.907L1208.54 988.337L1210.63 989.967C1212.14 991.127 1213.79 992.527 1215.75 993.887L1218.75 996.097C1219.8 996.867 1220.95 997.587 1222.11 998.377C1224.41 999.987 1226.99 1001.51 1229.67 1003.16C1235.59 1006.58 1241.71 1009.65 1248 1012.35Z" fill="#516D7B"/>
<path d="M1104.85 822.997C1104.52 849.597 1082.93 871.777 1056.07 871.777C1029.21 871.777 1007.62 849.597 1007.29 822.997C1007.19 815.277 995.19 815.257 995.29 822.997C995.409 835.442 999.294 847.56 1006.43 857.755C1013.57 867.949 1023.63 875.742 1035.29 880.107C1058.81 888.867 1086.49 881.387 1102.52 862.107C1111.67 851.116 1116.73 837.297 1116.85 822.997C1116.95 815.277 1104.95 815.267 1104.85 822.997Z" fill="#385868"/>
<path d="M920.56 1063.68C922.82 1086.52 935.1 1106.88 952.77 1121.28C972.77 1137.58 997.71 1145.44 1022.99 1148.79C1073.47 1155.47 1130.22 1149.88 1172.82 1119.79C1193.97 1104.88 1210.82 1084.87 1220.23 1060.65C1223.03 1053.45 1211.43 1050.33 1208.66 1057.46C1192.66 1098.65 1152.34 1124.2 1110.73 1133.71C1086.66 1139.21 1061.58 1140.08 1037.01 1138.2C1013.44 1136.4 989.31 1131.28 969.14 1118.39C950.23 1106.3 934.81 1086.48 932.55 1063.63C931.8 1056.02 919.79 1055.94 920.55 1063.63L920.56 1063.68Z" fill="#385868"/>
<path d="M707.88 1235.38H1444.31C1451.81 1235.38 1459 1238.36 1464.3 1243.66C1469.6 1248.96 1472.58 1256.15 1472.58 1263.65V1736.71C1472.58 1741.19 1470.8 1745.49 1467.63 1748.67C1464.46 1751.84 1460.15 1753.62 1455.67 1753.62H696.52C692.035 1753.62 687.734 1751.84 684.563 1748.67C681.391 1745.49 679.61 1741.19 679.61 1736.71V1263.65C679.61 1256.15 682.588 1248.96 687.89 1243.66C693.192 1238.36 700.382 1235.38 707.88 1235.38Z" fill="#256075"/>
<path d="M1443.87 1234.24H712.69C695.62 1234.24 681.79 1247.3 681.79 1263.4V1278.79C681.79 1262.69 695.62 1249.63 712.69 1249.63H1443.87C1460.94 1249.63 1474.77 1262.69 1474.77 1278.79V1263.4C1474.77 1247.29 1460.94 1234.24 1443.87 1234.24Z" fill="#347888"/>
<path d="M1479.92 1758.61H676.77V1262.88C676.778 1254.26 680.203 1246 686.294 1239.91C692.385 1233.82 700.645 1230.39 709.26 1230.38H1447.44C1456.06 1230.39 1464.31 1233.82 1470.41 1239.91C1476.5 1246 1479.92 1254.26 1479.93 1262.88L1479.92 1758.61ZM686.77 1748.61H1469.92V1262.88C1469.91 1256.91 1467.54 1251.2 1463.33 1246.98C1459.11 1242.76 1453.39 1240.39 1447.43 1240.38H709.26C703.296 1240.39 697.579 1242.76 693.362 1246.98C689.146 1251.2 686.775 1256.91 686.77 1262.88V1748.61Z" fill="#385868"/>
<path d="M513.25 1699.24C500.143 1699.2 487.342 1695.28 476.462 1687.97C465.582 1680.66 457.113 1670.29 452.123 1658.17C447.133 1646.05 445.847 1632.72 448.427 1619.87C451.007 1607.02 457.338 1595.23 466.619 1585.97C475.9 1576.72 487.716 1570.42 500.573 1567.88C513.431 1565.33 526.754 1566.66 538.859 1571.68C550.965 1576.71 561.31 1585.21 568.588 1596.11C575.866 1607.01 579.75 1619.82 579.75 1632.93C579.705 1650.53 572.678 1667.4 560.211 1679.83C547.744 1692.26 530.856 1699.24 513.25 1699.24ZM513.25 1584.63C503.703 1584.66 494.381 1587.53 486.461 1592.86C478.542 1598.19 472.379 1605.75 468.752 1614.58C465.125 1623.41 464.196 1633.12 466.082 1642.48C467.968 1651.84 472.585 1660.43 479.35 1667.17C486.115 1673.9 494.724 1678.49 504.091 1680.33C513.458 1682.18 523.162 1681.21 531.978 1677.55C540.794 1673.88 548.327 1667.69 553.626 1659.75C558.925 1651.81 561.752 1642.47 561.75 1632.93C561.708 1620.1 556.578 1607.8 547.486 1598.75C538.394 1589.7 526.082 1584.62 513.25 1584.63Z" fill="#385868"/>
<path d="M540.75 1583.68V1605.8C534.75 1672.14 475.26 1724.24 402.75 1724.24C330.24 1724.24 270.75 1672.14 264.75 1605.8V1583.68C265.325 1577.24 266.412 1570.86 268 1564.6C268.677 1561.93 270.224 1559.56 272.397 1557.86C274.57 1556.17 277.245 1555.24 280 1555.24H525.46C528.216 1555.24 530.89 1556.17 533.063 1557.86C535.236 1559.56 536.783 1561.93 537.46 1564.6C539.062 1570.86 540.162 1577.24 540.75 1583.68Z" fill="#68B9E1"/>
<path d="M540.75 1560.24C540.753 1563.26 540.444 1566.28 539.83 1569.24H385.59C385.59 1586.91 372.28 1601.24 355.86 1601.24H354C350.042 1601.21 346.132 1600.37 342.518 1598.76C338.903 1597.14 335.662 1594.8 333 1591.87C327.345 1585.69 324.233 1577.61 324.29 1569.24H266.67C266.056 1566.28 265.747 1563.26 265.75 1560.24H540.75Z" fill="#ACD8F8"/>
<path d="M403.75 1729.24C367.62 1729.24 333.09 1716.61 306.54 1693.68C279.99 1670.75 263.8 1639.76 260.77 1606.25V1605.8V1583.23C261.38 1576.53 262.52 1569.89 264.18 1563.37C265.128 1559.62 267.296 1556.3 270.341 1553.92C273.387 1551.55 277.137 1550.25 281 1550.24H526.46C530.332 1550.24 534.094 1551.53 537.149 1553.91C540.205 1556.29 542.38 1559.61 543.33 1563.37C544.987 1569.89 546.124 1576.53 546.73 1583.23V1583.68V1606.25C543.73 1639.76 527.44 1670.81 500.96 1693.68C474.48 1716.55 439.88 1729.24 403.75 1729.24ZM270.75 1605.57C273.6 1636.4 288.62 1664.99 313.08 1686.11C337.82 1707.47 370.02 1719.24 403.75 1719.24C437.48 1719.24 469.69 1707.48 494.42 1686.11C518.87 1664.99 533.9 1636.4 536.75 1605.57V1583.91C536.184 1577.81 535.141 1571.77 533.63 1565.84C533.226 1564.24 532.301 1562.83 531.003 1561.81C529.705 1560.8 528.106 1560.25 526.46 1560.25H281C279.354 1560.25 277.755 1560.8 276.457 1561.81C275.159 1562.83 274.234 1564.24 273.83 1565.84C272.319 1571.77 271.276 1577.81 270.71 1583.91L270.75 1605.57Z" fill="#385868"/>
<path d="M254.75 1710.24H550.75C550.75 1721.11 546.43 1731.54 538.741 1739.23C531.052 1746.92 520.624 1751.24 509.75 1751.24H295.75C284.876 1751.24 274.448 1746.92 266.759 1739.23C259.07 1731.54 254.75 1721.11 254.75 1710.24Z" fill="#68B9E1"/>
<path d="M544.75 1712.24C544.738 1715.27 544.403 1718.28 543.75 1721.24H383.39C383.39 1738.91 369.54 1753.24 352.47 1753.24H350.54C346.451 1753.23 342.406 1752.4 338.647 1750.79C334.889 1749.18 331.495 1746.82 328.67 1743.87C322.829 1737.79 319.584 1729.67 319.62 1721.24H259.7C259.047 1718.28 258.712 1715.27 258.7 1712.24H544.75Z" fill="#ACD8F8"/>
<path d="M510.75 1756.24H296.75C284.554 1756.23 272.862 1751.37 264.238 1742.75C255.614 1734.13 250.763 1722.43 250.75 1710.24V1705.24H556.75V1710.24C556.737 1722.43 551.886 1734.13 543.262 1742.75C534.638 1751.37 522.946 1756.23 510.75 1756.24ZM261.1 1715.24C262.316 1723.83 266.59 1731.7 273.139 1737.39C279.688 1743.09 288.072 1746.23 296.75 1746.24H510.75C519.428 1746.23 527.81 1743.08 534.359 1737.39C540.907 1731.7 545.182 1723.83 546.4 1715.24H261.1Z" fill="#385868"/>
<path d="M540.75 1584.74H467.75V1591.74H540.75V1584.74Z" fill="#385868"/>
<g opacity="0.4">
<path opacity="0.4" d="M945.64 746.738C967.052 746.738 984.41 737.336 984.41 725.738C984.41 714.14 967.052 704.738 945.64 704.738C924.228 704.738 906.87 714.14 906.87 725.738C906.87 737.336 924.228 746.738 945.64 746.738Z" fill="white"/>
<path opacity="0.4" d="M1166.37 746.738C1187.78 746.738 1205.14 737.336 1205.14 725.738C1205.14 714.14 1187.78 704.738 1166.37 704.738C1144.96 704.738 1127.6 714.14 1127.6 725.738C1127.6 737.336 1144.96 746.738 1166.37 746.738Z" fill="white"/>
</g>
</g>
</g>
<defs>
<clipPath id="clip0_333_3834">
<rect width="2030" height="1763" fill="white"/>
</clipPath>
</defs>
</svg>
