<svg width="2030" height="1763" fill="none" xmlns="http://www.w3.org/2000/svg"><g clip-path="url(#a)"><mask id="b" style="mask-type:luminance" maskUnits="userSpaceOnUse" x="0" y="0" width="2030" height="1763"><path d="M2029.57 0H0v1762.24h2029.57V0Z" fill="#fff"/></mask><g mask="url(#b)"><g opacity=".2"><path opacity=".2" d="M1539.99 200.668H505.05V1272.03h1034.94V200.668Z" fill="#D9FAFF"/><path opacity=".2" d="m939.68 221.906-159.62 502.3h-90.77l159.63-502.3h90.76Zm-140.12 0-159.62 502.3h-52.55L747 221.906h52.56Zm677.32-4.547-159.63 502.3h-90.76l159.63-502.3h90.76Zm-140.13 0-159.61 502.3h-52.55l159.61-502.3h52.55Zm140.13 538.719-159.63 502.292h-90.76l159.63-502.292h90.76Zm-140.13 0-159.61 502.292h-52.55l159.61-502.292h52.55Zm-397.07 0L780.06 1258.37h-90.77l159.63-502.292h90.76Zm-140.12 0L639.94 1258.37h-52.55L747 756.078h52.56Z" fill="#fff"/><path opacity=".2" d="M1040.73 1274.65V220.809c0-4.419-3.58-8-8-8h-21.94c-4.42 0-8 3.581-8 8V1274.65c0 4.42 3.58 8 8 8h21.94c4.42 0 8-3.58 8-8ZM486.85 217.777V1271.62c0 4.42 3.581 8 8 8h21.94a8 8 0 0 0 8-8V217.777a8 8 0 0 0-8-8h-21.94a8 8 0 0 0-8 8Zm1034.93 0V1271.62c0 4.42 3.58 8 8 8h21.94c4.42 0 8-3.58 8-8V217.777a8 8 0 0 0-8-8h-21.94a8 8 0 0 0-8 8Z" fill="#E2B38E"/><path opacity=".2" d="M1031.21 1287.65h-21.94c-3.45 0-6.75-1.37-9.19-3.81a12.984 12.984 0 0 1-3.81-9.19V220.809a12.99 12.99 0 0 1 3.81-9.193 12.993 12.993 0 0 1 9.19-3.807h21.94c3.45 0 6.75 1.369 9.19 3.807a12.995 12.995 0 0 1 3.81 9.193V1274.65c0 3.45-1.37 6.75-3.81 9.19a12.988 12.988 0 0 1-9.19 3.81Zm-21.93-1069.841c-.8 0-1.56.316-2.12.878a3.014 3.014 0 0 0-.88 2.122V1274.65c0 .79.32 1.56.88 2.12s1.32.88 2.12.88h21.94c.8 0 1.56-.32 2.12-.88s.88-1.33.88-2.12V220.809c0-.796-.32-1.559-.88-2.122a2.987 2.987 0 0 0-2.12-.878h-21.94ZM515.26 1284.62h-21.93c-3.448 0-6.755-1.37-9.193-3.81a12.993 12.993 0 0 1-3.807-9.19V217.777a13 13 0 0 1 13-13h21.94a13 13 0 0 1 13 13V1271.62c0 1.71-.337 3.4-.991 4.97a12.896 12.896 0 0 1-2.821 4.22 12.92 12.92 0 0 1-4.22 2.82c-1.579.65-3.27.99-4.978.99ZM493.33 214.777a3 3 0 0 0-3 3V1271.62a3.004 3.004 0 0 0 3 3h21.94a3 3 0 0 0 3-3V217.777a3 3 0 0 0-3-3h-21.94ZM1550.2 1284.62h-21.94c-3.45 0-6.75-1.37-9.19-3.81a12.988 12.988 0 0 1-3.81-9.19V217.777c0-3.447 1.37-6.754 3.81-9.192a12.994 12.994 0 0 1 9.19-3.808h21.94c3.45 0 6.75 1.37 9.19 3.808a12.994 12.994 0 0 1 3.81 9.192V1271.62c0 3.45-1.37 6.75-3.81 9.19a12.988 12.988 0 0 1-9.19 3.81Zm-21.94-1069.843c-.8 0-1.56.316-2.12.879a3.013 3.013 0 0 0-.88 2.121V1271.62c0 .79.32 1.56.88 2.12s1.32.88 2.12.88h21.94c.8 0 1.56-.32 2.12-.88s.88-1.33.88-2.12V217.777c0-.795-.32-1.558-.88-2.121a2.984 2.984 0 0 0-2.12-.879h-21.94Z" fill="#385868"/><path opacity=".2" d="M1560.82 180.938H488.8a8 8 0 0 0-8 8v21.94a8 8 0 0 0 8 8h1072.02a8 8 0 0 0 8-8v-21.94c0-4.419-3.58-8-8-8Z" fill="#E2B38E"/><path opacity=".2" d="M1559.28 223.878h-1072a13.001 13.001 0 0 1-13-13v-21.94a13 13 0 0 1 13-13h1072c3.45 0 6.75 1.369 9.19 3.807a12.995 12.995 0 0 1 3.81 9.193v21.94c0 3.447-1.37 6.754-3.81 9.192a12.994 12.994 0 0 1-9.19 3.808Zm-1072-37.94c-.796 0-1.559.316-2.122.878a3.004 3.004 0 0 0-.878 2.122v21.94a3.003 3.003 0 0 0 3 3h1072c.8 0 1.56-.317 2.12-.879.56-.563.88-1.326.88-2.121v-21.94c0-.796-.32-1.559-.88-2.122a2.987 2.987 0 0 0-2.12-.878h-1072Z" fill="#385868"/><path opacity=".2" d="M1560.82 1252.3H488.8a8 8 0 0 0-8 8v21.94a8 8 0 0 0 8 8h1072.02c4.42 0 8-3.58 8-8v-21.94c0-4.42-3.58-8-8-8Z" fill="#E2B38E"/><path opacity=".2" d="M1559.28 1295.24h-1072c-3.448 0-6.755-1.37-9.193-3.81a13.01 13.01 0 0 1-3.807-9.19v-21.94c0-3.45 1.369-6.76 3.807-9.2a13.027 13.027 0 0 1 9.193-3.8h1072c3.45 0 6.75 1.37 9.19 3.8 2.44 2.44 3.81 5.75 3.81 9.2v21.94c0 3.44-1.37 6.75-3.81 9.19a12.988 12.988 0 0 1-9.19 3.81Zm-1072-37.94c-.796 0-1.559.31-2.122.88a2.987 2.987 0 0 0-.878 2.12v21.94a3.004 3.004 0 0 0 3 3h1072c.8 0 1.56-.32 2.12-.88s.88-1.33.88-2.12v-21.94c0-.8-.32-1.56-.88-2.12-.56-.57-1.32-.88-2.12-.88h-1072Z" fill="#385868"/><path opacity=".2" d="M1560.82 721.168H488.8a8 8 0 0 0-8 8v21.94a8 8 0 0 0 8 8h1072.02a8 8 0 0 0 8-8v-21.94a8 8 0 0 0-8-8Z" fill="#E2B38E"/><path opacity=".2" d="M1559.28 764.108h-1072a13.001 13.001 0 0 1-13-13v-21.94a12.998 12.998 0 0 1 13-13h1072c3.45 0 6.75 1.37 9.19 3.808a12.993 12.993 0 0 1 3.81 9.192v21.94c0 3.448-1.37 6.754-3.81 9.192a12.994 12.994 0 0 1-9.19 3.808Zm-1072-37.94a3 3 0 0 0-3 3v21.94a3 3 0 0 0 3 3h1072c.8 0 1.56-.316 2.12-.879a3.01 3.01 0 0 0 .88-2.121v-21.94a3.01 3.01 0 0 0-.88-2.121 2.984 2.984 0 0 0-2.12-.879h-1072Z" fill="#385868"/></g><g opacity=".2"><path opacity=".2" d="M151.38 1050.15v8h124v-8h-124Zm161.981 33.81-.039 8 123.999.6.039-8-123.999-.6Zm-154.662 61.59-.719 71.9 8 .08.719-71.9-8-.08Z" fill="#385868"/><path opacity=".2" d="m327.262 1016.88-.719 71.9 8 .08.719-71.9-8-.08Z" fill="#385868"/><path opacity=".2" d="M217.04 1114.4h155.77c10.361 0 18.76-8.4 18.76-18.76v-17.88c0-10.36-8.399-18.76-18.76-18.76H217.04c-10.361 0-18.76 8.4-18.76 18.76v17.88c0 10.36 8.399 18.76 18.76 18.76Z" fill="#F2F2F2"/><path opacity=".2" d="M372.81 1118.41H217a22.788 22.788 0 0 1-16.085-6.68 22.772 22.772 0 0 1-6.675-16.08v-17.87A22.787 22.787 0 0 1 217 1055h155.81a22.79 22.79 0 0 1 16.085 6.68 22.776 22.776 0 0 1 6.675 16.08v17.87a22.79 22.79 0 0 1-6.668 16.1 22.8 22.8 0 0 1-16.092 6.68ZM217 1063a14.788 14.788 0 0 0-10.431 4.33 14.787 14.787 0 0 0-4.329 10.43v17.87c0 3.92 1.554 7.67 4.322 10.44a14.765 14.765 0 0 0 10.438 4.34h155.81a14.788 14.788 0 0 0 10.431-4.33 14.79 14.79 0 0 0 4.329-10.43v-17.87c0-3.92-1.555-7.67-4.322-10.44a14.768 14.768 0 0 0-10.438-4.34H217Z" fill="#385868"/><path opacity=".2" d="M84.08 1169.8h155.77c10.361 0 18.76-8.4 18.76-18.76v-17.88c0-10.36-8.399-18.76-18.76-18.76H84.08c-10.361 0-18.76 8.4-18.76 18.76v17.88c0 10.36 8.399 18.76 18.76 18.76Z" fill="#F2F2F2"/><path opacity=".2" d="M239.85 1173.81H84.09c-2.993-.01-5.956-.6-8.72-1.75a22.62 22.62 0 0 1-7.39-4.94 22.801 22.801 0 0 1-6.66-16.12v-17.87a22.797 22.797 0 0 1 6.675-16.09 22.822 22.822 0 0 1 16.085-6.67h155.77a22.822 22.822 0 0 1 16.085 6.67 22.8 22.8 0 0 1 6.675 16.09V1151a22.762 22.762 0 0 1-6.658 16.11 22.794 22.794 0 0 1-16.102 6.7Zm-155.76-55.4c-3.913 0-7.664 1.56-10.431 4.33a14.753 14.753 0 0 0-4.33 10.43V1151a14.788 14.788 0 0 0 4.33 10.43 14.788 14.788 0 0 0 10.43 4.33H239.85a14.788 14.788 0 0 0 10.431-4.33 14.787 14.787 0 0 0 4.329-10.43v-17.87a14.752 14.752 0 0 0-4.329-10.43 14.746 14.746 0 0 0-10.431-4.33l-155.76.04Z" fill="#385868"/></g><g opacity=".2"><path opacity=".2" d="M90.35 223.039v8h124v-8h-124Zm161.692 29.738-.04 8 123.999.606.039-8-123.998-.606ZM97.226 312.983l-.719 71.9 8 .08.719-71.9-8-.08Z" fill="#385868"/><path opacity=".2" d="m265.809 184.33-.719 71.9 8 .08.719-71.9-8-.08Z" fill="#385868"/><path opacity=".2" d="M155.72 283.262h155.77c10.361 0 18.76-8.399 18.76-18.76v-17.88c0-10.361-8.399-18.76-18.76-18.76H155.72c-10.361 0-18.76 8.399-18.76 18.76v17.88c0 10.361 8.399 18.76 18.76 18.76Z" fill="#F2F2F2"/><path opacity=".2" d="M311.48 287.249H155.73a22.787 22.787 0 0 1-22.73-22.76v-17.87a22.79 22.79 0 0 1 22.76-22.76h155.72a22.793 22.793 0 0 1 22.76 22.76v17.87a22.787 22.787 0 0 1-22.76 22.76Zm-155.76-55.4a14.782 14.782 0 0 0-14.72 14.77v17.87a14.777 14.777 0 0 0 14.76 14.76h155.72a14.778 14.778 0 0 0 14.76-14.76v-17.87a14.778 14.778 0 0 0-14.76-14.76l-155.76-.01Z" fill="#385868"/><path opacity=".2" d="M22.76 338.648h155.77c10.361 0 18.76-8.399 18.76-18.76v-17.88c0-10.36-8.399-18.76-18.76-18.76H22.76c-10.36 0-18.76 8.4-18.76 18.76v17.88c0 10.361 8.4 18.76 18.76 18.76Z" fill="#F2F2F2"/><path opacity=".2" d="M178.52 342.658H22.76A22.789 22.789 0 0 1 0 319.888v-17.89a22.79 22.79 0 0 1 22.76-22.76h155.76a22.79 22.79 0 0 1 22.77 22.76v17.87a22.788 22.788 0 0 1-22.77 22.79Zm-155.76-55.41A14.782 14.782 0 0 0 8 301.998v17.87a14.78 14.78 0 0 0 14.76 14.76h155.76a14.778 14.778 0 0 0 14.76-14.76v-17.87a14.778 14.778 0 0 0-14.76-14.76l-155.76.01Z" fill="#385868"/></g><g opacity=".2"><path opacity=".2" d="m1744.7 1087.88-.04 8 124.01.6.03-8-124-.6Zm160.91 28.92-.04 8 124.01.6.04-8-124.01-.6Zm-151.99 61.6-.72 71.9 8 .08.72-71.9-8-.08Z" fill="#385868"/><path opacity=".2" d="m1922.18 1049.75-.71 71.9 8 .08.71-71.9-8-.08Z" fill="#385868"/><path opacity=".2" d="M1809.26 1147.25h155.77c10.36 0 18.76-8.4 18.76-18.76v-17.88c0-10.36-8.4-18.76-18.76-18.76h-155.77c-10.36 0-18.76 8.4-18.76 18.76v17.88c0 10.36 8.4 18.76 18.76 18.76Z" fill="#F2F2F2"/><path opacity=".2" d="M1965 1151.26h-155.73a22.814 22.814 0 0 1-16.09-6.68 22.805 22.805 0 0 1-6.67-16.08v-17.87c.01-6.04 2.41-11.82 6.67-16.09a22.846 22.846 0 0 1 16.09-6.67H1965c6.03.01 11.82 2.41 16.08 6.67a22.796 22.796 0 0 1 6.68 16.09v17.87a22.773 22.773 0 0 1-6.68 16.08 22.773 22.773 0 0 1-16.08 6.68Zm-155.76-55.4c-3.91 0-7.66 1.56-10.43 4.33a14.761 14.761 0 0 0-4.33 10.43v17.87c.01 3.91 1.56 7.66 4.33 10.43 2.77 2.77 6.52 4.32 10.43 4.33H1965c3.91-.01 7.66-1.56 10.43-4.33 2.77-2.77 4.32-6.52 4.33-10.43v-17.87c-.01-3.92-1.56-7.67-4.33-10.43a14.754 14.754 0 0 0-10.43-4.33h-155.76Z" fill="#385868"/><path opacity=".2" d="M1676.3 1202.66h155.77c10.36 0 18.76-8.4 18.76-18.76v-17.88c0-10.36-8.4-18.76-18.76-18.76H1676.3c-10.36 0-18.76 8.4-18.76 18.76v17.88c0 10.36 8.4 18.76 18.76 18.76Z" fill="#F2F2F2"/><path opacity=".2" d="M1832.06 1206.66H1676.3a22.814 22.814 0 0 1-16.09-6.68 22.805 22.805 0 0 1-6.67-16.08V1166c.01-6.04 2.41-11.82 6.67-16.09a22.846 22.846 0 0 1 16.09-6.67h155.76c6.03.01 11.82 2.41 16.09 6.67a22.829 22.829 0 0 1 6.67 16.09v17.87a22.787 22.787 0 0 1-22.76 22.79Zm-155.76-55.4c-3.91 0-7.66 1.56-10.43 4.33a14.778 14.778 0 0 0-4.33 10.43v17.87c.01 3.91 1.56 7.66 4.33 10.43 2.77 2.77 6.52 4.32 10.43 4.33h155.76c3.91-.01 7.66-1.56 10.43-4.33 2.77-2.77 4.32-6.52 4.33-10.43V1166c-.01-3.91-1.56-7.67-4.33-10.43a14.754 14.754 0 0 0-10.43-4.33l-155.76.02Z" fill="#385868"/></g><g opacity=".2"><path opacity=".2" d="m1744.71 39.883-.04 8 124.01.606.04-8-124.01-.606Zm160.89 28.922-.03 8 124 .606.04-8-124.01-.606Zm-152.03 59.838-.72 71.9 8 .08.72-71.9-8-.08Z" fill="#385868"/><path opacity=".2" d="m1922.14-.013-.71 71.9 8 .08.71-71.9-8-.08Z" fill="#385868"/><path opacity=".2" d="M1809.26 99.29h155.77c10.36 0 18.76-8.4 18.76-18.76V62.65c0-10.362-8.4-18.76-18.76-18.76h-155.77c-10.36 0-18.76 8.398-18.76 18.76v17.88c0 10.36 8.4 18.76 18.76 18.76Z" fill="#F2F2F2"/><path opacity=".2" d="M1965 103.287h-155.73a22.816 22.816 0 0 1-16.09-6.675 22.822 22.822 0 0 1-6.67-16.085v-17.88a22.822 22.822 0 0 1 6.67-16.085 22.815 22.815 0 0 1 16.09-6.675H1965a22.774 22.774 0 0 1 16.08 6.675 22.79 22.79 0 0 1 6.68 16.085v17.87a22.796 22.796 0 0 1-6.67 16.091 22.792 22.792 0 0 1-16.09 6.679Zm-155.76-55.4a14.788 14.788 0 0 0-10.43 4.329 14.788 14.788 0 0 0-4.33 10.43v17.87a14.788 14.788 0 0 0 4.33 10.432 14.788 14.788 0 0 0 10.43 4.329H1965a14.788 14.788 0 0 0 10.43-4.33 14.788 14.788 0 0 0 4.33-10.43v-17.87c0-3.915-1.56-7.669-4.33-10.438a14.765 14.765 0 0 0-10.43-4.332l-155.76.01Z" fill="#385868"/><path opacity=".2" d="M1676.3 154.68h155.77c10.36 0 18.76-8.399 18.76-18.76v-17.88c0-10.361-8.4-18.76-18.76-18.76H1676.3c-10.36 0-18.76 8.399-18.76 18.76v17.88c0 10.361 8.4 18.76 18.76 18.76Z" fill="#F2F2F2"/><path opacity=".2" d="M1832.06 158.688H1676.3a22.813 22.813 0 0 1-16.09-6.675 22.82 22.82 0 0 1-6.67-16.085v-17.93a22.822 22.822 0 0 1 6.67-16.085 22.815 22.815 0 0 1 16.09-6.675h155.76a22.795 22.795 0 0 1 22.77 22.76v17.87c0 2.994-.58 5.959-1.72 8.726a22.859 22.859 0 0 1-4.94 7.402 22.68 22.68 0 0 1-7.39 4.949 22.77 22.77 0 0 1-8.72 1.743Zm-155.76-55.4a14.77 14.77 0 0 0-10.41 4.312 14.77 14.77 0 0 0-4.35 10.398v17.87a14.788 14.788 0 0 0 4.33 10.431 14.787 14.787 0 0 0 10.43 4.329h155.76a14.787 14.787 0 0 0 10.43-4.329 14.788 14.788 0 0 0 4.33-10.431v-17.87a14.788 14.788 0 0 0-4.33-10.431 14.79 14.79 0 0 0-10.43-4.329l-155.76.05Z" fill="#385868"/></g><path d="M1675.78 1752.24h-1363v10h1363v-10Zm153 0h-125v10h125v-10Zm-1537 0h-87v10h87v-10Z" fill="#385868"/><path d="M1120.67 957.379V1007c0 13.15 5.22 25.76 14.52 35.06a49.61 49.61 0 0 0 35.07 14.53h60.51c27.27 0 53.42 10.83 72.7 30.11a102.81 102.81 0 0 1 30.11 72.7v283.73H795.1V1159.4a102.804 102.804 0 0 1 30.116-72.69 102.804 102.804 0 0 1 72.694-30.11h60.51a49.622 49.622 0 0 0 35.063-14.53 49.694 49.694 0 0 0 10.747-16.09A49.66 49.66 0 0 0 1008 1007v-49.621" fill="#FFC6AD"/><path d="M1329.44 1162.5v283.74H795.1V1162.5a102.804 102.804 0 0 1 30.116-72.69 102.804 102.804 0 0 1 72.694-30.11h28.77c2.71 25.77 20.82 50.22 43.26 63.15 22.79 13.13 49.57 17.64 75.84 18.83 33.69 1.53 68.19-2.22 99-15.94 29.25-13 55-36.69 67.73-66h14.12a102.803 102.803 0 0 1 102.81 102.76Z" fill="#82F0B7"/><path d="M1327.37 1162.5v48.58c0-27.27-10.83-53.42-30.11-72.7a102.81 102.81 0 0 0-72.7-30.11h-14.12c-12.76 29.35-38.48 53-67.73 66-30.81 13.72-65.31 17.47-99 15.94-26.27-1.19-53.05-5.71-75.84-18.83-22.45-12.93-40.56-37.38-43.26-63.15h-28.77c-13.507 0-26.883 2.65-39.362 7.82a102.72 102.72 0 0 0-33.369 22.3A102.796 102.796 0 0 0 793 1211.08v-48.58a102.781 102.781 0 0 1 30.126-72.7 102.68 102.68 0 0 1 33.363-22.28 102.785 102.785 0 0 1 39.351-7.82h28.77c2.71 25.77 20.82 50.22 43.26 63.15 22.79 13.13 49.57 17.64 75.84 18.83 33.69 1.53 68.19-2.22 99-15.94 29.25-13 55-36.69 67.73-66h14.12a102.803 102.803 0 0 1 102.81 102.76Z" fill="#BEF8D9"/><path d="M1118.6 964.609v37.711l-.9.22a292.681 292.681 0 0 1-111.76 4.71v-42.641h112.66Z" fill="#E39493"/><path d="M1110.53 957.38c0 16.77-.3 33.56 0 50.32.15 8.41 2.19 16.68 5.96 24.19a56.1 56.1 0 0 0 15.86 19.22c10.55 8.11 23 11.48 36.19 11.48 19.18 0 38.36-.08 57.54 0 31.47.13 61.66 15.15 79.76 41.14 12.49 17.93 17.57 38.34 17.57 60v244.1c0 11.13-.88 22.68 0 33.79v1.56l6-6h-516.6c-6.8 0-14.14-.79-20.92 0-.31.02-.62.02-.93 0l6 6V1169.8c0-15.35.79-30.16 6.27-44.81 11.66-31.16 39.74-54.31 72.25-60.68 9.51-1.86 19.07-1.71 28.7-1.71h35.58c8.73 0 17.68.53 26.27-1.26a55.754 55.754 0 0 0 22.265-10.38 55.813 55.813 0 0 0 15.635-18.95c5.24-10.57 5.94-21.45 5.94-32.95v-41.68c0-7.72-12-7.73-12 0 0 16.77.3 33.56 0 50.32a44.051 44.051 0 0 1-6.913 22.74 44.05 44.05 0 0 1-17.717 15.85c-9.14 4.51-18.74 4.3-28.59 4.3h-35c-8.49 0-17.11-.34-25.58.46a109.843 109.843 0 0 0-47.313 15.86 109.834 109.834 0 0 0-35.427 35.14c-11.66 18.7-16.33 39.82-16.33 61.64v180.91c0 32.29-.76 64.69 0 97v1.56c.023 1.58.663 3.1 1.783 4.22a6.074 6.074 0 0 0 4.217 1.78h472.27c21.71 0 43.57.78 65.27 0h.93c1.58-.02 3.1-.66 4.22-1.78a6.088 6.088 0 0 0 1.78-4.22V1169.8c0-15.47-.68-30.65-5.8-45.5a110.003 110.003 0 0 0-26.4-41.98 110.129 110.129 0 0 0-42.14-26.14c-22.18-7.48-46.14-5.58-69.2-5.58-8.5 0-17 .09-25.51 0-7.36 0-14.6-1.84-21.06-5.35a44.098 44.098 0 0 1-15.94-14.76c-6.23-9.83-6.85-20.24-6.85-31.42v-41.69c0-7.72-12-7.73-12 0h-.04Z" fill="#385868"/><path d="M992.77 375.477c7.12 20 28.67 30.6 48.81 37.27a340.865 340.865 0 0 0 112.75 17.17c27.34-.48 55-4.22 81.79 1.4 26.79 5.62 53.35 23.48 59 50.23" fill="#EF7679"/><path d="M966.73 288.37c54.79-40.68 121.19-69.09 189.4-67 68.21 2.09 137.39 38.78 166.7 100.4 39.51 83 3.16 185.47-9.77 271.1a835.724 835.724 0 0 0 6.52 286.32c8.61 43.49 21.1 87.25 44.34 125.37 5.57 9.14 16.13 18.55 20.19 28.12 5.17 12.19 1 12.6-13.29 16.59-21.27 5.93-44.37 3.33-66 1.75-24.06-1.75-48.36-3.79-71.3-11.22-38-12.31-77-46.38-70.37-90.44" fill="#EF7679"/><path d="M1373.92 1049.25c-21.27 5.93-44.37 3.33-66 1.76-24.06-1.76-48.36-3.79-71.3-11.22-38-12.32-77-46.38-70.38-90.44L1153.9 908c20.75 39 60.53 68.26 103.8 80.22 33.27 9.2 68.08 9.51 102.27 4 2.23 4.173 4.59 8.29 7.06 12.35 5.57 9.14 16.13 18.54 20.18 28.11 5.18 12.18 1.01 12.58-13.29 16.57Z" fill="#DB6A72"/><path d="M916 544.998c57.68-6 43.53-79.67 66-133.13 14.38-34.22 19.25-76.4-2.61-106.41-31.8-43.66-95.54-53.42-144.11-36.05-66.28 23.7-78.57 94-81.24 156.94-2.52 59.29 10.71 117.77 26.59 174.5 9.31 33.15 15.06 67.15 20.12 101.15 10.68 71.85 18.22 146 .57 216.45-17.65 70.45-65.09 137.362-134.15 159.882 57 8.95 117.56 5.24 168.82-21.2 51.26-26.44 91.37-78.292 93.78-135.922" fill="#EF7679"/><path d="M828.75 1027.2c-37.12 19.15-79.13 26.36-121.11 25.5a170.375 170.375 0 0 1-47.7 24.64c57 8.95 117.56 5.24 168.82-21.2 51.26-26.44 91.37-78.292 93.78-135.922l-.72-19.8c-6.02 53.93-44.53 101.752-93.07 126.782Z" fill="#DB6A72"/><path d="M1226.21 427.5c14.12 24.74 21.88 52.35 21.54 84.06-.48 45.15-16.64 90.07-9 133.92 2.22 12.71 6.36 24.58 9.55 36.88 18.9 72.8 1.81 158.69-36.4 214.59-38.21 55.9-94.6 83.23-149.77 83.17h-.36c-55.17.06-111.56-27.27-149.77-83.17-38.21-55.9-55.3-141.79-36.4-214.59 3.19-12.3 7.33-24.16 9.55-36.88 7.65-43.86-8.51-88.78-9-133.92-.33-31.7 7.42-63.45 21.54-88.19l35.87-55.1 102.32-30 63 12.4" fill="#FFC6AD"/><path d="M1211.92 864.91c-38.21 55.9-94.6 83.23-149.77 83.17h-.36c-55.17.06-111.56-27.27-149.77-83.17-25.34-37.08-41.38-87.36-43.8-138.25-3 59.66 14 121.52 43.8 165.13 38.21 55.9 94.6 83.23 149.77 83.17h.36c55.17.06 111.56-27.27 149.77-83.17 29.81-43.61 46.76-105.47 43.8-165.12-2.42 50.88-18.46 101.16-43.8 138.24Zm26.66-409.741c-.13 0-.27-.06-.4-.09-2-.427-4.02-.8-6.07-1.12-24.87-3.95-50.44-.72-75.72-.28-45.46.79-125-.4-152.92-43.53 27.11 41.81-100.74 112.92-127 127.23l-2-18.74c-.21-2-.38-4.08.69-5.73a8.714 8.714 0 0 1 3.84-2.77c45.47-21.46 78.58-52.47 98.93-99.3.13-.31.26-.62.38-.93.58-1.4 1.15-2.81 1.68-4.24l.09-.22a162.144 162.144 0 0 0 10.51-36.08l6.3 21.22c.29-3 .47-6.06.54-9.06v-.27c.06-3.26 0-6.5-.25-9.72a89.007 89.007 0 0 0-4.49-22.68v-4.71l20.77-6.09c-1.54 8.58-4.46 17.63-1.23 25.73 3.61 9.06 13.58 13.6 22.75 16.94a418.025 418.025 0 0 0 149.41 25.14c4.52-.07 9.05-.22 13.59-.38l26.19 15.81c.43.76.87 1.54 1.29 2.32l-.39-.06c.57 1 1.12 2 1.66 3a162.534 162.534 0 0 1 11.85 28.61Z" fill="#E39493"/><path d="M994.83 378.577c7.12 20 28.67 30.6 48.81 37.27a340.796 340.796 0 0 0 112.75 17.15c27.34-.48 55-4.22 81.79 1.4 26.79 5.62 53.35 23.48 59 50.23l20.88-157.72-323.5-16.54.27 68.21Z" fill="#EF7679"/><path d="M1339.83 1058c-9.72 0-19.46-.75-29-1.49l-6.38-.48c-26.21-1.91-49.75-4.09-72.48-11.45-21-6.79-40.69-19.46-54.13-34.77-16.1-18.331-22.9-39.491-19.65-61.171l9.89 1.48c-3.53 23.6 7.44 41.9 17.27 53.091 12.29 14 30.4 25.61 49.7 31.86 21.66 7 44.58 9.13 70.13 11l6.42.49c19.46 1.5 39.58 3 57.93-2.07l2.15-.59c4.06-1.12 8.65-2.39 9.61-3.34 0-.34 0-1.76-1.73-5.88-2.08-4.9-6.45-10.18-10.68-15.29-3.34-3.84-6.41-7.91-9.18-12.17-12.61-20.681-31-56.351-45-127.001a836.236 836.236 0 0 1-6.56-288c2.83-18.77 6.7-37.91 10.79-58.19 14.55-72.05 29.59-146.55-.6-210-13.57-28.53-36.66-52.86-66.76-70.36a205.714 205.714 0 0 0-95.57-27.33c-77.32-2.36-144 34.63-186.27 66l-6-8c43.59-32.36 112.37-70.41 192.54-68a212.921 212.921 0 0 1 100.3 28.54c31.85 18.52 56.32 44.35 70.77 74.71 14.19 29.82 20.06 64.68 18 106.58-1.83 36.62-9.34 73.78-16.59 109.72-4.07 20.15-7.91 39.18-10.71 57.7a826.28 826.28 0 0 0 6.48 284.6c13.68 69.09 31.49 103.71 43.71 123.741 2.53 3.85 5.31 7.53 8.34 11 4.69 5.66 9.53 11.52 12.18 17.76 2 4.8 3.63 9.83 1.54 14.15-2.35 4.86-7.77 6.36-16 8.62l-2.12.59c-10.59 2.95-21.45 3.95-32.34 3.95Z" fill="#385868"/><path d="M1062.35 985.767h-.76c-60.6 0-116.61-31.1-153.69-85.35-40.7-59.53-55.61-147.42-37.12-218.66 1.07-4.14 2.26-8.26 3.42-12.25a228.086 228.086 0 0 0 6.05-24.23c4.46-25.55.62-51.23-3.45-78.41-2.66-17.81-5.42-36.23-5.61-54.6-.35-32.82 7.54-65 22.2-90.72l8.69 5c-13.6 23.82-21.21 55-20.88 85.66.19 17.68 2.89 35.75 5.5 53.23 4 26.78 8.15 54.46 3.41 81.61a239.332 239.332 0 0 1-6.29 25.28c-1.13 3.92-2.3 8-3.34 12-17.81 68.62-3.47 153.22 35.69 210.51 35.19 51.48 88.2 81 145.44 81h.75c57.26 0 110.26-29.51 145.45-81 39.16-57.29 53.51-141.89 35.69-210.51-1-4-2.21-8.07-3.34-12a241.372 241.372 0 0 1-6.29-25.28c-4.74-27.14-.59-54.83 3.41-81.61 2.61-17.48 5.32-35.55 5.5-53.23.31-29.69-6.52-56.36-20.89-81.52l8.69-5c15.27 26.75 22.53 55.07 22.2 86.59-.19 18.37-2.95 36.79-5.61 54.6-4.07 27.18-7.91 52.86-3.45 78.41 1.57 8.181 3.59 16.27 6.05 24.23 1.15 4 2.34 8.11 3.42 12.25 18.5 71.25 3.58 159.13-37.11 218.67-37.08 54.23-93.08 85.33-153.73 85.33Z" fill="#385868"/><path d="M980 416.997c-20.43 48.6-61.72 91.1-112.41 102.89a122.275 122.275 0 0 1-13.82 2.41c-18.12-18.43-50.83-55.5-49.33-81.72 2.07-36.17 63-94.05 77.51-114.72 6.65-9.5 14.39-34.05 20.82-57.83 1.51.23 3 .49 4.51.76 27.66 5.16 53.33 18.76 70.11 41.8 21.81 30.05 16.96 72.23 2.61 106.41Z" fill="#EF7679"/><path d="M721.57 1087.73a358.91 358.91 0 0 1-55.17-4.42l-20.58-3.23 19.81-6.46c61.59-20.09 111.73-80.003 130.85-156.343 18.07-72.16 9.13-148.56-.67-214.5-4.82-32.42-10.57-67-20-100.58-15.41-55.2-29.34-114.69-26.74-176.06 2.63-62 14.63-136.43 84.55-161.44a148.767 148.767 0 0 1 81.11-5c29.24 6.45 53 21.26 68.73 42.85 10.84 14.89 16.17 33.27 15.85 54.64-.27 18-4.66 37.57-12.67 56.65a196.364 196.364 0 0 1-52.07 72.4c-24 20.71-51.61 33.19-79.89 36.12l-1-9.951c51.25-5.3 99.83-45.509 123.77-102.439 7.53-17.91 11.64-36.21 11.9-52.92.29-19.16-4.4-35.51-13.93-48.61-14.26-19.58-36-33.06-62.8-39a138.66 138.66 0 0 0-75.62 4.68c-28.76 10.28-48.88 30.22-61.53 60.94-12.5 30.38-15.35 66.77-16.4 91.51-2.55 60 11.19 118.56 26.41 172.94 9.54 34.07 15.36 69.06 20.22 101.8 9.94 66.9 19 144.46.48 218.4-18 72-62.81 130.103-119.15 156.213 42.32 4.37 97.11 2.38 146.67-23.19 53.12-27.4 88.87-79.093 91.08-131.683l10 .419c-2.35 56.12-40.22 111.134-96.48 140.154-38.58 19.89-80 26.11-116.73 26.11Z" fill="#385868"/><path d="M1290.23 482.567c-5.69-26.87-33.26-41.77-55.14-46.37-19.21-4-39.57-3.05-59.26-2.1-7 .34-14.26.69-21.41.81-38.85.69-77.54-5.2-114.42-17.42-28.67-9.49-45.66-22.68-52-40.33l9.42-3.36c5.26 14.76 19.77 25.63 45.68 34.2a334.487 334.487 0 0 0 111.09 16.92c7-.12 14.17-.47 21.1-.8 20.32-1 41.33-2 61.8 2.31a96.255 96.255 0 0 1 39.5 18.17c12.41 9.87 20.49 22.29 23.37 35.91l-9.73 2.06ZM966.21 592.538c.28-10.26 8.32-18.8 18.8-18.8s18.53 8.54 18.8 18.8c.21 7.71 12.21 7.74 12 0-.45-16.74-13.71-30.8-30.8-30.8s-30.35 14.07-30.8 30.8c-.21 7.72 11.79 7.72 12 0Zm143.66 0c.28-10.26 8.32-18.8 18.8-18.8s18.53 8.54 18.8 18.8c.21 7.71 12.21 7.74 12 0-.45-16.74-13.71-30.8-30.8-30.8s-30.35 14.07-30.8 30.8c-.21 7.72 11.79 7.72 12 0Zm-34.22 109.549c-.28 10.26-8.32 18.8-18.8 18.8s-18.53-8.54-18.8-18.8c-.21-7.71-12.21-7.74-12 0 .45 16.74 13.71 30.8 30.8 30.8s30.35-14.07 30.8-30.8c.21-7.72-11.79-7.72-12 0Z" fill="#385868"/><path d="M1320.91 382.757c-1.64-20.78-10.56-40.46-22.55-57.51-30-42.7-79.66-70-131.46-76.42-51.8-6.42-105.17 7.22-149.8 34.28-2.88 1.75-5.91 3.76-7.13 6.91-1.54 4 .29 8.38 1.79 12.38a79.901 79.901 0 0 1 3.75 41.83c-1.55 8.59-4.47 17.66-1.24 25.77 3.61 9.06 13.58 13.61 22.75 16.95a418.082 418.082 0 0 0 149.41 25.13c24.12-.39 48.61-2.83 72.1 2.62 23.49 5.45 46.53 20.93 52.79 44.23a27.724 27.724 0 0 0 8.92-10.161 27.78 27.78 0 0 0 3.08-13.169m-548.7 67.59a271.49 271.49 0 0 1 3.8-144.81c6-19.51 14.65-39 29.89-52.55 15.24-13.55 35.52-19.9 55.72-21.9 15.56-1.53 31.55-.61 46.3 4.56 38.82 13.6 63.08 57.07 59.23 98-3.85 40.93-32.66 77.31-69.56 95.45-19.75 9.71-41.53 14.73-61.35 24.3s-38.54 25.36-43.22 46.87" fill="#DB6A72"/><path d="M1249.09 268.057a163.92 163.92 0 0 1 17.77 14.44 176.148 176.148 0 0 1 14.51 15.6 158.77 158.77 0 0 1 19.35 30.27c2.23 4.6 4 8.87 5.43 12.66.68 1.91 1.31 3.68 1.86 5.33l1.32 4.56.52 1.94.37 1.73c.22 1.08.38 2 .49 2.74.22 1.49.21 2.31 0 2.38-.21.07-.74-.59-1.43-1.92-.34-.66-.74-1.49-1.18-2.48l-.7-1.59-.84-1.8-1.91-4.23-2.39-5c-1.75-3.54-3.82-7.52-6.28-11.81a184.732 184.732 0 0 0-20-28.27 194.13 194.13 0 0 0-14.22-14.61 173.06 173.06 0 0 0-17.06-13.67 177.407 177.407 0 0 0-18.7-11.46l-2.33-1.27-2.35-1.17c-1.56-.76-3.09-1.57-4.64-2.29-3.11-1.4-6.13-2.84-9.17-4a183.875 183.875 0 0 0-17.41-6.14l-4.12-1.11c-1.35-.37-2.67-.75-4-1-2.63-.54-5.13-1.22-7.56-1.55-2.43-.33-4.73-.87-6.94-1l-3.21-.36-1.54-.18-1.49-.07-5.46-.3h-6.6l-1.72.1c-1.07.05-2 .08-2.73.07-1.49 0-2.31-.14-2.36-.4-.05-.26.66-.64 2.09-1.12.72-.24 1.61-.51 2.68-.8l1.73-.46 2-.33c1.41-.226 2.99-.46 4.73-.7 1.74-.14 3.63-.23 5.68-.34l1.56-.08h1.61l3.37.08c2.33 0 4.75.31 7.31.54 2.56.23 5.21.71 8 1.12 1.39.19 2.79.51 4.21.82l4.35.95a162.863 162.863 0 0 1 18.38 5.74c3.2 1.14 6.37 2.55 9.64 3.94 1.62.71 3.23 1.51 4.87 2.28l2.46 1.18 2.44 1.28c6.8 3.465 13.35 7.394 19.61 11.76Zm-31.19 307.881c-1.5 14.52-.88 27.62.8 36.94.81 4.67 1.8 8.39 2.38 11 .58 2.61.87 4.2.39 4.44-.48.24-1.58-.91-3.14-3.28a51.27 51.27 0 0 1-4.89-10.9c-3.2-9.62-4.74-23.81-3.17-39 .72-7.078 1.85-14.109 3.37-21.06 1.36-6.37 2.78-12 4-16.74 2.53-9.43 4.35-15.22 5.4-15.07 1.05.15 1.1 6.33-.08 16.09-.57 4.88-1.45 10.64-2.4 17-.95 6.36-1.98 13.33-2.66 20.58Zm5.1-113.611a45.918 45.918 0 0 1 3.19 15.57c0 4.09-.69 6.62-1.72 6.74-1.03.12-2.25-2.16-3.61-5.76-1.36-3.6-3-8.52-5-13.77-1-2.62-2.08-5.08-3.05-7.33l-2.72-6c-1.57-3.44-2.47-5.81-1.66-6.53.81-.72 3.18.48 6.1 3.43 1.69 1.74 3.19 3.65 4.48 5.7a47.284 47.284 0 0 1 3.99 7.95Z" fill="#fff"/><path d="M774 487.999a293.388 293.388 0 0 1-1-37.36c.38-5.74.62-11.2 1.31-16.26.31-2.54.53-5 .9-7.34l1.14-6.73c.64-4.3 1.64-8.11 2.39-11.47.4-1.68.74-3.25 1.12-4.67l1.16-3.87c1.41-4.65 2.26-7.18 2.43-7.13.17.05-.36 2.68-1.47 7.38l-.94 3.91c-.31 1.44-.57 3-.9 4.69-.62 3.37-1.48 7.18-2 11.46l-1 6.7c-.31 2.33-.48 4.78-.74 7.29-.6 5-.75 10.45-1.07 16.14-.319 12.346.078 24.7 1.19 37 1.25 13.1 3.29 25.48 5.48 36.67l1.73 8.16c.27 1.33.56 2.62.89 3.89l.91 3.76c.61 2.46 1.14 4.86 1.76 7.13l1.77 6.54c1.07 4.19 2.25 7.91 3.2 11.21l1.34 4.59 1.2 3.84c1.42 4.62 2.13 7.21 2 7.27-.13.06-1.19-2.42-2.9-7l-1.41-3.78c-.5-1.39-1-2.91-1.55-4.54-1.08-3.27-2.38-7-3.57-11.14l-1.93-6.53c-.67-2.27-1.25-4.67-1.91-7.13l-1-3.77c-.34-1.27-.66-2.57-1-3.9l-1.84-8.18a343.009 343.009 0 0 1-5.69-36.83Z" fill="#516D7B"/><path d="M784.65 435.07a180.059 180.059 0 0 1 3.92-20c.83-3 1.6-5.91 2.49-8.55.44-1.32.82-2.62 1.26-3.83l1.29-3.49c.79-2.23 1.67-4.19 2.4-5.93.37-.86.71-1.67 1-2.4l1-2c1.18-2.37 1.91-3.64 2.07-3.57.38.17-1.87 5.55-4.78 14.48l-1.12 3.51c-.39 1.22-.72 2.51-1.11 3.83-.8 2.64-1.48 5.5-2.24 8.51-1.4 6-2.71 12.72-3.68 19.8-.97 7.08-1.4 13.88-1.62 20.07 0 3.1-.14 6-.06 8.79 0 1.38 0 2.71.07 4l.16 3.68c.47 9.37 1.24 15.16.83 15.22-.17 0-.54-1.39-1.07-4l-.42-2.17c-.14-.79-.25-1.66-.38-2.59-.25-1.86-.59-4-.77-6.35l-.33-3.71c-.11-1.29-.14-2.64-.22-4-.17-2.79-.16-5.77-.18-8.9a180.07 180.07 0 0 1 1.49-20.4ZM931.6 307.619a119.124 119.124 0 0 1 18.73 24c2.43 4 4.42 8 6.22 11.73 1.8 3.73 3.22 7.35 4.42 10.67a129.438 129.438 0 0 1 4.78 16c.86 3.85 1.15 6 1 6-.15 0-.81-2-2-5.78-1.19-3.78-2.9-9.13-5.5-15.6-1.29-3.24-2.87-6.72-4.65-10.41-1.78-3.69-3.88-7.53-6.32-11.43a123.402 123.402 0 0 0-18.5-23.35 112.857 112.857 0 0 0-11.8-9.93 104.872 104.872 0 0 0-12.18-7.64l-3-1.56c-1-.5-2-.93-3-1.4-2-1-3.95-1.66-5.83-2.45-1.88-.79-3.77-1.36-5.58-1.92-1.81-.56-3.55-1.11-5.25-1.46a94.722 94.722 0 0 0-16.26-2.6c-1-.11-1.84-.15-2.59-.17l-1.9-.11c-1-.08-1.58-.16-1.58-.24 0-.08.54-.18 1.57-.27l1.92-.14a24.895 24.895 0 0 1 2.62-.06 77.84 77.84 0 0 1 16.63 1.84c1.75.31 3.52.87 5.4 1.33 1.88.46 3.77 1.16 5.75 1.82 1.98.66 4 1.44 6 2.38 1 .45 2.06.88 3.09 1.38l3.11 1.55a102.082 102.082 0 0 1 12.55 7.69 110.04 110.04 0 0 1 12.15 10.13Z" fill="#516D7B"/><path d="M942.7 343.759a98.024 98.024 0 0 1 7.37 19.66 85.132 85.132 0 0 1 1.7 9c.17 1.43.42 2.79.5 4.12l.2 3.83a56.694 56.694 0 0 1 0 6.57c0 1-.06 1.87-.13 2.69l-.3 2.25c-.38 2.7-.67 4.16-.85 4.14-.18-.02-.22-1.53-.14-4.21l.08-2.23c0-.82-.05-1.7-.08-2.65-.09-1.9 0-4.07-.34-6.44l-.36-3.73c-.13-1.29-.43-2.62-.64-4-.37-2.78-1.16-5.68-1.88-8.74a95.994 95.994 0 0 0-18.61-36.17c-2.07-2.37-4-4.69-6-6.62-1-1-1.92-2-2.89-2.85l-2.83-2.46c-1.75-1.64-3.55-2.85-5-4-.76-.57-1.45-1.14-2.11-1.61l-1.86-1.23c-2.23-1.5-3.43-2.41-3.35-2.57.08-.16 1.45.46 3.86 1.72l2 1.06c.72.42 1.45.93 2.27 1.45a56.504 56.504 0 0 1 5.37 3.8l3 2.39c1 .84 2 1.84 3.06 2.81a85.165 85.165 0 0 1 6.35 6.62 97.99 97.99 0 0 1 11.61 17.4ZM836.69 843.217a370.59 370.59 0 0 1-1.67 30.22c-.94 9.73-2.37 19.07-4 27.91l-1.3 6.53c-.45 2.14-1 4.24-1.45 6.32-.91 4.16-2.09 8.13-3.11 12-.54 1.92-1.15 3.79-1.71 5.64-.56 1.85-1.08 3.67-1.73 5.41l-1.8 5.15-.88 2.49-.94 2.4c-1.26 3.16-2.38 6.19-3.67 9-1.29 2.81-2.34 5.47-3.59 7.87-1.25 2.4-2.28 4.68-3.36 6.73l-3.06 5.53c-.47.83-.89 1.62-1.32 2.34l-1.24 2-2 3.13a13.666 13.666 0 0 1-1.76 2.49c.336-.966.779-1.892 1.32-2.76l1.76-3.24 1.14-2.06c.39-.74.78-1.54 1.21-2.39l2.84-5.61c1-2.07 2-4.35 3.15-6.78 1.15-2.43 2.19-5.1 3.38-7.89s2.28-5.82 3.48-9l.9-2.4.83-2.48 1.71-5.13c.61-1.74 1.08-3.56 1.64-5.39.56-1.83 1.12-3.7 1.63-5.61 1-3.85 2.1-7.79 3-11.93.45-2.06 1-4.15 1.38-6.28l1.24-6.49c1.55-8.78 3-18 3.81-27.72.81-9.72 1.45-19.71 1.6-30a501.015 501.015 0 0 0-3-58c-1.89-17.78-4.3-33.71-6.5-47.06-2.2-13.35-4.15-24.14-5.47-31.6-.65-3.73-1.16-6.63-1.47-8.6a13.707 13.707 0 0 1-.35-3c.392.942.677 1.925.85 2.93.47 1.94 1.14 4.81 1.94 8.51 1.62 7.4 3.84 18.14 6.27 31.48 2.43 13.34 5 29.28 7.06 47.12a474.318 474.318 0 0 1 3.24 58.22ZM862.43 1005a167.17 167.17 0 0 0 14.38-26.1l2.5-6.22.61-1.5c.19-.5.34-1 .51-1.51l1-3c.62-1.95 1.32-3.8 1.81-5.63l1.37-5.28c1-3.34 1.43-6.46 2-9.17.26-1.36.54-2.62.73-3.79l.43-3.21c.54-3.86.92-6 1.09-6 .17 0 .13 2.18-.1 6.1l-.21 3.27c-.12 1.19-.34 2.47-.53 3.85a93.455 93.455 0 0 1-1.65 9.35l-1.23 5.39c-.45 1.87-1.11 3.76-1.69 5.75l-.93 3c-.16.51-.3 1-.49 1.54l-.59 1.54-2.44 6.45a145.02 145.02 0 0 1-34.11 49.68l-5.06 4.56-1.22 1.1c-.41.36-.85.68-1.27 1l-2.49 2c-1.65 1.26-3.17 2.55-4.76 3.64l-4.59 3.09a92.336 92.336 0 0 1-8.13 4.9c-1.22.68-2.34 1.34-3.41 1.88l-3 1.37c-3.58 1.63-5.58 2.45-5.66 2.29-.08-.16 1.79-1.28 5.2-3.17l2.84-1.56c1-.6 2.1-1.32 3.27-2 2.32-1.5 5.07-3 7.84-5.16l4.43-3.18c1.53-1.11 3-2.43 4.6-3.71l2.41-2c.4-.34.83-.66 1.23-1l1.18-1.11 4.91-4.57a167.018 167.018 0 0 0 19.22-22.88Zm11.28-73.883a137.8 137.8 0 0 0 1.31-11.79c.09-1.82.21-3.56.22-5.18.01-1.62.05-3.14 0-4.53 0-5.54-.28-9 .1-9s1.19 3.34 1.7 9c.12 1.4.24 2.94.27 4.6.03 1.66 0 3.43 0 5.3a93.332 93.332 0 0 1-3.83 23.93c-.56 1.78-1.08 3.48-1.67 5-.59 1.52-1.14 3-1.69 4.29-2.24 5.18-4.13 8.12-4.41 8-.28-.12 1-3.37 2.73-8.62.44-1.31.92-2.75 1.37-4.31.45-1.56.93-3.23 1.41-5 .95-3.61 1.78-7.53 2.49-11.69Zm219.86-528.33a264.83 264.83 0 0 0 26.6 4.62c4.13.42 8.05.88 11.75 1.07 1.84.11 3.62.28 5.34.34l4.93.17c3.14.16 6 .09 8.49.12h3.49l2.93-.07c3.53-.06 5.49 0 5.5.16.01.16-1.92.46-5.45.83l-2.93.29c-1.07.08-2.24.13-3.5.19-2.51.11-5.38.31-8.55.26h-5c-1.73 0-3.53-.13-5.39-.2-3.73-.1-7.7-.49-11.88-.85a214.623 214.623 0 0 1-53.07-12.32c-3.91-1.52-7.65-2.92-11-4.47-1.7-.76-3.37-1.45-4.93-2.2l-4.47-2.19c-2.87-1.35-5.35-2.8-7.56-4-1.1-.61-2.13-1.17-3.06-1.72l-2.51-1.56c-3-1.88-4.61-3-4.52-3.15.09-.15 1.87.67 5 2.28l2.6 1.35 3.14 1.52c2.26 1.08 4.78 2.4 7.67 3.63l4.5 2c1.57.7 3.24 1.33 4.94 2 3.4 1.46 7.12 2.77 11 4.21 8.51 3.003 17.17 5.57 25.94 7.69Z" fill="#516D7B"/><path d="M1141.85 400.8c6.24.62 12.21.93 17.65 1.06 2.72 0 5.3.08 7.72 0s4.67-.1 6.73-.19c8.23-.36 13.32-.88 13.38-.49.06.39-5 1.46-13.25 2.29-2.07.2-4.34.4-6.78.5-2.44.1-5.06.19-7.81.23-5.5 0-11.56-.24-17.89-.87s-12.3-1.65-17.69-2.76c-2.69-.6-5.24-1.15-7.6-1.8-2.36-.65-4.56-1.25-6.54-1.86-7.94-2.48-12.63-4.63-12.52-4.92.11-.29 5 1.17 13 3.18 2 .5 4.18 1 6.55 1.54s4.9 1 7.56 1.55c5.35.98 11.25 1.88 17.49 2.54Zm-90.71-134.88a171.776 171.776 0 0 1 16.16-8.06c2.56-1.06 5-2.09 7.32-2.91 1.16-.42 2.27-.85 3.36-1.21l3.13-1c8-2.51 13.13-3.39 13.2-3.09.07.3-4.84 1.88-12.61 4.8l-3 1.16c-1.06.4-2.14.88-3.27 1.34-2.27.9-4.63 2-7.14 3.09-5 2.3-10.35 5-15.85 8.13-5.5 3.13-10.53 6.42-15 9.54-2.22 1.6-4.36 3.08-6.29 4.58-1 .74-1.92 1.43-2.81 2.14l-2.54 2c-6.46 5.22-10.25 8.72-10.53 8.44-.28-.28 3.13-4.18 9.36-9.81l2.47-2.18c.86-.75 1.8-1.49 2.75-2.28 1.89-1.59 4-3.16 6.22-4.83 4.85-3.545 9.88-6.833 15.07-9.85Zm26.02-2.851c3.26-1.441 6.6-2.709 10-3.8a85.875 85.875 0 0 1 8.48-2.21c4.89-1 8-1.14 8-.82.15.77-11.89 3-25.52 9.17-13.63 6.17-23.43 13.43-23.9 12.81-.2-.25 2-2.45 6-5.42 2.36-1.731 4.8-3.34 7.32-4.82 3.12-1.806 6.33-3.445 9.62-4.91Zm223.63 294.088a312.667 312.667 0 0 0-6.73 76.64c.36 9.87 1.11 17.84 1.63 23.35.52 5.51.89 8.56.71 8.58a7.354 7.354 0 0 1-.57-2.16c-.28-1.43-.69-3.55-1.12-6.29a262.58 262.58 0 0 1-2.44-23.4 288.946 288.946 0 0 1 6-77.27c1.65-7.41 3.45-14.61 5.5-21.46 2.05-6.85 4.1-13.41 6-19.67 1.9-6.26 3.62-12.22 5-17.86.73-2.81 1.26-5.55 1.84-8.18.58-2.63 1-5.17 1.28-7.62a98.155 98.155 0 0 0 .75-23.23c-.18-2.75-.58-4.86-.77-6.3-.17-.734-.23-1.489-.17-2.24.33.671.56 1.389.68 2.13a46.41 46.41 0 0 1 1.25 6.29 88.576 88.576 0 0 1 .05 23.57c-.23 2.49-.73 5.05-1.13 7.75-.4 2.7-1 5.46-1.72 8.3-1.28 5.72-2.94 11.74-4.78 18l-5.84 19.7c-2.02 6.89-3.78 14.02-5.42 21.37Zm12.42 392.081a333.825 333.825 0 0 0 15.14 35.64l4 7.72c1.25 2.53 2.71 4.86 4 7.17 1.29 2.312 2.54 4.552 3.84 6.642l3.76 6c2.32 3.87 4.72 7.17 6.71 10.15 1 1.48 1.93 2.88 2.81 4.13l2.48 3.39c3 4.09 4.55 6.4 4.42 6.51-.13.11-2-2-5.2-5.91l-2.67-3.27c-.95-1.22-1.92-2.58-3-4-2.11-2.92-4.63-6.17-7.06-10l-3.92-5.95c-1.35-2.08-2.61-4.32-4-6.61-1.39-2.292-2.84-4.632-4.14-7.162l-4.14-7.73a283.774 283.774 0 0 1-25.83-73.51l-1.6-8.63c-.57-2.79-.85-5.54-1.25-8.18-.4-2.64-.77-5.19-1-7.66l-.66-7.09c-.5-4.51-.57-8.62-.74-12.22-.07-1.8-.16-3.47-.18-5v-4.22c.07-5.07.19-7.87.36-7.87.17 0 .39 2.8.63 7.84l.18 4.2c.09 1.53.26 3.2.39 5 .31 3.57.51 7.65 1.11 12.12l.82 7c.29 2.44.76 5 1.15 7.58.39 2.58.76 5.34 1.37 8.1l1.7 8.54a334.578 334.578 0 0 0 10.52 37.28Zm-21.08-48.179c1.38 6.75 2.92 13.13 4.43 18.91.79 2.88 1.51 5.62 2.28 8.17.77 2.55 1.46 4.92 2.13 7.08 2.69 8.63 4.56 13.92 4.2 14.07-.36.15-2.76-4.95-5.91-13.49-.78-2.14-1.62-4.48-2.44-7-.82-2.52-1.66-5.28-2.52-8.17-1.65-5.79-3.27-12.22-4.66-19-1.39-6.78-2.38-13.36-3.12-19.34-.33-3-.67-5.83-.86-8.5-.19-2.67-.38-5.15-.5-7.43-.43-9.09-.13-14.72.18-14.73.31-.01.73 5.59 1.62 14.59.23 2.25.47 4.71.8 7.35.33 2.64.69 5.45 1.09 8.41.85 5.85 1.93 12.32 3.28 19.08Zm-81.07 106.411c5.1 3.78 10.5 7.13 16.17 10 2.66 1.23 5.15 2.48 7.6 3.38 1.22.47 2.37 1 3.52 1.37l3.31 1.09c2.09.76 4.06 1.19 5.76 1.67.86.23 1.65.47 2.38.64l2 .43c2.44.54 3.79.92 3.77 1.1-.02.18-1.41.13-3.93-.12l-2.09-.22c-.76-.11-1.58-.28-2.46-.44-2.02-.34-4.02-.79-6-1.33l-3.43-1c-1.19-.34-2.39-.82-3.65-1.26-2.54-.83-5.13-2-7.88-3.24a93.561 93.561 0 0 1-30.92-23.463c-1.9-2.32-3.76-4.49-5.24-6.72-.76-1.1-1.54-2.12-2.19-3.17l-1.84-3a60.328 60.328 0 0 1-2.88-5.38c-.39-.81-.78-1.55-1.09-2.25l-.77-2c-.91-2.36-1.33-3.69-1.17-3.75.16-.06.9 1.13 2.07 3.33l1 1.84c.37.66.81 1.36 1.26 2.12.92 1.51 1.86 3.29 3.16 5.1l1.94 2.89c.68 1 1.49 2 2.27 3 1.52 2.12 3.39 4.19 5.3 6.41 4.3 4.717 8.99 9.053 14.03 12.973Zm36.94 4.88a171.51 171.51 0 0 0 19.34 6.74c3.05.79 5.94 1.59 8.69 2.13 1.37.29 2.69.61 4 .84l3.69.64c2.35.46 4.5.68 6.38 1l2.62.37 2.22.24c2.66.3 4.14.55 4.14.73 0 .18-1.5.26-4.2.26h-2.25c-.82 0-1.71-.1-2.67-.16-1.91-.15-4.1-.24-6.5-.59l-3.77-.49c-1.31-.18-2.65-.46-4.06-.71-2.81-.46-5.76-1.2-8.88-1.93a137.45 137.45 0 0 1-38.22-16.25c-2.69-1.73-5.27-3.35-7.55-5.05-1.15-.843-2.29-1.613-3.32-2.433l-3-2.37c-1.91-1.48-3.5-3-4.94-4.26-.71-.65-1.38-1.24-2-1.81l-1.57-1.61c-1.87-1.95-2.85-3.08-2.72-3.2.13-.12 1.33.76 3.4 2.47l1.71 1.43 2.09 1.63c1.51 1.16 3.16 2.56 5.12 3.92l3 2.21c1.05.77 2.2 1.49 3.36 2.28 2.3 1.61 4.88 3.133 7.56 4.783 5.92 3.42 12.04 6.49 18.33 9.19Z" fill="#516D7B"/><path d="M1104.85 822.997c-.33 26.6-21.92 48.78-48.78 48.78s-48.45-22.18-48.78-48.78c-.1-7.72-12.1-7.74-12 0a61.645 61.645 0 0 0 11.14 34.758 61.6 61.6 0 0 0 28.86 22.352c23.52 8.76 51.2 1.28 67.23-18a61.937 61.937 0 0 0 14.33-39.11c.1-7.72-11.9-7.73-12 0ZM920.56 1063.68c2.26 22.84 14.54 43.2 32.21 57.6 20 16.3 44.94 24.16 70.22 27.51 50.48 6.68 107.23 1.09 149.83-29 21.15-14.91 38-34.92 47.41-59.14 2.8-7.2-8.8-10.32-11.57-3.19-16 41.19-56.32 66.74-97.93 76.25-24.07 5.5-49.15 6.37-73.72 4.49-23.57-1.8-47.7-6.92-67.87-19.81-18.91-12.09-34.33-31.91-36.59-54.76-.75-7.61-12.76-7.69-12 0l.01.05Z" fill="#385868"/><path d="M707.88 1235.38h736.43a28.27 28.27 0 0 1 28.27 28.27v473.06c0 4.48-1.78 8.78-4.95 11.96a16.925 16.925 0 0 1-11.96 4.95H696.52c-4.485 0-8.786-1.78-11.957-4.95a16.937 16.937 0 0 1-4.953-11.96v-473.06c0-7.5 2.978-14.69 8.28-19.99a28.277 28.277 0 0 1 19.99-8.28Z" fill="#256075"/><path d="M1443.87 1234.24H712.69c-17.07 0-30.9 13.06-30.9 29.16v15.39c0-16.1 13.83-29.16 30.9-29.16h731.18c17.07 0 30.9 13.06 30.9 29.16v-15.39c0-16.11-13.83-29.16-30.9-29.16Z" fill="#347888"/><path d="M1479.92 1758.61H676.77v-495.73a32.52 32.52 0 0 1 9.524-22.97 32.54 32.54 0 0 1 22.966-9.53h738.18c8.62.01 16.87 3.44 22.97 9.53a32.529 32.529 0 0 1 9.52 22.97l-.01 495.73Zm-793.15-10h783.15v-485.73a22.556 22.556 0 0 0-6.59-15.9 22.54 22.54 0 0 0-15.9-6.6H709.26a22.524 22.524 0 0 0-22.49 22.5v485.73Zm-173.52-49.37a66.319 66.319 0 0 1-64.823-79.37 66.327 66.327 0 0 1 18.192-33.9 66.314 66.314 0 0 1 33.954-18.09 66.287 66.287 0 0 1 38.286 3.8 66.362 66.362 0 0 1 29.729 24.43 66.3 66.3 0 0 1 11.162 36.82 66.474 66.474 0 0 1-19.539 46.9 66.512 66.512 0 0 1-46.961 19.41Zm0-114.61a48.26 48.26 0 0 0-26.789 8.23 48.308 48.308 0 0 0-20.379 49.62 48.296 48.296 0 0 0 38.009 37.85 48.317 48.317 0 0 0 27.887-2.78 48.313 48.313 0 0 0 29.772-44.62 48.46 48.46 0 0 0-14.264-34.18 48.48 48.48 0 0 0-34.236-14.12Z" fill="#385868"/><path d="M540.75 1583.68v22.12c-6 66.34-65.49 118.44-138 118.44s-132-52.1-138-118.44v-22.12c.575-6.44 1.662-12.82 3.25-19.08a12.395 12.395 0 0 1 12-9.36h245.46a12.393 12.393 0 0 1 12 9.36 121.53 121.53 0 0 1 3.29 19.08Z" fill="#68B9E1"/><path d="M540.75 1560.24c.003 3.02-.306 6.04-.92 9H385.59c0 17.67-13.31 32-29.73 32H354a28.748 28.748 0 0 1-11.482-2.48 28.713 28.713 0 0 1-9.518-6.89 33.186 33.186 0 0 1-8.71-22.63h-57.62a44.127 44.127 0 0 1-.92-9h275Z" fill="#ACD8F8"/><path d="M403.75 1729.24c-36.13 0-70.66-12.63-97.21-35.56-26.55-22.93-42.74-53.92-45.77-87.43v-23.02c.61-6.7 1.75-13.34 3.41-19.86a17.405 17.405 0 0 1 6.161-9.45 17.44 17.44 0 0 1 10.659-3.68h245.46c3.872 0 7.634 1.29 10.689 3.67a17.377 17.377 0 0 1 6.181 9.46 127.112 127.112 0 0 1 3.4 19.86v23.02c-3 33.51-19.29 64.56-45.77 87.43-26.48 22.87-61.08 35.56-97.21 35.56Zm-133-123.67c2.85 30.83 17.87 59.42 42.33 80.54 24.74 21.36 56.94 33.13 90.67 33.13 33.73 0 65.94-11.76 90.67-33.13 24.45-21.12 39.48-49.71 42.33-80.54v-21.66c-.566-6.1-1.609-12.14-3.12-18.07a7.439 7.439 0 0 0-2.627-4.03 7.4 7.4 0 0 0-4.543-1.56H281a7.4 7.4 0 0 0-4.543 1.56 7.439 7.439 0 0 0-2.627 4.03 116.919 116.919 0 0 0-3.12 18.07l.04 21.66Z" fill="#385868"/><path d="M254.75 1710.24h296a41.006 41.006 0 0 1-41 41h-214a41.006 41.006 0 0 1-41-41Z" fill="#68B9E1"/><path d="M544.75 1712.24a42.51 42.51 0 0 1-1 9H383.39c0 17.67-13.85 32-30.92 32h-1.93a30.391 30.391 0 0 1-11.893-2.45 30.403 30.403 0 0 1-9.977-6.92 32.47 32.47 0 0 1-9.05-22.63H259.7a42.51 42.51 0 0 1-1-9h286.05Z" fill="#ACD8F8"/><path d="M510.75 1756.24h-214a46.054 46.054 0 0 1-46-46v-5h306v5a46.054 46.054 0 0 1-46 46Zm-249.65-41a36.037 36.037 0 0 0 12.039 22.15 36.024 36.024 0 0 0 23.611 8.85h214a36.07 36.07 0 0 0 23.609-8.85 36.054 36.054 0 0 0 12.041-22.15H261.1Zm279.65-130.5h-73v7h73v-7Z" fill="#385868"/><path opacity=".4" d="M945.64 746.738c21.412 0 38.77-9.402 38.77-21s-17.358-21-38.77-21c-21.412 0-38.77 9.402-38.77 21s17.358 21 38.77 21Zm220.73 0c21.41 0 38.77-9.402 38.77-21s-17.36-21-38.77-21c-21.41 0-38.77 9.402-38.77 21s17.36 21 38.77 21Z" fill="#fff"/></g></g><defs><clipPath id="a"><path fill="#fff" d="M0 0h2030v1763H0z"/></clipPath></defs></svg>