<svg width="413" height="473" viewBox="0 0 413 473" fill="none" xmlns="http://www.w3.org/2000/svg">
<path d="M390.686 423.089H114.686V27.089H390.686C400.586 27.089 408.686 34.889 408.686 44.789V404.789C408.686 414.789 400.586 423.089 390.686 423.089Z" fill="#0A7362" stroke="#0A7362" stroke-width="8" stroke-miterlimit="10" stroke-linecap="round" stroke-linejoin="round"/>
<path d="M351.686 431.089H337.686C334.886 431.089 332.686 428.889 332.686 426.089V24.089C332.686 21.289 334.886 19.089 337.686 19.089H351.686C354.486 19.089 356.686 21.289 356.686 24.089V426.089C356.686 428.889 354.486 431.089 351.686 431.089Z" fill="#0A7362" stroke="#0A7362" stroke-width="8" stroke-miterlimit="10" stroke-linecap="round" stroke-linejoin="round"/>
<path d="M175.686 468.789L145.686 452.089V423.089H175.686V468.789Z" fill="#0A7362" stroke="#0A7362" stroke-width="8" stroke-miterlimit="10" stroke-linecap="round" stroke-linejoin="round"/>
<path d="M380.686 408.089H104.686V12.089H380.686C390.586 12.089 398.686 19.889 398.686 29.789V389.789C398.686 399.789 390.586 408.089 380.686 408.089Z" fill="#4C5B60"/>
<mask id="mask0_336_4313" style="mask-type:alpha" maskUnits="userSpaceOnUse" x="104" y="14" width="295" height="397">
<path d="M380.686 410.089H104.686V14.089H380.686C390.586 14.089 398.686 21.889 398.686 31.789V391.789C398.686 401.789 390.586 410.089 380.686 410.089Z" fill="white"/>
</mask>
<g mask="url(#mask0_336_4313)">
<path opacity="0.11" d="M79.0863 712.69C78.6863 712.69 78.2863 712.59 77.9863 712.29C77.3863 711.69 77.3863 710.79 77.9863 710.19L422.386 365.89C422.986 365.29 423.886 365.29 424.486 365.89C425.086 366.49 425.086 367.39 424.486 367.99L80.1863 712.29C79.8863 712.59 79.4863 712.69 79.0863 712.69Z" fill="#102D3B"/>
<path opacity="0.11" d="M79.0863 698.69C78.6863 698.69 78.2863 698.59 77.9863 698.29C77.3863 697.69 77.3863 696.79 77.9863 696.19L422.386 351.89C422.986 351.29 423.886 351.29 424.486 351.89C425.086 352.49 425.086 353.39 424.486 353.99L80.1863 698.29C79.8863 698.59 79.4863 698.69 79.0863 698.69Z" fill="#102D3B"/>
<path opacity="0.11" d="M79.0863 684.69C78.6863 684.69 78.2863 684.59 77.9863 684.29C77.3863 683.69 77.3863 682.79 77.9863 682.19L422.386 337.89C422.986 337.29 423.886 337.29 424.486 337.89C425.086 338.49 425.086 339.39 424.486 339.99L80.1863 684.29C79.8863 684.59 79.4863 684.69 79.0863 684.69Z" fill="#102D3B"/>
<path opacity="0.11" d="M79.0863 670.69C78.6863 670.69 78.2863 670.59 77.9863 670.29C77.3863 669.69 77.3863 668.79 77.9863 668.19L422.386 323.89C422.986 323.29 423.886 323.29 424.486 323.89C425.086 324.49 425.086 325.39 424.486 325.99L80.1863 670.29C79.8863 670.59 79.4863 670.69 79.0863 670.69Z" fill="#102D3B"/>
<path opacity="0.11" d="M79.0863 656.69C78.6863 656.69 78.2863 656.59 77.9863 656.29C77.3863 655.69 77.3863 654.79 77.9863 654.19L422.386 309.89C422.986 309.29 423.886 309.29 424.486 309.89C425.086 310.49 425.086 311.39 424.486 311.99L80.1863 656.29C79.8863 656.59 79.4863 656.69 79.0863 656.69Z" fill="#102D3B"/>
<path opacity="0.11" d="M79.0863 642.69C78.6863 642.69 78.2863 642.59 77.9863 642.29C77.3863 641.69 77.3863 640.79 77.9863 640.19L422.386 295.89C422.986 295.29 423.886 295.29 424.486 295.89C425.086 296.49 425.086 297.39 424.486 297.99L80.1863 642.29C79.8863 642.59 79.4863 642.69 79.0863 642.69Z" fill="#102D3B"/>
<path opacity="0.11" d="M79.0863 628.69C78.6863 628.69 78.2863 628.59 77.9863 628.29C77.3863 627.69 77.3863 626.79 77.9863 626.19L422.386 281.89C422.986 281.29 423.886 281.29 424.486 281.89C425.086 282.49 425.086 283.39 424.486 283.99L80.1863 628.29C79.8863 628.59 79.4863 628.69 79.0863 628.69Z" fill="#102D3B"/>
<path opacity="0.11" d="M79.0863 614.69C78.6863 614.69 78.2863 614.59 77.9863 614.29C77.3863 613.69 77.3863 612.79 77.9863 612.19L422.386 267.89C422.986 267.29 423.886 267.29 424.486 267.89C425.086 268.49 425.086 269.39 424.486 269.99L80.1863 614.29C79.8863 614.59 79.4863 614.69 79.0863 614.69Z" fill="#102D3B"/>
<path opacity="0.11" d="M79.0863 600.69C78.6863 600.69 78.2863 600.59 77.9863 600.29C77.3863 599.69 77.3863 598.79 77.9863 598.19L422.386 253.89C422.986 253.29 423.886 253.29 424.486 253.89C425.086 254.49 425.086 255.39 424.486 255.99L80.1863 600.29C79.8863 600.59 79.4863 600.69 79.0863 600.69Z" fill="#102D3B"/>
<path opacity="0.11" d="M79.0863 586.69C78.6863 586.69 78.2863 586.59 77.9863 586.29C77.3863 585.69 77.3863 584.79 77.9863 584.19L422.386 239.89C422.986 239.29 423.886 239.29 424.486 239.89C425.086 240.49 425.086 241.39 424.486 241.99L80.1863 586.29C79.8863 586.59 79.4863 586.69 79.0863 586.69Z" fill="#102D3B"/>
<path opacity="0.11" d="M79.0863 572.69C78.6863 572.69 78.2863 572.59 77.9863 572.29C77.3863 571.69 77.3863 570.79 77.9863 570.19L422.386 225.89C422.986 225.29 423.886 225.29 424.486 225.89C425.086 226.49 425.086 227.39 424.486 227.99L80.1863 572.29C79.8863 572.59 79.4863 572.69 79.0863 572.69Z" fill="#102D3B"/>
<path opacity="0.11" d="M79.0863 558.69C78.6863 558.69 78.2863 558.59 77.9863 558.29C77.3863 557.69 77.3863 556.79 77.9863 556.19L422.386 211.89C422.986 211.29 423.886 211.29 424.486 211.89C425.086 212.49 425.086 213.39 424.486 213.99L80.1863 558.29C79.8863 558.59 79.4863 558.69 79.0863 558.69Z" fill="#102D3B"/>
<path opacity="0.11" d="M79.0863 544.69C78.6863 544.69 78.2863 544.59 77.9863 544.29C77.3863 543.69 77.3863 542.79 77.9863 542.19L422.386 197.89C422.986 197.29 423.886 197.29 424.486 197.89C425.086 198.49 425.086 199.39 424.486 199.99L80.1863 544.29C79.8863 544.59 79.4863 544.69 79.0863 544.69Z" fill="#102D3B"/>
<path opacity="0.11" d="M79.0863 530.69C78.6863 530.69 78.2863 530.59 77.9863 530.29C77.3863 529.69 77.3863 528.79 77.9863 528.19L422.386 183.89C422.986 183.29 423.886 183.29 424.486 183.89C425.086 184.49 425.086 185.39 424.486 185.99L80.1863 530.29C79.8863 530.59 79.4863 530.69 79.0863 530.69Z" fill="#102D3B"/>
<path opacity="0.11" d="M79.0863 516.69C78.6863 516.69 78.2863 516.59 77.9863 516.29C77.3863 515.69 77.3863 514.79 77.9863 514.19L422.386 169.89C422.986 169.29 423.886 169.29 424.486 169.89C425.086 170.49 425.086 171.39 424.486 171.99L80.1863 516.29C79.8863 516.59 79.4863 516.69 79.0863 516.69Z" fill="#102D3B"/>
<path opacity="0.11" d="M79.0863 502.69C78.6863 502.69 78.2863 502.59 77.9863 502.29C77.3863 501.69 77.3863 500.79 77.9863 500.19L422.386 155.89C422.986 155.29 423.886 155.29 424.486 155.89C425.086 156.49 425.086 157.39 424.486 157.99L80.1863 502.29C79.8863 502.59 79.4863 502.69 79.0863 502.69Z" fill="#102D3B"/>
<path opacity="0.11" d="M79.0863 488.69C78.6863 488.69 78.2863 488.59 77.9863 488.29C77.3863 487.69 77.3863 486.79 77.9863 486.19L422.386 141.89C422.986 141.29 423.886 141.29 424.486 141.89C425.086 142.49 425.086 143.39 424.486 143.99L80.1863 488.29C79.8863 488.59 79.4863 488.69 79.0863 488.69Z" fill="#102D3B"/>
<path opacity="0.11" d="M79.0863 474.69C78.6863 474.69 78.2863 474.59 77.9863 474.29C77.3863 473.69 77.3863 472.79 77.9863 472.19L422.386 127.89C422.986 127.29 423.886 127.29 424.486 127.89C425.086 128.49 425.086 129.39 424.486 129.99L80.1863 474.29C79.8863 474.59 79.4863 474.69 79.0863 474.69Z" fill="#102D3B"/>
<path opacity="0.11" d="M79.0863 460.69C78.6863 460.69 78.2863 460.59 77.9863 460.29C77.3863 459.69 77.3863 458.79 77.9863 458.19L422.386 113.89C422.986 113.29 423.886 113.29 424.486 113.89C425.086 114.49 425.086 115.39 424.486 115.99L80.1863 460.29C79.8863 460.59 79.4863 460.69 79.0863 460.69Z" fill="#102D3B"/>
<path opacity="0.11" d="M79.0863 446.69C78.6863 446.69 78.2863 446.59 77.9863 446.29C77.3863 445.69 77.3863 444.79 77.9863 444.19L422.386 99.89C422.986 99.29 423.886 99.29 424.486 99.89C425.086 100.49 425.086 101.39 424.486 101.99L80.1863 446.29C79.8863 446.59 79.4863 446.69 79.0863 446.69Z" fill="#102D3B"/>
<path opacity="0.11" d="M79.0863 432.69C78.6863 432.69 78.2863 432.59 77.9863 432.29C77.3863 431.69 77.3863 430.79 77.9863 430.19L422.386 85.89C422.986 85.29 423.886 85.29 424.486 85.89C425.086 86.49 425.086 87.39 424.486 87.99L80.1863 432.29C79.8863 432.59 79.4863 432.69 79.0863 432.69Z" fill="#102D3B"/>
<path opacity="0.11" d="M79.0863 418.69C78.6863 418.69 78.2863 418.59 77.9863 418.29C77.3863 417.69 77.3863 416.79 77.9863 416.19L422.386 71.89C422.986 71.29 423.886 71.29 424.486 71.89C425.086 72.49 425.086 73.39 424.486 73.99L80.1863 418.29C79.8863 418.59 79.4863 418.69 79.0863 418.69Z" fill="#102D3B"/>
<path opacity="0.11" d="M79.0863 404.69C78.6863 404.69 78.2863 404.59 77.9863 404.29C77.3863 403.69 77.3863 402.79 77.9863 402.19L422.386 57.89C422.986 57.29 423.886 57.29 424.486 57.89C425.086 58.49 425.086 59.39 424.486 59.99L80.1863 404.29C79.8863 404.59 79.4863 404.69 79.0863 404.69Z" fill="#102D3B"/>
<path opacity="0.11" d="M79.0863 390.69C78.6863 390.69 78.2863 390.59 77.9863 390.29C77.3863 389.69 77.3863 388.79 77.9863 388.19L422.386 43.89C422.986 43.29 423.886 43.29 424.486 43.89C425.086 44.49 425.086 45.39 424.486 45.99L80.1863 390.29C79.8863 390.59 79.4863 390.69 79.0863 390.69Z" fill="#102D3B"/>
<path opacity="0.11" d="M79.0863 376.69C78.6863 376.69 78.2863 376.59 77.9863 376.29C77.3863 375.69 77.3863 374.79 77.9863 374.19L422.386 29.89C422.986 29.29 423.886 29.29 424.486 29.89C425.086 30.49 425.086 31.39 424.486 31.99L80.1863 376.29C79.8863 376.59 79.4863 376.69 79.0863 376.69Z" fill="#102D3B"/>
<path opacity="0.11" d="M79.0863 362.69C78.6863 362.69 78.2863 362.59 77.9863 362.29C77.3863 361.69 77.3863 360.79 77.9863 360.19L422.386 15.89C422.986 15.29 423.886 15.29 424.486 15.89C425.086 16.49 425.086 17.39 424.486 17.99L80.1863 362.29C79.8863 362.59 79.4863 362.69 79.0863 362.69Z" fill="#102D3B"/>
<path opacity="0.11" d="M79.0863 348.69C78.6863 348.69 78.2863 348.59 77.9863 348.29C77.3863 347.69 77.3863 346.79 77.9863 346.19L422.386 1.89C422.986 1.29 423.886 1.29 424.486 1.89C425.086 2.49 425.086 3.39001 424.486 3.99001L80.1863 348.29C79.8863 348.59 79.4863 348.69 79.0863 348.69Z" fill="#102D3B"/>
<path opacity="0.11" d="M79.0863 334.69C78.6863 334.69 78.2863 334.59 77.9863 334.29C77.3863 333.69 77.3863 332.79 77.9863 332.19L422.386 -12.11C422.986 -12.71 423.886 -12.71 424.486 -12.11C425.086 -11.51 425.086 -10.61 424.486 -10.01L80.1863 334.29C79.8863 334.59 79.4863 334.69 79.0863 334.69Z" fill="#102D3B"/>
<path opacity="0.11" d="M79.0863 320.69C78.6863 320.69 78.2863 320.59 77.9863 320.29C77.3863 319.69 77.3863 318.79 77.9863 318.19L422.386 -26.11C422.986 -26.71 423.886 -26.71 424.486 -26.11C425.086 -25.51 425.086 -24.61 424.486 -24.01L80.1863 320.29C79.8863 320.59 79.4863 320.69 79.0863 320.69Z" fill="#102D3B"/>
<path opacity="0.11" d="M79.0863 306.69C78.6863 306.69 78.2863 306.59 77.9863 306.29C77.3863 305.69 77.3863 304.79 77.9863 304.19L422.386 -40.11C422.986 -40.71 423.886 -40.71 424.486 -40.11C425.086 -39.51 425.086 -38.61 424.486 -38.01L80.1863 306.29C79.8863 306.59 79.4863 306.69 79.0863 306.69Z" fill="#102D3B"/>
<path opacity="0.11" d="M79.0863 292.69C78.6863 292.69 78.2863 292.59 77.9863 292.29C77.3863 291.69 77.3863 290.79 77.9863 290.19L422.386 -54.11C422.986 -54.71 423.886 -54.71 424.486 -54.11C425.086 -53.51 425.086 -52.61 424.486 -52.01L80.1863 292.29C79.8863 292.59 79.4863 292.69 79.0863 292.69Z" fill="#102D3B"/>
<path opacity="0.11" d="M79.0863 278.69C78.6863 278.69 78.2863 278.59 77.9863 278.29C77.3863 277.69 77.3863 276.79 77.9863 276.19L422.386 -68.11C422.986 -68.71 423.886 -68.71 424.486 -68.11C425.086 -67.51 425.086 -66.61 424.486 -66.01L80.1863 278.29C79.8863 278.59 79.4863 278.69 79.0863 278.69Z" fill="#102D3B"/>
<path opacity="0.11" d="M79.0863 264.69C78.6863 264.69 78.2863 264.59 77.9863 264.29C77.3863 263.69 77.3863 262.79 77.9863 262.19L422.386 -82.11C422.986 -82.71 423.886 -82.71 424.486 -82.11C425.086 -81.51 425.086 -80.61 424.486 -80.01L80.1863 264.29C79.8863 264.59 79.4863 264.69 79.0863 264.69Z" fill="#102D3B"/>
<path opacity="0.11" d="M79.0863 250.69C78.6863 250.69 78.2863 250.59 77.9863 250.29C77.3863 249.69 77.3863 248.79 77.9863 248.19L422.386 -96.11C422.986 -96.71 423.886 -96.71 424.486 -96.11C425.086 -95.51 425.086 -94.61 424.486 -94.01L80.1863 250.29C79.8863 250.59 79.4863 250.69 79.0863 250.69Z" fill="#102D3B"/>
<path opacity="0.11" d="M79.0863 236.69C78.6863 236.69 78.2863 236.59 77.9863 236.29C77.3863 235.69 77.3863 234.79 77.9863 234.19L422.386 -110.11C422.986 -110.71 423.886 -110.71 424.486 -110.11C425.086 -109.51 425.086 -108.61 424.486 -108.01L80.1863 236.29C79.8863 236.59 79.4863 236.69 79.0863 236.69Z" fill="#102D3B"/>
<path opacity="0.11" d="M79.0863 222.69C78.6863 222.69 78.2863 222.59 77.9863 222.29C77.3863 221.69 77.3863 220.79 77.9863 220.19L422.386 -124.11C422.986 -124.71 423.886 -124.71 424.486 -124.11C425.086 -123.51 425.086 -122.61 424.486 -122.01L80.1863 222.29C79.8863 222.59 79.4863 222.69 79.0863 222.69Z" fill="#102D3B"/>
<path opacity="0.11" d="M79.0863 208.69C78.6863 208.69 78.2863 208.59 77.9863 208.29C77.3863 207.69 77.3863 206.79 77.9863 206.19L422.386 -138.11C422.986 -138.71 423.886 -138.71 424.486 -138.11C425.086 -137.51 425.086 -136.61 424.486 -136.01L80.1863 208.29C79.8863 208.59 79.4863 208.69 79.0863 208.69Z" fill="#102D3B"/>
<path opacity="0.11" d="M79.0863 194.689C78.6863 194.689 78.2863 194.589 77.9863 194.289C77.3863 193.689 77.3863 192.789 77.9863 192.189L422.386 -152.211C422.986 -152.811 423.886 -152.811 424.486 -152.211C425.086 -151.611 425.086 -150.711 424.486 -150.111L80.1863 194.289C79.8863 194.589 79.4863 194.689 79.0863 194.689Z" fill="#102D3B"/>
<path opacity="0.11" d="M79.0863 180.689C78.6863 180.689 78.2863 180.589 77.9863 180.289C77.3863 179.689 77.3863 178.789 77.9863 178.189L422.386 -166.211C422.986 -166.811 423.886 -166.811 424.486 -166.211C425.086 -165.611 425.086 -164.711 424.486 -164.111L80.1863 180.289C79.8863 180.589 79.4863 180.689 79.0863 180.689Z" fill="#102D3B"/>
<path opacity="0.11" d="M79.0863 166.689C78.6863 166.689 78.2863 166.589 77.9863 166.289C77.3863 165.689 77.3863 164.789 77.9863 164.189L422.386 -180.311C422.986 -180.911 423.886 -180.911 424.486 -180.311C425.086 -179.711 425.086 -178.811 424.486 -178.211L80.1863 166.289C79.8863 166.589 79.4863 166.689 79.0863 166.689Z" fill="#102D3B"/>
<path opacity="0.11" d="M79.0863 152.689C78.6863 152.689 78.2863 152.589 77.9863 152.289C77.3863 151.689 77.3863 150.789 77.9863 150.189L422.386 -194.311C422.986 -194.911 423.886 -194.911 424.486 -194.311C425.086 -193.711 425.086 -192.811 424.486 -192.211L80.1863 152.289C79.8863 152.589 79.4863 152.689 79.0863 152.689Z" fill="#102D3B"/>
<path opacity="0.11" d="M79.0863 138.689C78.6863 138.689 78.2863 138.589 77.9863 138.289C77.3863 137.689 77.3863 136.789 77.9863 136.189L422.386 -208.311C422.986 -208.911 423.886 -208.911 424.486 -208.311C425.086 -207.711 425.086 -206.811 424.486 -206.211L80.1863 138.289C79.8863 138.589 79.4863 138.689 79.0863 138.689Z" fill="#102D3B"/>
<path opacity="0.11" d="M79.0863 124.689C78.6863 124.689 78.2863 124.589 77.9863 124.289C77.3863 123.689 77.3863 122.789 77.9863 122.189L422.386 -222.311C422.986 -222.911 423.886 -222.911 424.486 -222.311C425.086 -221.711 425.086 -220.811 424.486 -220.211L80.1863 124.289C79.8863 124.589 79.4863 124.689 79.0863 124.689Z" fill="#102D3B"/>
<path opacity="0.11" d="M79.0863 110.689C78.6863 110.689 78.2863 110.589 77.9863 110.289C77.3863 109.689 77.3863 108.789 77.9863 108.189L422.386 -236.311C422.986 -236.911 423.886 -236.911 424.486 -236.311C425.086 -235.711 425.086 -234.811 424.486 -234.211L80.1863 110.289C79.8863 110.589 79.4863 110.689 79.0863 110.689Z" fill="#102D3B"/>
<path opacity="0.11" d="M79.0863 96.689C78.6863 96.689 78.2863 96.589 77.9863 96.289C77.3863 95.689 77.3863 94.789 77.9863 94.189L422.386 -250.311C422.986 -250.911 423.886 -250.911 424.486 -250.311C425.086 -249.711 425.086 -248.811 424.486 -248.211L80.1863 96.289C79.8863 96.589 79.4863 96.689 79.0863 96.689Z" fill="#102D3B"/>
<path opacity="0.11" d="M79.0863 82.689C78.6863 82.689 78.2863 82.589 77.9863 82.289C77.3863 81.689 77.3863 80.789 77.9863 80.189L422.386 -264.311C422.986 -264.911 423.886 -264.911 424.486 -264.311C425.086 -263.711 425.086 -262.811 424.486 -262.211L80.1863 82.289C79.8863 82.589 79.4863 82.689 79.0863 82.689Z" fill="#102D3B"/>
<path opacity="0.11" d="M79.0863 68.689C78.6863 68.689 78.2863 68.589 77.9863 68.289C77.3863 67.689 77.3863 66.789 77.9863 66.189L390.786 -246.811C391.386 -247.411 392.286 -247.411 392.886 -246.811C393.486 -246.211 393.486 -245.311 392.886 -244.711L80.1863 68.289C79.8863 68.589 79.4863 68.689 79.0863 68.689Z" fill="#102D3B"/>
<path opacity="0.11" d="M79.0863 54.689C78.6863 54.689 78.2863 54.589 77.9863 54.289C77.3863 53.689 77.3863 52.789 77.9863 52.189L371.386 -241.311C371.986 -241.911 372.886 -241.911 373.486 -241.311C374.086 -240.711 374.086 -239.811 373.486 -239.211L80.1863 54.289C79.8863 54.589 79.4863 54.689 79.0863 54.689Z" fill="#102D3B"/>
</g>
<path d="M357.686 12.089H333.686V408.089H357.686V12.089Z" fill="#3E4B4F"/>
<path opacity="0.3" d="M121.686 12.089H104.686V408.089H121.686V12.089Z" fill="#CCDDE5"/>
<path d="M380.686 408.089H104.686V12.089H380.686C390.586 12.089 398.686 19.889 398.686 29.789V389.789C398.686 399.789 390.586 408.089 380.686 408.089Z" stroke="#102D3B" stroke-width="8" stroke-miterlimit="10" stroke-linecap="round" stroke-linejoin="round"/>
<path d="M138.686 12.089H104.686V408.089H138.686V12.089Z" stroke="#102D3B" stroke-width="8" stroke-miterlimit="10" stroke-linecap="round" stroke-linejoin="round"/>
<path d="M398.686 126.089H104.686V238.089H398.686V126.089Z" fill="#FF9852"/>
<path d="M235.886 160.489C235.886 162.589 235.486 164.289 234.686 165.589C233.886 166.889 232.986 167.889 231.986 168.689C230.486 169.889 228.486 170.389 225.786 170.389H214.686V149.789H223.286C224.586 149.789 225.686 149.889 226.586 149.989C227.486 150.089 228.286 150.289 229.086 150.589C229.886 150.889 230.486 151.089 230.986 151.389C231.486 151.689 231.986 151.989 232.386 152.389C233.086 152.989 233.686 153.689 234.186 154.389C234.686 155.089 235.186 156.089 235.486 157.089C235.786 158.189 235.886 159.289 235.886 160.489ZM229.586 160.289C229.586 158.589 229.286 157.289 228.586 156.389C227.986 155.489 227.186 154.789 226.286 154.489C225.386 154.189 224.486 153.989 223.586 153.989H220.986V166.189H223.586C225.186 166.189 226.586 165.789 227.786 164.989C228.986 164.189 229.586 162.689 229.586 160.289Z" fill="#D85639"/>
<path d="M261.786 160.089C261.786 161.989 261.386 163.789 260.486 165.389C259.586 166.989 258.286 168.289 256.486 169.189C254.686 170.089 252.586 170.589 250.086 170.589C247.586 170.589 245.386 170.089 243.586 169.089C241.786 168.089 240.486 166.789 239.686 165.189C238.786 163.589 238.386 161.889 238.386 159.989C238.386 158.089 238.786 156.389 239.686 154.789C240.586 153.189 241.886 151.889 243.586 150.889C245.386 149.889 247.486 149.389 250.086 149.389C251.986 149.389 253.686 149.689 255.186 150.189C256.686 150.689 257.886 151.489 258.886 152.489C259.886 153.489 260.586 154.589 261.086 155.889C261.586 157.189 261.786 158.689 261.786 160.089ZM255.486 160.089C255.486 159.289 255.386 158.589 255.186 157.989C254.986 157.389 254.586 156.789 254.186 156.289C253.686 155.789 253.186 155.489 252.486 155.189C251.786 154.889 251.086 154.789 250.186 154.789C248.486 154.789 247.186 155.289 246.286 156.289C245.386 157.289 244.886 158.489 244.886 160.089C244.886 161.689 245.386 162.889 246.286 163.889C247.286 164.889 248.586 165.389 250.186 165.389C251.286 165.389 252.286 165.189 253.086 164.689C253.886 164.189 254.486 163.589 254.886 162.789C255.186 162.089 255.486 161.189 255.486 160.089Z" fill="#D85639"/>
<path d="M283.586 154.889H276.086V170.489H269.886V154.889H262.386V149.889H283.686L283.586 154.889Z" fill="#D85639"/>
<path d="M234.186 193.489C233.786 193.689 233.386 193.789 233.086 193.889C232.786 193.989 232.486 194.089 232.186 194.189C231.886 194.289 231.486 194.389 230.886 194.489C229.986 194.689 228.986 194.889 228.086 194.989C227.186 195.089 226.186 195.189 225.086 195.189C222.986 195.189 221.086 194.789 219.286 194.089C217.486 193.289 216.086 192.189 214.986 190.589C213.886 188.989 213.386 186.989 213.386 184.689C213.386 183.189 213.686 181.689 214.186 180.289C214.686 178.889 215.586 177.689 216.686 176.789C217.586 176.089 218.586 175.489 219.486 175.089C220.486 174.689 221.386 174.489 222.286 174.289C223.186 174.189 224.186 174.089 225.286 174.089C227.086 174.089 228.586 174.189 229.786 174.489C230.986 174.789 232.286 175.089 233.686 175.589V180.489C232.786 179.989 231.786 179.489 230.686 179.089C229.686 178.689 228.386 178.589 226.786 178.589C224.986 178.589 223.586 178.889 222.486 179.589C221.386 180.289 220.686 181.089 220.286 181.989C219.886 182.889 219.686 183.889 219.686 184.689C219.686 185.689 219.886 186.689 220.386 187.589C220.886 188.489 221.586 189.189 222.586 189.689C223.586 190.189 224.786 190.489 226.086 190.489C226.886 190.489 227.686 190.389 228.586 190.189V187.789H225.786V183.689H233.986V193.489H234.186Z" fill="#D85639"/>
<path d="M258.986 194.989H252.286L250.686 191.289C250.086 189.989 249.586 188.989 249.086 188.389C248.586 187.789 248.186 187.389 247.686 187.189C247.186 186.989 246.686 186.889 245.986 186.889H245.286V194.889H239.086V174.289H249.686C251.386 174.289 252.786 174.589 253.886 175.289C254.986 175.989 255.786 176.789 256.286 177.789C256.786 178.789 256.986 179.689 256.986 180.589C256.986 181.589 256.786 182.489 256.386 183.189C255.986 183.889 255.586 184.389 255.086 184.789C254.686 185.089 254.186 185.389 253.586 185.689C254.286 186.089 254.786 186.489 255.186 187.089C255.586 187.689 256.186 188.689 256.986 190.289L258.986 194.989ZM250.586 180.889C250.586 179.889 250.286 179.289 249.686 178.889C249.086 178.489 248.086 178.289 246.686 178.289H245.386V183.289H246.686C248.186 183.289 249.286 183.089 249.786 182.789C250.286 182.489 250.586 181.789 250.586 180.889Z" fill="#D85639"/>
<path d="M267.986 194.989H261.786V174.389H267.986V194.989Z" fill="#D85639"/>
<path d="M294.386 184.989C294.386 187.089 293.986 188.789 293.186 190.089C292.386 191.389 291.486 192.389 290.486 193.189C288.986 194.389 286.986 194.889 284.286 194.889H273.186V174.289H281.786C283.086 174.289 284.186 174.389 285.086 174.489C285.986 174.589 286.786 174.789 287.586 175.089C288.386 175.389 288.986 175.589 289.486 175.889C289.986 176.189 290.486 176.489 290.886 176.889C291.586 177.489 292.186 178.189 292.686 178.889C293.186 179.589 293.686 180.589 293.986 181.589C294.186 182.689 294.386 183.789 294.386 184.989ZM288.086 184.789C288.086 183.089 287.786 181.789 287.086 180.889C286.486 179.989 285.686 179.289 284.786 178.989C283.886 178.689 282.986 178.489 282.086 178.489H279.486V190.689H282.086C283.686 190.689 285.086 190.289 286.286 189.489C287.486 188.689 288.086 187.189 288.086 184.789Z" fill="#D85639"/>
<path d="M233.586 213.589C233.586 215.389 232.986 216.789 231.786 217.789C230.586 218.889 228.886 219.389 226.686 219.389H214.786V198.789H224.686C225.986 198.789 227.086 198.889 228.086 199.189C229.086 199.389 229.786 199.789 230.386 200.189C230.986 200.589 231.386 201.089 231.686 201.689C231.986 202.289 232.086 202.889 232.086 203.589C232.086 204.389 231.986 204.989 231.686 205.689C231.386 206.389 230.986 206.889 230.586 207.289C230.186 207.689 229.686 207.989 229.286 208.189C230.686 208.789 231.786 209.489 232.486 210.289C233.186 211.089 233.586 212.289 233.586 213.589ZM226.286 204.789C226.286 203.789 225.986 203.189 225.286 202.789C224.586 202.389 223.586 202.289 222.186 202.289H220.886V207.189H222.186C223.586 207.189 224.586 206.989 225.286 206.689C225.986 206.489 226.286 205.789 226.286 204.789ZM227.286 213.389C227.286 211.589 225.986 210.789 223.486 210.789H220.986V216.089H223.486C226.086 215.989 227.286 215.089 227.286 213.389Z" fill="#D85639"/>
<path d="M259.586 209.189C259.586 211.089 259.186 212.889 258.286 214.489C257.386 216.089 256.086 217.389 254.286 218.289C252.486 219.189 250.386 219.689 247.886 219.689C245.386 219.689 243.186 219.189 241.386 218.189C239.586 217.189 238.286 215.889 237.486 214.289C236.586 212.689 236.186 210.989 236.186 209.089C236.186 207.189 236.586 205.489 237.486 203.889C238.386 202.289 239.686 200.989 241.386 199.989C243.186 198.989 245.286 198.489 247.886 198.489C249.786 198.489 251.486 198.789 252.986 199.289C254.486 199.789 255.686 200.589 256.686 201.589C257.686 202.589 258.386 203.689 258.886 204.989C259.386 206.289 259.586 207.689 259.586 209.189ZM253.186 209.189C253.186 208.389 253.086 207.689 252.886 207.089C252.686 206.489 252.286 205.889 251.886 205.389C251.386 204.889 250.886 204.589 250.186 204.289C249.486 203.989 248.786 203.889 247.886 203.889C246.186 203.889 244.886 204.389 243.986 205.389C243.086 206.389 242.586 207.589 242.586 209.189C242.586 210.789 243.086 211.989 243.986 212.989C244.986 213.989 246.286 214.489 247.886 214.489C248.986 214.489 249.986 214.289 250.786 213.789C251.586 213.289 252.186 212.689 252.586 211.889C252.986 211.089 253.186 210.189 253.186 209.189Z" fill="#D85639"/>
<path d="M285.386 209.189C285.386 211.089 284.986 212.889 284.086 214.489C283.186 216.089 281.886 217.389 280.086 218.289C278.286 219.189 276.186 219.689 273.686 219.689C271.186 219.689 268.986 219.189 267.186 218.189C265.386 217.189 264.086 215.889 263.286 214.289C262.386 212.689 261.986 210.989 261.986 209.089C261.986 207.189 262.386 205.489 263.286 203.889C264.186 202.289 265.486 200.989 267.186 199.989C268.986 198.989 271.086 198.489 273.686 198.489C275.586 198.489 277.286 198.789 278.786 199.289C280.286 199.789 281.486 200.589 282.486 201.589C283.486 202.589 284.186 203.689 284.686 204.989C285.186 206.289 285.386 207.689 285.386 209.189ZM279.086 209.189C279.086 208.389 278.986 207.689 278.786 207.089C278.586 206.489 278.186 205.889 277.786 205.389C277.286 204.889 276.786 204.589 276.086 204.289C275.386 203.989 274.686 203.889 273.786 203.889C272.086 203.889 270.786 204.389 269.886 205.389C268.986 206.389 268.486 207.589 268.486 209.189C268.486 210.789 268.986 211.989 269.886 212.989C270.886 213.989 272.186 214.489 273.786 214.489C274.886 214.489 275.886 214.289 276.686 213.789C277.486 213.289 278.086 212.689 278.486 211.889C278.886 211.089 279.086 210.189 279.086 209.189Z" fill="#D85639"/>
<path d="M310.886 219.489H303.286L295.386 209.889V219.489H289.186V198.889H295.386V208.089L302.886 198.889H309.586L301.886 208.489L310.886 219.489Z" fill="#D85639"/>
<path opacity="0.6" d="M138.686 126.089V238.089" stroke="#D85639" stroke-width="8" stroke-miterlimit="10"/>
<path d="M121.686 126.089H104.686V238.089H121.686V126.089Z" fill="#FDBA5D"/>
<path opacity="0.61" d="M357.686 126.089H340.686V238.089H357.686V126.089Z" fill="#D85639"/>
<path d="M398.686 126.089H104.686V238.089H398.686V126.089Z" stroke="#102D3B" stroke-width="8" stroke-miterlimit="10" stroke-linecap="round" stroke-linejoin="round"/>
<path d="M340.886 416.089H328.586C325.386 416.089 322.786 413.489 322.786 410.289V9.88901C322.786 6.68901 325.386 4.08902 328.586 4.08902H340.886C344.086 4.08902 346.686 6.68901 346.686 9.88901V410.189C346.686 413.489 344.086 416.089 340.886 416.089Z" fill="#B7C8CE"/>
<path d="M340.886 416.089H328.586C325.386 416.089 322.786 413.489 322.786 410.289V9.88901C322.786 6.68901 325.386 4.08902 328.586 4.08902H340.886C344.086 4.08902 346.686 6.68901 346.686 9.88901V410.189C346.686 413.489 344.086 416.089 340.886 416.089Z" stroke="#102D3B" stroke-width="8" stroke-miterlimit="10" stroke-linecap="round" stroke-linejoin="round"/>
<path d="M165.686 453.789L135.686 437.089V408.089H165.686V453.789Z" fill="#EA3939"/>
<path opacity="0.62" d="M165.686 408.089H135.686V419.389H165.686V408.089Z" fill="#EA3939"/>
<path d="M165.686 453.789L135.686 437.089V408.089H165.686V453.789Z" stroke="#102D3B" stroke-width="8" stroke-miterlimit="10" stroke-linecap="round" stroke-linejoin="round"/>
<path d="M45.6863 96.089H13.6863V247.089H45.6863V96.089Z" fill="#0A7362" stroke="#0A7362" stroke-width="8" stroke-miterlimit="10" stroke-linecap="round" stroke-linejoin="round"/>
<path d="M46.0862 349.089C35.2862 349.089 24.3862 349.089 13.5862 349.089C11.4862 327.089 11.4862 304.089 13.5862 281.089C24.3862 281.089 35.2862 281.089 46.0862 281.089C48.1862 304.089 48.1862 327.089 46.0862 349.089Z" fill="#0A7362" stroke="#0A7362" stroke-width="8" stroke-miterlimit="10" stroke-linecap="round" stroke-linejoin="round"/>
<path d="M46.0863 281.089C35.2863 281.089 24.3863 281.089 13.5863 281.089C20.2863 271.089 20.2863 258.089 13.5863 247.089C24.3863 247.089 35.2863 247.089 46.0863 247.089C39.3863 258.089 39.3863 271.089 46.0863 281.089Z" fill="#0A7362" stroke="#0A7362" stroke-width="8" stroke-miterlimit="10" stroke-linecap="round" stroke-linejoin="round"/>
<path d="M33.9863 396.089C39.3863 380.089 45.8863 365.089 46.0863 349.089H13.5863C13.7863 365.089 20.2863 380.089 25.6863 396.089H33.9863Z" fill="#0A7362" stroke="#0A7362" stroke-width="8" stroke-miterlimit="10" stroke-linecap="round" stroke-linejoin="round"/>
<path d="M33.6863 396.089H25.6863V402.089H33.6863V396.089Z" fill="#0A7362" stroke="#0A7362" stroke-width="8" stroke-miterlimit="10" stroke-linecap="round" stroke-linejoin="round"/>
<path d="M29.6863 403.089V416.089" stroke="#0A7362" stroke-width="8" stroke-miterlimit="10" stroke-linecap="round" stroke-linejoin="round"/>
<path d="M41.6863 74.089H17.6863V96.089H41.6863V74.089Z" fill="#0A7362" stroke="#0A7362" stroke-width="8" stroke-miterlimit="10" stroke-linecap="round" stroke-linejoin="round"/>
<path d="M38.6863 74.089H20.6863V48.389C20.6863 44.889 23.8863 42.089 27.3863 42.089H32.3863C35.8863 42.089 38.6863 44.889 38.6863 48.389V74.089Z" fill="#0A7362" stroke="#0A7362" stroke-width="8" stroke-miterlimit="10" stroke-linecap="round" stroke-linejoin="round"/>
<path d="M56.6863 110.089H25.6863V128.089H56.6863V110.089Z" fill="#0A7362" stroke="#0A7362" stroke-width="8" stroke-miterlimit="10" stroke-linecap="round" stroke-linejoin="round"/>
<path d="M56.6863 189.389L45.6863 174.889V128.089H56.6863V189.389Z" fill="#0A7362" stroke="#0A7362" stroke-width="8" stroke-miterlimit="10" stroke-linecap="round" stroke-linejoin="round"/>
<path d="M39.0863 276.089C28.2863 276.089 17.3863 276.089 6.5863 276.089C13.2863 266.089 13.2863 253.089 6.5863 242.089C17.3863 242.089 28.2863 242.089 39.0863 242.089C32.3863 253.089 32.3863 266.089 39.0863 276.089Z" fill="#102D3B"/>
<path d="M38.6863 91.089H6.68628V242.089H38.6863V91.089Z" fill="#526066"/>
<path d="M38.6863 91.089H6.68628V242.089H38.6863V91.089Z" fill="#526066"/>
<path opacity="0.64" d="M16.6863 91.089H6.68628V242.089H16.6863V91.089Z" fill="#526066"/>
<path opacity="0.3" d="M38.6863 91.089H29.6863V242.089H38.6863V91.089Z" fill="#526066"/>
<path d="M38.6863 91.089H6.68628V242.089H38.6863V91.089Z" stroke="#102D3B" stroke-width="8" stroke-miterlimit="10" stroke-linecap="round" stroke-linejoin="round"/>
<path d="M39.0862 344.089C28.2862 344.089 17.3862 344.089 6.58623 344.089C4.48623 322.089 4.48623 299.089 6.58623 276.089C17.3862 276.089 28.2862 276.089 39.0862 276.089C41.1862 299.089 41.1862 322.089 39.0862 344.089Z" fill="#42708A"/>
<path d="M39.0862 344.089C28.2862 344.089 17.3862 344.089 6.58623 344.089C4.48623 322.089 4.48623 299.089 6.58623 276.089C17.3862 276.089 28.2862 276.089 39.0862 276.089C41.1862 299.089 41.1862 322.089 39.0862 344.089Z" fill="#526066"/>
<path opacity="0.3" d="M39.0862 276.089C36.4862 276.089 33.8863 276.089 31.2863 276.089C33.3863 299.089 33.3863 322.089 31.2863 344.089C33.8863 344.089 36.4862 344.089 39.0862 344.089C41.1862 322.089 41.1862 299.089 39.0862 276.089Z" fill="#526066"/>
<path opacity="0.73" d="M18.0863 343.089C16.4863 343.089 14.9863 343.089 13.3863 343.089C11.2863 321.389 11.2863 298.789 13.2863 276.089C14.8863 276.089 16.4863 276.089 18.0863 276.089C16.0863 298.789 16.0863 321.389 18.0863 343.089Z" fill="#CCDDE5"/>
<path d="M39.0862 344.089C28.2862 344.089 17.3862 344.089 6.58623 344.089C4.48623 322.089 4.48623 299.089 6.58623 276.089C17.3862 276.089 28.2862 276.089 39.0862 276.089C41.1862 299.089 41.1862 322.089 39.0862 344.089Z" stroke="#102D3B" stroke-width="8" stroke-miterlimit="10" stroke-linecap="round" stroke-linejoin="round"/>
<path d="M40.6863 300.089H4.68628V321.089H40.6863V300.089Z" stroke="#102D3B" stroke-width="8" stroke-miterlimit="10" stroke-linecap="round" stroke-linejoin="round"/>
<path d="M39.0863 276.089C28.2863 276.089 17.3863 276.089 6.5863 276.089C13.2863 266.089 13.2863 253.089 6.5863 242.089C17.3863 242.089 28.2863 242.089 39.0863 242.089C32.3863 253.089 32.3863 266.089 39.0863 276.089Z" stroke="#102D3B" stroke-width="8" stroke-miterlimit="10" stroke-linecap="round" stroke-linejoin="round"/>
<path d="M26.9863 391.089C32.3863 375.089 38.8863 360.089 39.0863 344.089H6.5863C6.7863 360.089 13.2863 375.089 18.6863 391.089H26.9863Z" fill="#CCDDE5"/>
<path d="M39.0863 344.089C39.0863 344.389 39.0863 344.789 39.0863 345.089H17.6863C17.7863 360.789 20.5863 375.789 23.8863 391.089H18.6863C13.2863 375.089 6.7863 360.089 6.5863 344.089H39.0863Z" fill="white"/>
<path d="M26.9863 391.089C32.3863 375.089 38.8863 360.089 39.0863 344.089H6.5863C6.7863 360.089 13.2863 375.089 18.6863 391.089H26.9863Z" stroke="#102D3B" stroke-width="8" stroke-miterlimit="10" stroke-linecap="round" stroke-linejoin="round"/>
<path d="M26.6863 391.089H18.6863V397.089H26.6863V391.089Z" stroke="#102D3B" stroke-width="8" stroke-miterlimit="10" stroke-linecap="round" stroke-linejoin="round"/>
<path d="M22.6863 398.089V411.089" stroke="#102D3B" stroke-width="8" stroke-miterlimit="10" stroke-linecap="round" stroke-linejoin="round"/>
<path d="M34.6863 69.089H10.6863V91.089H34.6863V69.089Z" stroke="#102D3B" stroke-width="8" stroke-miterlimit="10" stroke-linecap="round" stroke-linejoin="round"/>
<path d="M34.6863 69.089H10.6863V91.089H34.6863V69.089Z" fill="#102D3B"/>
<path d="M31.6863 69.089H13.6863V43.389C13.6863 39.889 16.8863 37.089 20.3863 37.089H25.3863C28.8863 37.089 31.6863 39.889 31.6863 43.389V69.089Z" fill="#CCDDE5"/>
<path d="M31.6863 69.089H13.6863V43.389C13.6863 39.889 16.8863 37.089 20.3863 37.089H25.3863C28.8863 37.089 31.6863 39.889 31.6863 43.389V69.089Z" stroke="#102D3B" stroke-width="8" stroke-miterlimit="10" stroke-linecap="round" stroke-linejoin="round"/>
<path d="M49.6863 105.089H18.6863V123.089H49.6863V105.089Z" fill="#CCDDE5"/>
<path d="M49.6863 105.089H18.6863V123.089H49.6863V105.089Z" stroke="#102D3B" stroke-width="8" stroke-miterlimit="10" stroke-linecap="round" stroke-linejoin="round"/>
<path d="M49.6863 184.389L38.6863 169.889V123.089H49.6863V184.389Z" fill="#CCDDE5"/>
<path d="M49.6863 184.389L38.6863 169.889V123.089H49.6863V184.389Z" stroke="#102D3B" stroke-width="8" stroke-miterlimit="10" stroke-linecap="round" stroke-linejoin="round"/>
</svg>
