<svg width="413" height="473" fill="none" xmlns="http://www.w3.org/2000/svg"><path d="M390.686 423.089h-276v-396h276c9.9 0 18 7.8 18 17.7v360c0 10-8.1 18.3-18 18.3Z" fill="#0A7362" stroke="#0A7362" stroke-width="8" stroke-miterlimit="10" stroke-linecap="round" stroke-linejoin="round"/><path d="M351.686 431.089h-14c-2.8 0-5-2.2-5-5v-402c0-2.8 2.2-5 5-5h14c2.8 0 5 2.2 5 5v402c0 2.8-2.2 5-5 5Zm-176 37.7-30-16.7v-29h30v45.7Z" fill="#0A7362" stroke="#0A7362" stroke-width="8" stroke-miterlimit="10" stroke-linecap="round" stroke-linejoin="round"/><path d="M380.686 408.089h-276v-396h276c9.9 0 18 7.8 18 17.7v360c0 10-8.1 18.3-18 18.3Z" fill="#4C5B60"/><mask id="a" style="mask-type:alpha" maskUnits="userSpaceOnUse" x="104" y="14" width="295" height="397"><path d="M380.686 410.089h-276v-396h276c9.9 0 18 7.8 18 17.7v360c0 10-8.1 18.3-18 18.3Z" fill="#fff"/></mask><g mask="url(#a)" fill="#102D3B"><path opacity=".11" d="M79.086 712.69c-.4 0-.8-.1-1.1-.4-.6-.6-.6-1.5 0-2.1l344.4-344.3c.6-.6 1.5-.6 2.1 0 .6.6.6 1.5 0 2.1l-344.3 344.3c-.3.3-.7.4-1.1.4Zm0-14c-.4 0-.8-.1-1.1-.4-.6-.6-.6-1.5 0-2.1l344.4-344.3c.6-.6 1.5-.6 2.1 0 .6.6.6 1.5 0 2.1l-344.3 344.3c-.3.3-.7.4-1.1.4Zm0-14c-.4 0-.8-.1-1.1-.4-.6-.6-.6-1.5 0-2.1l344.4-344.3c.6-.6 1.5-.6 2.1 0 .6.6.6 1.5 0 2.1l-344.3 344.3c-.3.3-.7.4-1.1.4Zm0-14c-.4 0-.8-.1-1.1-.4-.6-.6-.6-1.5 0-2.1l344.4-344.3c.6-.6 1.5-.6 2.1 0 .6.6.6 1.5 0 2.1l-344.3 344.3c-.3.3-.7.4-1.1.4Zm0-14c-.4 0-.8-.1-1.1-.4-.6-.6-.6-1.5 0-2.1l344.4-344.3c.6-.6 1.5-.6 2.1 0 .6.6.6 1.5 0 2.1l-344.3 344.3c-.3.3-.7.4-1.1.4Zm0-14c-.4 0-.8-.1-1.1-.4-.6-.6-.6-1.5 0-2.1l344.4-344.3c.6-.6 1.5-.6 2.1 0 .6.6.6 1.5 0 2.1l-344.3 344.3c-.3.3-.7.4-1.1.4Zm0-14c-.4 0-.8-.1-1.1-.4-.6-.6-.6-1.5 0-2.1l344.4-344.3c.6-.6 1.5-.6 2.1 0 .6.6.6 1.5 0 2.1l-344.3 344.3c-.3.3-.7.4-1.1.4Zm0-14c-.4 0-.8-.1-1.1-.4-.6-.6-.6-1.5 0-2.1l344.4-344.3c.6-.6 1.5-.6 2.1 0 .6.6.6 1.5 0 2.1l-344.3 344.3c-.3.3-.7.4-1.1.4Zm0-14c-.4 0-.8-.1-1.1-.4-.6-.6-.6-1.5 0-2.1l344.4-344.3c.6-.6 1.5-.6 2.1 0 .6.6.6 1.5 0 2.1l-344.3 344.3c-.3.3-.7.4-1.1.4Zm0-14c-.4 0-.8-.1-1.1-.4-.6-.6-.6-1.5 0-2.1l344.4-344.3c.6-.6 1.5-.6 2.1 0 .6.6.6 1.5 0 2.1l-344.3 344.3c-.3.3-.7.4-1.1.4Zm0-14c-.4 0-.8-.1-1.1-.4-.6-.6-.6-1.5 0-2.1l344.4-344.3c.6-.6 1.5-.6 2.1 0 .6.6.6 1.5 0 2.1l-344.3 344.3c-.3.3-.7.4-1.1.4Zm0-14c-.4 0-.8-.1-1.1-.4-.6-.6-.6-1.5 0-2.1l344.4-344.3c.6-.6 1.5-.6 2.1 0 .6.6.6 1.5 0 2.1l-344.3 344.3c-.3.3-.7.4-1.1.4Zm0-14c-.4 0-.8-.1-1.1-.4-.6-.6-.6-1.5 0-2.1l344.4-344.3c.6-.6 1.5-.6 2.1 0 .6.6.6 1.5 0 2.1l-344.3 344.3c-.3.3-.7.4-1.1.4Zm0-14c-.4 0-.8-.1-1.1-.4-.6-.6-.6-1.5 0-2.1l344.4-344.3c.6-.6 1.5-.6 2.1 0 .6.6.6 1.5 0 2.1l-344.3 344.3c-.3.3-.7.4-1.1.4Zm0-14c-.4 0-.8-.1-1.1-.4-.6-.6-.6-1.5 0-2.1l344.4-344.3c.6-.6 1.5-.6 2.1 0 .6.6.6 1.5 0 2.1l-344.3 344.3c-.3.3-.7.4-1.1.4Zm0-14c-.4 0-.8-.1-1.1-.4-.6-.6-.6-1.5 0-2.1l344.4-344.3c.6-.6 1.5-.6 2.1 0 .6.6.6 1.5 0 2.1l-344.3 344.3c-.3.3-.7.4-1.1.4Zm0-14c-.4 0-.8-.1-1.1-.4-.6-.6-.6-1.5 0-2.1l344.4-344.3c.6-.6 1.5-.6 2.1 0 .6.6.6 1.5 0 2.1l-344.3 344.3c-.3.3-.7.4-1.1.4Zm0-14c-.4 0-.8-.1-1.1-.4-.6-.6-.6-1.5 0-2.1l344.4-344.3c.6-.6 1.5-.6 2.1 0 .6.6.6 1.5 0 2.1l-344.3 344.3c-.3.3-.7.4-1.1.4Zm0-14c-.4 0-.8-.1-1.1-.4-.6-.6-.6-1.5 0-2.1l344.4-344.3c.6-.6 1.5-.6 2.1 0 .6.6.6 1.5 0 2.1l-344.3 344.3c-.3.3-.7.4-1.1.4Zm0-14c-.4 0-.8-.1-1.1-.4-.6-.6-.6-1.5 0-2.1l344.4-344.3c.6-.6 1.5-.6 2.1 0 .6.6.6 1.5 0 2.1l-344.3 344.3c-.3.3-.7.4-1.1.4Zm0-14c-.4 0-.8-.1-1.1-.4-.6-.6-.6-1.5 0-2.1l344.4-344.3c.6-.6 1.5-.6 2.1 0 .6.6.6 1.5 0 2.1l-344.3 344.3c-.3.3-.7.4-1.1.4Zm0-14c-.4 0-.8-.1-1.1-.4-.6-.6-.6-1.5 0-2.1l344.4-344.3c.6-.6 1.5-.6 2.1 0 .6.6.6 1.5 0 2.1l-344.3 344.3c-.3.3-.7.4-1.1.4Zm0-14c-.4 0-.8-.1-1.1-.4-.6-.6-.6-1.5 0-2.1l344.4-344.3c.6-.6 1.5-.6 2.1 0 .6.6.6 1.5 0 2.1l-344.3 344.3c-.3.3-.7.4-1.1.4Zm0-14c-.4 0-.8-.1-1.1-.4-.6-.6-.6-1.5 0-2.1l344.4-344.3c.6-.6 1.5-.6 2.1 0 .6.6.6 1.5 0 2.1l-344.3 344.3c-.3.3-.7.4-1.1.4Zm0-14c-.4 0-.8-.1-1.1-.4-.6-.6-.6-1.5 0-2.1l344.4-344.3c.6-.6 1.5-.6 2.1 0 .6.6.6 1.5 0 2.1l-344.3 344.3c-.3.3-.7.4-1.1.4Zm0-14c-.4 0-.8-.1-1.1-.4-.6-.6-.6-1.5 0-2.1l344.4-344.3c.6-.6 1.5-.6 2.1 0 .6.6.6 1.5 0 2.1l-344.3 344.3c-.3.3-.7.4-1.1.4Zm0-14c-.4 0-.8-.1-1.1-.4-.6-.6-.6-1.5 0-2.1l344.4-344.3c.6-.6 1.5-.6 2.1 0 .6.6.6 1.5 0 2.1l-344.3 344.3c-.3.3-.7.4-1.1.4Zm0-14c-.4 0-.8-.1-1.1-.4-.6-.6-.6-1.5 0-2.1l344.4-344.3c.6-.6 1.5-.6 2.1 0 .6.6.6 1.5 0 2.1l-344.3 344.3c-.3.3-.7.4-1.1.4Zm0-14c-.4 0-.8-.1-1.1-.4-.6-.6-.6-1.5 0-2.1l344.4-344.3c.6-.6 1.5-.6 2.1 0 .6.6.6 1.5 0 2.1l-344.3 344.3c-.3.3-.7.4-1.1.4Zm0-14c-.4 0-.8-.1-1.1-.4-.6-.6-.6-1.5 0-2.1l344.4-344.3c.6-.6 1.5-.6 2.1 0 .6.6.6 1.5 0 2.1l-344.3 344.3c-.3.3-.7.4-1.1.4Zm0-14c-.4 0-.8-.1-1.1-.4-.6-.6-.6-1.5 0-2.1l344.4-344.3c.6-.6 1.5-.6 2.1 0 .6.6.6 1.5 0 2.1l-344.3 344.3c-.3.3-.7.4-1.1.4Zm0-14c-.4 0-.8-.1-1.1-.4-.6-.6-.6-1.5 0-2.1l344.4-344.3c.6-.6 1.5-.6 2.1 0 .6.6.6 1.5 0 2.1l-344.3 344.3c-.3.3-.7.4-1.1.4Zm0-14c-.4 0-.8-.1-1.1-.4-.6-.6-.6-1.5 0-2.1l344.4-344.3c.6-.6 1.5-.6 2.1 0 .6.6.6 1.5 0 2.1l-344.3 344.3c-.3.3-.7.4-1.1.4Zm0-14c-.4 0-.8-.1-1.1-.4-.6-.6-.6-1.5 0-2.1l344.4-344.3c.6-.6 1.5-.6 2.1 0 .6.6.6 1.5 0 2.1l-344.3 344.3c-.3.3-.7.4-1.1.4Zm0-14c-.4 0-.8-.1-1.1-.4-.6-.6-.6-1.5 0-2.1l344.4-344.3c.6-.6 1.5-.6 2.1 0 .6.6.6 1.5 0 2.1l-344.3 344.3c-.3.3-.7.4-1.1.4Zm0-14c-.4 0-.8-.1-1.1-.4-.6-.6-.6-1.5 0-2.1l344.4-344.3c.6-.6 1.5-.6 2.1 0 .6.6.6 1.5 0 2.1l-344.3 344.3c-.3.3-.7.4-1.1.4Zm0-14c-.4 0-.8-.1-1.1-.4-.6-.6-.6-1.5 0-2.1l344.4-344.3c.6-.6 1.5-.6 2.1 0 .6.6.6 1.5 0 2.1l-344.3 344.3c-.3.3-.7.4-1.1.4Zm0-14.001c-.4 0-.8-.1-1.1-.4-.6-.6-.6-1.5 0-2.1l344.4-344.4c.6-.6 1.5-.6 2.1 0 .6.6.6 1.5 0 2.1l-344.3 344.4c-.3.3-.7.4-1.1.4Zm0-14c-.4 0-.8-.1-1.1-.4-.6-.6-.6-1.5 0-2.1l344.4-344.4c.6-.6 1.5-.6 2.1 0 .6.6.6 1.5 0 2.1l-344.3 344.4c-.3.3-.7.4-1.1.4Zm0-14c-.4 0-.8-.1-1.1-.4-.6-.6-.6-1.5 0-2.1l344.4-344.5c.6-.6 1.5-.6 2.1 0 .6.6.6 1.5 0 2.1l-344.3 344.5c-.3.3-.7.4-1.1.4Zm0-14c-.4 0-.8-.1-1.1-.4-.6-.6-.6-1.5 0-2.1l344.4-344.5c.6-.6 1.5-.6 2.1 0 .6.6.6 1.5 0 2.1l-344.3 344.5c-.3.3-.7.4-1.1.4Zm0-14c-.4 0-.8-.1-1.1-.4-.6-.6-.6-1.5 0-2.1l344.4-344.5c.6-.6 1.5-.6 2.1 0 .6.6.6 1.5 0 2.1l-344.3 344.5c-.3.3-.7.4-1.1.4Zm0-14c-.4 0-.8-.1-1.1-.4-.6-.6-.6-1.5 0-2.1l344.4-344.5c.6-.6 1.5-.6 2.1 0 .6.6.6 1.5 0 2.1l-344.3 344.5c-.3.3-.7.4-1.1.4Zm0-14c-.4 0-.8-.1-1.1-.4-.6-.6-.6-1.5 0-2.1l344.4-344.5c.6-.6 1.5-.6 2.1 0 .6.6.6 1.5 0 2.1l-344.3 344.5c-.3.3-.7.4-1.1.4Zm0-14c-.4 0-.8-.1-1.1-.4-.6-.6-.6-1.5 0-2.1l344.4-344.5c.6-.6 1.5-.6 2.1 0 .6.6.6 1.5 0 2.1l-344.3 344.5c-.3.3-.7.4-1.1.4Zm0-14c-.4 0-.8-.1-1.1-.4-.6-.6-.6-1.5 0-2.1l344.4-344.5c.6-.6 1.5-.6 2.1 0 .6.6.6 1.5 0 2.1l-344.3 344.5c-.3.3-.7.4-1.1.4Zm0-14c-.4 0-.8-.1-1.1-.4-.6-.6-.6-1.5 0-2.1l312.8-313c.6-.6 1.5-.6 2.1 0 .6.6.6 1.5 0 2.1l-312.7 313c-.3.3-.7.4-1.1.4Zm0-14c-.4 0-.8-.1-1.1-.4-.6-.6-.6-1.5 0-2.1l293.4-293.5c.6-.6 1.5-.6 2.1 0 .6.6.6 1.5 0 2.1l-293.3 293.5c-.3.3-.7.4-1.1.4Z"/></g><path d="M357.686 12.089h-24v396h24v-396Z" fill="#3E4B4F"/><path opacity=".3" d="M121.686 12.089h-17v396h17v-396Z" fill="#CCDDE5"/><path d="M380.686 408.089h-276v-396h276c9.9 0 18 7.8 18 17.7v360c0 10-8.1 18.3-18 18.3Z" stroke="#102D3B" stroke-width="8" stroke-miterlimit="10" stroke-linecap="round" stroke-linejoin="round"/><path d="M138.686 12.089h-34v396h34v-396Z" stroke="#102D3B" stroke-width="8" stroke-miterlimit="10" stroke-linecap="round" stroke-linejoin="round"/><path d="M398.686 126.089h-294v112h294v-112Z" fill="#FF9852"/><path d="M235.886 160.489c0 2.1-.4 3.8-1.2 5.1-.8 1.3-1.7 2.3-2.7 3.1-1.5 1.2-3.5 1.7-6.2 1.7h-11.1v-20.6h8.6c1.3 0 2.4.1 3.3.2.9.1 1.7.3 2.5.6s1.4.5 1.9.8c.5.3 1 .6 1.4 1 .7.6 1.3 1.3 1.8 2s1 1.7 1.3 2.7c.3 1.1.4 2.2.4 3.4Zm-6.3-.2c0-1.7-.3-3-1-3.9-.6-.9-1.4-1.6-2.3-1.9-.9-.3-1.8-.5-2.7-.5h-2.6v12.2h2.6c1.6 0 3-.4 4.2-1.2 1.2-.8 1.8-2.3 1.8-4.7Zm32.2-.2c0 1.9-.4 3.7-1.3 5.3-.9 1.6-2.2 2.9-4 3.8-1.8.9-3.9 1.4-6.4 1.4-2.5 0-4.7-.5-6.5-1.5-1.8-1-3.1-2.3-3.9-3.9-.9-1.6-1.3-3.3-1.3-5.2 0-1.9.4-3.6 1.3-5.2s2.2-2.9 3.9-3.9c1.8-1 3.9-1.5 6.5-1.5 1.9 0 3.6.3 5.1.8 1.5.5 2.7 1.3 3.7 2.3 1 1 1.7 2.1 2.2 3.4.5 1.3.7 2.8.7 4.2Zm-6.3 0c0-.8-.1-1.5-.3-2.1-.2-.6-.6-1.2-1-1.7-.5-.5-1-.8-1.7-1.1-.7-.3-1.4-.4-2.3-.4-1.7 0-3 .5-3.9 1.5-.9 1-1.4 2.2-1.4 3.8 0 1.6.5 2.8 1.4 3.8 1 1 2.3 1.5 3.9 1.5 1.1 0 2.1-.2 2.9-.7.8-.5 1.4-1.1 1.8-1.9.3-.7.6-1.6.6-2.7Zm28.1-5.2h-7.5v15.6h-6.2v-15.6h-7.5v-5h21.3l-.1 5Zm-49.4 38.6c-.4.2-.8.3-1.1.4l-.9.3c-.3.1-.7.2-1.3.3-.9.2-1.9.4-2.8.5-.9.1-1.9.2-3 .2-2.1 0-4-.4-5.8-1.1-1.8-.8-3.2-1.9-4.3-3.5-1.1-1.6-1.6-3.6-1.6-5.9 0-1.5.3-3 .8-4.4.5-1.4 1.4-2.6 2.5-3.5.9-.7 1.9-1.3 2.8-1.7 1-.4 1.9-.6 2.8-.8.9-.1 1.9-.2 3-.2 1.8 0 3.3.1 4.5.4 1.2.3 2.5.6 3.9 1.1v4.9c-.9-.5-1.9-1-3-1.4-1-.4-2.3-.5-3.9-.5-1.8 0-3.2.3-4.3 1-1.1.7-1.8 1.5-2.2 2.4-.4.9-.6 1.9-.6 2.7 0 1 .2 2 .7 2.9.5.9 1.2 1.6 2.2 2.1 1 .5 2.2.8 3.5.8.8 0 1.6-.1 2.5-.3v-2.4h-2.8v-4.1h8.2v9.8h.2Zm24.8 1.5h-6.7l-1.6-3.7c-.6-1.3-1.1-2.3-1.6-2.9-.5-.6-.9-1-1.4-1.2-.5-.2-1-.3-1.7-.3h-.7v8h-6.2v-20.6h10.6c1.7 0 3.1.3 4.2 1s1.9 1.5 2.4 2.5.7 1.9.7 2.8c0 1-.2 1.9-.6 2.6-.4.7-.8 1.2-1.3 1.6-.4.3-.9.6-1.5.9.7.4 1.2.8 1.6 1.4.4.6 1 1.6 1.8 3.2l2 4.7Zm-8.4-14.1c0-1-.3-1.6-.9-2-.6-.4-1.6-.6-3-.6h-1.3v5h1.3c1.5 0 2.6-.2 3.1-.5s.8-1 .8-1.9Zm17.4 14.1h-6.2v-20.6h6.2v20.6Zm26.4-10c0 2.1-.4 3.8-1.2 5.1-.8 1.3-1.7 2.3-2.7 3.1-1.5 1.2-3.5 1.7-6.2 1.7h-11.1v-20.6h8.6c1.3 0 2.4.1 3.3.2.9.1 1.7.3 2.5.6s1.4.5 1.9.8c.5.3 1 .6 1.4 1 .7.6 1.3 1.3 1.8 2s1 1.7 1.3 2.7c.2 1.1.4 2.2.4 3.4Zm-6.3-.2c0-1.7-.3-3-1-3.9-.6-.9-1.4-1.6-2.3-1.9-.9-.3-1.8-.5-2.7-.5h-2.6v12.2h2.6c1.6 0 3-.4 4.2-1.2 1.2-.8 1.8-2.3 1.8-4.7Zm-54.5 28.8c0 1.8-.6 3.2-1.8 4.2-1.2 1.1-2.9 1.6-5.1 1.6h-11.9v-20.6h9.9c1.3 0 2.4.1 3.4.4 1 .2 1.7.6 2.3 1 .6.4 1 .9 1.3 1.5.3.6.4 1.2.4 1.9 0 .8-.1 1.4-.4 2.1a5 5 0 0 1-1.1 1.6c-.4.4-.9.7-1.3.9 1.4.6 2.5 1.3 3.2 2.1.7.8 1.1 2 1.1 3.3Zm-7.3-8.8c0-1-.3-1.6-1-2-.7-.4-1.7-.5-3.1-.5h-1.3v4.9h1.3c1.4 0 2.4-.2 3.1-.5.7-.2 1-.9 1-1.9Zm1 8.6c0-1.8-1.3-2.6-3.8-2.6h-2.5v5.3h2.5c2.6-.1 3.8-1 3.8-2.7Zm32.3-4.2c0 1.9-.4 3.7-1.3 5.3-.9 1.6-2.2 2.9-4 3.8-1.8.9-3.9 1.4-6.4 1.4-2.5 0-4.7-.5-6.5-1.5-1.8-1-3.1-2.3-3.9-3.9-.9-1.6-1.3-3.3-1.3-5.2 0-1.9.4-3.6 1.3-5.2s2.2-2.9 3.9-3.9c1.8-1 3.9-1.5 6.5-1.5 1.9 0 3.6.3 5.1.8 1.5.5 2.7 1.3 3.7 2.3 1 1 1.7 2.1 2.2 3.4.5 1.3.7 2.7.7 4.2Zm-6.4 0c0-.8-.1-1.5-.3-2.1-.2-.6-.6-1.2-1-1.7-.5-.5-1-.8-1.7-1.1-.7-.3-1.4-.4-2.3-.4-1.7 0-3 .5-3.9 1.5-.9 1-1.4 2.2-1.4 3.8 0 1.6.5 2.8 1.4 3.8 1 1 2.3 1.5 3.9 1.5 1.1 0 2.1-.2 2.9-.7.8-.5 1.4-1.1 1.8-1.9.4-.8.6-1.7.6-2.7Zm32.2 0c0 1.9-.4 3.7-1.3 5.3-.9 1.6-2.2 2.9-4 3.8-1.8.9-3.9 1.4-6.4 1.4-2.5 0-4.7-.5-6.5-1.5-1.8-1-3.1-2.3-3.9-3.9-.9-1.6-1.3-3.3-1.3-5.2 0-1.9.4-3.6 1.3-5.2s2.2-2.9 3.9-3.9c1.8-1 3.9-1.5 6.5-1.5 1.9 0 3.6.3 5.1.8 1.5.5 2.7 1.3 3.7 2.3 1 1 1.7 2.1 2.2 3.4.5 1.3.7 2.7.7 4.2Zm-6.3 0c0-.8-.1-1.5-.3-2.1-.2-.6-.6-1.2-1-1.7-.5-.5-1-.8-1.7-1.1-.7-.3-1.4-.4-2.3-.4-1.7 0-3 .5-3.9 1.5-.9 1-1.4 2.2-1.4 3.8 0 1.6.5 2.8 1.4 3.8 1 1 2.3 1.5 3.9 1.5 1.1 0 2.1-.2 2.9-.7.8-.5 1.4-1.1 1.8-1.9.4-.8.6-1.7.6-2.7Zm31.8 10.3h-7.6l-7.9-9.6v9.6h-6.2v-20.6h6.2v9.2l7.5-9.2h6.7l-7.7 9.6 9 11Z" fill="#D85639"/><path opacity=".6" d="M138.686 126.089v112" stroke="#D85639" stroke-width="8" stroke-miterlimit="10"/><path d="M121.686 126.089h-17v112h17v-112Z" fill="#FDBA5D"/><path opacity=".61" d="M357.686 126.089h-17v112h17v-112Z" fill="#D85639"/><path d="M398.686 126.089h-294v112h294v-112Z" stroke="#102D3B" stroke-width="8" stroke-miterlimit="10" stroke-linecap="round" stroke-linejoin="round"/><path d="M340.886 416.089h-12.3c-3.2 0-5.8-2.6-5.8-5.8V9.889c0-3.2 2.6-5.8 5.8-5.8h12.3c3.2 0 5.8 2.6 5.8 5.8v400.3c0 3.3-2.6 5.9-5.8 5.9Z" fill="#B7C8CE"/><path d="M340.886 416.089h-12.3c-3.2 0-5.8-2.6-5.8-5.8V9.889c0-3.2 2.6-5.8 5.8-5.8h12.3c3.2 0 5.8 2.6 5.8 5.8v400.3c0 3.3-2.6 5.9-5.8 5.9Z" stroke="#102D3B" stroke-width="8" stroke-miterlimit="10" stroke-linecap="round" stroke-linejoin="round"/><path d="m165.686 453.789-30-16.7v-29h30v45.7Z" fill="#EA3939"/><path opacity=".62" d="M165.686 408.089h-30v11.3h30v-11.3Z" fill="#EA3939"/><path d="m165.686 453.789-30-16.7v-29h30v45.7Z" stroke="#102D3B" stroke-width="8" stroke-miterlimit="10" stroke-linecap="round" stroke-linejoin="round"/><path d="M45.686 96.089h-32v151h32v-151Zm.4 253h-32.5c-2.1-22-2.1-45 0-68h32.5c2.1 23 2.1 46 0 68Zm0-68h-32.5c6.7-10 6.7-23 0-34h32.5c-6.7 11-6.7 24 0 34Zm-12.1 115c5.4-16 11.9-31 12.1-47h-32.5c.2 16 6.7 31 12.1 47h8.3Zm-.3 0h-8v6h8v-6Z" fill="#0A7362" stroke="#0A7362" stroke-width="8" stroke-miterlimit="10" stroke-linecap="round" stroke-linejoin="round"/><path d="M29.686 403.089v13" stroke="#0A7362" stroke-width="8" stroke-miterlimit="10" stroke-linecap="round" stroke-linejoin="round"/><path d="M41.686 74.089h-24v22h24v-22Zm-3 0h-18v-25.7c0-3.5 3.2-6.3 6.7-6.3h5c3.5 0 6.3 2.8 6.3 6.3v25.7Zm18 36h-31v18h31v-18Zm0 79.3-11-14.5v-46.8h11v61.3Z" fill="#0A7362" stroke="#0A7362" stroke-width="8" stroke-miterlimit="10" stroke-linecap="round" stroke-linejoin="round"/><path d="M39.086 276.089h-32.5c6.7-10 6.7-23 0-34h32.5c-6.7 11-6.7 24 0 34Z" fill="#102D3B"/><path d="M38.686 91.089h-32v151h32v-151Z" fill="#526066"/><path d="M38.686 91.089h-32v151h32v-151Z" fill="#526066"/><path opacity=".64" d="M16.686 91.089h-10v151h10v-151Z" fill="#526066"/><path opacity=".3" d="M38.686 91.089h-9v151h9v-151Z" fill="#526066"/><path d="M38.686 91.089h-32v151h32v-151Z" stroke="#102D3B" stroke-width="8" stroke-miterlimit="10" stroke-linecap="round" stroke-linejoin="round"/><path d="M39.086 344.089h-32.5c-2.1-22-2.1-45 0-68h32.5c2.1 23 2.1 46 0 68Z" fill="#42708A"/><path d="M39.086 344.089h-32.5c-2.1-22-2.1-45 0-68h32.5c2.1 23 2.1 46 0 68Z" fill="#526066"/><path opacity=".3" d="M39.086 276.089h-7.8c2.1 23 2.1 46 0 68h7.8c2.1-22 2.1-45 0-68Z" fill="#526066"/><path opacity=".73" d="M18.086 343.089h-4.7c-2.1-21.7-2.1-44.3-.1-67h4.8c-2 22.7-2 45.3 0 67Z" fill="#CCDDE5"/><path d="M39.086 344.089h-32.5c-2.1-22-2.1-45 0-68h32.5c2.1 23 2.1 46 0 68Z" stroke="#102D3B" stroke-width="8" stroke-miterlimit="10" stroke-linecap="round" stroke-linejoin="round"/><path d="M40.686 300.089h-36v21h36v-21Zm-1.6-24h-32.5c6.7-10 6.7-23 0-34h32.5c-6.7 11-6.7 24 0 34Z" stroke="#102D3B" stroke-width="8" stroke-miterlimit="10" stroke-linecap="round" stroke-linejoin="round"/><path d="M26.986 391.089c5.4-16 11.9-31 12.1-47h-32.5c.2 16 6.7 31 12.1 47h8.3Z" fill="#CCDDE5"/><path d="M39.086 344.089v1h-21.4c.1 15.7 2.9 30.7 6.2 46h-5.2c-5.4-16-11.9-31-12.1-47h32.5Z" fill="#fff"/><path d="M26.986 391.089c5.4-16 11.9-31 12.1-47h-32.5c.2 16 6.7 31 12.1 47h8.3Zm-.3 0h-8v6h8v-6Zm-4 7v13m12-342h-24v22h24v-22Z" stroke="#102D3B" stroke-width="8" stroke-miterlimit="10" stroke-linecap="round" stroke-linejoin="round"/><path d="M34.686 69.089h-24v22h24v-22Z" fill="#102D3B"/><path d="M31.686 69.089h-18v-25.7c0-3.5 3.2-6.3 6.7-6.3h5c3.5 0 6.3 2.8 6.3 6.3v25.7Z" fill="#CCDDE5"/><path d="M31.686 69.089h-18v-25.7c0-3.5 3.2-6.3 6.7-6.3h5c3.5 0 6.3 2.8 6.3 6.3v25.7Z" stroke="#102D3B" stroke-width="8" stroke-miterlimit="10" stroke-linecap="round" stroke-linejoin="round"/><path d="M49.686 105.089h-31v18h31v-18Z" fill="#CCDDE5"/><path d="M49.686 105.089h-31v18h31v-18Z" stroke="#102D3B" stroke-width="8" stroke-miterlimit="10" stroke-linecap="round" stroke-linejoin="round"/><path d="m49.686 184.389-11-14.5v-46.8h11v61.3Z" fill="#CCDDE5"/><path d="m49.686 184.389-11-14.5v-46.8h11v61.3Z" stroke="#102D3B" stroke-width="8" stroke-miterlimit="10" stroke-linecap="round" stroke-linejoin="round"/></svg>