<svg width="1000" height="708" viewBox="0 0 1000 708" fill="none" xmlns="http://www.w3.org/2000/svg">
<path d="M456.2 37.8C481.1 29.2 508.4 29.2 533.3 37.9C522 24.2 508.9 12.7 494.7 3.29999C480.5 12.7 467.4 24.2 456.2 37.8Z" fill="#601B23"/>
<path d="M456.2 37.8C481.1 29.2 508.4 29.2 533.3 37.9C522 24.2 508.9 12.7 494.7 3.29999C480.5 12.7 467.4 24.2 456.2 37.8Z" stroke="#601B23" stroke-width="6" stroke-miterlimit="10" stroke-linecap="round" stroke-linejoin="round"/>
<path d="M536.6 426.2C536.6 444.8 532.7 462.6 525.5 480.7C525.3 481.3 525 481.9 524.7 482.6C517.5 499.8 507.2 517 494.7 527.1C481.8 516.7 471.3 498.8 464 481.1C463.9 481 463.9 480.9 463.8 480.7C456.6 462.6 452.7 444.8 452.7 426.2C452.7 420.5 453.1 414.9 453.8 409.1C456.2 389.7 469.4 366.3 485.9 363.8C486.1 363.8 486.3 363.7 486.5 363.7C491.7 363.1 497 363.1 502.2 363.6C502.4 363.6 502.7 363.6 502.9 363.7C519.7 365.8 533.2 389.5 535.6 409.1C536.2 414.9 536.6 420.5 536.6 426.2Z" fill="#F4A045"/>
<path d="M536.6 426.2C536.6 444.8 532.7 462.6 525.5 480.7C525.3 481.3 525 481.9 524.7 482.6C517.5 499.8 507.2 517 494.7 527.1C481.8 516.7 471.3 498.8 464 481.1C463.9 481 463.9 480.9 463.8 480.7C456.6 462.6 452.7 444.8 452.7 426.2C452.7 420.5 453.1 414.9 453.8 409.1C456.2 389.7 469.4 366.3 485.9 363.8C486.1 363.8 486.3 363.7 486.5 363.7C491.7 363.1 497 363.1 502.2 363.6C502.4 363.6 502.7 363.6 502.9 363.7C519.7 365.8 533.2 389.5 535.6 409.1C536.2 414.9 536.6 420.5 536.6 426.2Z" stroke="#601B23" stroke-width="6" stroke-miterlimit="10" stroke-linecap="round" stroke-linejoin="round"/>
<path d="M1000 529.199C984.8 533.699 972.4 544.799 966.2 559.199C954.2 554.899 941.2 552.499 927.7 552.499C887.7 552.499 852.5 573.099 832.1 604.199C821.5 599.199 809.7 596.499 797.2 596.499C791.7 596.499 786.4 596.999 781.3 598.099C781.3 597.599 781.3 597.099 781.3 596.499C781.3 570.999 763.3 549.699 739.4 544.599C730.2 513.099 701.2 489.999 666.7 489.999C638 489.999 613 505.999 600.2 529.499C591.3 521.199 579.4 515.999 566.3 515.999C558.8 515.999 551.7 517.699 545.3 520.599C537.5 508.499 530.6 495.799 524.7 482.399C510.1 449.399 502 412.599 502 373.999C502 370.499 502.1 367.099 502.2 363.599C503.9 318.899 516.4 276.999 537.3 240.399H450.8C471.7 276.999 484.2 318.999 485.9 363.699C486 367.099 486.1 370.499 486.1 373.899C486.1 411.899 478.2 448.199 464 480.999C454.7 502.399 442.8 522.399 428.5 540.499C416.4 525.499 397.9 515.999 377.2 515.999C356.4 515.999 337.9 525.599 325.8 540.599C316.1 534.899 304.9 531.599 292.8 531.599C273.4 531.599 255.9 540.199 244 553.699C226.4 527.599 196.6 510.399 162.8 510.399C108.8 510.399 65.0002 554.199 65.0002 608.199C65.0002 608.499 65.0002 608.799 65.0002 609.099C28.4002 627.699 2.7002 664.699 0.200195 707.999H236.2H720.1H1000V529.199Z" fill="white"/>
<path d="M490.1 363.499C480.7 364.699 473.2 377.899 471.8 388.799C471.4 391.999 471.2 395.099 471.2 398.299C471.2 408.699 473.4 418.599 477.4 428.699C481.4 438.599 487.4 448.699 494.6 454.499C501.9 448.699 507.8 438.599 511.8 428.699C515.8 418.599 518 408.699 518 398.299C518 395.099 517.8 391.999 517.4 388.799C516 377.799 508.5 364.699 499.1 363.499C496.2 363.199 493.1 363.199 490.1 363.499Z" fill="#E36535"/>
<path d="M490.1 363.499C480.7 364.699 473.2 377.899 471.8 388.799C471.4 391.999 471.2 395.099 471.2 398.299C471.2 408.699 473.4 418.599 477.4 428.699C481.4 438.599 487.4 448.699 494.6 454.499C501.9 448.699 507.8 438.599 511.8 428.699C515.8 418.599 518 408.699 518 398.299C518 395.099 517.8 391.999 517.4 388.799C516 377.799 508.5 364.699 499.1 363.499C496.2 363.199 493.1 363.199 490.1 363.499Z" stroke="#601B23" stroke-width="6" stroke-miterlimit="10" stroke-linecap="round" stroke-linejoin="round"/>
<path d="M374 210.8L341.4 223.5V161.6L441.5 83.5V200.6L417.3 213.3C404.4 206.5 388.7 205.1 374 210.8Z" fill="#C11A4D"/>
<path d="M330.8 239.7C320.6 224.9 314.7 207.4 314.7 188.7C314.7 165 324 143.3 339.5 126.6C355 143.3 364.4 165 364.5 188.7C364.5 207.5 358.6 224.9 348.5 239.7H330.8Z" fill="#CF264D"/>
<path opacity="0.72" d="M341.4 223.499L373.8 210.899C374.2 202.299 373.6 193.499 372 184.699C369.6 171.499 365.1 159.099 358.9 147.899L341.4 161.599V223.499Z" fill="#A5143A"/>
<path opacity="0.23" d="M345.6 178.9L441.6 104.1V83.5L341.4 161.5V223.5L345.6 221.9V178.9Z" fill="#F4A15D"/>
<path opacity="0.72" d="M401.7 208C407.2 208.9 412.4 210.7 417.3 213.3L441.5 200.6V83.5L399.3 116.4C397.2 129.1 396.2 142.4 396.2 156.1C396.3 174.2 398.2 191.7 401.7 208Z" fill="#A5143A"/>
<path d="M374 210.8L341.4 223.5V161.6L441.5 83.5V200.6L417.3 213.3C404.4 206.5 388.7 205.1 374 210.8Z" stroke="#601B23" stroke-width="6" stroke-miterlimit="10" stroke-linecap="round" stroke-linejoin="round"/>
<path d="M330.8 239.7C320.6 224.9 314.7 207.4 314.7 188.7C314.7 165 324 143.3 339.5 126.6C355 143.3 364.4 165 364.5 188.7C364.5 207.5 358.6 224.9 348.5 239.7H330.8Z" fill="#CF264D"/>
<path opacity="0.23" d="M338 126.6C339.2 127.9 340.4 129.3 341.5 130.7C331.1 146.7 325.1 165.5 325 185.5C325 205.3 328 223.8 338.2 239.8H329C318.9 225 313 207.5 313 188.8C313.1 165 322.5 143.3 338 126.6Z" fill="#F4A15D"/>
<path opacity="0.32" d="M338 126.6C338.4 127 338.8 127.5 339.2 128C327.5 145.3 320.8 165.6 320.7 187.4C320.7 206.3 325.8 224.1 334.7 239.8H329C318.9 225 313 207.5 313 188.8C313.1 165 322.5 143.3 338 126.6Z" fill="#F4A15D"/>
<path opacity="0.37" d="M364.5 188.7C364.5 165 355.1 143.4 339.5 126.6C338.3 127.9 337.1 129.3 336 130.7C346.4 146.7 352.4 165.5 352.5 185.5C352.5 205.3 346.7 223.8 336.5 239.8H348.5C358.6 224.9 364.5 207.4 364.5 188.7Z" fill="#A5143A"/>
<path opacity="0.72" d="M364.5 188.7C364.5 165 355.1 143.4 339.5 126.6C339.1 127 338.7 127.5 338.3 128C350 145.3 356.7 165.6 356.8 187.4C356.8 206.3 351.7 224.1 342.8 239.8H348.5C358.6 224.9 364.5 207.4 364.5 188.7Z" fill="#A5143A"/>
<path opacity="0.37" d="M339.5 126.6C338.3 127.9 337.1 129.3 336 130.7C346.4 146.7 352.4 165.5 352.5 185.5C352.5 205.3 346.7 223.8 336.5 239.8H348.5C358.6 225 364.5 207.5 364.5 188.8C364.4 165 355 143.3 339.5 126.6Z" fill="#A5143A"/>
<path opacity="0.72" d="M339.5 126.6C339.1 127 338.7 127.5 338.3 128C350 145.3 356.7 165.6 356.8 187.4C356.8 206.3 351.7 224.1 342.8 239.8H348.5C358.6 225 364.5 207.5 364.5 188.8C364.4 165 355 143.3 339.5 126.6Z" fill="#A5143A"/>
<path d="M350.9 144.6C347.2 138.1 342.8 132.1 337.7 126.5C332.6 132 328.2 138.1 324.5 144.6H350.9Z" fill="#601B23"/>
<path d="M330.8 239.7C320.6 224.9 314.7 207.4 314.7 188.7C314.7 165 324 143.3 339.5 126.6C355 143.3 364.4 165 364.5 188.7C364.5 207.5 358.6 224.9 348.5 239.7H330.8Z" stroke="#601B23" stroke-width="6" stroke-miterlimit="10" stroke-linecap="round" stroke-linejoin="round"/>
<path d="M460.7 316.9C460.7 316.9 448.6 319.5 431.2 336.9C424.9 343.2 415 356 407.7 365.7C404.7 369.7 398.3 367.7 398.2 362.7L395.8 256.2C395.3 253.2 396.1 250.1 398 247.8L424.2 215.2L460.7 316.9Z" fill="#CF264D"/>
<path opacity="0.32" d="M398 364.8C403.7 364 408 359.1 408.1 353.3L409.2 254.3C408.7 251.3 409.5 248.2 411.4 245.9L427.8 225.4L424.1 215.2L398 247.7C396.1 250.1 395.3 253.1 395.8 256.1L398 364.8Z" fill="#F4A15D"/>
<path opacity="0.72" d="M460.7 316.9L424.2 215.2L409.7 233.3C417.5 263.3 429.8 293.8 446.4 324.2C455.2 318.1 460.7 316.9 460.7 316.9Z" fill="#A5143A"/>
<path d="M460.7 316.9C460.7 316.9 448.6 319.5 431.2 336.9C424.9 343.2 415 356 407.7 365.7C404.7 369.7 398.3 367.7 398.2 362.7L395.8 256.2C395.3 253.2 396.1 250.1 398 247.8L424.2 215.2L460.7 316.9Z" stroke="#601B23" stroke-width="6" stroke-miterlimit="10" stroke-linecap="round" stroke-linejoin="round"/>
<path d="M321.3 226.5H354.2" stroke="#601B23" stroke-width="4" stroke-miterlimit="10" stroke-linecap="round" stroke-linejoin="round"/>
<path d="M330.8 239.7C320.6 224.9 314.7 207.4 314.7 188.7C314.7 165 324 143.3 339.5 126.6C355 143.3 364.4 165 364.5 188.7C364.5 207.5 358.6 224.9 348.5 239.7H330.8Z" fill="#CF264D"/>
<path d="M330.8 239.7C320.6 224.9 314.7 207.4 314.7 188.7C314.7 165 324 143.3 339.5 126.6C355 143.3 364.4 165 364.5 188.7C364.5 207.5 358.6 224.9 348.5 239.7H330.8Z" fill="#CF264D"/>
<path opacity="0.23" d="M338 126.6C339.2 127.9 340.4 129.3 341.5 130.7C331.1 146.7 325.1 165.5 325 185.5C325 205.3 328 223.8 338.2 239.8H329C318.9 225 313 207.5 313 188.8C313.1 165 322.5 143.3 338 126.6Z" fill="#F4A15D"/>
<path opacity="0.32" d="M338 126.6C338.4 127 338.8 127.5 339.2 128C327.5 145.3 320.8 165.6 320.7 187.4C320.7 206.3 325.8 224.1 334.7 239.8H329C318.9 225 313 207.5 313 188.8C313.1 165 322.5 143.3 338 126.6Z" fill="#F4A15D"/>
<path opacity="0.37" d="M364.5 188.7C364.5 165 355.1 143.4 339.5 126.6C338.3 127.9 337.1 129.3 336 130.7C346.4 146.7 352.4 165.5 352.5 185.5C352.5 205.3 346.7 223.8 336.5 239.8H348.5C358.6 224.9 364.5 207.4 364.5 188.7Z" fill="#A5143A"/>
<path opacity="0.72" d="M364.5 188.7C364.5 165 355.1 143.4 339.5 126.6C339.1 127 338.7 127.5 338.3 128C350 145.3 356.7 165.6 356.8 187.4C356.8 206.3 351.7 224.1 342.8 239.8H348.5C358.6 224.9 364.5 207.4 364.5 188.7Z" fill="#A5143A"/>
<path opacity="0.37" d="M339.5 126.6C338.3 127.9 337.1 129.3 336 130.7C346.4 146.7 352.4 165.5 352.5 185.5C352.5 205.3 346.7 223.8 336.5 239.8H348.5C358.6 225 364.5 207.5 364.5 188.8C364.4 165 355 143.3 339.5 126.6Z" fill="#A5143A"/>
<path opacity="0.72" d="M339.5 126.6C339.1 127 338.7 127.5 338.3 128C350 145.3 356.7 165.6 356.8 187.4C356.8 206.3 351.7 224.1 342.8 239.8H348.5C358.6 225 364.5 207.5 364.5 188.8C364.4 165 355 143.3 339.5 126.6Z" fill="#A5143A"/>
<path d="M352.7 144.6C349 138.1 344.6 132.1 339.5 126.5C334.4 132 330 138.1 326.3 144.6H352.7Z" fill="#601B23"/>
<path d="M330.8 239.7C320.6 224.9 314.7 207.4 314.7 188.7C314.7 165 324 143.3 339.5 126.6C355 143.3 364.4 165 364.5 188.7C364.5 207.5 358.6 224.9 348.5 239.7H330.8Z" stroke="#601B23" stroke-width="6" stroke-miterlimit="10" stroke-linecap="round" stroke-linejoin="round"/>
<path d="M321.3 226.5H354.2" stroke="#601B23" stroke-width="4" stroke-miterlimit="10" stroke-linecap="round" stroke-linejoin="round"/>
<path d="M609.5 210.8L642.1 223.5V161.6L542 83.5V200.6L566.2 213.3C579.1 206.5 594.8 205.1 609.5 210.8Z" fill="#C11A4D"/>
<path opacity="0.72" d="M642.1 223.499L609.7 210.899C609.3 202.299 609.9 193.499 611.5 184.699C613.9 171.499 618.4 159.099 624.6 147.899L642.1 161.599V223.499Z" fill="#A5143A"/>
<path opacity="0.23" d="M638 178.9L542 104.1V83.5L642.1 161.5V223.5L638 221.9V178.9Z" fill="#F4A15D"/>
<path opacity="0.72" d="M581.8 208C576.3 208.9 571.1 210.7 566.2 213.3L542 200.6V83.5L584.2 116.4C586.3 129.1 587.3 142.4 587.3 156.1C587.3 174.2 585.4 191.7 581.8 208Z" fill="#A5143A"/>
<path d="M609.5 210.8L642.1 223.5V161.6L542 83.5V200.6L566.2 213.3C579.1 206.5 594.8 205.1 609.5 210.8Z" stroke="#601B23" stroke-width="6" stroke-miterlimit="10" stroke-linecap="round" stroke-linejoin="round"/>
<path d="M522.9 316.9C522.9 316.9 535 319.5 552.4 336.9C558.7 343.2 568.6 356 575.9 365.7C578.9 369.7 585.3 367.7 585.4 362.7L587.8 256.2C588.3 253.2 587.5 250.1 585.6 247.8L559.4 215.2L522.9 316.9Z" fill="#CF264D"/>
<path opacity="0.72" d="M585.5 364.8C579.8 364 575.5 359.1 575.4 353.3L574.3 254.3C574.8 251.3 574 248.2 572.1 245.9L555.7 225.4L559.4 215.2L585.6 247.8C587.5 250.2 588.3 253.2 587.8 256.2L585.5 364.8Z" fill="#A5143A"/>
<path opacity="0.72" d="M522.9 316.9L559.4 215.2L573.9 233.3C566.1 263.3 553.8 293.8 537.2 324.2C528.4 318.1 522.9 316.9 522.9 316.9Z" fill="#A5143A"/>
<path d="M522.9 316.9C522.9 316.9 535 319.5 552.4 336.9C558.7 343.2 568.6 356 575.9 365.7C578.9 369.7 585.3 367.7 585.4 362.7L587.8 256.2C588.3 253.2 587.5 250.1 585.6 247.8L559.4 215.2L522.9 316.9Z" stroke="#601B23" stroke-width="6" stroke-miterlimit="10" stroke-linecap="round" stroke-linejoin="round"/>
<path d="M522.4 374.1C523.5 362.2 521.9 351 501.9 321.5C498.6 316.8 490.7 316.8 487.4 321.5C467.4 351.1 465.8 362.3 466.9 374.1C467.1 375.6 469.8 377.3 471.5 376.7C483 370.8 506.3 370.8 517.8 376.7C519.5 377.3 522.2 375.7 522.4 374.1Z" fill="#4E8280"/>
<g opacity="0.32">
<g opacity="0.32">
<g opacity="0.32">
<path opacity="0.32" d="M477 374.099C475.9 362.199 477.5 350.999 497.5 321.499C498.1 320.599 498.9 319.899 499.7 319.399C495.9 316.899 490.1 317.599 487.4 321.499C467.4 351.099 465.8 362.299 466.9 374.099C467.1 375.599 469.8 377.299 471.5 376.699C473.2 375.899 475.1 375.099 477.1 374.499C477.1 374.399 477 374.299 477 374.099Z" fill="#F4A15D"/>
</g>
<g opacity="0.32">
<path opacity="0.32" d="M499.7 372.499C506.6 372.999 513.1 374.399 517.8 376.699C519.3 377.299 521.7 375.899 522.3 374.499C515.7 372.599 507.5 371.899 499.7 372.499Z" fill="#F4A15D"/>
</g>
</g>
</g>
<path d="M490.9 321.5C490.6 321.1 490.3 320.8 490 320.5C493.7 316.8 500.6 317.2 503.6 321.5C523.6 351.1 525.2 362.299 524.1 374.099C523.9 375.599 521.2 377.3 519.5 376.7C517.2 375.5 514.4 374.6 511.4 373.9C512.5 362.1 510.8 350.9 490.9 321.5Z" fill="#37605D"/>
<path d="M522.4 374.1C523.5 362.2 521.9 351 501.9 321.5C498.6 316.8 490.7 316.8 487.4 321.5C467.4 351.1 465.8 362.3 466.9 374.1C467.1 375.6 469.8 377.3 471.5 376.7C483 370.8 506.3 370.8 517.8 376.7C519.5 377.3 522.2 375.7 522.4 374.1Z" stroke="#601B23" stroke-width="6" stroke-miterlimit="10" stroke-linecap="round" stroke-linejoin="round"/>
<path d="M517.2 338.2C564.3 261.1 581.4 185.4 570.8 122.3C561.6 67.5 532 28 494.6 3.29999C457.2 28 427.6 67.5 418.4 122.3C407.8 185.4 425 261.1 472 338.2H517.2Z" fill="#CF264D"/>
<path opacity="0.23" d="M454.2 123.399C460.2 73.799 475.8 34.399 496.8 4.89899C496.1 4.39899 495.3 3.89899 494.6 3.39899C457.2 28.099 427.6 67.599 418.4 122.399C407.8 185.499 425 261.199 472 338.299H481.5C455.4 261.199 446.6 187.099 454.2 123.399Z" fill="#F4A15D"/>
<path opacity="0.37" d="M570.8 122.299C561.7 67.899 532.5 28.599 495.4 3.89899C502.3 14.999 511.1 30.999 518.5 51.299C532 88.199 533.5 118.599 534.3 137.699C537.9 223.599 505 318.599 498.1 338.299H517.2C564.3 261.099 581.4 185.399 570.8 122.299Z" fill="#A5143A"/>
<path opacity="0.72" d="M570.8 122.3C561.6 67.5 532 28 494.6 3.29999C493.6 3.89999 492.7 4.60001 491.7 5.20001C505.9 16.3 516.7 28.2 524.9 39.6C598.5 142 527.9 295.3 518.2 315.6C517.8 301.8 516 284.7 510.9 265.6C507.6 253.4 503.6 242.7 499.6 233.6C498.1 267.5 496.6 301.4 495.1 335.3H507.5C507.2 336.3 506.9 337.2 506.5 338.2H517C564.3 261.1 581.4 185.4 570.8 122.3Z" fill="#A5143A"/>
<path opacity="0.32" d="M431 139.7C432.4 123.7 437.6 71.7 469.7 29C474.8 22.3 482.4 13.2 481.8 12.7C480.9 11.9 463.3 27.8 450.8 44.7C435.1 65.8 423.6 91.7 418.5 122.3C407.9 185.4 425.1 261.1 472.1 338.2H476.2C463.3 312.5 454.8 289.3 449 271C445.2 258.7 438.5 236.9 434.3 207.7C431.6 188.1 428.6 167.1 431 139.7Z" fill="#F4A15D"/>
<path opacity="0.72" d="M500 160.299C515.022 160.299 527.2 148.122 527.2 133.099C527.2 118.077 515.022 105.899 500 105.899C484.978 105.899 472.8 118.077 472.8 133.099C472.8 148.122 484.978 160.299 500 160.299Z" fill="#A5143A" stroke="#A5143A" stroke-width="6" stroke-miterlimit="10" stroke-linecap="round" stroke-linejoin="round"/>
<path d="M517.2 338.2C564.3 261.1 581.4 185.4 570.8 122.3C561.6 67.5 532 28 494.6 3.29999C457.2 28 427.6 67.5 418.4 122.3C407.8 185.4 425 261.1 472 338.2H517.2Z" stroke="#601B23" stroke-width="6" stroke-miterlimit="10" stroke-linecap="round" stroke-linejoin="round"/>
<path d="M521.463 133.258C523.869 118.43 513.8 104.458 498.971 102.052C484.143 99.645 470.171 109.715 467.765 124.543C465.358 139.372 475.428 153.343 490.256 155.75C505.085 158.157 519.056 148.087 521.463 133.258Z" fill="#ABCFD8"/>
<path opacity="0.93" d="M490.9 143.8C499.957 143.8 507.3 136.457 507.3 127.4C507.3 118.343 499.957 111 490.9 111C481.843 111 474.5 118.343 474.5 127.4C474.5 136.457 481.843 143.8 490.9 143.8Z" fill="#E2F0F2"/>
<path d="M521.463 133.258C523.869 118.43 513.8 104.458 498.971 102.052C484.143 99.645 470.171 109.715 467.765 124.543C465.358 139.372 475.428 153.343 490.256 155.75C505.085 158.157 519.056 148.087 521.463 133.258Z" stroke="#601B23" stroke-width="6" stroke-miterlimit="10" stroke-linecap="round" stroke-linejoin="round"/>
<path d="M494.6 385C495.7 385 496.6 383.8 496.7 382.2L504.2 259.8C505 247.2 501 235.5 495.1 232.7C494.7 232.5 494.3 232.5 494 232.7C488.1 235.4 484.1 247.1 484.9 259.8L492.4 382.2C492.6 383.8 493.6 385 494.6 385Z" fill="#BC1D4E"/>
<path opacity="0.74" d="M494.6 385C495.7 385 496.6 383.8 496.7 382.2L504.2 259.8C505 247.2 501 235.5 495.1 232.7C494.7 232.5 494.3 232.5 494 232.7C488.1 235.4 484.1 247.1 484.9 259.8L492.4 382.2C492.6 383.8 493.6 385 494.6 385Z" fill="#A5143A"/>
<g opacity="0.53">
<g opacity="0.53">
<g opacity="0.53">
<path opacity="0.53" d="M494.1 232.7C488.2 235.4 484.2 247.1 485 259.8L492.5 382.2C492.6 383.5 493.2 384.6 494 384.9V232.7H494.1Z" fill="#F4A15D"/>
</g>
<g opacity="0.53">
<path opacity="0.53" d="M494.1 232.7H495.2C494.8 232.5 494.4 232.5 494.1 232.7Z" fill="#F4A15D"/>
</g>
</g>
</g>
<path d="M494.6 385C495.7 385 496.6 383.8 496.7 382.2L504.2 259.8C505 247.2 501 235.5 495.1 232.7C494.7 232.5 494.3 232.5 494 232.7C488.1 235.4 484.1 247.1 484.9 259.8L492.4 382.2C492.6 383.8 493.6 385 494.6 385Z" stroke="#601B23" stroke-width="6" stroke-miterlimit="10" stroke-linecap="round" stroke-linejoin="round"/>
<path d="M641.4 239.7C631.2 224.9 625.3 207.4 625.3 188.7C625.3 165 634.6 143.3 650.1 126.6C665.6 143.3 675 165 675.1 188.7C675.1 207.5 669.2 224.9 659.1 239.7H641.4Z" fill="#CF264D"/>
<path d="M641.4 239.7C631.2 224.9 625.3 207.4 625.3 188.7C625.3 165 634.6 143.3 650.1 126.6C665.6 143.3 675 165 675.1 188.7C675.1 207.5 669.2 224.9 659.1 239.7H641.4Z" fill="#CF264D"/>
<path opacity="0.23" d="M648.7 126.6C649.9 127.9 651.1 129.3 652.2 130.7C641.8 146.7 635.8 165.5 635.7 185.5C635.7 205.3 638.7 223.8 648.9 239.8H639.7C629.6 225 623.7 207.5 623.7 188.8C623.7 165 633.1 143.3 648.7 126.6Z" fill="#F4A15D"/>
<path opacity="0.32" d="M648.7 126.6C649.1 127 649.5 127.5 649.9 128C638.2 145.3 631.5 165.6 631.4 187.4C631.4 206.3 636.5 224.1 645.4 239.8H639.7C629.6 225 623.7 207.5 623.7 188.8C623.7 165 633.1 143.3 648.7 126.6Z" fill="#F4A15D"/>
<path opacity="0.37" d="M675.1 188.7C675.1 165 665.7 143.4 650.1 126.6C648.9 127.9 647.7 129.3 646.6 130.7C657 146.7 663 165.5 663.1 185.5C663.1 205.3 657.3 223.8 647.1 239.8H659.1C669.2 224.9 675.1 207.4 675.1 188.7Z" fill="#A5143A"/>
<path opacity="0.72" d="M675.1 188.7C675.1 165 665.7 143.4 650.1 126.6C649.7 127 649.3 127.5 648.9 128C660.6 145.3 667.3 165.6 667.4 187.4C667.4 206.3 662.3 224.1 653.4 239.8H659.1C669.2 224.9 675.1 207.4 675.1 188.7Z" fill="#A5143A"/>
<path opacity="0.37" d="M650.1 126.6C648.9 127.9 647.7 129.3 646.6 130.7C657 146.7 663 165.5 663.1 185.5C663.1 205.3 657.3 223.8 647.1 239.8H659.1C669.2 225 675.1 207.5 675.1 188.8C675.1 165 665.7 143.3 650.1 126.6Z" fill="#A5143A"/>
<path opacity="0.72" d="M650.1 126.6C649.7 127 649.3 127.5 648.9 128C660.6 145.3 667.3 165.6 667.4 187.4C667.4 206.3 662.3 224.1 653.4 239.8H659.1C669.2 225 675.1 207.5 675.1 188.8C675.1 165 665.7 143.3 650.1 126.6Z" fill="#A5143A"/>
<path d="M663.4 144.6C659.7 138.1 655.3 132.1 650.2 126.5C645.1 132 640.7 138.1 637 144.6H663.4Z" fill="#601B23"/>
<path d="M641.4 239.7C631.2 224.9 625.3 207.4 625.3 188.7C625.3 165 634.6 143.3 650.1 126.6C665.6 143.3 675 165 675.1 188.7C675.1 207.5 669.2 224.9 659.1 239.7H641.4Z" stroke="#601B23" stroke-width="6" stroke-miterlimit="10" stroke-linecap="round" stroke-linejoin="round"/>
<path d="M633.8 226.5H666.7" stroke="#601B23" stroke-width="4" stroke-miterlimit="10" stroke-linecap="round" stroke-linejoin="round"/>
<path opacity="0.41" d="M463.8 34.4C463.8 34.4 470.6 23.7 493.7 5.70001C483 20.2 480.9 29.3 480.2 30C473.4 31.3 463.8 34.4 463.8 34.4Z" fill="white"/>
</svg>
