<svg width="651" height="644" fill="none" xmlns="http://www.w3.org/2000/svg"><path opacity=".4" d="M630.432 518.59 492.74 605.421a56.957 56.957 0 0 1-47.809 6.048L294 562.953a56.953 56.953 0 0 0-48.072 6.215l-110.5 70.537a25.806 25.806 0 0 1-38.6-14.736l-95.37-334.34a25.81 25.81 0 0 1 11.03-28.893l139.16-87.949a62.352 62.352 0 0 1 52.4-6.655L350.163 214.1a62.368 62.368 0 0 0 52.566-6.758l104.638-66.589a25.82 25.82 0 0 1 11.232-3.901 25.809 25.809 0 0 1 27.439 18.594l95.355 334.294a25.803 25.803 0 0 1-10.961 28.85Z" fill="#CCCDCF"/><path d="M635.808 483.107 518.23 557.929a62.364 62.364 0 0 1-52.566 6.758l-146.125-46.968a62.373 62.373 0 0 0-52.4 6.654L140.8 604.222a25.807 25.807 0 0 1-32.806-4.377 25.799 25.799 0 0 1-5.794-10.359L6.831 255.146a25.804 25.804 0 0 1 11.029-28.893L157.013 138.3a62.375 62.375 0 0 1 52.4-6.654l146.124 46.969a62.362 62.362 0 0 0 52.566-6.759l104.638-66.588a25.81 25.81 0 0 1 38.671 14.693l95.355 334.292a25.809 25.809 0 0 1-10.959 28.854Z" fill="#fff"/><path d="M305.513 479.926 283.65 418.24l-103.319 35.371-32.307-93.606-84.151 16.748 59 206.834a4.336 4.336 0 0 0 4.184 3.137 4.113 4.113 0 0 0 2.251-.681l120.114-75.913c-.522-.611 56.091-30.204 56.091-30.204Z" fill="#EAF4F7"/><path d="M635.808 483.107 518.23 557.929a62.364 62.364 0 0 1-52.566 6.758l-146.125-46.968a62.373 62.373 0 0 0-52.4 6.654L140.8 604.222a25.807 25.807 0 0 1-32.806-4.377 25.799 25.799 0 0 1-5.794-10.359L6.831 255.146a25.804 25.804 0 0 1 11.029-28.893L157.013 138.3a62.375 62.375 0 0 1 52.4-6.654l146.124 46.969a62.362 62.362 0 0 0 52.566-6.759l104.638-66.588a25.81 25.81 0 0 1 38.671 14.693l95.355 334.292a25.809 25.809 0 0 1-10.959 28.854Z" stroke="#363A5A" stroke-width="6" stroke-miterlimit="10"/><path d="M197.066 441.575s1.792-.467 4.812-1.349" stroke="#363A5A" stroke-width="4" stroke-linecap="round" stroke-linejoin="round"/><path d="M216.416 435.572c21.234-7.387 52.394-20.943 52.768-36.975.5-21.3-102.732-127.866-47.233-134.308 185.288-21.506 102.267 132.6 186.772 129.156 35.7-1.455-30.321-50.539 71.682-86.018 15.121-5.26 7.609-43.716 2.536-63.822" stroke="#363A5A" stroke-width="4" stroke-linecap="round" stroke-linejoin="round" stroke-dasharray="10.18 15.26"/><path d="M480.979 236.226c-.844-3.017-1.4-4.8-1.4-4.8" stroke="#363A5A" stroke-width="4" stroke-linecap="round" stroke-linejoin="round"/><path opacity=".22" d="M190.612 492.37c26.616 0 48.192-21.576 48.192-48.192 0-26.615-21.576-48.192-48.192-48.192s-48.192 21.577-48.192 48.192c0 26.616 21.576 48.192 48.192 48.192Z" fill="#3DC0CB"/><path d="M190.612 472.124c15.434 0 27.946-12.511 27.946-27.946 0-15.434-12.512-27.946-27.946-27.946-15.434 0-27.946 12.512-27.946 27.946 0 15.435 12.512 27.946 27.946 27.946Z" fill="#3DC0CB"/><path d="M190.612 416.232a27.916 27.916 0 0 0-12.354 2.876 27.923 27.923 0 0 0-9.804 8.048 27.94 27.94 0 0 1 43.614 21.702 27.937 27.937 0 0 1-5.754 18.437 27.947 27.947 0 0 0 11.009-31.329 27.945 27.945 0 0 0-26.709-19.734h-.002Z" fill="#64C7CF"/><path d="M190.612 472.124c15.434 0 27.946-12.511 27.946-27.946 0-15.434-12.512-27.946-27.946-27.946-15.434 0-27.946 12.512-27.946 27.946 0 15.435 12.512 27.946 27.946 27.946Z" stroke="#363A5A" stroke-width="6" stroke-miterlimit="10"/><path d="m203.347 194.84 80.153 15.193-18.407-32.352-66.339-23.145a30.949 30.949 0 0 0-23.645 1.352L29.342 244.431a4.326 4.326 0 0 0-1.839 4.816l23.508 82.412 64.089-15.847-11.77-47.212 100.017-73.76Z" fill="#87D5F7" stroke="#259AD6" stroke-width="4" stroke-linecap="round" stroke-linejoin="round"/><path d="m330.37 398.929 45.739 11.516 22.113 50.681-49.273-8.077-18.579-54.12Z" fill="#FDDCBF" stroke="#ECB072" stroke-width="4" stroke-linecap="round" stroke-linejoin="round"/><path d="M480.426 247.11c-37.157 0-67.278-10.776-67.278-24.069s30.121-24.07 67.278-24.07c37.157 0 67.277 10.777 67.277 24.07 0 13.293-30.121 24.069-67.277 24.069Z" fill="#EAF4F7"/><path d="m501.538 383.486 83.927-36.534 33.155 101.009-135.902 77.232-24.91-70.3 53.14-29.891-9.41-41.516Z" fill="#FDDCBF" stroke="#ECB072" stroke-width="4" stroke-linecap="round" stroke-linejoin="round"/><path d="M579.481 105.681c0-57.8-46.914-104.344-103.761-101.642-50.9 2.42-94.292 45.782-94.292 98.124 0 75.717 99 134.1 99 134.1s99.053-58.383 99.053-130.582Z" fill="#EE4637"/><path d="M516.585 206.964a44.192 44.192 0 0 1-54.6-.188c-29.3-23.2-71.677-65.323-71.677-114.86a96.3 96.3 0 0 1 19.808-58.17c-17.573 17.746-28.689 41.93-28.689 68.417 0 75.717 99 134.1 99 134.1s40.374-23.8 69.571-59.8a282.937 282.937 0 0 1-33.413 30.501Z" fill="#CD3C27"/><path d="M475.72 4.039a97.975 97.975 0 0 0-49.9 16.723 96.748 96.748 0 0 1 37.234-9.485c56.847-2.7 103.762 43.841 103.762 101.642 0 56.61-60.894 104.724-87.192 122.863.515.314.8.484.8.484s99.055-58.386 99.055-130.585c.002-57.8-46.912-104.344-103.759-101.642Z" fill="#F07378"/><path d="M480.426 144.605a40.757 40.757 0 0 1-7.953-80.729 40.75 40.75 0 0 1 41.839 17.33 40.75 40.75 0 0 1-5.068 51.461 40.756 40.756 0 0 1-28.818 11.938Z" fill="#fff"/><path d="M480.426 144.605a40.757 40.757 0 0 1-7.953-80.729 40.75 40.75 0 0 1 41.839 17.33 40.75 40.75 0 0 1-5.068 51.461 40.756 40.756 0 0 1-28.818 11.938Z" stroke="#363A5A" stroke-width="6" stroke-miterlimit="10"/><path d="M579.481 105.681c0-57.8-46.914-104.344-103.761-101.642-50.9 2.42-94.292 45.782-94.292 98.124 0 75.717 99 134.1 99 134.1s99.053-58.383 99.053-130.582Z" stroke="#363A5A" stroke-width="6" stroke-linecap="round" stroke-linejoin="round"/></svg>