<svg width="808" height="873" fill="none" xmlns="http://www.w3.org/2000/svg"><g opacity=".39" fill="#fff"><path opacity=".39" d="M48.133 351.112c11.26 0 20.388-9.128 20.388-20.388 0-11.26-9.128-20.388-20.388-20.388-11.26 0-20.388 9.128-20.388 20.388 0 11.26 9.128 20.388 20.388 20.388Z"/><path opacity=".39" d="M48.133 339.462a8.738 8.738 0 0 0 8.738-8.738 8.738 8.738 0 0 0-8.738-8.738 8.738 8.738 0 0 0-8.738 8.738 8.738 8.738 0 0 0 8.738 8.738Z"/><path opacity=".39" d="m79.878 301.476-12.612 7.282.019.032a29.101 29.101 0 0 0-2.907-2.232l.034.01L68.18 292.5a4.37 4.37 0 0 0-3.089-5.351l-9.847-2.638a4.366 4.366 0 0 0-5.35 3.089l-3.77 14.067h.022a29.07 29.07 0 0 0-3.6.474l.016-.01-7.281-12.611a4.355 4.355 0 0 0-2.652-2.036 4.363 4.363 0 0 0-3.316.436l-8.828 5.1a4.366 4.366 0 0 0-1.6 5.967l7.28 12.612.017-.009a29.15 29.15 0 0 0-2.212 2.884l.006-.02-14.067-3.77a4.37 4.37 0 0 0-5.35 3.09l-2.64 9.846a4.37 4.37 0 0 0 3.09 5.351l14.067 3.769.009-.034c.083 1.22.243 2.433.479 3.633l-.018-.032-12.612 7.281a4.372 4.372 0 0 0-1.6 5.968l5.1 8.828a4.37 4.37 0 0 0 5.968 1.6l12.61-7.281-.027-.048a28.969 28.969 0 0 0 2.944 2.255l-.061-.016-3.77 14.066a4.37 4.37 0 0 0 3.09 5.351l9.847 2.638a4.366 4.366 0 0 0 5.35-3.089l3.769-14.067-.074-.02a28.691 28.691 0 0 0 3.706-.487l-.065.038 7.282 12.611a4.37 4.37 0 0 0 5.968 1.6l8.828-5.1a4.37 4.37 0 0 0 1.6-5.967l-7.281-12.612-.065.037a28.673 28.673 0 0 0 2.275-2.966l-.02.074 14.066 3.77a4.376 4.376 0 0 0 4.597-1.561c.35-.455.606-.975.754-1.529l2.638-9.846a4.357 4.357 0 0 0-.436-3.315 4.37 4.37 0 0 0-2.653-2.036L77.2 328.72l-.017.061a28.789 28.789 0 0 0-.481-3.677l.028.049 12.612-7.281a4.372 4.372 0 0 0 1.6-5.968l-5.1-8.828a4.367 4.367 0 0 0-5.964-1.6Z"/></g><path opacity=".39" d="M172.744 144.406c28.469 0 51.548-23.079 51.548-51.548 0-28.47-23.079-51.548-51.548-51.548s-51.548 23.078-51.548 51.548c0 28.469 23.079 51.548 51.548 51.548Z" fill="#fff"/><path d="m172.036 93.418 27.847-16.182-.086 30.273-27.847 16.183.086-30.274Z" stroke="#1E223B" stroke-width="2" stroke-linecap="round" stroke-linejoin="round"/><path d="m145.69 78.208 27.847-16.183 26.346 15.211-27.847 16.182-26.346-15.21Z" stroke="#1E223B" stroke-width="2" stroke-linecap="round" stroke-linejoin="round"/><path d="m145.69 78.208 27.847-16.183 26.346 15.211-27.847 16.182-26.346-15.21Z" fill="#028B9E" stroke="#1E223B" stroke-width="2" stroke-linecap="round" stroke-linejoin="round"/><path opacity=".4" d="m172.036 93.418-.086 30.274-26.346-15.211.086-30.273 26.346 15.21Z" fill="#028B9E" stroke="#1E223B" stroke-width="2" stroke-linecap="round" stroke-linejoin="round"/><path d="m172.036 93.418-.086 30.274-26.346-15.211.086-30.273 26.346 15.21Z" stroke="#1E223B" stroke-width="2" stroke-linecap="round" stroke-linejoin="round"/><path d="M172.744 144.406c28.469 0 51.548-23.079 51.548-51.548 0-28.47-23.079-51.548-51.548-51.548s-51.548 23.078-51.548 51.548c0 28.469 23.079 51.548 51.548 51.548Z" stroke="#1E223B" stroke-width="2" stroke-linecap="round" stroke-linejoin="round"/><g style="mix-blend-mode:multiply" opacity=".11"><path d="M531.5 493.737h-282c-9.941 0-18 8.059-18 18v202c0 9.941 8.059 18 18 18h282c9.941 0 18-8.059 18-18v-202c0-9.941-8.059-18-18-18Z" fill="#161616"/><path d="M531.5 493.737h-282c-9.941 0-18 8.059-18 18v202c0 9.941 8.059 18 18 18h282c9.941 0 18-8.059 18-18v-202c0-9.941-8.059-18-18-18Z" stroke="#1E223B" stroke-miterlimit="10"/></g><g style="mix-blend-mode:multiply" opacity=".11"><path d="M542.5 479.737h-304a7 7 0 1 0 0 14h304a7 7 0 1 0 0-14Z" fill="#161616"/><path d="M542.5 479.737h-304a7 7 0 1 0 0 14h304a7 7 0 1 0 0-14Z" stroke="#1E223B" stroke-miterlimit="10"/></g><path d="M521.5 485.737h-282c-9.941 0-18 8.059-18 18v202c0 9.941 8.059 18 18 18h282c9.941 0 18-8.059 18-18v-202c0-9.941-8.059-18-18-18Z" fill="#2F4584"/><path d="M521.5 485.737h-282c-9.941 0-18 8.059-18 18v196c0 9.941 8.059 18 18 18h282c9.941 0 18-8.059 18-18v-196c0-9.941-8.059-18-18-18Z" fill="#fff"/><g style="mix-blend-mode:multiply" opacity=".11"><path d="M428 703.566h-1.5a5.998 5.998 0 0 0-6 6v7.172a3 3 0 1 1-6 0v-7.172a5.996 5.996 0 0 0-1.758-4.242 5.996 5.996 0 0 0-4.242-1.758H407a5.998 5.998 0 0 0-6 6v7.172a3 3 0 1 1-6 0v-7.172a5.996 5.996 0 0 0-1.758-4.242 5.996 5.996 0 0 0-4.242-1.758h-1.5a5.998 5.998 0 0 0-6 6v7.172a3 3 0 1 1-6 0v-45a5.996 5.996 0 0 0-1.758-4.242 5.996 5.996 0 0 0-4.242-1.758H368a5.998 5.998 0 0 0-6 6v78.433l-11.508-19.933a5.993 5.993 0 0 0-3.644-2.799 5.987 5.987 0 0 0-4.556.599l-1.3.75a6.009 6.009 0 0 0-2.8 3.644 6.006 6.006 0 0 0 .6 4.556l24.044 41.645a12.002 12.002 0 0 0 11.156 7.6h2v24.653h-3.949v24.866h-1.933a6.487 6.487 0 0 0-6.486 6.486V872.5h68.757v-30.262a6.487 6.487 0 0 0-6.486-6.486h-1.943v-24.866H420v-24.653h2a12 12 0 0 0 12-12v-64.667a5.996 5.996 0 0 0-1.758-4.242 5.996 5.996 0 0 0-4.242-1.758Z" fill="#161616"/><path d="M428 703.566h-1.5a5.998 5.998 0 0 0-6 6v7.172a3 3 0 1 1-6 0v-7.172a5.996 5.996 0 0 0-1.758-4.242 5.996 5.996 0 0 0-4.242-1.758H407a5.998 5.998 0 0 0-6 6v7.172a3 3 0 1 1-6 0v-7.172a5.996 5.996 0 0 0-1.758-4.242 5.996 5.996 0 0 0-4.242-1.758h-1.5a5.998 5.998 0 0 0-6 6v7.172a3 3 0 1 1-6 0v-45a5.996 5.996 0 0 0-1.758-4.242 5.996 5.996 0 0 0-4.242-1.758H368a5.998 5.998 0 0 0-6 6v78.433l-11.508-19.933a5.993 5.993 0 0 0-3.644-2.799 5.987 5.987 0 0 0-4.556.599l-1.3.75a6.009 6.009 0 0 0-2.8 3.644 6.006 6.006 0 0 0 .6 4.556l24.044 41.645a12.002 12.002 0 0 0 11.156 7.6h2v24.653h-3.949v24.866h-1.933a6.487 6.487 0 0 0-6.486 6.486V872.5h68.757v-30.262a6.487 6.487 0 0 0-6.486-6.486h-1.943v-24.866H420v-24.653h2a12 12 0 0 0 12-12v-64.667a5.996 5.996 0 0 0-1.758-4.242 5.996 5.996 0 0 0-4.242-1.758Z" stroke="#1E223B" stroke-miterlimit="10"/></g><g style="mix-blend-mode:multiply" opacity=".11"><path d="M313.064 699.737a12.001 12.001 0 0 0 11.947-10.93l22.121-38.315a5.995 5.995 0 0 0 .6-4.556 6.022 6.022 0 0 0-1.037-2.101 6.02 6.02 0 0 0-1.763-1.543l-1.3-.75a5.99 5.99 0 0 0-4.556-.6 6.03 6.03 0 0 0-2.101 1.037 6.02 6.02 0 0 0-1.543 1.763l-10.375 17.971v-76.472a6.002 6.002 0 0 0-6-6h-1.5a6.002 6.002 0 0 0-6 6v45c0 .796-.316 1.559-.879 2.121a2.996 2.996 0 0 1-4.242 0 2.996 2.996 0 0 1-.879-2.121v-53.694a6.002 6.002 0 0 0-6-6h-1.5a6.002 6.002 0 0 0-6 6v53.695c0 .796-.316 1.559-.879 2.121a2.996 2.996 0 0 1-4.242 0 2.996 2.996 0 0 1-.879-2.121v-45a6.002 6.002 0 0 0-6-6h-1.5a6.002 6.002 0 0 0-6 6v45c0 .796-.316 1.559-.879 2.121a2.996 2.996 0 0 1-4.242 0 2.996 2.996 0 0 1-.879-2.121v-30.75a6.002 6.002 0 0 0-6-6h-1.5a6.002 6.002 0 0 0-6 6v88.245a11.998 11.998 0 0 0 12 12h2.58v24.653h-4.529v24.865h-1.943a6.487 6.487 0 0 0-6.487 6.487V872.5h68.758V755.742a6.483 6.483 0 0 0-6.487-6.487h-1.943V724.39h-3.369v-24.653h1.427Z" fill="#161616"/><path d="M313.064 699.737a12.001 12.001 0 0 0 11.947-10.93l22.121-38.315a5.995 5.995 0 0 0 .6-4.556 6.022 6.022 0 0 0-1.037-2.101 6.02 6.02 0 0 0-1.763-1.543l-1.3-.75a5.99 5.99 0 0 0-4.556-.6 6.03 6.03 0 0 0-2.101 1.037 6.02 6.02 0 0 0-1.543 1.763l-10.375 17.971v-76.472a6.002 6.002 0 0 0-6-6h-1.5a6.002 6.002 0 0 0-6 6v45c0 .796-.316 1.559-.879 2.121a2.996 2.996 0 0 1-4.242 0 2.996 2.996 0 0 1-.879-2.121v-53.694a6.002 6.002 0 0 0-6-6h-1.5a6.002 6.002 0 0 0-6 6v53.695c0 .796-.316 1.559-.879 2.121a2.996 2.996 0 0 1-4.242 0 2.996 2.996 0 0 1-.879-2.121v-45a6.002 6.002 0 0 0-6-6h-1.5a6.002 6.002 0 0 0-6 6v45c0 .796-.316 1.559-.879 2.121a2.996 2.996 0 0 1-4.242 0 2.996 2.996 0 0 1-.879-2.121v-30.75a6.002 6.002 0 0 0-6-6h-1.5a6.002 6.002 0 0 0-6 6v88.245a11.998 11.998 0 0 0 12 12h2.58v24.653h-4.529v24.865h-1.943a6.487 6.487 0 0 0-6.487 6.487V872.5h68.758V755.742a6.483 6.483 0 0 0-6.487-6.487h-1.943V724.39h-3.369v-24.653h1.427Z" stroke="#1E223B" stroke-miterlimit="10"/></g><path opacity=".15" d="M521 503.237H240a4 4 0 0 0-4 4v113a4 4 0 0 0 4 4h281a4 4 0 0 0 4-4v-113a4 4 0 0 0-4-4Z" fill="#1E223B" stroke="#1E223B" stroke-width="2" stroke-miterlimit="11"/><path d="M521.5 485.737h-282c-9.941 0-18 8.059-18 18v196c0 9.941 8.059 18 18 18h282c9.941 0 18-8.059 18-18v-196c0-9.941-8.059-18-18-18Z" stroke="#1E223B" stroke-width="2" stroke-linecap="round" stroke-linejoin="round"/><path d="M521.5 485.737h-282c-9.941 0-18 8.059-18 18v202c0 9.941 8.059 18 18 18h282c9.941 0 18-8.059 18-18v-202c0-9.941-8.059-18-18-18Z" stroke="#1E223B" stroke-width="2" stroke-linecap="round" stroke-linejoin="round"/><path d="M521.5 253.737h-282c-9.941 0-18 8.059-18 18v196c0 9.941 8.059 18 18 18h282c9.941 0 18-8.059 18-18v-196c0-9.941-8.059-18-18-18Z" fill="#2F4584"/><path d="M521.5 253.737h-282c-9.941 0-18 8.059-18 18v196c0 9.941 8.059 18 18 18h282c9.941 0 18-8.059 18-18v-196c0-9.941-8.059-18-18-18Z" stroke="#1E223B" stroke-width="2" stroke-linecap="round" stroke-linejoin="round"/><path d="M533.501 467.737v-196c0-6.627-5.373-12-12-12h-282c-6.627 0-12 5.373-12 12v196c0 6.628 5.373 12 12 12h282c6.627 0 12-5.372 12-12Z" fill="#fff"/><path d="M509.501 455.737v-172h-258v172h258Z" fill="#FF5855" stroke="#1E223B" stroke-miterlimit="10"/><path d="M533.501 467.737v-196c0-6.627-5.373-12-12-12h-282c-6.627 0-12 5.373-12 12v196c0 6.628 5.373 12 12 12h282c6.627 0 12-5.372 12-12Z" stroke="#1E223B" stroke-width="2" stroke-linecap="round" stroke-linejoin="round"/><path d="M509.501 455.737v-172h-258v172h258Z" stroke="#1E223B" stroke-width="2" stroke-linecap="round" stroke-linejoin="round"/><path opacity=".1" d="M419.25 633.737h-77.5a4.25 4.25 0 0 0-4.25 4.25v51.5a4.25 4.25 0 0 0 4.25 4.25h77.5a4.25 4.25 0 0 0 4.25-4.25v-51.5a4.25 4.25 0 0 0-4.25-4.25Z" fill="#1E223B"/><path d="M419.25 633.737h-77.5a4.25 4.25 0 0 0-4.25 4.25v51.5a4.25 4.25 0 0 0 4.25 4.25h77.5a4.25 4.25 0 0 0 4.25-4.25v-51.5a4.25 4.25 0 0 0-4.25-4.25Z" stroke="#1E223B" stroke-width="2" stroke-linecap="round" stroke-linejoin="round"/><path d="M419 715.737h-76v8h76v-8Z" fill="#263C72"/><path d="M419 715.737h-76v8h76v-8Z" stroke="#1E223B" stroke-width="2" stroke-linecap="round" stroke-linejoin="round"/><g style="mix-blend-mode:multiply" opacity=".11"><path d="M481.5 229.737h-188a6 6 0 0 0-6 6v212a6 6 0 0 0 6 6h188a6 6 0 0 0 6-6v-212a6 6 0 0 0-6-6Z" fill="#161616"/><path d="M481.5 229.737h-188a6 6 0 0 0-6 6v212a6 6 0 0 0 6 6h188a6 6 0 0 0 6-6v-212a6 6 0 0 0-6-6Z" stroke="#1E223B" stroke-miterlimit="10"/></g><path d="M476 225.737H288a6 6 0 0 0-6 6v212a6 6 0 0 0 6 6h188a6 6 0 0 0 6-6v-212a6 6 0 0 0-6-6Z" fill="#fff"/><path d="M282 415.737h200v28a6 6 0 0 1-6 6H288a6 6 0 0 1-6-6v-28Z" fill="#EFEFEF"/><path d="M476 225.737H288a6 6 0 0 0-6 6v212a6 6 0 0 0 6 6h188a6 6 0 0 0 6-6v-212a6 6 0 0 0-6-6Z" stroke="#1E223B" stroke-width="2" stroke-linecap="round" stroke-linejoin="round"/><path d="M287.427 225.737h189.146a5.42 5.42 0 0 1 3.838 1.59 5.436 5.436 0 0 1 1.589 3.838v12.573H282v-12.573a5.427 5.427 0 0 1 5.427-5.428Z" fill="#363D56"/><path d="M287.427 225.737h189.146a5.42 5.42 0 0 1 3.838 1.59 5.436 5.436 0 0 1 1.589 3.838v12.573H282v-12.573a5.427 5.427 0 0 1 5.427-5.428Z" stroke="#1E223B" stroke-width="2" stroke-linecap="round" stroke-linejoin="round"/><path d="M482 243.737H282v8h200v-8Z" fill="#424960"/><path d="M482 243.737H282v8h200v-8Z" stroke="#1E223B" stroke-width="2" stroke-linecap="round" stroke-linejoin="round"/><path d="M293.167 237.737a3 3 0 1 0 0-6 3 3 0 0 0 0 6Z" fill="#F73E39"/><path d="M293.167 237.737a3 3 0 1 0 0-6 3 3 0 0 0 0 6Z" stroke="#1E223B" stroke-width="2" stroke-linecap="round" stroke-linejoin="round"/><path d="M305.435 237.737a3 3 0 1 0 0-6 3 3 0 0 0 0 6Z" fill="#383838"/><path d="M305.435 237.737a3 3 0 1 0 0-6 3 3 0 0 0 0 6Z" stroke="#1E223B" stroke-width="2" stroke-linecap="round" stroke-linejoin="round"/><path d="M316.662 237.737a3 3 0 1 0 0-6 3 3 0 0 0 0 6Z" fill="#C6C6C6"/><path d="M316.662 237.737a3 3 0 1 0 0-6 3 3 0 0 0 0 6Z" stroke="#1E223B" stroke-width="2" stroke-linecap="round" stroke-linejoin="round"/><path opacity=".28" d="M395.5 231.737h-62a3 3 0 1 0 0 6h62a3 3 0 1 0 0-6Z" fill="#8289A3"/><path d="M48.133 351.112c11.26 0 20.388-9.128 20.388-20.388 0-11.26-9.128-20.388-20.388-20.388-11.26 0-20.388 9.128-20.388 20.388 0 11.26 9.128 20.388 20.388 20.388Z" stroke="#1E223B" stroke-width="2" stroke-linecap="round" stroke-linejoin="round"/><path d="M48.133 339.462a8.738 8.738 0 0 0 8.738-8.738 8.738 8.738 0 0 0-8.738-8.738 8.738 8.738 0 0 0-8.738 8.738 8.738 8.738 0 0 0 8.738 8.738Z" stroke="#1E223B" stroke-width="2" stroke-linecap="round" stroke-linejoin="round"/><path d="m79.878 301.476-12.612 7.282.019.032a29.101 29.101 0 0 0-2.907-2.232l.034.01L68.18 292.5a4.37 4.37 0 0 0-3.089-5.351l-9.847-2.638a4.366 4.366 0 0 0-5.35 3.089l-3.77 14.067h.022a29.07 29.07 0 0 0-3.6.474l.016-.01-7.281-12.611a4.355 4.355 0 0 0-2.652-2.036 4.363 4.363 0 0 0-3.316.436l-8.828 5.1a4.366 4.366 0 0 0-1.6 5.967l7.28 12.612.017-.009a29.15 29.15 0 0 0-2.212 2.884l.006-.02-14.067-3.77a4.37 4.37 0 0 0-5.35 3.09l-2.64 9.846a4.37 4.37 0 0 0 3.09 5.351l14.067 3.769.009-.034c.083 1.22.243 2.433.479 3.633l-.018-.032-12.612 7.281a4.372 4.372 0 0 0-1.6 5.968l5.1 8.828a4.37 4.37 0 0 0 5.968 1.6l12.61-7.281-.027-.048a28.969 28.969 0 0 0 2.944 2.255l-.061-.016-3.77 14.066a4.37 4.37 0 0 0 3.09 5.351l9.847 2.638a4.366 4.366 0 0 0 5.35-3.089l3.769-14.067-.074-.02a28.691 28.691 0 0 0 3.706-.487l-.065.038 7.282 12.611a4.37 4.37 0 0 0 5.968 1.6l8.828-5.1a4.37 4.37 0 0 0 1.6-5.967l-7.281-12.612-.065.037a28.673 28.673 0 0 0 2.275-2.966l-.02.074 14.066 3.77a4.376 4.376 0 0 0 4.597-1.561c.35-.455.606-.975.754-1.529l2.638-9.846a4.357 4.357 0 0 0-.436-3.315 4.37 4.37 0 0 0-2.653-2.036L77.2 328.72l-.017.061a28.789 28.789 0 0 0-.481-3.677l.028.049 12.612-7.281a4.372 4.372 0 0 0 1.6-5.968l-5.1-8.828a4.367 4.367 0 0 0-5.964-1.6Z" stroke="#1E223B" stroke-width="2" stroke-linecap="round" stroke-linejoin="round"/><g opacity=".32" stroke="#1E223B" stroke-linecap="round" stroke-linejoin="round"><path opacity=".32" d="M321.942 293.013a7.72 7.72 0 1 0-.002-15.442 7.72 7.72 0 0 0 .002 15.442Z"/><path opacity=".32" d="M321.942 288.601a3.309 3.309 0 1 0 0-6.618 3.309 3.309 0 0 0 0 6.618Z"/><path opacity=".32" d="m338.274 285.961-5.327-1.427v.014a10.975 10.975 0 0 0-.18-1.376l.006.011 4.776-2.757a1.655 1.655 0 0 0 .6-2.26l-1.93-3.342a1.652 1.652 0 0 0-2.259-.606l-4.776 2.757v.007a10.937 10.937 0 0 0-1.092-.838h.007l1.427-5.327a1.656 1.656 0 0 0-1.169-2.026l-3.729-1a1.653 1.653 0 0 0-2.026 1.17l-1.427 5.326h.007c-.458.031-.914.091-1.365.18h.007l-2.757-4.775a1.655 1.655 0 0 0-2.26-.606l-3.343 1.93a1.651 1.651 0 0 0-.605 2.26l2.757 4.776.011-.007c-.304.348-.586.716-.844 1.1v-.014l-5.326-1.427a1.647 1.647 0 0 0-1.741.591 1.65 1.65 0 0 0-.285.579l-1 3.728a1.653 1.653 0 0 0 1.17 2.027l5.326 1.427.006-.021c.031.467.093.932.184 1.392l-.012-.02-4.776 2.757a1.646 1.646 0 0 0-.771 1.004 1.666 1.666 0 0 0 .166 1.256l1.93 3.342a1.646 1.646 0 0 0 1.004.771 1.67 1.67 0 0 0 1.256-.165l4.775-2.757-.014-.025c.355.311.73.598 1.122.861l-.027-.007-1.427 5.327a1.644 1.644 0 0 0 .165 1.255 1.664 1.664 0 0 0 1.005.771l3.728 1a1.658 1.658 0 0 0 2.026-1.17l1.433-5.327-.027-.007c.47-.032.938-.094 1.4-.185l-.025.015 2.757 4.775a1.655 1.655 0 0 0 2.26.606l3.343-1.93a1.653 1.653 0 0 0 .605-2.26l-2.757-4.776-.02.012c.308-.353.594-.725.855-1.113v.02l5.326 1.428a1.658 1.658 0 0 0 2.026-1.17l1-3.729a1.654 1.654 0 0 0-1.169-2.025Z"/></g><g opacity=".49" fill="#fff"><path opacity=".49" d="M702.171 140.726c10.547 0 19.096-8.55 19.096-19.096 0-10.547-8.549-19.096-19.096-19.096-10.546 0-19.096 8.549-19.096 19.096 0 10.546 8.55 19.096 19.096 19.096Z"/><path opacity=".49" d="M702.171 129.814a8.184 8.184 0 1 0 0-16.368 8.184 8.184 0 0 0 0 16.368Z"/><path opacity=".49" d="m731.905 94.236-11.813 6.82.018.03a27.003 27.003 0 0 0-2.723-2.09l.032.009 3.53-13.176a4.09 4.09 0 0 0-2.893-5.011l-9.223-2.471a4.076 4.076 0 0 0-3.105.408 4.106 4.106 0 0 0-1.907 2.485l-3.53 13.175.02.006a26.84 26.84 0 0 0-3.376.443l.015-.009-6.82-11.812a4.088 4.088 0 0 0-5.59-1.5l-8.269 4.774a4.077 4.077 0 0 0-1.908 2.484 4.095 4.095 0 0 0 .408 3.106l6.82 11.812.015-.009a26.837 26.837 0 0 0-2.072 2.7v-.019l-13.175-3.531a4.09 4.09 0 0 0-5.012 2.894l-2.471 9.223a4.091 4.091 0 0 0 2.894 5.011l13.175 3.53.008-.031a27.23 27.23 0 0 0 .449 3.4l-.017-.03-11.813 6.82a4.088 4.088 0 0 0-1.5 5.589l4.774 8.269a4.093 4.093 0 0 0 5.59 1.5l11.812-6.82-.026-.046a27.275 27.275 0 0 0 2.757 2.113l-.057-.016-3.53 13.176a4.095 4.095 0 0 0 .409 3.104 4.077 4.077 0 0 0 2.484 1.907l9.223 2.471a4.095 4.095 0 0 0 5.012-2.893l3.53-13.175-.069-.019a27.033 27.033 0 0 0 3.47-.456l-.06.035 6.82 11.812c.269.465.626.873 1.052 1.201a4.1 4.1 0 0 0 4.538.299l8.268-4.774a4.08 4.08 0 0 0 1.908-2.485 4.076 4.076 0 0 0-.408-3.105l-6.82-11.812-.06.035a27.151 27.151 0 0 0 2.13-2.778l-.018.069 13.175 3.531a4.095 4.095 0 0 0 5.012-2.894l2.471-9.222a4.092 4.092 0 0 0-2.894-5.012l-13.175-3.53-.015.057a26.956 26.956 0 0 0-.451-3.444l.026.045 11.813-6.82a4.092 4.092 0 0 0 1.5-5.589l-4.763-8.266a4.099 4.099 0 0 0-2.487-1.909 4.086 4.086 0 0 0-3.108.411Z"/></g><path d="M702.178 140.725c10.546 0 19.096-8.549 19.096-19.096 0-10.546-8.55-19.096-19.096-19.096s-19.096 8.55-19.096 19.096c0 10.547 8.55 19.096 19.096 19.096Z" stroke="#1E223B" stroke-width="2" stroke-linecap="round" stroke-linejoin="round"/><path d="M702.178 129.813a8.184 8.184 0 1 0 0-16.368 8.184 8.184 0 0 0 0 16.368Z" stroke="#1E223B" stroke-width="2" stroke-linecap="round" stroke-linejoin="round"/><path d="m742.573 123.284-13.175-3.53-.009.033a27.2 27.2 0 0 0-.447-3.4l.016.028 11.813-6.82a4.104 4.104 0 0 0 1.908-2.484 4.095 4.095 0 0 0-.408-3.105l-4.771-8.272a4.095 4.095 0 0 0-5.59-1.5l-11.813 6.82.01.018a26.71 26.71 0 0 0-2.7-2.074h.017l3.53-13.176a4.094 4.094 0 0 0-2.894-5.011l-9.222-2.471a4.095 4.095 0 0 0-4.306 1.461 4.09 4.09 0 0 0-.706 1.432l-3.53 13.175h.017a27.006 27.006 0 0 0-3.376.445l.018-.01-6.82-11.812a4.095 4.095 0 0 0-5.59-1.5l-8.269 4.774a4.077 4.077 0 0 0-1.908 2.484 4.096 4.096 0 0 0 .408 3.106l6.82 11.812.028-.016a27.14 27.14 0 0 0-2.089 2.723l.009-.033-13.175-3.531a4.09 4.09 0 0 0-5.012 2.894l-2.471 9.222a4.09 4.09 0 0 0 2.893 5.012l13.176 3.53.013-.05c.079 1.156.231 2.306.456 3.443l-.029-.051-11.813 6.82a4.077 4.077 0 0 0-1.908 2.483 4.101 4.101 0 0 0 .408 3.106l4.774 8.269a4.09 4.09 0 0 0 5.59 1.5l11.812-6.82-.035-.062a27.182 27.182 0 0 0 2.777 2.131l-.068-.018-3.53 13.175a4.095 4.095 0 0 0 .408 3.105 4.104 4.104 0 0 0 2.485 1.907l9.223 2.471a4.095 4.095 0 0 0 3.105-.408 4.104 4.104 0 0 0 1.906-2.485l3.531-13.175-.068-.018a27.206 27.206 0 0 0 3.471-.458l-.062.036 6.82 11.812a4.09 4.09 0 0 0 5.59 1.5l8.268-4.774a4.092 4.092 0 0 0 1.5-5.59l-6.82-11.812-.051.03a27.133 27.133 0 0 0 2.116-2.755l-.013.051 13.175 3.531a4.095 4.095 0 0 0 5.012-2.894l2.471-9.222a4.091 4.091 0 0 0-2.896-5.002Z" stroke="#1E223B" stroke-width="2" stroke-linecap="round" stroke-linejoin="round"/><path d="M457.47 123.288h-26.2l-27.34 18.227v-18.227h-19.366a9.113 9.113 0 0 1-9.113-9.113V64.052a9.113 9.113 0 0 1 9.113-9.113h72.906a9.116 9.116 0 0 1 9.114 9.113v50.123a9.116 9.116 0 0 1-9.114 9.113Z" fill="#fff"/><path d="M457.47 123.288h-26.2l-27.34 18.227v-18.227h-19.366a9.113 9.113 0 0 1-9.113-9.113V64.052a9.113 9.113 0 0 1 9.113-9.113h72.906a9.116 9.116 0 0 1 9.114 9.113v50.123a9.116 9.116 0 0 1-9.114 9.113Z" stroke="#1E223B" stroke-width="2" stroke-linecap="round" stroke-linejoin="round"/><path opacity=".5" d="M458.4 45.657h16.966l17.7 11.8v-11.8H505.6a5.898 5.898 0 0 0 5.9-5.9V7.3a5.903 5.903 0 0 0-5.9-5.9h-47.2a5.903 5.903 0 0 0-5.9 5.9v32.455a5.896 5.896 0 0 0 3.642 5.453 5.891 5.891 0 0 0 2.258.449Z" fill="#fff"/><path d="M458.4 45.657h16.966l17.7 11.8v-11.8H505.6a5.898 5.898 0 0 0 5.9-5.9V7.3a5.903 5.903 0 0 0-5.9-5.9h-47.2a5.903 5.903 0 0 0-5.9 5.9v32.455a5.896 5.896 0 0 0 3.642 5.453 5.891 5.891 0 0 0 2.258.449Z" stroke="#1E223B" stroke-width="2" stroke-linecap="round" stroke-linejoin="round"/><path d="M519.964 681.97a13.23 13.23 0 0 1-26.21 2.58 13.241 13.241 0 0 1 .753-7.645 13.24 13.24 0 0 1 12.225-8.168 13.235 13.235 0 0 1 13.232 13.233Z" fill="#DD4814"/><path d="M497.734 680.2a1.77 1.77 0 0 0-1.633 1.089 1.767 1.767 0 1 0 1.633-1.089Zm12.614 8.029a1.77 1.77 0 0 0-.446 2.694 1.772 1.772 0 0 0 1.896.508 1.765 1.765 0 1 0-1.45-3.199v-.003Zm-8.776-6.263a5.157 5.157 0 0 1 2.194-4.221l-1.292-2.164a7.683 7.683 0 0 0-3.173 4.462 2.477 2.477 0 0 1 .674 2.988 2.477 2.477 0 0 1-.674.859 7.68 7.68 0 0 0 3.173 4.462l1.292-2.164a5.151 5.151 0 0 1-2.194-4.219v-.003Zm5.16-5.16a5.163 5.163 0 0 1 5.139 4.7l2.518-.037a7.65 7.65 0 0 0-2.28-4.978 2.48 2.48 0 0 1-3.327-1.923 7.671 7.671 0 0 0-5.451.516l1.227 2.2a5.145 5.145 0 0 1 2.174-.475v-.003Zm0 10.321a5.135 5.135 0 0 1-2.174-.48l-1.227 2.2a7.676 7.676 0 0 0 5.451.515 2.481 2.481 0 0 1 3.327-1.923 7.65 7.65 0 0 0 2.28-4.978l-2.518-.037a5.16 5.16 0 0 1-5.139 4.706v-.003Zm3.616-11.423a1.771 1.771 0 0 0 1.958-.129 1.767 1.767 0 1 0-1.958.132v-.003Z" fill="#fff"/><path d="m63.132 562.759 28.057-16.306-.086 30.503-28.058 16.305.087-30.502Z" fill="#777BB4"/><path d="m63.132 562.759 28.057-16.306-.086 30.503-28.058 16.305.087-30.502Z" stroke="#1E223B" stroke-width="2" stroke-linecap="round" stroke-linejoin="round"/><path opacity=".88" d="m36.587 547.433 28.057-16.306 26.545 15.326-28.057 16.306-26.545-15.326Z" fill="#FF5855" stroke="#1E223B" stroke-miterlimit="10"/><path d="m63.132 562.759-.087 30.502L36.5 577.935l.087-30.502 26.545 15.326Z" fill="#0270BB"/><path d="m36.587 547.433 28.057-16.306 26.545 15.326-28.057 16.306-26.545-15.326Z" stroke="#1E223B" stroke-width="2" stroke-linecap="round" stroke-linejoin="round"/><path d="m63.132 562.759-.087 30.502L36.5 577.935l.087-30.502 26.545 15.326Z" stroke="#1E223B" stroke-width="2" stroke-linecap="round" stroke-linejoin="round"/><path opacity=".59" d="M42.545 519.737a6 6 0 1 0 0-12 6 6 0 0 0 0 12Z" fill="#fff"/><path d="M42.545 519.737a6 6 0 1 0 0-12 6 6 0 0 0 0 12Z" stroke="#1E223B" stroke-width="2" stroke-linecap="round" stroke-linejoin="round"/><path opacity=".59" d="M63.045 519.737a6 6 0 1 0 0-12 6 6 0 0 0 0 12Z" fill="#fff"/><path d="M63.045 519.737a6 6 0 1 0 0-12 6 6 0 0 0 0 12Z" stroke="#1E223B" stroke-width="2" stroke-linecap="round" stroke-linejoin="round"/><path opacity=".59" d="M83.545 519.737a6 6 0 1 0 0-12 6 6 0 0 0 0 12Z" fill="#fff"/><path opacity=".32" d="M767.25 430.49c21.815 0 39.5-17.685 39.5-39.5s-17.685-39.5-39.5-39.5-39.5 17.685-39.5 39.5 17.685 39.5 39.5 39.5Z" fill="#fff"/><path d="M83.545 519.737a6 6 0 1 0 0-12 6 6 0 0 0 0 12Z" stroke="#1E223B" stroke-width="2" stroke-linecap="round" stroke-linejoin="round"/><path opacity=".12" d="m767.792 391.419-21.338-12.4.065 23.198 21.339 12.4-.066-23.198Z" fill="#0270BB"/><path d="m767.792 391.419-21.338-12.4.065 23.198 21.339 12.4-.066-23.198Z" stroke="#1E223B" stroke-width="2" stroke-linecap="round" stroke-linejoin="round"/><path opacity=".47" d="m787.98 379.764-21.338-12.401-20.188 11.656 21.338 12.4 20.188-11.655Z" fill="#0270BB"/><path d="m787.98 379.764-21.338-12.401-20.188 11.656 21.338 12.4 20.188-11.655Z" stroke="#1E223B" stroke-width="2" stroke-linecap="round" stroke-linejoin="round"/><path d="m767.792 391.419.066 23.198 20.188-11.655-.066-23.198-20.188 11.655Z" fill="#fff" stroke="#1E223B" stroke-width="2" stroke-linecap="round" stroke-linejoin="round"/><path d="m767.792 391.419.066 23.198 20.188-11.655-.066-23.198-20.188 11.655Z" stroke="#1E223B" stroke-width="2" stroke-linecap="round" stroke-linejoin="round"/><path d="M767.25 430.49c21.815 0 39.5-17.685 39.5-39.5s-17.685-39.5-39.5-39.5-39.5 17.685-39.5 39.5 17.685 39.5 39.5 39.5Z" stroke="#1E223B" stroke-width="2" stroke-linecap="round" stroke-linejoin="round"/><path d="M669.976 144.479h-89.578c-6.566 0-11.889 5.322-11.889 11.889v35.665c0 6.566 5.323 11.889 11.889 11.889h89.578c6.566 0 11.889-5.323 11.889-11.889v-35.665c0-6.567-5.323-11.889-11.889-11.889Z" fill="#777BB4"/><path d="M669.976 144.479h-89.578c-6.566 0-11.889 5.322-11.889 11.889v35.665c0 6.566 5.323 11.889 11.889 11.889h89.578c6.566 0 11.889-5.323 11.889-11.889v-35.665c0-6.567-5.323-11.889-11.889-11.889Z" stroke="#1E223B" stroke-width="2" stroke-linecap="round" stroke-linejoin="round"/><path d="M745.638 415.49h-69.994a9.042 9.042 0 0 0-9.042 9.042v27.125a9.042 9.042 0 0 0 9.042 9.042h69.994a9.042 9.042 0 0 0 9.042-9.042v-27.125a9.042 9.042 0 0 0-9.042-9.042Z" fill="#0270BB"/><path d="M745.638 415.49h-69.994a9.042 9.042 0 0 0-9.042 9.042v27.125a9.042 9.042 0 0 0 9.042 9.042h69.994a9.042 9.042 0 0 0 9.042-9.042v-27.125a9.042 9.042 0 0 0-9.042-9.042Z" stroke="#1E223B" stroke-width="2" stroke-linecap="round" stroke-linejoin="round"/><path d="M680.184 437.821c0-6.462 4.8-10.823 10.979-10.823a9.38 9.38 0 0 1 8.376 4.674l-3.106 1.631a6.175 6.175 0 0 0-5.27-3.043c-4.14 0-7.215 3.137-7.215 7.561 0 4.36 3.075 7.559 7.215 7.559a6.253 6.253 0 0 0 5.27-3.043l3.137 1.569a9.552 9.552 0 0 1-8.407 4.737c-6.18 0-10.979-4.392-10.979-10.822Zm23.304 7.496 2.071-2.854a8.993 8.993 0 0 0 6.619 2.917c3.011 0 4.172-1.474 4.172-2.886 0-4.392-12.172-1.662-12.172-9.347 0-3.483 3.012-6.149 7.624-6.149a10.83 10.83 0 0 1 7.811 2.949l-2.071 2.728a8.533 8.533 0 0 0-6.086-2.415c-2.133 0-3.513 1.067-3.513 2.6 0 3.922 12.171 1.506 12.171 9.286 0 3.482-2.478 6.493-8.093 6.493a11.429 11.429 0 0 1-8.533-3.322Zm20.984 0 2.071-2.854a8.993 8.993 0 0 0 6.619 2.917c3.011 0 4.172-1.474 4.172-2.886 0-4.392-12.172-1.662-12.172-9.347 0-3.483 3.012-6.149 7.624-6.149a10.827 10.827 0 0 1 7.811 2.949l-2.071 2.728a8.533 8.533 0 0 0-6.086-2.415c-2.133 0-3.513 1.067-3.513 2.6 0 3.922 12.171 1.506 12.171 9.286 0 3.482-2.478 6.493-8.093 6.493a11.429 11.429 0 0 1-8.533-3.322ZM585.38 187.476v-26.65h11.747c5.593 0 8.669 3.8 8.669 8.35 0 4.515-3.115 8.311-8.669 8.311h-7.072v9.989h-4.675Zm15.622-18.3c0-2.557-1.878-4.234-4.515-4.234h-6.432v8.43h6.432c2.637 0 4.513-1.679 4.513-4.196h.002Zm30.238 18.3v-11.667h-13.864v11.667H612.7v-26.65h4.674v10.867h13.866v-10.867h4.674v26.65h-4.674Zm13.337 0v-26.65h11.746c5.593 0 8.67 3.8 8.67 8.35 0 4.515-3.116 8.311-8.67 8.311h-7.072v9.989h-4.674Zm15.621-18.3c0-2.557-1.878-4.234-4.515-4.234h-6.432v8.43h6.432c2.637 0 4.517-1.679 4.517-4.196h-.002Z" fill="#fff"/><path d="M449.063 424.988c.281.407.453.374.671.281.218-.093 11.469-3.891 11.813-4.016.344-.125.234-.234.125-.406-.109-.172-3.859-5.265-4.047-5.562-.188-.297-.281-.235-.578-.141l-11.926 3.101s3.66 6.334 3.942 6.74v.003ZM462.5 419.8v-5.963l-3.709.988c1.011 1.352 2.591 3.468 3.709 4.975Zm-3.72-12.317c-.184.041-4.254.777-4.5.81-.246.033-.167.176-.067.318l3.581 4.914s4.379-1.087 4.647-1.145l.063-.015v-.651a503.26 503.26 0 0 1-3.152-4.014c-.225-.309-.384-.259-.568-.217h-.004Z" fill="#F35045"/><path d="M433.174 399.764c.881-.04.961.161 1.348.735l9.728 16.262 12.23-2.93a4201.33 4201.33 0 0 0-4.051-5.738c-.334-.468.008-.686.551-.777.543-.091 5.223-.878 5.624-.936.401-.058.719-.2 1.371.585.333.4 1.464 1.809 2.525 3.129v-7.607a6.76 6.76 0 0 0-6.75-6.75h-22.5a6.494 6.494 0 0 0-4.769 1.981 6.637 6.637 0 0 0-1.62 2.538c2.205-.181 5.7-.464 6.313-.492Z" fill="#F35045"/><path d="M450.166 427.176c-1.032.313-1.494.468-2.166-.47-.5-.7-3.224-5.6-4.558-8.019-2.525.662-7.146 1.868-8.478 2.188a1.646 1.646 0 0 1-2.07-.948c-.15-.337-3.963-8.558-6.394-13.832v18.892a6.762 6.762 0 0 0 6.75 6.75h22.5a6.763 6.763 0 0 0 6.75-6.75v-2.219c-2.762 1.01-11.639 4.2-12.334 4.408Z" fill="#F35045"/><path d="M435 418.981c.365-.084 7.215-1.723 7.362-1.754.147-.031.24-.115.083-.387l-9.131-15.762c-.083-.142-.059-.19-.284-.178-.2.011-5.279.464-6.455.562a7.25 7.25 0 0 0-.065.75c1.194 2.443 8.044 16.57 8.082 16.685.038.115.042.168.408.084Z" fill="#F35045"/><path opacity=".32" d="M344.5 281.737h94m-94 8h60" stroke="#1E223B" stroke-width="2" stroke-linecap="round" stroke-linejoin="round"/><path opacity=".15" d="M316.5 328.737h94" stroke="#1E223B" stroke-width="2" stroke-linecap="round" stroke-linejoin="round"/><path opacity=".32" d="M316.5 337.404h60m-12 8.667h35" stroke="#1E223B" stroke-width="2" stroke-linecap="round" stroke-linejoin="round"/><path opacity=".26" d="M316.5 346.071h42" stroke="#1E223B" stroke-width="2" stroke-linecap="round" stroke-linejoin="round"/><path opacity=".15" d="M316.5 354.737h36" stroke="#1E223B" stroke-width="2" stroke-linecap="round" stroke-linejoin="round"/><path d="M320.5 371.071a4 4 0 0 0 0 8h80.667v-8H320.5Z" fill="#4AD3A5" stroke="#1E223B" stroke-miterlimit="10"/><path d="M446.5 371.071h-126a4 4 0 0 0 0 8h126a4 4 0 0 0 0-8Z" stroke="#1E223B" stroke-linecap="round" stroke-linejoin="round"/><path d="M517.25 475.737h-273.5a2.25 2.25 0 0 0-2.25 2.25v8.5a2.25 2.25 0 0 0 2.25 2.25h273.5a2.25 2.25 0 0 0 2.25-2.25v-8.5a2.25 2.25 0 0 0-2.25-2.25Z" fill="#263C72"/><path d="M519.5 475.737h-278v13h278v-13Z" stroke="#1E223B" stroke-width="2" stroke-linecap="round" stroke-linejoin="round"/><path d="M516.5 507.737h-16a3 3 0 0 0-3 3v6a3 3 0 0 0 3 3h16a3 3 0 0 0 3-3v-6a3 3 0 0 0-3-3Zm-32 0h-16a3 3 0 0 0-3 3v6a3 3 0 0 0 3 3h16a3 3 0 0 0 3-3v-6a3 3 0 0 0-3-3Zm-32 0h-16a3 3 0 0 0-3 3v6a3 3 0 0 0 3 3h16a3 3 0 0 0 3-3v-6a3 3 0 0 0-3-3Zm-32 0h-16a3 3 0 0 0-3 3v6a3 3 0 0 0 3 3h16a3 3 0 0 0 3-3v-6a3 3 0 0 0-3-3Zm-32 0h-16a3 3 0 0 0-3 3v6a3 3 0 0 0 3 3h16a3 3 0 0 0 3-3v-6a3 3 0 0 0-3-3Zm-32 0h-16a3 3 0 0 0-3 3v6a3 3 0 0 0 3 3h16a3 3 0 0 0 3-3v-6a3 3 0 0 0-3-3Zm-32 0h-16a3 3 0 0 0-3 3v6a3 3 0 0 0 3 3h16a3 3 0 0 0 3-3v-6a3 3 0 0 0-3-3Zm-32 0h-16a3 3 0 0 0-3 3v6a3 3 0 0 0 3 3h16a3 3 0 0 0 3-3v-6a3 3 0 0 0-3-3Zm-32 0h-16a3 3 0 0 0-3 3v6a3 3 0 0 0 3 3h16a3 3 0 0 0 3-3v-6a3 3 0 0 0-3-3Zm192 25.477h-16a3 3 0 0 0-3 3v16a3 3 0 0 0 3 3h16a3 3 0 0 0 3-3v-16a3 3 0 0 0-3-3Zm-32 0h-16a3 3 0 0 0-3 3v16a3 3 0 0 0 3 3h16a3 3 0 0 0 3-3v-16a3 3 0 0 0-3-3Zm-32 0h-16a3 3 0 0 0-3 3v16a3 3 0 0 0 3 3h16a3 3 0 0 0 3-3v-16a3 3 0 0 0-3-3Zm-32 0h-16a3 3 0 0 0-3 3v16a3 3 0 0 0 3 3h16a3 3 0 0 0 3-3v-16a3 3 0 0 0-3-3Zm-32 0h-16a3 3 0 0 0-3 3v16a3 3 0 0 0 3 3h16a3 3 0 0 0 3-3v-16a3 3 0 0 0-3-3Zm-32 0h-16a3 3 0 0 0-3 3v16a3 3 0 0 0 3 3h16a3 3 0 0 0 3-3v-16a3 3 0 0 0-3-3Zm-32 0h-16a3 3 0 0 0-3 3v16a3 3 0 0 0 3 3h16a3 3 0 0 0 3-3v-16a3 3 0 0 0-3-3Zm256 0h-16a3 3 0 0 0-3 3v47.512a3 3 0 0 0 3 3h16a3 3 0 0 0 3-3v-47.512a3 3 0 0 0-3-3Z" fill="#363D56"/><path d="M484.5 533.214h-16c-.796 0-1.559.316-2.121.879a2.996 2.996 0 0 0-.879 2.121v25.512c0 .796-.316 1.559-.879 2.121a2.996 2.996 0 0 1-2.121.879h-26c-.796 0-1.559.316-2.121.879a2.996 2.996 0 0 0-.879 2.121v16c0 .796.316 1.559.879 2.121a2.996 2.996 0 0 0 2.121.879h48c.796 0 1.559-.316 2.121-.879a2.996 2.996 0 0 0 .879-2.121v-47.512c0-.796-.316-1.559-.879-2.121a2.996 2.996 0 0 0-2.121-.879Zm-64 31.512h-16a3 3 0 0 0-3 3v16a3 3 0 0 0 3 3h16a3 3 0 0 0 3-3v-16a3 3 0 0 0-3-3Zm-32 0h-16a3 3 0 0 0-3 3v16a3 3 0 0 0 3 3h16a3 3 0 0 0 3-3v-16a3 3 0 0 0-3-3Zm-32 0h-16a3 3 0 0 0-3 3v16a3 3 0 0 0 3 3h16a3 3 0 0 0 3-3v-16a3 3 0 0 0-3-3Zm-32 0h-16a3 3 0 0 0-3 3v16a3 3 0 0 0 3 3h16a3 3 0 0 0 3-3v-16a3 3 0 0 0-3-3Zm-32 0h-48a3 3 0 0 0-3 3v16a3 3 0 0 0 3 3h48a3 3 0 0 0 3-3v-16a3 3 0 0 0-3-3Zm224 31.511h-16a3 3 0 0 0-3 3v16a3 3 0 0 0 3 3h16a3 3 0 0 0 3-3v-16a3 3 0 0 0-3-3Zm-32 0h-16a3 3 0 0 0-3 3v16a3 3 0 0 0 3 3h16a3 3 0 0 0 3-3v-16a3 3 0 0 0-3-3Zm-32 0h-16a3 3 0 0 0-3 3v16a3 3 0 0 0 3 3h16a3 3 0 0 0 3-3v-16a3 3 0 0 0-3-3Zm-32 0h-80a3 3 0 0 0-3 3v16a3 3 0 0 0 3 3h80a3 3 0 0 0 3-3v-16a3 3 0 0 0-3-3Zm-96 0h-16a3 3 0 0 0-3 3v16a3 3 0 0 0 3 3h16a3 3 0 0 0 3-3v-16a3 3 0 0 0-3-3Zm-32 0h-16a3 3 0 0 0-3 3v16a3 3 0 0 0 3 3h16a3 3 0 0 0 3-3v-16a3 3 0 0 0-3-3Zm-32 0h-16a3 3 0 0 0-3 3v16a3 3 0 0 0 3 3h16a3 3 0 0 0 3-3v-16a3 3 0 0 0-3-3Z" fill="#363D56"/><path d="M516.5 507.737h-16a3 3 0 0 0-3 3v6a3 3 0 0 0 3 3h16a3 3 0 0 0 3-3v-6a3 3 0 0 0-3-3Zm-32 0h-16a3 3 0 0 0-3 3v6a3 3 0 0 0 3 3h16a3 3 0 0 0 3-3v-6a3 3 0 0 0-3-3Zm-32 0h-16a3 3 0 0 0-3 3v6a3 3 0 0 0 3 3h16a3 3 0 0 0 3-3v-6a3 3 0 0 0-3-3Zm-32 0h-16a3 3 0 0 0-3 3v6a3 3 0 0 0 3 3h16a3 3 0 0 0 3-3v-6a3 3 0 0 0-3-3Zm-32 0h-16a3 3 0 0 0-3 3v6a3 3 0 0 0 3 3h16a3 3 0 0 0 3-3v-6a3 3 0 0 0-3-3Zm-32 0h-16a3 3 0 0 0-3 3v6a3 3 0 0 0 3 3h16a3 3 0 0 0 3-3v-6a3 3 0 0 0-3-3Zm-32 0h-16a3 3 0 0 0-3 3v6a3 3 0 0 0 3 3h16a3 3 0 0 0 3-3v-6a3 3 0 0 0-3-3Zm-32 0h-16a3 3 0 0 0-3 3v6a3 3 0 0 0 3 3h16a3 3 0 0 0 3-3v-6a3 3 0 0 0-3-3Zm-32 0h-16a3 3 0 0 0-3 3v6a3 3 0 0 0 3 3h16a3 3 0 0 0 3-3v-6a3 3 0 0 0-3-3Zm192 25.477h-16a3 3 0 0 0-3 3v16a3 3 0 0 0 3 3h16a3 3 0 0 0 3-3v-16a3 3 0 0 0-3-3Zm-32 0h-16a3 3 0 0 0-3 3v16a3 3 0 0 0 3 3h16a3 3 0 0 0 3-3v-16a3 3 0 0 0-3-3Zm-32 0h-16a3 3 0 0 0-3 3v16a3 3 0 0 0 3 3h16a3 3 0 0 0 3-3v-16a3 3 0 0 0-3-3Zm-32 0h-16a3 3 0 0 0-3 3v16a3 3 0 0 0 3 3h16a3 3 0 0 0 3-3v-16a3 3 0 0 0-3-3Zm-32 0h-16a3 3 0 0 0-3 3v16a3 3 0 0 0 3 3h16a3 3 0 0 0 3-3v-16a3 3 0 0 0-3-3Zm-32 0h-16a3 3 0 0 0-3 3v16a3 3 0 0 0 3 3h16a3 3 0 0 0 3-3v-16a3 3 0 0 0-3-3Zm-32 0h-16a3 3 0 0 0-3 3v16a3 3 0 0 0 3 3h16a3 3 0 0 0 3-3v-16a3 3 0 0 0-3-3Zm256 0h-16a3 3 0 0 0-3 3v47.512a3 3 0 0 0 3 3h16a3 3 0 0 0 3-3v-47.512a3 3 0 0 0-3-3Z" stroke="#1E223B" stroke-width="2" stroke-linecap="round" stroke-linejoin="round"/><path d="M484.5 533.214h-16c-.796 0-1.559.316-2.121.879a2.996 2.996 0 0 0-.879 2.121v25.512c0 .796-.316 1.559-.879 2.121a2.996 2.996 0 0 1-2.121.879h-26c-.796 0-1.559.316-2.121.879a2.996 2.996 0 0 0-.879 2.121v16c0 .796.316 1.559.879 2.121a2.996 2.996 0 0 0 2.121.879h48c.796 0 1.559-.316 2.121-.879a2.996 2.996 0 0 0 .879-2.121v-47.512c0-.796-.316-1.559-.879-2.121a2.996 2.996 0 0 0-2.121-.879Zm-64 31.512h-16a3 3 0 0 0-3 3v16a3 3 0 0 0 3 3h16a3 3 0 0 0 3-3v-16a3 3 0 0 0-3-3Zm-32 0h-16a3 3 0 0 0-3 3v16a3 3 0 0 0 3 3h16a3 3 0 0 0 3-3v-16a3 3 0 0 0-3-3Zm-32 0h-16a3 3 0 0 0-3 3v16a3 3 0 0 0 3 3h16a3 3 0 0 0 3-3v-16a3 3 0 0 0-3-3Zm-32 0h-16a3 3 0 0 0-3 3v16a3 3 0 0 0 3 3h16a3 3 0 0 0 3-3v-16a3 3 0 0 0-3-3Zm-32 0h-48a3 3 0 0 0-3 3v16a3 3 0 0 0 3 3h48a3 3 0 0 0 3-3v-16a3 3 0 0 0-3-3Zm224 31.511h-16a3 3 0 0 0-3 3v16a3 3 0 0 0 3 3h16a3 3 0 0 0 3-3v-16a3 3 0 0 0-3-3Zm-32 0h-16a3 3 0 0 0-3 3v16a3 3 0 0 0 3 3h16a3 3 0 0 0 3-3v-16a3 3 0 0 0-3-3Zm-32 0h-16a3 3 0 0 0-3 3v16a3 3 0 0 0 3 3h16a3 3 0 0 0 3-3v-16a3 3 0 0 0-3-3Zm-32 0h-80a3 3 0 0 0-3 3v16a3 3 0 0 0 3 3h80a3 3 0 0 0 3-3v-16a3 3 0 0 0-3-3Zm-96 0h-16a3 3 0 0 0-3 3v16a3 3 0 0 0 3 3h16a3 3 0 0 0 3-3v-16a3 3 0 0 0-3-3Zm-32 0h-16a3 3 0 0 0-3 3v16a3 3 0 0 0 3 3h16a3 3 0 0 0 3-3v-16a3 3 0 0 0-3-3Zm-32 0h-16a3 3 0 0 0-3 3v16a3 3 0 0 0 3 3h16a3 3 0 0 0 3-3v-16a3 3 0 0 0-3-3Z" stroke="#1E223B" stroke-width="2" stroke-linecap="round" stroke-linejoin="round"/><path d="M306.644 689.604h-44v40h44v-40Z" fill="#F2A197"/><path d="M306.644 689.604h-44v40h44v-40Z" stroke="#1E223B" stroke-width="2" stroke-linecap="round" stroke-linejoin="round"/><path d="M310.013 720.604h-51.898v25.513h51.898v-25.513Z" fill="#fff"/><path d="M310.013 720.604h-51.898v25.513h51.898v-25.513Z" stroke="#1E223B" stroke-width="2" stroke-linecap="round" stroke-linejoin="round"/><path d="M256.172 745.47h55.784a6.483 6.483 0 0 1 6.487 6.487v116.757h-68.758V751.956a6.49 6.49 0 0 1 6.487-6.486Z" fill="#1E223B"/><path d="M256.172 745.47h55.784a6.483 6.483 0 0 1 6.487 6.487v116.757h-68.758V751.956a6.49 6.49 0 0 1 6.487-6.486Z" stroke="#1E223B" stroke-width="2" stroke-linecap="round" stroke-linejoin="round"/><path opacity=".2" d="M300.744 738.334a4.973 4.973 0 1 0 0-9.946 4.973 4.973 0 0 0 0 9.946Z" fill="#1E223B"/><path d="M300.744 738.334a4.973 4.973 0 1 0 0-9.946 4.973 4.973 0 0 0 0 9.946Z" stroke="#1E223B" stroke-width="2" stroke-linecap="round" stroke-linejoin="round"/><path d="m338.638 637.759 1.299.75a5.998 5.998 0 0 1 2.196 8.196l-25.5 44.167-11.692-6.75 25.5-44.167a6.003 6.003 0 0 1 8.197-2.196Z" fill="#F2A197"/><path d="m338.638 637.759 1.299.75a5.998 5.998 0 0 1 2.196 8.196l-25.5 44.167-11.692-6.75 25.5-44.167a6.003 6.003 0 0 1 8.197-2.196Z" stroke="#1E223B" stroke-width="2" stroke-linecap="round" stroke-linejoin="round"/><path d="M314.065 575.455h-1.5a6.002 6.002 0 0 0-6 6v45c0 .796-.316 1.559-.879 2.121a2.996 2.996 0 0 1-4.242 0 2.996 2.996 0 0 1-.879-2.121v-53.7a6.002 6.002 0 0 0-6-6h-1.5a6.002 6.002 0 0 0-6 6v53.7c0 .796-.316 1.559-.879 2.121a2.996 2.996 0 0 1-4.242 0 2.996 2.996 0 0 1-.879-2.121v-45a6.002 6.002 0 0 0-6-6h-1.5a6.002 6.002 0 0 0-6 6v45c0 .796-.316 1.559-.879 2.121a2.996 2.996 0 0 1-4.242 0 2.996 2.996 0 0 1-.879-2.121v-30.75a6.002 6.002 0 0 0-6-6h-1.5a6.002 6.002 0 0 0-6 6v88.245a11.998 11.998 0 0 0 12 12h48a11.998 11.998 0 0 0 12-12V581.456a6 6 0 0 0-6-6.001Z" fill="#FDB3A6"/><path d="M314.065 575.455h-1.5a6.002 6.002 0 0 0-6 6v45c0 .796-.316 1.559-.879 2.121a2.996 2.996 0 0 1-4.242 0 2.996 2.996 0 0 1-.879-2.121v-53.7a6.002 6.002 0 0 0-6-6h-1.5a6.002 6.002 0 0 0-6 6v53.7c0 .796-.316 1.559-.879 2.121a2.996 2.996 0 0 1-4.242 0 2.996 2.996 0 0 1-.879-2.121v-45a6.002 6.002 0 0 0-6-6h-1.5a6.002 6.002 0 0 0-6 6v45c0 .796-.316 1.559-.879 2.121a2.996 2.996 0 0 1-4.242 0 2.996 2.996 0 0 1-.879-2.121v-30.75a6.002 6.002 0 0 0-6-6h-1.5a6.002 6.002 0 0 0-6 6v88.245a11.998 11.998 0 0 0 12 12h48a11.998 11.998 0 0 0 12-12V581.456a6 6 0 0 0-6-6.001Z" stroke="#1E223B" stroke-width="2" stroke-linecap="round" stroke-linejoin="round"/><path d="M415.002 777.886h-44v40h44v-40Z" fill="#F2A197"/><path d="M415.002 777.886h-44v40h44v-40Z" stroke="#1E223B" stroke-width="2" stroke-linecap="round" stroke-linejoin="round"/><path d="m370.993 772.404-11.692 6.75-25.5-44.167a6.002 6.002 0 0 1 2.196-8.196l1.3-.75a6 6 0 0 1 8.196 2.196l25.5 44.167Z" fill="#F2A197"/><path d="m370.993 772.404-11.692 6.75-25.5-44.167a6.002 6.002 0 0 1 2.196-8.196l1.3-.75a6 6 0 0 1 8.196 2.196l25.5 44.167Z" stroke="#1E223B" stroke-width="2" stroke-linecap="round" stroke-linejoin="round"/><path d="M363 663.737h1.5a6 6 0 0 1 6 6v45a3 3 0 1 0 6 0v-7.172a6 6 0 0 1 6-6h1.5a6 6 0 0 1 6 6v7.172a3 3 0 1 0 6 0v-7.172a6 6 0 0 1 6-6h1.5a6 6 0 0 1 6 6v7.172a3 3 0 1 0 6 0v-7.172a6 6 0 0 1 6-6h1.5a6 6 0 0 1 6 6v64.667a12 12 0 0 1-12 12h-48a11.999 11.999 0 0 1-12-12V669.738a6.009 6.009 0 0 1 1.757-4.243 6.01 6.01 0 0 1 4.243-1.758Z" fill="#FDB3A6"/><path d="M363 663.737h1.5a6 6 0 0 1 6 6v45a3 3 0 1 0 6 0v-7.172a6 6 0 0 1 6-6h1.5a6 6 0 0 1 6 6v7.172a3 3 0 1 0 6 0v-7.172a6 6 0 0 1 6-6h1.5a6 6 0 0 1 6 6v7.172a3 3 0 1 0 6 0v-7.172a6 6 0 0 1 6-6h1.5a6 6 0 0 1 6 6v64.667a12 12 0 0 1-12 12h-48a11.999 11.999 0 0 1-12-12V669.738a6.009 6.009 0 0 1 1.757-4.243 6.01 6.01 0 0 1 4.243-1.758Z" stroke="#1E223B" stroke-width="2" stroke-linecap="round" stroke-linejoin="round"/><path d="M418.951 808.886h-51.898V834.4h51.898v-25.514Z" fill="#fff"/><path d="M418.951 808.886h-51.898V834.4h51.898v-25.514Z" stroke="#1E223B" stroke-width="2" stroke-linecap="round" stroke-linejoin="round"/><path d="M365.11 833.752h55.784a6.485 6.485 0 0 1 6.487 6.487V870.5h-68.757v-30.262a6.487 6.487 0 0 1 6.486-6.486Z" fill="#1E223B"/><path d="M365.11 833.752h55.784a6.485 6.485 0 0 1 6.487 6.487V870.5h-68.757v-30.262a6.487 6.487 0 0 1 6.486-6.486Zm12.919-7.136a4.973 4.973 0 1 0 0-9.946 4.973 4.973 0 0 0 0 9.946Z" stroke="#1E223B" stroke-width="2" stroke-linecap="round" stroke-linejoin="round"/><path opacity=".2" d="M378.029 826.616a4.973 4.973 0 1 0 0-9.946 4.973 4.973 0 0 0 0 9.946Z" fill="#1E223B"/><path d="M395 75h54m-54 13.5h42M395 102h24m48.213-83.5h27m-27 7h17" stroke="#1E223B" stroke-width="3" stroke-linecap="round" stroke-linejoin="round"/><path d="M466.584 89.629h3" stroke="#1E223B" stroke-width="2" stroke-linecap="round" stroke-linejoin="round"/><path d="M477.522 89.629h22.214a39.76 39.76 0 0 1 28.117 11.647 39.76 39.76 0 0 1 0 56.234 39.748 39.748 0 0 1-28.117 11.647h-65.564a44.672 44.672 0 0 0-44.672 44.671v4.94" stroke="#1E223B" stroke-width="2" stroke-linecap="round" stroke-linejoin="round" stroke-dasharray="5.95 7.94"/><path d="M389.5 222.737v3" stroke="#1E223B" stroke-width="2" stroke-linecap="round" stroke-linejoin="round"/><path d="M94.357 337.84h125.542" stroke="#1E223B" stroke-width="2" stroke-linecap="round" stroke-linejoin="round" stroke-dasharray="6 8"/><path d="M91.137 564.726h26.25a45.114 45.114 0 0 0 45.113-45.113v-18.994a44.882 44.882 0 0 1 44.881-44.882H221.5" stroke="#1E223B" stroke-width="2" stroke-linecap="round" stroke-linejoin="round"/><path d="M224.292 92.858h13.556a35.657 35.657 0 0 1 35.652 35.653 35.65 35.65 0 0 0 35.653 35.652h19.695a35.657 35.657 0 0 1 35.652 35.653v25.921" stroke="#1E223B" stroke-width="2" stroke-linecap="round" stroke-linejoin="round" stroke-dasharray="6 8"/><path d="M539.5 330.732h52.532a34.769 34.769 0 0 0 24.584-10.181 34.752 34.752 0 0 0 10.184-24.583v-92.046m130.356 431.325c16.85 0 30.51-13.66 30.51-30.51 0-16.851-13.66-30.51-30.51-30.51s-30.51 13.659-30.51 30.51c0 16.85 13.66 30.51 30.51 30.51Z" stroke="#1E223B" stroke-width="2" stroke-linecap="round" stroke-linejoin="round"/><path d="M539.5 391.419h188.25" stroke="#1E223B" stroke-width="2" stroke-linecap="round" stroke-linejoin="round" stroke-dasharray="6 8"/><path d="M729.373 657.5c19.544 0 35.387-15.844 35.387-35.387 0-19.544-15.843-35.387-35.387-35.387s-35.387 15.843-35.387 35.387c0 19.543 15.843 35.387 35.387 35.387Z" fill="#fff"/><path d="M729.373 657.5c19.544 0 35.387-15.844 35.387-35.387 0-19.544-15.843-35.387-35.387-35.387s-35.387 15.843-35.387 35.387c0 19.543 15.843 35.387 35.387 35.387Z" stroke="#1E223B" stroke-width="2" stroke-linecap="round" stroke-linejoin="round"/><path d="M693.986 622.113H539.5" stroke="#1E223B" stroke-width="2" stroke-linecap="round" stroke-linejoin="round" stroke-dasharray="6 8"/><path opacity=".39" d="M547 20.5a7.5 7.5 0 1 0 0-15 7.5 7.5 0 0 0 0 15Z" fill="#fff"/><path d="M547 20.5a7.5 7.5 0 1 0 0-15 7.5 7.5 0 0 0 0 15Zm167.256 633.614 15.117-32.001 34.982 5.369" stroke="#1E223B" stroke-width="2" stroke-linecap="round" stroke-linejoin="round"/><path d="M718.069 553.121h-69.994a9.042 9.042 0 0 0-9.042 9.042v27.125a9.042 9.042 0 0 0 9.042 9.042h69.994a9.042 9.042 0 0 0 9.042-9.042v-27.125a9.042 9.042 0 0 0-9.042-9.042Z" fill="#F73E59"/><path d="M718.069 553.121h-69.994a9.042 9.042 0 0 0-9.042 9.042v27.125a9.042 9.042 0 0 0 9.042 9.042h69.994a9.042 9.042 0 0 0 9.042-9.042v-27.125a9.042 9.042 0 0 0-9.042-9.042Z" stroke="#1E223B" stroke-width="2" stroke-linecap="round" stroke-linejoin="round"/><path d="m650.455 583.631 2.135-2.942a9.258 9.258 0 0 0 6.825 3.007c3.1 0 4.3-1.52 4.3-2.975 0-4.528-12.548-1.714-12.548-9.638 0-3.59 3.1-6.34 7.859-6.34a11.174 11.174 0 0 1 8.054 3.04l-2.135 2.814a8.806 8.806 0 0 0-6.275-2.489c-2.2 0-3.622 1.1-3.622 2.684 0 4.042 12.55 1.552 12.55 9.573 0 3.59-2.556 6.694-8.345 6.694a11.802 11.802 0 0 1-8.798-3.428Zm22.091-7.731c0-6.435 4.561-11.158 11.03-11.158 6.435 0 11.028 4.723 11.028 11.158a11.298 11.298 0 0 1-2.879 7.764l1.779 2-2.619 2.2-1.876-2.1a11.523 11.523 0 0 1-5.433 1.293c-6.469.002-11.03-4.719-11.03-11.157Zm14.069 7.149-2.684-3.041 2.652-2.2 2.684 3.039a8.51 8.51 0 0 0 1.456-4.949c0-4.462-2.814-7.793-7.147-7.793-4.367 0-7.149 3.331-7.149 7.793 0 4.432 2.782 7.8 7.149 7.8a7.13 7.13 0 0 0 3.039-.649Zm13.785 3.623V565.1h3.784v18.242h9.508v3.331l-13.292-.001Z" fill="#fff"/><path d="M140.383 112.869H33.708c-5.959 0-10.79 4.831-10.79 10.79v30.621c0 5.959 4.831 10.79 10.79 10.79h106.675c5.959 0 10.79-4.831 10.79-10.79v-30.621c0-5.959-4.831-10.79-10.79-10.79Z" fill="#E44D26" stroke="#1E223B" stroke-width="2" stroke-miterlimit="10"/><path d="M140.383 112.869H33.708c-5.959 0-10.79 4.831-10.79 10.79v30.621c0 5.959 4.831 10.79 10.79 10.79h106.675c5.959 0 10.79-4.831 10.79-10.79v-30.621c0-5.959-4.831-10.79-10.79-10.79Z" stroke="#1E223B" stroke-width="2" stroke-linecap="round" stroke-linejoin="round"/><path d="M54.5 150.8v-10.358H42.194V150.8h-4.15v-23.659h4.15v9.647H54.5v-9.647h4.15V150.8H54.5Zm17.489 0v-20h-7.165v-3.653H83.3v3.653h-7.165v20h-4.146Zm37.917 0v-18.268L102.67 150.8h-1.77l-7.27-18.266V150.8h-4.15v-23.659h5.852l6.456 16.245 6.419-16.245h5.852V150.8h-4.153Zm11.564 0v-23.659h4.149v20h10.428v3.659H121.47Z" fill="#fff"/></svg>