<svg width="924" height="803" viewBox="0 0 924 803" fill="none" xmlns="http://www.w3.org/2000/svg">
<g style="mix-blend-mode:multiply" opacity="0.47">
<g style="mix-blend-mode:multiply" opacity="0.47">
<path d="M718.18 226.814L889.846 180.845C899.512 178.256 907.753 171.937 912.756 163.277C917.759 154.616 919.115 144.325 916.525 134.665C913.935 125.006 907.611 116.771 898.945 111.771C890.279 106.771 879.98 105.417 870.315 108.005L599.826 180.43C595.04 181.712 590.049 182.039 585.136 181.392C580.224 180.746 575.487 179.139 571.196 176.663C566.905 174.187 563.144 170.891 560.127 166.963C557.111 163.034 554.899 158.551 553.616 153.768C551.027 144.109 552.383 133.819 557.386 125.159C562.389 116.5 570.628 110.181 580.293 107.592L703.416 74.614C708.203 73.333 712.69 71.122 716.621 68.108C720.552 65.094 723.851 61.335 726.329 57.047C728.807 52.759 730.415 48.025 731.062 43.116C731.709 38.206 731.382 33.218 730.1 28.434C727.51 18.775 721.186 10.54 712.52 5.53999C703.854 0.539986 693.555 -0.814013 683.89 1.77399L58.4163 169.251C53.6303 170.532 49.1438 172.743 45.2128 175.757C41.2818 178.771 37.9834 182.529 35.5059 186.817C33.0284 191.105 31.4203 195.839 30.7736 200.748C30.1268 205.657 30.4539 210.646 31.7363 215.428C33.0179 220.212 35.2299 224.697 38.2461 228.626C41.2623 232.556 45.0235 235.853 49.315 238.329C53.6065 240.806 58.3441 242.413 63.2573 243.06C68.1705 243.706 73.163 243.379 77.95 242.097L175.338 216.02C185.004 213.432 195.302 214.787 203.968 219.787C212.634 224.787 218.958 233.023 221.548 242.682C222.83 247.465 223.158 252.453 222.511 257.362C221.864 262.271 220.256 267.005 217.778 271.293C215.301 275.581 212.003 279.339 208.072 282.353C204.141 285.368 199.654 287.578 194.868 288.86L28.168 333.497C18.5024 336.085 10.2614 342.404 5.258 351.065C0.254597 359.725 -1.1015 370.017 1.488 379.676C2.7703 384.459 4.9827 388.942 7.999 392.871C11.0153 396.799 14.7763 400.095 19.0673 402.571C23.3583 405.047 28.0953 406.654 33.0078 407.3C37.9202 407.947 42.912 407.62 47.698 406.338L151.731 378.48C161.397 375.892 171.696 377.247 180.362 382.248C189.028 387.248 195.351 395.483 197.941 405.142C199.224 409.925 199.551 414.913 198.904 419.822C198.257 424.732 196.649 429.465 194.172 433.753C191.694 438.041 188.396 441.8 184.465 444.814C180.534 447.828 176.047 450.039 171.261 451.32L163.88 453.297C159.092 454.579 154.604 456.791 150.672 459.807C146.74 462.823 143.441 466.584 140.964 470.875C138.487 475.165 136.88 479.901 136.235 484.813C135.591 489.724 135.921 494.714 137.206 499.498C138.488 504.281 140.701 508.765 143.717 512.693C146.733 516.622 150.494 519.918 154.785 522.394C159.076 524.87 163.813 526.477 168.726 527.124C173.638 527.77 178.63 527.443 183.416 526.162L190.416 524.288C195.202 523.007 200.194 522.68 205.106 523.326C210.019 523.972 214.755 525.579 219.046 528.055C223.337 530.531 227.098 533.827 230.114 537.756C233.13 541.684 235.343 546.168 236.625 550.95C237.907 555.733 238.235 560.721 237.588 565.631C236.942 570.54 235.334 575.274 232.856 579.562C230.379 583.85 227.081 587.609 223.15 590.623C219.219 593.637 214.732 595.848 209.946 597.13L106.296 624.883C96.631 627.471 88.39 633.791 83.387 642.451C78.384 651.111 77.028 661.403 79.618 671.062C82.208 680.721 88.532 688.957 97.198 693.956C105.864 698.956 116.162 700.311 125.828 697.723L315.223 647.008C320.009 645.727 325.001 645.4 329.913 646.046C334.826 646.692 339.563 648.299 343.854 650.775C348.145 653.251 351.906 656.547 354.922 660.475C357.938 664.404 360.151 668.888 361.433 673.67C362.716 678.454 363.043 683.442 362.396 688.352C361.749 693.262 360.141 697.996 357.663 702.284C355.185 706.572 351.886 710.331 347.955 713.345C344.023 716.36 339.536 718.57 334.75 719.851L304.396 727.978C294.731 730.566 286.49 736.886 281.487 745.546C276.484 754.206 275.128 764.498 277.718 774.157C279 778.94 281.213 783.423 284.229 787.352C287.245 791.28 291.006 794.576 295.297 797.052C299.588 799.528 304.325 801.134 309.238 801.78C314.15 802.427 319.142 802.099 323.928 800.818L806.178 671.685C815.844 669.097 824.084 662.777 829.088 654.117C834.091 645.457 835.446 635.165 832.856 625.506C831.574 620.723 829.362 616.239 826.345 612.311C823.329 608.382 819.568 605.086 815.277 602.61C810.986 600.135 806.249 598.528 801.337 597.881C796.424 597.235 791.432 597.562 786.646 598.843L772.46 602.643C762.795 605.231 752.497 603.877 743.831 598.879C735.165 593.88 728.841 585.647 726.25 575.989C724.968 571.206 724.641 566.217 725.288 561.308C725.935 556.399 727.544 551.665 730.022 547.377C732.5 543.089 735.798 539.33 739.73 536.316C743.661 533.303 748.148 531.092 752.935 529.811L846.22 504.828C851.006 503.546 855.492 501.335 859.423 498.321C863.354 495.307 866.653 491.548 869.13 487.26C871.608 482.972 873.216 478.238 873.862 473.329C874.509 468.42 874.182 463.431 872.9 458.648C871.617 453.866 869.405 449.382 866.389 445.453C863.372 441.525 859.611 438.229 855.32 435.753C851.029 433.277 846.292 431.67 841.38 431.024C836.467 430.378 831.476 430.705 826.69 431.986L694.416 467.401C689.63 468.682 684.639 469.009 679.726 468.363C674.814 467.717 670.077 466.11 665.786 463.634C661.495 461.158 657.734 457.862 654.717 453.934C651.701 450.005 649.489 445.522 648.206 440.739C645.619 431.08 646.977 420.79 651.981 412.132C656.984 403.474 665.224 397.156 674.888 394.568L768.546 369.489C773.332 368.208 777.819 365.997 781.75 362.983C785.681 359.968 788.979 356.21 791.456 351.922C793.934 347.633 795.542 342.9 796.188 337.99C796.835 333.081 796.507 328.093 795.225 323.31C793.944 318.526 791.733 314.04 788.717 310.11C785.702 306.18 781.941 302.882 777.65 300.405C773.359 297.927 768.621 296.319 763.708 295.672C758.794 295.025 753.802 295.351 749.015 296.633L737.713 299.659C728.047 302.247 717.749 300.893 709.083 295.893C700.417 290.893 694.093 282.658 691.503 272.999C690.22 268.216 689.892 263.227 690.538 258.317C691.184 253.408 692.792 248.673 695.269 244.385C697.746 240.096 701.045 236.337 704.976 233.322C708.907 230.307 713.393 228.096 718.18 226.814Z" fill="#76D1FF"/>
</g>
<g style="mix-blend-mode:multiply" opacity="0.47">
<path d="M875.93 262.65L866.002 265.308C845.874 270.698 833.93 291.373 839.323 311.487L839.325 311.494C844.718 331.608 865.407 343.545 885.534 338.155L895.462 335.497C915.59 330.107 927.535 309.432 922.141 289.318L922.14 289.311C916.747 269.197 896.058 257.26 875.93 262.65Z" fill="#76D1FF"/>
</g>
</g>
<g style="mix-blend-mode:multiply" opacity="0.33">
<g style="mix-blend-mode:multiply" opacity="0.33">
<path d="M114.508 571.803L127.368 553.434C127.543 553.184 127.811 553.013 128.112 552.96C128.413 552.907 128.723 552.976 128.974 553.151L142.099 562.328C142.35 562.503 142.521 562.771 142.574 563.071C142.627 563.372 142.558 563.682 142.383 563.932L129.523 582.301C128.257 584.11 126.323 585.342 124.148 585.726C121.972 586.111 119.733 585.615 117.923 584.35L116.558 583.395C114.748 582.13 113.515 580.198 113.131 578.024C112.746 575.85 113.242 573.612 114.508 571.803Z" fill="#4E4E4E"/>
<path d="M114.508 571.803L127.368 553.434C127.543 553.184 127.811 553.013 128.112 552.96C128.413 552.907 128.723 552.976 128.974 553.151L142.099 562.328C142.35 562.503 142.521 562.771 142.574 563.071C142.627 563.372 142.558 563.682 142.383 563.932L129.523 582.301C128.257 584.11 126.323 585.342 124.148 585.726C121.972 586.111 119.733 585.615 117.923 584.35L116.558 583.395C114.748 582.13 113.515 580.198 113.131 578.024C112.746 575.85 113.242 573.612 114.508 571.803Z" stroke="#46505C" stroke-width="6.66667" stroke-linecap="round" stroke-linejoin="round"/>
</g>
<g style="mix-blend-mode:multiply" opacity="0.33">
<path d="M114.508 571.803L127.368 553.434C127.543 553.184 127.811 553.013 128.112 552.96C128.413 552.907 128.723 552.976 128.974 553.151L142.099 562.328C142.35 562.503 142.521 562.771 142.574 563.071C142.627 563.372 142.558 563.682 142.383 563.932L129.523 582.301C128.257 584.11 126.323 585.342 124.148 585.726C121.972 586.111 119.733 585.615 117.923 584.35L116.558 583.395C114.748 582.13 113.515 580.198 113.131 578.024C112.746 575.85 113.242 573.612 114.508 571.803Z" fill="#4E4E4E"/>
<path d="M114.508 571.803L127.368 553.434C127.543 553.184 127.811 553.013 128.112 552.96C128.413 552.907 128.723 552.976 128.974 553.151L142.099 562.328C142.35 562.503 142.521 562.771 142.574 563.071C142.627 563.372 142.558 563.682 142.383 563.932L129.523 582.301C128.257 584.11 126.323 585.342 124.148 585.726C121.972 586.111 119.733 585.615 117.923 584.35L116.558 583.395C114.748 582.13 113.515 580.198 113.131 578.024C112.746 575.85 113.242 573.612 114.508 571.803Z" stroke="#46505C" stroke-width="6.66667" stroke-linecap="round" stroke-linejoin="round"/>
</g>
<g style="mix-blend-mode:multiply" opacity="0.33">
<path d="M163.89 572.111C193.875 572.111 218.183 547.819 218.183 517.854C218.183 487.888 193.875 463.596 163.89 463.596C133.904 463.596 109.596 487.888 109.596 517.854C109.596 547.819 133.904 572.111 163.89 572.111Z" fill="#4E4E4E"/>
<path d="M163.89 572.111C193.875 572.111 218.183 547.819 218.183 517.854C218.183 487.888 193.875 463.596 163.89 463.596C133.904 463.596 109.596 487.888 109.596 517.854C109.596 547.819 133.904 572.111 163.89 572.111Z" stroke="#46505C" stroke-width="6.66667" stroke-linecap="round" stroke-linejoin="round"/>
</g>
<g style="mix-blend-mode:multiply" opacity="0.33">
<path d="M163.89 572.111C193.875 572.111 218.183 547.819 218.183 517.854C218.183 487.888 193.875 463.596 163.89 463.596C133.904 463.596 109.596 487.888 109.596 517.854C109.596 547.819 133.904 572.111 163.89 572.111Z" fill="#4E4E4E"/>
<path d="M163.89 572.111C193.875 572.111 218.183 547.819 218.183 517.854C218.183 487.888 193.875 463.596 163.89 463.596C133.904 463.596 109.596 487.888 109.596 517.854C109.596 547.819 133.904 572.111 163.89 572.111Z" stroke="#46505C" stroke-width="6.66667" stroke-linecap="round" stroke-linejoin="round"/>
</g>
<g style="mix-blend-mode:multiply" opacity="0.33">
<path d="M163.89 560.083C187.228 560.083 206.148 541.176 206.148 517.853C206.148 494.53 187.228 475.623 163.89 475.623C140.551 475.623 121.631 494.53 121.631 517.853C121.631 541.176 140.551 560.083 163.89 560.083Z" fill="#4E4E4E"/>
<path d="M163.89 560.083C187.228 560.083 206.148 541.176 206.148 517.853C206.148 494.53 187.228 475.623 163.89 475.623C140.551 475.623 121.631 494.53 121.631 517.853C121.631 541.176 140.551 560.083 163.89 560.083Z" stroke="#46505C" stroke-width="6.66667" stroke-linecap="round" stroke-linejoin="round"/>
</g>
<g style="mix-blend-mode:multiply" opacity="0.33">
<path d="M163.89 560.083C187.228 560.083 206.148 541.176 206.148 517.853C206.148 494.53 187.228 475.623 163.89 475.623C140.551 475.623 121.631 494.53 121.631 517.853C121.631 541.176 140.551 560.083 163.89 560.083Z" fill="#4E4E4E"/>
<path d="M163.89 560.083C187.228 560.083 206.148 541.176 206.148 517.853C206.148 494.53 187.228 475.623 163.89 475.623C140.551 475.623 121.631 494.53 121.631 517.853C121.631 541.176 140.551 560.083 163.89 560.083Z" stroke="#46505C" stroke-width="6.66667" stroke-linecap="round" stroke-linejoin="round"/>
</g>
<g style="mix-blend-mode:multiply" opacity="0.33">
<path d="M136.265 509.087C136.83 507.814 137.442 506.567 138.065 505.346C140.898 499.796 144.287 494.043 149.695 490.644C154.287 487.756 160.708 486.625 165.685 489.18C170.002 491.395 172.603 495.95 176.542 498.785C179.196 500.41 181.954 501.86 184.798 503.124C187.67 504.416 189.942 506.75 191.153 509.655C192.487 513.725 190.288 518.069 190.267 522.353C190.259 524.716 190.916 527.034 192.162 529.043C192.949 529.983 193.454 531.126 193.62 532.34C193.5 533.117 193.171 533.847 192.668 534.452C192.164 535.056 191.505 535.512 190.762 535.771C186.385 537.838 181.273 537.091 176.46 536.572C171.647 536.052 166.317 535.942 162.512 538.933C160.954 540.369 159.511 541.923 158.197 543.584C157.642 544.416 156.909 545.115 156.052 545.63C155.195 546.146 154.234 546.467 153.239 546.568C152.243 546.669 151.238 546.549 150.294 546.217C149.35 545.884 148.492 545.348 147.78 544.645C144.33 541.757 141.338 538.365 138.903 534.583C136.345 531.384 134.538 527.652 133.615 523.662C132.75 518.707 134.192 513.749 136.265 509.087Z" fill="#4E4E4E"/>
<path d="M136.265 509.087C136.83 507.814 137.442 506.567 138.065 505.346C140.898 499.796 144.287 494.043 149.695 490.644C154.287 487.756 160.708 486.625 165.685 489.18C170.002 491.395 172.603 495.95 176.542 498.785C179.196 500.41 181.954 501.86 184.798 503.124C187.67 504.416 189.942 506.75 191.153 509.655C192.487 513.725 190.288 518.069 190.267 522.353C190.259 524.716 190.916 527.034 192.162 529.043C192.949 529.983 193.454 531.126 193.62 532.34C193.5 533.117 193.171 533.847 192.668 534.452C192.164 535.056 191.505 535.512 190.762 535.771C186.385 537.838 181.273 537.091 176.46 536.572C171.647 536.052 166.317 535.942 162.512 538.933C160.954 540.369 159.511 541.923 158.197 543.584C157.642 544.416 156.909 545.115 156.052 545.63C155.195 546.146 154.234 546.467 153.239 546.568C152.243 546.669 151.238 546.549 150.294 546.217C149.35 545.884 148.492 545.348 147.78 544.645C144.33 541.757 141.338 538.365 138.903 534.583C136.345 531.384 134.538 527.652 133.615 523.662C132.75 518.707 134.192 513.749 136.265 509.087Z" stroke="#46505C" stroke-width="6.66667" stroke-linecap="round" stroke-linejoin="round"/>
</g>
<g style="mix-blend-mode:multiply" opacity="0.33">
<path d="M172.436 549.824C173.885 549.824 175.059 548.651 175.059 547.203C175.059 545.755 173.885 544.581 172.436 544.581C170.987 544.581 169.813 545.755 169.813 547.203C169.813 548.651 170.987 549.824 172.436 549.824Z" fill="#4E4E4E"/>
<path d="M172.436 549.824C173.885 549.824 175.059 548.651 175.059 547.203C175.059 545.755 173.885 544.581 172.436 544.581C170.987 544.581 169.813 545.755 169.813 547.203C169.813 548.651 170.987 549.824 172.436 549.824Z" stroke="#46505C" stroke-width="6.66667" stroke-linecap="round" stroke-linejoin="round"/>
</g>
<g style="mix-blend-mode:multiply" opacity="0.33">
<path d="M165.608 549.985C166.611 549.985 167.425 549.172 167.425 548.17C167.425 547.167 166.611 546.354 165.608 546.354C164.605 546.354 163.792 547.167 163.792 548.17C163.792 549.172 164.605 549.985 165.608 549.985Z" fill="#4E4E4E"/>
<path d="M165.608 549.985C166.611 549.985 167.425 549.172 167.425 548.17C167.425 547.167 166.611 546.354 165.608 546.354C164.605 546.354 163.792 547.167 163.792 548.17C163.792 549.172 164.605 549.985 165.608 549.985Z" stroke="#46505C" stroke-width="6.66667" stroke-linecap="round" stroke-linejoin="round"/>
</g>
<g style="mix-blend-mode:multiply" opacity="0.33">
<path d="M178.635 546.409C179.544 546.409 180.282 545.673 180.282 544.764C180.282 543.855 179.544 543.118 178.635 543.118C177.726 543.118 176.988 543.855 176.988 544.764C176.988 545.673 177.726 546.409 178.635 546.409Z" fill="#4E4E4E"/>
<path d="M178.635 546.409C179.544 546.409 180.282 545.673 180.282 544.764C180.282 543.855 179.544 543.118 178.635 543.118C177.726 543.118 176.988 543.855 176.988 544.764C176.988 545.673 177.726 546.409 178.635 546.409Z" stroke="#46505C" stroke-width="6.66667" stroke-linecap="round" stroke-linejoin="round"/>
</g>
<g style="mix-blend-mode:multiply" opacity="0.33">
<path d="M159.862 550.028C160.513 550.028 161.042 549.501 161.042 548.849C161.042 548.198 160.513 547.67 159.862 547.67C159.21 547.67 158.682 548.198 158.682 548.849C158.682 549.501 159.21 550.028 159.862 550.028Z" fill="#4E4E4E"/>
<path d="M159.862 550.028C160.513 550.028 161.042 549.501 161.042 548.849C161.042 548.198 160.513 547.67 159.862 547.67C159.21 547.67 158.682 548.198 158.682 548.849C158.682 549.501 159.21 550.028 159.862 550.028Z" stroke="#46505C" stroke-width="6.66667" stroke-linecap="round" stroke-linejoin="round"/>
</g>
<g style="mix-blend-mode:multiply" opacity="0.33">
<path d="M183.836 543.746C184.234 543.746 184.556 543.423 184.556 543.026C184.556 542.628 184.234 542.306 183.836 542.306C183.439 542.306 183.116 542.628 183.116 543.026C183.116 543.423 183.439 543.746 183.836 543.746Z" fill="#4E4E4E"/>
<path d="M183.836 543.746C184.234 543.746 184.556 543.423 184.556 543.026C184.556 542.628 184.234 542.306 183.836 542.306C183.439 542.306 183.116 542.628 183.116 543.026C183.116 543.423 183.439 543.746 183.836 543.746Z" stroke="#46505C" stroke-width="6.66667" stroke-linecap="round" stroke-linejoin="round"/>
</g>
<g style="mix-blend-mode:multiply" opacity="0.33">
<path d="M131.098 509.565C132.032 509.565 132.788 508.809 132.788 507.876C132.788 506.943 132.032 506.187 131.098 506.187C130.165 506.187 129.408 506.943 129.408 507.876C129.408 508.809 130.165 509.565 131.098 509.565Z" fill="#4E4E4E"/>
<path d="M131.098 509.565C132.032 509.565 132.788 508.809 132.788 507.876C132.788 506.943 132.032 506.187 131.098 506.187C130.165 506.187 129.408 506.943 129.408 507.876C129.408 508.809 130.165 509.565 131.098 509.565Z" stroke="#46505C" stroke-width="6.66667" stroke-linecap="round" stroke-linejoin="round"/>
</g>
<g style="mix-blend-mode:multiply" opacity="0.33">
<path d="M177.106 489.814C177.984 489.814 178.696 489.103 178.696 488.225C178.696 487.348 177.984 486.636 177.106 486.636C176.228 486.636 175.516 487.348 175.516 488.225C175.516 489.103 176.228 489.814 177.106 489.814Z" fill="#4E4E4E"/>
<path d="M177.106 489.814C177.984 489.814 178.696 489.103 178.696 488.225C178.696 487.348 177.984 486.636 177.106 486.636C176.228 486.636 175.516 487.348 175.516 488.225C175.516 489.103 176.228 489.814 177.106 489.814Z" stroke="#46505C" stroke-width="6.66667" stroke-linecap="round" stroke-linejoin="round"/>
</g>
<g style="mix-blend-mode:multiply" opacity="0.33">
<path d="M187.441 497.492C188.236 497.492 188.881 496.848 188.881 496.053C188.881 495.258 188.236 494.614 187.441 494.614C186.646 494.614 186.001 495.258 186.001 496.053C186.001 496.848 186.646 497.492 187.441 497.492Z" fill="#4E4E4E"/>
<path d="M187.441 497.492C188.236 497.492 188.881 496.848 188.881 496.053C188.881 495.258 188.236 494.614 187.441 494.614C186.646 494.614 186.001 495.258 186.001 496.053C186.001 496.848 186.646 497.492 187.441 497.492Z" stroke="#46505C" stroke-width="6.66667" stroke-linecap="round" stroke-linejoin="round"/>
</g>
<g style="mix-blend-mode:multiply" opacity="0.33">
<path d="M188.623 500.76C188.971 500.76 189.253 500.478 189.253 500.13C189.253 499.782 188.971 499.5 188.623 499.5C188.275 499.5 187.993 499.782 187.993 500.13C187.993 500.478 188.275 500.76 188.623 500.76Z" fill="#4E4E4E"/>
<path d="M188.623 500.76C188.971 500.76 189.253 500.478 189.253 500.13C189.253 499.782 188.971 499.5 188.623 499.5C188.275 499.5 187.993 499.782 187.993 500.13C187.993 500.478 188.275 500.76 188.623 500.76Z" stroke="#46505C" stroke-width="6.66667" stroke-linecap="round" stroke-linejoin="round"/>
</g>
</g>
<path d="M102.71 558.425L115.578 540.052C115.754 539.801 116.021 539.631 116.322 539.577C116.624 539.524 116.934 539.593 117.184 539.768L130.314 548.952C130.565 549.127 130.736 549.395 130.789 549.696C130.842 549.997 130.773 550.307 130.598 550.557L117.729 568.931C116.462 570.74 114.527 571.972 112.351 572.356C110.174 572.74 107.934 572.245 106.124 570.978L104.758 570.023C102.948 568.756 101.715 566.823 101.33 564.648C100.946 562.473 101.442 560.234 102.71 558.425Z" fill="white" stroke="#E6F3FF" stroke-width="3.33333" stroke-miterlimit="10"/>
<path opacity="0.18" d="M117.184 539.772C116.933 539.598 116.623 539.529 116.322 539.583C116.021 539.636 115.754 539.807 115.579 540.057L109.784 548.328C112.006 550.444 114.384 552.389 116.899 554.148C119.413 555.905 122.055 557.472 124.802 558.836L130.597 550.562C130.684 550.438 130.746 550.298 130.779 550.151C130.812 550.003 130.815 549.85 130.789 549.701C130.762 549.552 130.707 549.41 130.625 549.282C130.544 549.155 130.438 549.044 130.314 548.958L117.184 539.772Z" fill="#4E4E4E" stroke="#46505C" stroke-width="6.66667" stroke-linecap="round" stroke-linejoin="round"/>
<path d="M102.71 558.425L115.578 540.052C115.754 539.801 116.021 539.631 116.322 539.577C116.624 539.524 116.934 539.593 117.184 539.768L130.314 548.952C130.565 549.127 130.736 549.395 130.789 549.696C130.842 549.997 130.773 550.307 130.598 550.557L117.729 568.931C116.462 570.74 114.527 571.972 112.351 572.356C110.174 572.74 107.934 572.245 106.124 570.978L104.758 570.023C102.948 568.756 101.715 566.823 101.33 564.648C100.946 562.473 101.442 560.234 102.71 558.425Z" stroke="#46505C" stroke-width="6.66667" stroke-linecap="round" stroke-linejoin="round"/>
<path d="M151.854 558.495C181.839 558.495 206.147 534.203 206.147 504.237C206.147 474.272 181.839 449.98 151.854 449.98C121.868 449.98 97.561 474.272 97.561 504.237C97.561 534.203 121.868 558.495 151.854 558.495Z" fill="white" stroke="#E6F3FF" stroke-width="3.33333" stroke-miterlimit="10"/>
<path d="M151.854 558.495C181.839 558.495 206.147 534.203 206.147 504.237C206.147 474.272 181.839 449.98 151.854 449.98C121.868 449.98 97.561 474.272 97.561 504.237C97.561 534.203 121.868 558.495 151.854 558.495Z" stroke="#46505C" stroke-width="6.66667" stroke-linecap="round" stroke-linejoin="round"/>
<path d="M151.853 546.467C175.192 546.467 194.111 527.56 194.111 504.237C194.111 480.914 175.192 462.006 151.853 462.006C128.514 462.006 109.595 480.914 109.595 504.237C109.595 527.56 128.514 546.467 151.853 546.467Z" fill="#845B5B"/>
<path d="M151.853 546.467C175.192 546.467 194.111 527.56 194.111 504.237C194.111 480.914 175.192 462.006 151.853 462.006C128.514 462.006 109.595 480.914 109.595 504.237C109.595 527.56 128.514 546.467 151.853 546.467Z" stroke="#46505C" stroke-width="3.33333" stroke-linecap="round" stroke-linejoin="round"/>
<g style="mix-blend-mode:multiply" opacity="0.33">
<path d="M124.228 495.47C124.793 494.199 125.405 492.95 126.028 491.729C128.862 486.181 132.252 480.429 137.658 477.028C142.252 474.139 148.672 473.01 153.648 475.563C157.965 477.779 160.567 482.336 164.505 485.169C167.16 486.791 169.919 488.238 172.763 489.499C175.633 490.791 177.905 493.123 179.118 496.025C180.452 500.097 178.253 504.441 178.23 508.723C178.223 511.087 178.879 513.405 180.125 515.414C180.912 516.353 181.418 517.496 181.585 518.71C181.466 519.487 181.136 520.218 180.633 520.823C180.129 521.428 179.47 521.884 178.727 522.143C174.348 524.208 169.237 523.463 164.423 522.942C159.61 522.421 154.282 522.314 150.475 525.304C148.918 526.739 147.475 528.294 146.16 529.954C145.605 530.786 144.872 531.485 144.015 532.001C143.158 532.516 142.198 532.837 141.202 532.938C140.207 533.04 139.201 532.92 138.258 532.588C137.314 532.256 136.455 531.719 135.743 531.017C132.294 528.128 129.301 524.735 126.867 520.953C124.31 517.757 122.505 514.028 121.583 510.041C120.705 505.091 122.157 500.132 124.228 495.47Z" fill="#845B5B"/>
</g>
<g style="mix-blend-mode:multiply" opacity="0.33">
<path d="M160.4 536.206C161.849 536.206 163.023 535.032 163.023 533.584C163.023 532.136 161.849 530.962 160.4 530.962C158.951 530.962 157.776 532.136 157.776 533.584C157.776 535.032 158.951 536.206 160.4 536.206Z" fill="#845B5B"/>
</g>
<g style="mix-blend-mode:multiply" opacity="0.33">
<path d="M153.572 536.368C154.575 536.368 155.389 535.555 155.389 534.552C155.389 533.55 154.575 532.737 153.572 532.737C152.569 532.737 151.755 533.55 151.755 534.552C151.755 535.555 152.569 536.368 153.572 536.368Z" fill="#845B5B"/>
</g>
<g style="mix-blend-mode:multiply" opacity="0.33">
<path d="M166.599 532.793C167.508 532.793 168.245 532.056 168.245 531.147C168.245 530.238 167.508 529.502 166.599 529.502C165.689 529.502 164.952 530.238 164.952 531.147C164.952 532.056 165.689 532.793 166.599 532.793Z" fill="#845B5B"/>
</g>
<g style="mix-blend-mode:multiply" opacity="0.33">
<path d="M147.825 536.414C148.477 536.414 149.005 535.886 149.005 535.234C149.005 534.583 148.477 534.055 147.825 534.055C147.173 534.055 146.645 534.583 146.645 535.234C146.645 535.886 147.173 536.414 147.825 536.414Z" fill="#845B5B"/>
</g>
<g style="mix-blend-mode:multiply" opacity="0.33">
<path d="M171.8 530.128C172.198 530.128 172.52 529.806 172.52 529.408C172.52 529.01 172.198 528.688 171.8 528.688C171.402 528.688 171.08 529.01 171.08 529.408C171.08 529.806 171.402 530.128 171.8 530.128Z" fill="#845B5B"/>
</g>
<g style="mix-blend-mode:multiply" opacity="0.33">
<path d="M119.062 495.948C119.995 495.948 120.752 495.192 120.752 494.259C120.752 493.326 119.995 492.57 119.062 492.57C118.128 492.57 117.372 493.326 117.372 494.259C117.372 495.192 118.128 495.948 119.062 495.948Z" fill="#845B5B"/>
</g>
<g style="mix-blend-mode:multiply" opacity="0.33">
<path d="M165.07 476.196C165.948 476.196 166.66 475.485 166.66 474.607C166.66 473.73 165.948 473.018 165.07 473.018C164.192 473.018 163.48 473.73 163.48 474.607C163.48 475.485 164.192 476.196 165.07 476.196Z" fill="#845B5B"/>
</g>
<g style="mix-blend-mode:multiply" opacity="0.33">
<path d="M175.405 483.874C176.2 483.874 176.845 483.23 176.845 482.435C176.845 481.64 176.2 480.996 175.405 480.996C174.61 480.996 173.965 481.64 173.965 482.435C173.965 483.23 174.61 483.874 175.405 483.874Z" fill="#845B5B"/>
</g>
<g style="mix-blend-mode:multiply" opacity="0.33">
<path d="M176.587 487.142C176.935 487.142 177.217 486.86 177.217 486.512C177.217 486.164 176.935 485.882 176.587 485.882C176.239 485.882 175.957 486.164 175.957 486.512C175.957 486.86 176.239 487.142 176.587 487.142Z" fill="#845B5B"/>
</g>
<path d="M155.557 511.055C157.398 511.055 158.89 509.564 158.89 507.724C158.89 505.885 157.398 504.393 155.557 504.393C153.716 504.393 152.224 505.885 152.224 507.724C152.224 509.564 153.716 511.055 155.557 511.055Z" fill="#845B5B"/>
<path d="M144.7 500.761C147.922 500.761 150.533 498.151 150.533 494.932C150.533 491.712 147.922 489.102 144.7 489.102C141.478 489.102 138.867 491.712 138.867 494.932C138.867 498.151 141.478 500.761 144.7 500.761Z" fill="#845B5B"/>
<g style="mix-blend-mode:multiply" opacity="0.33">
<g style="mix-blend-mode:multiply" opacity="0.33">
<path d="M675.334 329.518H288.667C275.78 329.518 265.333 339.958 265.333 352.836V381.947C265.333 394.825 275.78 405.264 288.667 405.264H675.334C688.22 405.264 698.667 394.825 698.667 381.947V352.836C698.667 339.958 688.22 329.518 675.334 329.518Z" fill="#4E4E4E"/>
<path d="M675.334 329.518H288.667C275.78 329.518 265.333 339.958 265.333 352.836V381.947C265.333 394.825 275.78 405.264 288.667 405.264H675.334C688.22 405.264 698.667 394.825 698.667 381.947V352.836C698.667 339.958 688.22 329.518 675.334 329.518Z" stroke="black" stroke-width="1.66667" stroke-linecap="round" stroke-linejoin="round"/>
</g>
<g style="mix-blend-mode:multiply" opacity="0.33">
<path d="M675.334 329.518H288.667C275.78 329.518 265.333 339.958 265.333 352.836V381.947C265.333 394.825 275.78 405.264 288.667 405.264H675.334C688.22 405.264 698.667 394.825 698.667 381.947V352.836C698.667 339.958 688.22 329.518 675.334 329.518Z" fill="#4E4E4E"/>
</g>
<g style="mix-blend-mode:multiply" opacity="0.17">
<path d="M288.666 329.518H675.333C681.521 329.518 687.456 331.975 691.832 336.348C696.208 340.721 698.666 346.652 698.666 352.836V386.877C698.666 390.653 697.165 394.275 694.493 396.945C691.821 399.615 688.197 401.116 684.418 401.116H279.583C275.804 401.116 272.18 399.615 269.508 396.945C266.836 394.275 265.334 390.653 265.334 386.877V352.836C265.334 346.652 267.793 340.721 272.169 336.348C276.544 331.975 282.479 329.518 288.668 329.518H288.666Z" fill="#4E4E4E"/>
</g>
<g style="mix-blend-mode:multiply" opacity="0.33">
<path d="M675.334 329.518H288.667C275.78 329.518 265.333 339.958 265.333 352.836V381.947C265.333 394.825 275.78 405.264 288.667 405.264H675.334C688.22 405.264 698.667 394.825 698.667 381.947V352.836C698.667 339.958 688.22 329.518 675.334 329.518Z" fill="#4E4E4E"/>
<path d="M675.334 329.518H288.667C275.78 329.518 265.333 339.958 265.333 352.836V381.947C265.333 394.825 275.78 405.264 288.667 405.264H675.334C688.22 405.264 698.667 394.825 698.667 381.947V352.836C698.667 339.958 688.22 329.518 675.334 329.518Z" stroke="#46505C" stroke-width="6.66667" stroke-linecap="round" stroke-linejoin="round"/>
</g>
<g style="mix-blend-mode:multiply" opacity="0.33">
<path d="M668.667 396.248V338.052H295.334V396.248H668.667Z" fill="#4E4E4E"/>
</g>
<g style="mix-blend-mode:multiply" opacity="0.33">
<path d="M668.667 396.248V338.052H295.334V396.248H668.667Z" fill="#4E4E4E"/>
<path d="M668.667 396.248V338.052H295.334V396.248H668.667Z" stroke="#46505C" stroke-width="1.66667" stroke-linecap="round" stroke-linejoin="round"/>
</g>
<g style="mix-blend-mode:multiply" opacity="0.33">
<path d="M675.335 405.264H288.669C275.782 405.264 265.335 415.704 265.335 428.582V668.422C265.335 681.3 275.782 691.74 288.669 691.74H675.335C688.222 691.74 698.669 681.3 698.669 668.422V428.582C698.669 415.704 688.222 405.264 675.335 405.264Z" fill="#4E4E4E"/>
</g>
<g style="mix-blend-mode:multiply" opacity="0.33">
<path d="M692.002 668.422V428.581C692.002 419.383 684.54 411.926 675.336 411.926H288.669C279.464 411.926 272.002 419.383 272.002 428.581V668.422C272.002 677.621 279.464 685.078 288.669 685.078H675.336C684.54 685.078 692.002 677.621 692.002 668.422Z" fill="#4E4E4E"/>
<path d="M692.002 668.422V428.581C692.002 419.383 684.54 411.926 675.336 411.926H288.669C279.464 411.926 272.002 419.383 272.002 428.581V668.422C272.002 677.621 279.464 685.078 288.669 685.078H675.336C684.54 685.078 692.002 677.621 692.002 668.422Z" stroke="#E6F3FF" stroke-width="3.33333" stroke-miterlimit="10"/>
</g>
<g style="mix-blend-mode:multiply" opacity="0.33">
<path d="M455.251 678.711H508.751C510.519 678.711 512.215 679.413 513.465 680.662C514.715 681.912 515.418 683.606 515.418 685.373V691.736H448.584V685.373C448.584 683.606 449.287 681.912 450.537 680.662C451.787 679.413 453.483 678.711 455.251 678.711Z" fill="#4E4E4E"/>
</g>
<g style="mix-blend-mode:multiply" opacity="0.33">
<path d="M675.335 405.264H288.669C275.782 405.264 265.335 415.704 265.335 428.582V668.422C265.335 681.3 275.782 691.74 288.669 691.74H675.335C688.222 691.74 698.669 681.3 698.669 668.422V428.582C698.669 415.704 688.222 405.264 675.335 405.264Z" fill="#4E4E4E"/>
<path d="M675.335 405.264H288.669C275.782 405.264 265.335 415.704 265.335 428.582V668.422C265.335 681.3 275.782 691.74 288.669 691.74H675.335C688.222 691.74 698.669 681.3 698.669 668.422V428.582C698.669 415.704 688.222 405.264 675.335 405.264Z" stroke="#46505C" stroke-width="6.66667" stroke-linecap="round" stroke-linejoin="round"/>
</g>
<g style="mix-blend-mode:multiply" opacity="0.33">
<path d="M668.667 427.617H295.334C292.572 427.617 290.334 429.854 290.334 432.613V575.852C290.334 578.611 292.572 580.848 295.334 580.848H668.667C671.428 580.848 673.667 578.611 673.667 575.852V432.613C673.667 429.854 671.428 427.617 668.667 427.617Z" fill="#4E4E4E"/>
</g>
<g style="mix-blend-mode:multiply" opacity="0.33">
<path d="M363.808 543.373H343.809C342.888 543.373 342.142 544.119 342.142 545.039V565.025C342.142 565.945 342.888 566.691 343.809 566.691H363.808C364.729 566.691 365.475 565.945 365.475 565.025V545.039C365.475 544.119 364.729 543.373 363.808 543.373Z" fill="#4E4E4E"/>
<path d="M363.808 543.373H343.809C342.888 543.373 342.142 544.119 342.142 545.039V565.025C342.142 565.945 342.888 566.691 343.809 566.691H363.808C364.729 566.691 365.475 565.945 365.475 565.025V545.039C365.475 544.119 364.729 543.373 363.808 543.373Z" stroke="#626C84" stroke-width="1.66667" stroke-linecap="round" stroke-linejoin="round"/>
</g>
<g style="mix-blend-mode:multiply" opacity="0.33">
<path d="M327.743 543.373H307.743C306.823 543.373 306.077 544.119 306.077 545.039V565.025C306.077 565.945 306.823 566.691 307.743 566.691H327.743C328.664 566.691 329.41 565.945 329.41 565.025V545.039C329.41 544.119 328.664 543.373 327.743 543.373Z" fill="#4E4E4E"/>
<path d="M327.743 543.373H307.743C306.823 543.373 306.077 544.119 306.077 545.039V565.025C306.077 565.945 306.823 566.691 307.743 566.691H327.743C328.664 566.691 329.41 565.945 329.41 565.025V545.039C329.41 544.119 328.664 543.373 327.743 543.373Z" stroke="#626C84" stroke-width="1.66667" stroke-linecap="round" stroke-linejoin="round"/>
</g>
<g style="mix-blend-mode:multiply" opacity="0.33">
<path d="M544.129 543.373H379.872C378.952 543.373 378.206 544.119 378.206 545.039V565.025C378.206 565.945 378.952 566.691 379.872 566.691H544.129C545.049 566.691 545.796 565.945 545.796 565.025V545.039C545.796 544.119 545.049 543.373 544.129 543.373Z" fill="#4E4E4E"/>
<path d="M544.129 543.373H379.872C378.952 543.373 378.206 544.119 378.206 545.039V565.025C378.206 565.945 378.952 566.691 379.872 566.691H544.129C545.049 566.691 545.796 565.945 545.796 565.025V545.039C545.796 544.119 545.049 543.373 544.129 543.373Z" stroke="#626C84" stroke-width="1.66667" stroke-linecap="round" stroke-linejoin="round"/>
</g>
<g style="mix-blend-mode:multiply" opacity="0.33">
<path d="M580.194 543.373H560.194C559.273 543.373 558.527 544.119 558.527 545.039V565.025C558.527 565.945 559.273 566.691 560.194 566.691H580.194C581.114 566.691 581.861 565.945 581.861 565.025V545.039C581.861 544.119 581.114 543.373 580.194 543.373Z" fill="#4E4E4E"/>
<path d="M580.194 543.373H560.194C559.273 543.373 558.527 544.119 558.527 545.039V565.025C558.527 565.945 559.273 566.691 560.194 566.691H580.194C581.114 566.691 581.861 565.945 581.861 565.025V545.039C581.861 544.119 581.114 543.373 580.194 543.373Z" stroke="#626C84" stroke-width="1.66667" stroke-linecap="round" stroke-linejoin="round"/>
</g>
<g style="mix-blend-mode:multiply" opacity="0.33">
<path d="M632.926 556.489H619.592C618.672 556.489 617.926 557.235 617.926 558.155V565.025C617.926 565.945 618.672 566.691 619.592 566.691H632.926C633.846 566.691 634.592 565.945 634.592 565.025V558.155C634.592 557.235 633.846 556.489 632.926 556.489Z" fill="#4E4E4E"/>
<path d="M632.926 556.489H619.592C618.672 556.489 617.926 557.235 617.926 558.155V565.025C617.926 565.945 618.672 566.691 619.592 566.691H632.926C633.846 566.691 634.592 565.945 634.592 565.025V558.155C634.592 557.235 633.846 556.489 632.926 556.489Z" stroke="#626C84" stroke-width="1.66667" stroke-linecap="round" stroke-linejoin="round"/>
</g>
<g style="mix-blend-mode:multiply" opacity="0.33">
<path d="M632.926 543.373H619.592C618.672 543.373 617.926 544.119 617.926 545.039V551.909C617.926 552.829 618.672 553.575 619.592 553.575H632.926C633.846 553.575 634.592 552.829 634.592 551.909V545.039C634.592 544.119 633.846 543.373 632.926 543.373Z" fill="#4E4E4E"/>
<path d="M632.926 543.373H619.592C618.672 543.373 617.926 544.119 617.926 545.039V551.909C617.926 552.829 618.672 553.575 619.592 553.575H632.926C633.846 553.575 634.592 552.829 634.592 551.909V545.039C634.592 544.119 633.846 543.373 632.926 543.373Z" stroke="#626C84" stroke-width="1.66667" stroke-linecap="round" stroke-linejoin="round"/>
</g>
<g style="mix-blend-mode:multiply" opacity="0.33">
<path d="M656.259 556.489H642.926C642.005 556.489 641.259 557.235 641.259 558.155V565.025C641.259 565.945 642.005 566.691 642.926 566.691H656.259C657.18 566.691 657.926 565.945 657.926 565.025V558.155C657.926 557.235 657.18 556.489 656.259 556.489Z" fill="#4E4E4E"/>
<path d="M656.259 556.489H642.926C642.005 556.489 641.259 557.235 641.259 558.155V565.025C641.259 565.945 642.005 566.691 642.926 566.691H656.259C657.18 566.691 657.926 565.945 657.926 565.025V558.155C657.926 557.235 657.18 556.489 656.259 556.489Z" stroke="#626C84" stroke-width="1.66667" stroke-linecap="round" stroke-linejoin="round"/>
</g>
<g style="mix-blend-mode:multiply" opacity="0.33">
<path d="M609.593 556.489H596.259C595.339 556.489 594.593 557.235 594.593 558.155V565.025C594.593 565.945 595.339 566.691 596.259 566.691H609.593C610.513 566.691 611.259 565.945 611.259 565.025V558.155C611.259 557.235 610.513 556.489 609.593 556.489Z" fill="#4E4E4E"/>
<path d="M609.593 556.489H596.259C595.339 556.489 594.593 557.235 594.593 558.155V565.025C594.593 565.945 595.339 566.691 596.259 566.691H609.593C610.513 566.691 611.259 565.945 611.259 565.025V558.155C611.259 557.235 610.513 556.489 609.593 556.489Z" stroke="#626C84" stroke-width="1.66667" stroke-linecap="round" stroke-linejoin="round"/>
</g>
<g style="mix-blend-mode:multiply" opacity="0.33">
<path d="M360.475 510.194H307.743C306.823 510.194 306.077 510.94 306.077 511.86V531.846C306.077 532.766 306.823 533.512 307.743 533.512H360.475C361.395 533.512 362.142 532.766 362.142 531.846V511.86C362.142 510.94 361.395 510.194 360.475 510.194Z" fill="#4E4E4E"/>
<path d="M360.475 510.194H307.743C306.823 510.194 306.077 510.94 306.077 511.86V531.846C306.077 532.766 306.823 533.512 307.743 533.512H360.475C361.395 533.512 362.142 532.766 362.142 531.846V511.86C362.142 510.94 361.395 510.194 360.475 510.194Z" stroke="#626C84" stroke-width="1.66667" stroke-linecap="round" stroke-linejoin="round"/>
</g>
<g style="mix-blend-mode:multiply" opacity="0.33">
<path d="M396.84 510.194H376.84C375.919 510.194 375.173 510.94 375.173 511.86V531.846C375.173 532.766 375.919 533.512 376.84 533.512H396.84C397.76 533.512 398.507 532.766 398.507 531.846V511.86C398.507 510.94 397.76 510.194 396.84 510.194Z" fill="#4E4E4E"/>
<path d="M396.84 510.194H376.84C375.919 510.194 375.173 510.94 375.173 511.86V531.846C375.173 532.766 375.919 533.512 376.84 533.512H396.84C397.76 533.512 398.507 532.766 398.507 531.846V511.86C398.507 510.94 397.76 510.194 396.84 510.194Z" stroke="#626C84" stroke-width="1.66667" stroke-linecap="round" stroke-linejoin="round"/>
</g>
<g style="mix-blend-mode:multiply" opacity="0.33">
<path d="M432.905 510.194H412.905C411.985 510.194 411.239 510.94 411.239 511.86V531.846C411.239 532.766 411.985 533.512 412.905 533.512H432.905C433.826 533.512 434.572 532.766 434.572 531.846V511.86C434.572 510.94 433.826 510.194 432.905 510.194Z" fill="#4E4E4E"/>
<path d="M432.905 510.194H412.905C411.985 510.194 411.239 510.94 411.239 511.86V531.846C411.239 532.766 411.985 533.512 412.905 533.512H432.905C433.826 533.512 434.572 532.766 434.572 531.846V511.86C434.572 510.94 433.826 510.194 432.905 510.194Z" stroke="#626C84" stroke-width="1.66667" stroke-linecap="round" stroke-linejoin="round"/>
</g>
<g style="mix-blend-mode:multiply" opacity="0.33">
<path d="M468.969 510.194H448.969C448.049 510.194 447.302 510.94 447.302 511.86V531.846C447.302 532.766 448.049 533.512 448.969 533.512H468.969C469.889 533.512 470.636 532.766 470.636 531.846V511.86C470.636 510.94 469.889 510.194 468.969 510.194Z" fill="#4E4E4E"/>
<path d="M468.969 510.194H448.969C448.049 510.194 447.302 510.94 447.302 511.86V531.846C447.302 532.766 448.049 533.512 448.969 533.512H468.969C469.889 533.512 470.636 532.766 470.636 531.846V511.86C470.636 510.94 469.889 510.194 468.969 510.194Z" stroke="#626C84" stroke-width="1.66667" stroke-linecap="round" stroke-linejoin="round"/>
</g>
<g style="mix-blend-mode:multiply" opacity="0.33">
<path d="M505.033 510.194H485.033C484.113 510.194 483.367 510.94 483.367 511.86V531.846C483.367 532.766 484.113 533.512 485.033 533.512H505.033C505.954 533.512 506.7 532.766 506.7 531.846V511.86C506.7 510.94 505.954 510.194 505.033 510.194Z" fill="#4E4E4E"/>
<path d="M505.033 510.194H485.033C484.113 510.194 483.367 510.94 483.367 511.86V531.846C483.367 532.766 484.113 533.512 485.033 533.512H505.033C505.954 533.512 506.7 532.766 506.7 531.846V511.86C506.7 510.94 505.954 510.194 505.033 510.194Z" stroke="#626C84" stroke-width="1.66667" stroke-linecap="round" stroke-linejoin="round"/>
</g>
<g style="mix-blend-mode:multiply" opacity="0.33">
<path d="M541.097 510.194H521.097C520.177 510.194 519.43 510.94 519.43 511.86V531.846C519.43 532.766 520.177 533.512 521.097 533.512H541.097C542.018 533.512 542.764 532.766 542.764 531.846V511.86C542.764 510.94 542.018 510.194 541.097 510.194Z" fill="#4E4E4E"/>
<path d="M541.097 510.194H521.097C520.177 510.194 519.43 510.94 519.43 511.86V531.846C519.43 532.766 520.177 533.512 521.097 533.512H541.097C542.018 533.512 542.764 532.766 542.764 531.846V511.86C542.764 510.94 542.018 510.194 541.097 510.194Z" stroke="#626C84" stroke-width="1.66667" stroke-linecap="round" stroke-linejoin="round"/>
</g>
<g style="mix-blend-mode:multiply" opacity="0.33">
<path d="M577.162 510.194H557.162C556.242 510.194 555.496 510.94 555.496 511.86V531.846C555.496 532.766 556.242 533.512 557.162 533.512H577.162C578.083 533.512 578.829 532.766 578.829 531.846V511.86C578.829 510.94 578.083 510.194 577.162 510.194Z" fill="#4E4E4E"/>
<path d="M577.162 510.194H557.162C556.242 510.194 555.496 510.94 555.496 511.86V531.846C555.496 532.766 556.242 533.512 557.162 533.512H577.162C578.083 533.512 578.829 532.766 578.829 531.846V511.86C578.829 510.94 578.083 510.194 577.162 510.194Z" stroke="#626C84" stroke-width="1.66667" stroke-linecap="round" stroke-linejoin="round"/>
</g>
<g style="mix-blend-mode:multiply" opacity="0.33">
<path d="M656.259 510.194H596.259C595.339 510.194 594.593 510.94 594.593 511.86V531.846C594.593 532.766 595.339 533.512 596.259 533.512H656.259C657.18 533.512 657.926 532.766 657.926 531.846V511.86C657.926 510.94 657.18 510.194 656.259 510.194Z" fill="#4E4E4E"/>
<path d="M656.259 510.194H596.259C595.339 510.194 594.593 510.94 594.593 511.86V531.846C594.593 532.766 595.339 533.512 596.259 533.512H656.259C657.18 533.512 657.926 532.766 657.926 531.846V511.86C657.926 510.94 657.18 510.194 656.259 510.194Z" stroke="#626C84" stroke-width="1.66667" stroke-linecap="round" stroke-linejoin="round"/>
</g>
<g style="mix-blend-mode:multiply" opacity="0.33">
<path d="M383.808 476.084H363.808C362.888 476.084 362.142 476.83 362.142 477.75V497.736C362.142 498.656 362.888 499.402 363.808 499.402H383.808C384.729 499.402 385.475 498.656 385.475 497.736V477.75C385.475 476.83 384.729 476.084 383.808 476.084Z" fill="#4E4E4E"/>
<path d="M383.808 476.084H363.808C362.888 476.084 362.142 476.83 362.142 477.75V497.736C362.142 498.656 362.888 499.402 363.808 499.402H383.808C384.729 499.402 385.475 498.656 385.475 497.736V477.75C385.475 476.83 384.729 476.084 383.808 476.084Z" stroke="#626C84" stroke-width="1.66667" stroke-linecap="round" stroke-linejoin="round"/>
</g>
<g style="mix-blend-mode:multiply" opacity="0.33">
<path d="M347.743 476.084H307.743C306.823 476.084 306.077 476.83 306.077 477.75V497.736C306.077 498.656 306.823 499.402 307.743 499.402H347.743C348.664 499.402 349.41 498.656 349.41 497.736V477.75C349.41 476.83 348.664 476.084 347.743 476.084Z" fill="#4E4E4E"/>
<path d="M347.743 476.084H307.743C306.823 476.084 306.077 476.83 306.077 477.75V497.736C306.077 498.656 306.823 499.402 307.743 499.402H347.743C348.664 499.402 349.41 498.656 349.41 497.736V477.75C349.41 476.83 348.664 476.084 347.743 476.084Z" stroke="#626C84" stroke-width="1.66667" stroke-linecap="round" stroke-linejoin="round"/>
</g>
<g style="mix-blend-mode:multiply" opacity="0.33">
<path d="M419.872 476.084H399.872C398.952 476.084 398.206 476.83 398.206 477.75V497.736C398.206 498.656 398.952 499.402 399.872 499.402H419.872C420.793 499.402 421.539 498.656 421.539 497.736V477.75C421.539 476.83 420.793 476.084 419.872 476.084Z" fill="#4E4E4E"/>
<path d="M419.872 476.084H399.872C398.952 476.084 398.206 476.83 398.206 477.75V497.736C398.206 498.656 398.952 499.402 399.872 499.402H419.872C420.793 499.402 421.539 498.656 421.539 497.736V477.75C421.539 476.83 420.793 476.084 419.872 476.084Z" stroke="#626C84" stroke-width="1.66667" stroke-linecap="round" stroke-linejoin="round"/>
</g>
<g style="mix-blend-mode:multiply" opacity="0.33">
<path d="M455.937 476.084H435.937C435.016 476.084 434.27 476.83 434.27 477.75V497.736C434.27 498.656 435.016 499.402 435.937 499.402H455.937C456.857 499.402 457.603 498.656 457.603 497.736V477.75C457.603 476.83 456.857 476.084 455.937 476.084Z" fill="#4E4E4E"/>
<path d="M455.937 476.084H435.937C435.016 476.084 434.27 476.83 434.27 477.75V497.736C434.27 498.656 435.016 499.402 435.937 499.402H455.937C456.857 499.402 457.603 498.656 457.603 497.736V477.75C457.603 476.83 456.857 476.084 455.937 476.084Z" stroke="#626C84" stroke-width="1.66667" stroke-linecap="round" stroke-linejoin="round"/>
</g>
<g style="mix-blend-mode:multiply" opacity="0.33">
<path d="M492 476.084H472C471.08 476.084 470.334 476.83 470.334 477.75V497.736C470.334 498.656 471.08 499.402 472 499.402H492C492.921 499.402 493.667 498.656 493.667 497.736V477.75C493.667 476.83 492.921 476.084 492 476.084Z" fill="#4E4E4E"/>
<path d="M492 476.084H472C471.08 476.084 470.334 476.83 470.334 477.75V497.736C470.334 498.656 471.08 499.402 472 499.402H492C492.921 499.402 493.667 498.656 493.667 497.736V477.75C493.667 476.83 492.921 476.084 492 476.084Z" stroke="#626C84" stroke-width="1.66667" stroke-linecap="round" stroke-linejoin="round"/>
</g>
<g style="mix-blend-mode:multiply" opacity="0.33">
<path d="M528.066 476.084H508.066C507.145 476.084 506.399 476.83 506.399 477.75V497.736C506.399 498.656 507.145 499.402 508.066 499.402H528.066C528.986 499.402 529.732 498.656 529.732 497.736V477.75C529.732 476.83 528.986 476.084 528.066 476.084Z" fill="#4E4E4E"/>
<path d="M528.066 476.084H508.066C507.145 476.084 506.399 476.83 506.399 477.75V497.736C506.399 498.656 507.145 499.402 508.066 499.402H528.066C528.986 499.402 529.732 498.656 529.732 497.736V477.75C529.732 476.83 528.986 476.084 528.066 476.084Z" stroke="#626C84" stroke-width="1.66667" stroke-linecap="round" stroke-linejoin="round"/>
</g>
<g style="mix-blend-mode:multiply" opacity="0.33">
<path d="M564.13 476.084H544.13C543.21 476.084 542.463 476.83 542.463 477.75V497.736C542.463 498.656 543.21 499.402 544.13 499.402H564.13C565.051 499.402 565.797 498.656 565.797 497.736V477.75C565.797 476.83 565.051 476.084 564.13 476.084Z" fill="#4E4E4E"/>
<path d="M564.13 476.084H544.13C543.21 476.084 542.463 476.83 542.463 477.75V497.736C542.463 498.656 543.21 499.402 544.13 499.402H564.13C565.051 499.402 565.797 498.656 565.797 497.736V477.75C565.797 476.83 565.051 476.084 564.13 476.084Z" stroke="#626C84" stroke-width="1.66667" stroke-linecap="round" stroke-linejoin="round"/>
</g>
<g style="mix-blend-mode:multiply" opacity="0.33">
<path d="M600.194 476.084H580.194C579.273 476.084 578.527 476.83 578.527 477.75V497.736C578.527 498.656 579.273 499.402 580.194 499.402H600.194C601.114 499.402 601.861 498.656 601.861 497.736V477.75C601.861 476.83 601.114 476.084 600.194 476.084Z" fill="#4E4E4E"/>
<path d="M600.194 476.084H580.194C579.273 476.084 578.527 476.83 578.527 477.75V497.736C578.527 498.656 579.273 499.402 580.194 499.402H600.194C601.114 499.402 601.861 498.656 601.861 497.736V477.75C601.861 476.83 601.114 476.084 600.194 476.084Z" stroke="#626C84" stroke-width="1.66667" stroke-linecap="round" stroke-linejoin="round"/>
</g>
<g style="mix-blend-mode:multiply" opacity="0.33">
<path d="M656.259 476.084H616.259C615.339 476.084 614.593 476.83 614.593 477.75V497.736C614.593 498.656 615.339 499.402 616.259 499.402H656.259C657.18 499.402 657.926 498.656 657.926 497.736V477.75C657.926 476.83 657.18 476.084 656.259 476.084Z" fill="#4E4E4E"/>
<path d="M656.259 476.084H616.259C615.339 476.084 614.593 476.83 614.593 477.75V497.736C614.593 498.656 615.339 499.402 616.259 499.402H656.259C657.18 499.402 657.926 498.656 657.926 497.736V477.75C657.926 476.83 657.18 476.084 656.259 476.084Z" stroke="#626C84" stroke-width="1.66667" stroke-linecap="round" stroke-linejoin="round"/>
</g>
<g style="mix-blend-mode:multiply" opacity="0.33">
<path d="M364.245 443.44H344.245C343.325 443.44 342.579 444.185 342.579 445.105V465.092C342.579 466.012 343.325 466.757 344.245 466.757H364.245C365.166 466.757 365.912 466.012 365.912 465.092V445.105C365.912 444.185 365.166 443.44 364.245 443.44Z" fill="#4E4E4E"/>
<path d="M364.245 443.44H344.245C343.325 443.44 342.579 444.185 342.579 445.105V465.092C342.579 466.012 343.325 466.757 344.245 466.757H364.245C365.166 466.757 365.912 466.012 365.912 465.092V445.105C365.912 444.185 365.166 443.44 364.245 443.44Z" stroke="#626C84" stroke-width="1.66667" stroke-linecap="round" stroke-linejoin="round"/>
</g>
<g style="mix-blend-mode:multiply" opacity="0.33">
<path d="M327.743 443.44H307.743C306.823 443.44 306.077 444.185 306.077 445.105V465.092C306.077 466.012 306.823 466.757 307.743 466.757H327.743C328.664 466.757 329.41 466.012 329.41 465.092V445.105C329.41 444.185 328.664 443.44 327.743 443.44Z" fill="#4E4E4E"/>
<path d="M327.743 443.44H307.743C306.823 443.44 306.077 444.185 306.077 445.105V465.092C306.077 466.012 306.823 466.757 307.743 466.757H327.743C328.664 466.757 329.41 466.012 329.41 465.092V445.105C329.41 444.185 328.664 443.44 327.743 443.44Z" stroke="#626C84" stroke-width="1.66667" stroke-linecap="round" stroke-linejoin="round"/>
</g>
<g style="mix-blend-mode:multiply" opacity="0.33">
<path d="M400.747 443.44H380.747C379.827 443.44 379.08 444.185 379.08 445.105V465.092C379.08 466.012 379.827 466.757 380.747 466.757H400.747C401.668 466.757 402.414 466.012 402.414 465.092V445.105C402.414 444.185 401.668 443.44 400.747 443.44Z" fill="#4E4E4E"/>
<path d="M400.747 443.44H380.747C379.827 443.44 379.08 444.185 379.08 445.105V465.092C379.08 466.012 379.827 466.757 380.747 466.757H400.747C401.668 466.757 402.414 466.012 402.414 465.092V445.105C402.414 444.185 401.668 443.44 400.747 443.44Z" stroke="#626C84" stroke-width="1.66667" stroke-linecap="round" stroke-linejoin="round"/>
</g>
<g style="mix-blend-mode:multiply" opacity="0.33">
<path d="M437.248 443.44H417.248C416.328 443.44 415.582 444.185 415.582 445.105V465.092C415.582 466.012 416.328 466.757 417.248 466.757H437.248C438.169 466.757 438.915 466.012 438.915 465.092V445.105C438.915 444.185 438.169 443.44 437.248 443.44Z" fill="#4E4E4E"/>
<path d="M437.248 443.44H417.248C416.328 443.44 415.582 444.185 415.582 445.105V465.092C415.582 466.012 416.328 466.757 417.248 466.757H437.248C438.169 466.757 438.915 466.012 438.915 465.092V445.105C438.915 444.185 438.169 443.44 437.248 443.44Z" stroke="#626C84" stroke-width="1.66667" stroke-linecap="round" stroke-linejoin="round"/>
</g>
<g style="mix-blend-mode:multiply" opacity="0.33">
<path d="M473.75 443.44H453.75C452.83 443.44 452.083 444.185 452.083 445.105V465.092C452.083 466.012 452.83 466.757 453.75 466.757H473.75C474.671 466.757 475.417 466.012 475.417 465.092V445.105C475.417 444.185 474.671 443.44 473.75 443.44Z" fill="#4E4E4E"/>
<path d="M473.75 443.44H453.75C452.83 443.44 452.083 444.185 452.083 445.105V465.092C452.083 466.012 452.83 466.757 453.75 466.757H473.75C474.671 466.757 475.417 466.012 475.417 465.092V445.105C475.417 444.185 474.671 443.44 473.75 443.44Z" stroke="#626C84" stroke-width="1.66667" stroke-linecap="round" stroke-linejoin="round"/>
</g>
<g style="mix-blend-mode:multiply" opacity="0.33">
<path d="M510.252 443.44H490.252C489.332 443.44 488.586 444.185 488.586 445.105V465.092C488.586 466.012 489.332 466.757 490.252 466.757H510.252C511.173 466.757 511.919 466.012 511.919 465.092V445.105C511.919 444.185 511.173 443.44 510.252 443.44Z" fill="#4E4E4E"/>
<path d="M510.252 443.44H490.252C489.332 443.44 488.586 444.185 488.586 445.105V465.092C488.586 466.012 489.332 466.757 490.252 466.757H510.252C511.173 466.757 511.919 466.012 511.919 465.092V445.105C511.919 444.185 511.173 443.44 510.252 443.44Z" stroke="#626C84" stroke-width="1.66667" stroke-linecap="round" stroke-linejoin="round"/>
</g>
<g style="mix-blend-mode:multiply" opacity="0.33">
<path d="M546.754 443.44H526.754C525.833 443.44 525.087 444.185 525.087 445.105V465.092C525.087 466.012 525.833 466.757 526.754 466.757H546.754C547.674 466.757 548.421 466.012 548.421 465.092V445.105C548.421 444.185 547.674 443.44 546.754 443.44Z" fill="#4E4E4E"/>
<path d="M546.754 443.44H526.754C525.833 443.44 525.087 444.185 525.087 445.105V465.092C525.087 466.012 525.833 466.757 526.754 466.757H546.754C547.674 466.757 548.421 466.012 548.421 465.092V445.105C548.421 444.185 547.674 443.44 546.754 443.44Z" stroke="#626C84" stroke-width="1.66667" stroke-linecap="round" stroke-linejoin="round"/>
</g>
<g style="mix-blend-mode:multiply" opacity="0.33">
<path d="M583.255 443.44H563.255C562.335 443.44 561.589 444.185 561.589 445.105V465.092C561.589 466.012 562.335 466.757 563.255 466.757H583.255C584.176 466.757 584.922 466.012 584.922 465.092V445.105C584.922 444.185 584.176 443.44 583.255 443.44Z" fill="#4E4E4E"/>
<path d="M583.255 443.44H563.255C562.335 443.44 561.589 444.185 561.589 445.105V465.092C561.589 466.012 562.335 466.757 563.255 466.757H583.255C584.176 466.757 584.922 466.012 584.922 465.092V445.105C584.922 444.185 584.176 443.44 583.255 443.44Z" stroke="#626C84" stroke-width="1.66667" stroke-linecap="round" stroke-linejoin="round"/>
</g>
<g style="mix-blend-mode:multiply" opacity="0.33">
<path d="M619.757 443.44H599.757C598.836 443.44 598.09 444.185 598.09 445.105V465.092C598.09 466.012 598.836 466.757 599.757 466.757H619.757C620.677 466.757 621.424 466.012 621.424 465.092V445.105C621.424 444.185 620.677 443.44 619.757 443.44Z" fill="#4E4E4E"/>
<path d="M619.757 443.44H599.757C598.836 443.44 598.09 444.185 598.09 445.105V465.092C598.09 466.012 598.836 466.757 599.757 466.757H619.757C620.677 466.757 621.424 466.012 621.424 465.092V445.105C621.424 444.185 620.677 443.44 619.757 443.44Z" stroke="#626C84" stroke-width="1.66667" stroke-linecap="round" stroke-linejoin="round"/>
</g>
<g style="mix-blend-mode:multiply" opacity="0.33">
<path d="M656.259 443.44H636.259C635.339 443.44 634.592 444.185 634.592 445.105V465.092C634.592 466.012 635.339 466.757 636.259 466.757H656.259C657.18 466.757 657.926 466.012 657.926 465.092V445.105C657.926 444.185 657.18 443.44 656.259 443.44Z" fill="#4E4E4E"/>
<path d="M656.259 443.44H636.259C635.339 443.44 634.592 444.185 634.592 445.105V465.092C634.592 466.012 635.339 466.757 636.259 466.757H656.259C657.18 466.757 657.926 466.012 657.926 465.092V445.105C657.926 444.185 657.18 443.44 656.259 443.44Z" stroke="#626C84" stroke-width="1.66667" stroke-linecap="round" stroke-linejoin="round"/>
</g>
<g style="mix-blend-mode:multiply" opacity="0.33">
<path d="M363.808 543.373H343.809C342.888 543.373 342.142 544.119 342.142 545.039V565.025C342.142 565.945 342.888 566.691 343.809 566.691H363.808C364.729 566.691 365.475 565.945 365.475 565.025V545.039C365.475 544.119 364.729 543.373 363.808 543.373Z" fill="#4E4E4E"/>
</g>
<g style="mix-blend-mode:multiply" opacity="0.33">
<path d="M327.743 543.373H307.743C306.823 543.373 306.077 544.119 306.077 545.039V565.025C306.077 565.945 306.823 566.691 307.743 566.691H327.743C328.664 566.691 329.41 565.945 329.41 565.025V545.039C329.41 544.119 328.664 543.373 327.743 543.373Z" fill="#4E4E4E"/>
</g>
<g style="mix-blend-mode:multiply" opacity="0.33">
<path d="M544.129 543.373H379.872C378.952 543.373 378.206 544.119 378.206 545.039V565.025C378.206 565.945 378.952 566.691 379.872 566.691H544.129C545.049 566.691 545.796 565.945 545.796 565.025V545.039C545.796 544.119 545.049 543.373 544.129 543.373Z" fill="#4E4E4E"/>
</g>
<g style="mix-blend-mode:multiply" opacity="0.33">
<path d="M580.194 543.373H560.194C559.273 543.373 558.527 544.119 558.527 545.039V565.025C558.527 565.945 559.273 566.691 560.194 566.691H580.194C581.114 566.691 581.861 565.945 581.861 565.025V545.039C581.861 544.119 581.114 543.373 580.194 543.373Z" fill="#4E4E4E"/>
</g>
<g style="mix-blend-mode:multiply" opacity="0.33">
<path d="M632.926 556.489H619.592C618.672 556.489 617.926 557.235 617.926 558.155V565.025C617.926 565.945 618.672 566.691 619.592 566.691H632.926C633.846 566.691 634.592 565.945 634.592 565.025V558.155C634.592 557.235 633.846 556.489 632.926 556.489Z" fill="#4E4E4E"/>
</g>
<g style="mix-blend-mode:multiply" opacity="0.33">
<path d="M632.926 543.373H619.592C618.672 543.373 617.926 544.119 617.926 545.039V551.909C617.926 552.829 618.672 553.575 619.592 553.575H632.926C633.846 553.575 634.592 552.829 634.592 551.909V545.039C634.592 544.119 633.846 543.373 632.926 543.373Z" fill="#4E4E4E"/>
</g>
<g style="mix-blend-mode:multiply" opacity="0.33">
<path d="M656.259 556.489H642.926C642.005 556.489 641.259 557.235 641.259 558.155V565.025C641.259 565.945 642.005 566.691 642.926 566.691H656.259C657.18 566.691 657.926 565.945 657.926 565.025V558.155C657.926 557.235 657.18 556.489 656.259 556.489Z" fill="#4E4E4E"/>
</g>
<g style="mix-blend-mode:multiply" opacity="0.33">
<path d="M609.593 556.489H596.259C595.339 556.489 594.593 557.235 594.593 558.155V565.025C594.593 565.945 595.339 566.691 596.259 566.691H609.593C610.513 566.691 611.259 565.945 611.259 565.025V558.155C611.259 557.235 610.513 556.489 609.593 556.489Z" fill="#4E4E4E"/>
</g>
<g style="mix-blend-mode:multiply" opacity="0.33">
<path d="M360.475 510.194H307.743C306.823 510.194 306.077 510.94 306.077 511.86V531.846C306.077 532.766 306.823 533.512 307.743 533.512H360.475C361.395 533.512 362.142 532.766 362.142 531.846V511.86C362.142 510.94 361.395 510.194 360.475 510.194Z" fill="#4E4E4E"/>
</g>
<g style="mix-blend-mode:multiply" opacity="0.33">
<path d="M396.84 510.194H376.84C375.919 510.194 375.173 510.94 375.173 511.86V531.846C375.173 532.766 375.919 533.512 376.84 533.512H396.84C397.76 533.512 398.507 532.766 398.507 531.846V511.86C398.507 510.94 397.76 510.194 396.84 510.194Z" fill="#4E4E4E"/>
</g>
<g style="mix-blend-mode:multiply" opacity="0.33">
<path d="M432.905 510.194H412.905C411.985 510.194 411.239 510.94 411.239 511.86V531.846C411.239 532.766 411.985 533.512 412.905 533.512H432.905C433.826 533.512 434.572 532.766 434.572 531.846V511.86C434.572 510.94 433.826 510.194 432.905 510.194Z" fill="#4E4E4E"/>
</g>
<g style="mix-blend-mode:multiply" opacity="0.33">
<path d="M468.969 510.194H448.969C448.049 510.194 447.302 510.94 447.302 511.86V531.846C447.302 532.766 448.049 533.512 448.969 533.512H468.969C469.889 533.512 470.636 532.766 470.636 531.846V511.86C470.636 510.94 469.889 510.194 468.969 510.194Z" fill="#4E4E4E"/>
</g>
<g style="mix-blend-mode:multiply" opacity="0.33">
<path d="M505.033 510.194H485.033C484.113 510.194 483.367 510.94 483.367 511.86V531.846C483.367 532.766 484.113 533.512 485.033 533.512H505.033C505.954 533.512 506.7 532.766 506.7 531.846V511.86C506.7 510.94 505.954 510.194 505.033 510.194Z" fill="#4E4E4E"/>
</g>
<g style="mix-blend-mode:multiply" opacity="0.33">
<path d="M541.097 510.194H521.097C520.177 510.194 519.43 510.94 519.43 511.86V531.846C519.43 532.766 520.177 533.512 521.097 533.512H541.097C542.018 533.512 542.764 532.766 542.764 531.846V511.86C542.764 510.94 542.018 510.194 541.097 510.194Z" fill="#4E4E4E"/>
</g>
<g style="mix-blend-mode:multiply" opacity="0.33">
<path d="M577.162 510.194H557.162C556.242 510.194 555.496 510.94 555.496 511.86V531.846C555.496 532.766 556.242 533.512 557.162 533.512H577.162C578.083 533.512 578.829 532.766 578.829 531.846V511.86C578.829 510.94 578.083 510.194 577.162 510.194Z" fill="#4E4E4E"/>
</g>
<g style="mix-blend-mode:multiply" opacity="0.33">
<path d="M656.259 510.194H596.259C595.339 510.194 594.593 510.94 594.593 511.86V531.846C594.593 532.766 595.339 533.512 596.259 533.512H656.259C657.18 533.512 657.926 532.766 657.926 531.846V511.86C657.926 510.94 657.18 510.194 656.259 510.194Z" fill="#4E4E4E"/>
</g>
<g style="mix-blend-mode:multiply" opacity="0.33">
<path d="M383.808 476.084H363.808C362.888 476.084 362.142 476.83 362.142 477.75V497.736C362.142 498.656 362.888 499.402 363.808 499.402H383.808C384.729 499.402 385.475 498.656 385.475 497.736V477.75C385.475 476.83 384.729 476.084 383.808 476.084Z" fill="#4E4E4E"/>
</g>
<g style="mix-blend-mode:multiply" opacity="0.33">
<path d="M347.743 476.084H307.743C306.823 476.084 306.077 476.83 306.077 477.75V497.736C306.077 498.656 306.823 499.402 307.743 499.402H347.743C348.664 499.402 349.41 498.656 349.41 497.736V477.75C349.41 476.83 348.664 476.084 347.743 476.084Z" fill="#4E4E4E"/>
</g>
<g style="mix-blend-mode:multiply" opacity="0.33">
<path d="M419.872 476.084H399.872C398.952 476.084 398.206 476.83 398.206 477.75V497.736C398.206 498.656 398.952 499.402 399.872 499.402H419.872C420.793 499.402 421.539 498.656 421.539 497.736V477.75C421.539 476.83 420.793 476.084 419.872 476.084Z" fill="#4E4E4E"/>
</g>
<g style="mix-blend-mode:multiply" opacity="0.33">
<path d="M455.937 476.084H435.937C435.016 476.084 434.27 476.83 434.27 477.75V497.736C434.27 498.656 435.016 499.402 435.937 499.402H455.937C456.857 499.402 457.603 498.656 457.603 497.736V477.75C457.603 476.83 456.857 476.084 455.937 476.084Z" fill="#4E4E4E"/>
</g>
<g style="mix-blend-mode:multiply" opacity="0.33">
<path d="M492 476.084H472C471.08 476.084 470.334 476.83 470.334 477.75V497.736C470.334 498.656 471.08 499.402 472 499.402H492C492.921 499.402 493.667 498.656 493.667 497.736V477.75C493.667 476.83 492.921 476.084 492 476.084Z" fill="#4E4E4E"/>
</g>
<g style="mix-blend-mode:multiply" opacity="0.33">
<path d="M528.066 476.084H508.066C507.145 476.084 506.399 476.83 506.399 477.75V497.736C506.399 498.656 507.145 499.402 508.066 499.402H528.066C528.986 499.402 529.732 498.656 529.732 497.736V477.75C529.732 476.83 528.986 476.084 528.066 476.084Z" fill="#4E4E4E"/>
</g>
<g style="mix-blend-mode:multiply" opacity="0.33">
<path d="M564.13 476.084H544.13C543.21 476.084 542.463 476.83 542.463 477.75V497.736C542.463 498.656 543.21 499.402 544.13 499.402H564.13C565.051 499.402 565.797 498.656 565.797 497.736V477.75C565.797 476.83 565.051 476.084 564.13 476.084Z" fill="#4E4E4E"/>
</g>
<g style="mix-blend-mode:multiply" opacity="0.33">
<path d="M600.194 476.084H580.194C579.273 476.084 578.527 476.83 578.527 477.75V497.736C578.527 498.656 579.273 499.402 580.194 499.402H600.194C601.114 499.402 601.861 498.656 601.861 497.736V477.75C601.861 476.83 601.114 476.084 600.194 476.084Z" fill="#4E4E4E"/>
</g>
<g style="mix-blend-mode:multiply" opacity="0.33">
<path d="M656.259 476.084H616.259C615.339 476.084 614.593 476.83 614.593 477.75V497.736C614.593 498.656 615.339 499.402 616.259 499.402H656.259C657.18 499.402 657.926 498.656 657.926 497.736V477.75C657.926 476.83 657.18 476.084 656.259 476.084Z" fill="#4E4E4E"/>
</g>
<g style="mix-blend-mode:multiply" opacity="0.33">
<path d="M364.245 443.44H344.245C343.325 443.44 342.579 444.185 342.579 445.105V465.092C342.579 466.012 343.325 466.757 344.245 466.757H364.245C365.166 466.757 365.912 466.012 365.912 465.092V445.105C365.912 444.185 365.166 443.44 364.245 443.44Z" fill="#4E4E4E"/>
</g>
<g style="mix-blend-mode:multiply" opacity="0.33">
<path d="M327.743 443.44H307.743C306.823 443.44 306.077 444.185 306.077 445.105V465.092C306.077 466.012 306.823 466.757 307.743 466.757H327.743C328.664 466.757 329.41 466.012 329.41 465.092V445.105C329.41 444.185 328.664 443.44 327.743 443.44Z" fill="#4E4E4E"/>
</g>
<g style="mix-blend-mode:multiply" opacity="0.33">
<path d="M400.747 443.44H380.747C379.827 443.44 379.08 444.185 379.08 445.105V465.092C379.08 466.012 379.827 466.757 380.747 466.757H400.747C401.668 466.757 402.414 466.012 402.414 465.092V445.105C402.414 444.185 401.668 443.44 400.747 443.44Z" fill="#4E4E4E"/>
</g>
<g style="mix-blend-mode:multiply" opacity="0.33">
<path d="M437.248 443.44H417.248C416.328 443.44 415.582 444.185 415.582 445.105V465.092C415.582 466.012 416.328 466.757 417.248 466.757H437.248C438.169 466.757 438.915 466.012 438.915 465.092V445.105C438.915 444.185 438.169 443.44 437.248 443.44Z" fill="#4E4E4E"/>
</g>
<g style="mix-blend-mode:multiply" opacity="0.33">
<path d="M473.75 443.44H453.75C452.83 443.44 452.083 444.185 452.083 445.105V465.092C452.083 466.012 452.83 466.757 453.75 466.757H473.75C474.671 466.757 475.417 466.012 475.417 465.092V445.105C475.417 444.185 474.671 443.44 473.75 443.44Z" fill="#4E4E4E"/>
</g>
<g style="mix-blend-mode:multiply" opacity="0.33">
<path d="M510.252 443.44H490.252C489.332 443.44 488.586 444.185 488.586 445.105V465.092C488.586 466.012 489.332 466.757 490.252 466.757H510.252C511.173 466.757 511.919 466.012 511.919 465.092V445.105C511.919 444.185 511.173 443.44 510.252 443.44Z" fill="#4E4E4E"/>
</g>
<g style="mix-blend-mode:multiply" opacity="0.33">
<path d="M546.754 443.44H526.754C525.833 443.44 525.087 444.185 525.087 445.105V465.092C525.087 466.012 525.833 466.757 526.754 466.757H546.754C547.674 466.757 548.421 466.012 548.421 465.092V445.105C548.421 444.185 547.674 443.44 546.754 443.44Z" fill="#4E4E4E"/>
</g>
<g style="mix-blend-mode:multiply" opacity="0.33">
<path d="M583.255 443.44H563.255C562.335 443.44 561.589 444.185 561.589 445.105V465.092C561.589 466.012 562.335 466.757 563.255 466.757H583.255C584.176 466.757 584.922 466.012 584.922 465.092V445.105C584.922 444.185 584.176 443.44 583.255 443.44Z" fill="#4E4E4E"/>
</g>
<g style="mix-blend-mode:multiply" opacity="0.33">
<path d="M619.757 443.44H599.757C598.836 443.44 598.09 444.185 598.09 445.105V465.092C598.09 466.012 598.836 466.757 599.757 466.757H619.757C620.677 466.757 621.424 466.012 621.424 465.092V445.105C621.424 444.185 620.677 443.44 619.757 443.44Z" fill="#4E4E4E"/>
</g>
<g style="mix-blend-mode:multiply" opacity="0.33">
<path d="M656.259 443.44H636.259C635.339 443.44 634.592 444.185 634.592 445.105V465.092C634.592 466.012 635.339 466.757 636.259 466.757H656.259C657.18 466.757 657.926 466.012 657.926 465.092V445.105C657.926 444.185 657.18 443.44 656.259 443.44Z" fill="#4E4E4E"/>
</g>
<g style="mix-blend-mode:multiply" opacity="0.33">
<path d="M340.333 390.301H623.667V412.697C623.667 414.463 622.964 416.158 621.714 417.407C620.464 418.657 618.768 419.359 617 419.359H347C345.232 419.359 343.536 418.657 342.286 417.407C341.036 416.158 340.333 414.463 340.333 412.697V390.301Z" fill="#4E4E4E"/>
</g>
<g style="mix-blend-mode:multiply" opacity="0.25">
<path d="M617 412.695H347C345.232 412.695 343.536 411.993 342.286 410.743C341.036 409.494 340.333 407.799 340.333 406.032V412.695C340.333 414.461 341.036 416.156 342.286 417.405C343.536 418.655 345.232 419.357 347 419.357H617C618.768 419.357 620.464 418.655 621.714 417.405C622.964 416.156 623.667 414.461 623.667 412.695V406.032C623.667 407.799 622.964 409.494 621.714 410.743C620.464 411.993 618.768 412.695 617 412.695Z" fill="#4E4E4E"/>
</g>
<g style="mix-blend-mode:multiply" opacity="0.33">
<path d="M340.333 390.301H623.667V412.697C623.667 414.463 622.964 416.158 621.714 417.407C620.464 418.657 618.768 419.359 617 419.359H347C345.232 419.359 343.536 418.657 342.286 417.407C341.036 416.158 340.333 414.463 340.333 412.697V390.301Z" fill="#4E4E4E"/>
<path d="M340.333 390.301H623.667V412.697C623.667 414.463 622.964 416.158 621.714 417.407C620.464 418.657 618.768 419.359 617 419.359H347C345.232 419.359 343.536 418.657 342.286 417.407C341.036 416.158 340.333 414.463 340.333 412.697V390.301Z" stroke="#46505C" stroke-width="3.33333" stroke-linecap="round" stroke-linejoin="round"/>
</g>
<g style="mix-blend-mode:multiply" opacity="0.33">
<path d="M540.335 589.175H423.669C421.828 589.175 420.335 590.667 420.335 592.507V670.788C420.335 672.627 421.828 674.119 423.669 674.119H540.335C542.176 674.119 543.669 672.627 543.669 670.788V592.507C543.669 590.667 542.176 589.175 540.335 589.175Z" fill="#4E4E4E"/>
</g>
<g style="mix-blend-mode:multiply" opacity="0.33">
<path d="M540.335 589.175H423.669C421.828 589.175 420.335 590.667 420.335 592.507V670.788C420.335 672.627 421.828 674.119 423.669 674.119H540.335C542.176 674.119 543.669 672.627 543.669 670.788V592.507C543.669 590.667 542.176 589.175 540.335 589.175Z" fill="#4E4E4E"/>
<path d="M540.335 589.175H423.669C421.828 589.175 420.335 590.667 420.335 592.507V670.788C420.335 672.627 421.828 674.119 423.669 674.119H540.335C542.176 674.119 543.669 672.627 543.669 670.788V592.507C543.669 590.667 542.176 589.175 540.335 589.175Z" stroke="#626C84" stroke-width="1.66667" stroke-linecap="round" stroke-linejoin="round"/>
</g>
</g>
<path d="M662.084 116.425H275.417C262.53 116.425 252.083 126.865 252.083 139.743V366.259C252.083 379.137 262.53 389.577 275.417 389.577H662.084C674.97 389.577 685.417 379.137 685.417 366.259V139.743C685.417 126.865 674.97 116.425 662.084 116.425Z" stroke="black" stroke-width="1.66667" stroke-linecap="round" stroke-linejoin="round"/>
<path d="M662.084 116.425H275.417C262.53 116.425 252.083 126.865 252.083 139.743V366.259C252.083 379.137 262.53 389.577 275.417 389.577H662.084C674.97 389.577 685.417 379.137 685.417 366.259V139.743C685.417 126.865 674.97 116.425 662.084 116.425Z" fill="#626C84"/>
<path d="M662.084 116.425H275.417C262.53 116.425 252.083 126.865 252.083 139.743V366.259C252.083 379.137 262.53 389.577 275.417 389.577H662.084C674.97 389.577 685.417 379.137 685.417 366.259V139.743C685.417 126.865 674.97 116.425 662.084 116.425Z" fill="#626C84"/>
<g style="mix-blend-mode:multiply" opacity="0.17">
<path d="M662.084 116.425H275.417C262.53 116.425 252.083 126.865 252.083 139.743V351.296C252.083 364.174 262.53 374.614 275.417 374.614H662.084C674.97 374.614 685.417 364.174 685.417 351.296V139.743C685.417 126.865 674.97 116.425 662.084 116.425Z" fill="#626C84"/>
</g>
<path opacity="0.1" d="M275.417 123.081H662.084C668.272 123.081 674.207 125.537 678.583 129.91C682.959 134.283 685.417 140.214 685.417 146.399V366.252V139.736C685.417 133.552 682.959 127.621 678.583 123.248C674.207 118.875 668.272 116.419 662.084 116.419H275.417C269.228 116.419 263.294 118.875 258.918 123.248C254.542 127.621 252.083 133.552 252.083 139.736V146.399C252.083 140.214 254.542 134.283 258.918 129.91C263.294 125.537 269.228 123.081 275.417 123.081Z" fill="white"/>
<g opacity="0.1">
<path opacity="0.1" d="M384.128 389.577H410.91L609.498 116.425H582.717L384.128 389.577Z" fill="white"/>
<path opacity="0.1" d="M426.36 389.577H434.6L633.19 116.425H624.948L426.36 389.577Z" fill="white"/>
</g>
<path d="M662.084 116.425H275.417C262.53 116.425 252.083 126.865 252.083 139.743V366.259C252.083 379.137 262.53 389.577 275.417 389.577H662.084C674.97 389.577 685.417 379.137 685.417 366.259V139.743C685.417 126.865 674.97 116.425 662.084 116.425Z" stroke="#46505C" stroke-width="6.66667" stroke-linecap="round" stroke-linejoin="round"/>
<path d="M655.417 357.064V147.204H282.084V357.064H655.417Z" fill="#FD848E"/>
<g opacity="0.06">
<path opacity="0.06" d="M409.432 357.064H436.214L588.787 147.204H562.005L409.432 357.064Z" fill="white"/>
<path opacity="0.06" d="M451.664 357.064H459.905L612.479 147.204H604.239L451.664 357.064Z" fill="white"/>
</g>
<path d="M655.417 357.064V147.204H282.084V357.064H655.417Z" stroke="#46505C" stroke-width="1.66667" stroke-linecap="round" stroke-linejoin="round"/>
<path d="M662.084 389.577H275.417C262.53 389.577 252.083 400.017 252.083 412.895V652.735C252.083 665.613 262.53 676.053 275.417 676.053H662.084C674.97 676.053 685.417 665.613 685.417 652.735V412.895C685.417 400.017 674.97 389.577 662.084 389.577Z" fill="#E6F3FF"/>
<path d="M678.75 652.736V412.895C678.75 403.697 671.288 396.24 662.083 396.24H275.417C266.212 396.24 258.75 403.697 258.75 412.895V652.736C258.75 661.935 266.212 669.392 275.417 669.392H662.083C671.288 669.392 678.75 661.935 678.75 652.736Z" fill="white" stroke="#E6F3FF" stroke-width="3.33333" stroke-miterlimit="10"/>
<path d="M441.999 663.028H495.499C497.267 663.028 498.962 663.73 500.213 664.979C501.463 666.229 502.165 667.923 502.165 669.69V676.053H435.332V669.69C435.332 667.923 436.034 666.229 437.285 664.979C438.535 663.73 440.231 663.028 441.999 663.028Z" fill="#E6F3FF"/>
<path d="M662.084 389.577H275.417C262.53 389.577 252.083 400.017 252.083 412.895V652.735C252.083 665.613 262.53 676.053 275.417 676.053H662.084C674.97 676.053 685.417 665.613 685.417 652.735V412.895C685.417 400.017 674.97 389.577 662.084 389.577Z" stroke="#46505C" stroke-width="6.66667" stroke-linecap="round" stroke-linejoin="round"/>
<path d="M655.417 411.927H282.083C279.322 411.927 277.083 414.164 277.083 416.924V560.162C277.083 562.922 279.322 565.159 282.083 565.159H655.417C658.178 565.159 660.417 562.922 660.417 560.162V416.924C660.417 414.164 658.178 411.927 655.417 411.927Z" fill="#E6F3FF"/>
<path d="M350.557 527.683H330.557C329.636 527.683 328.89 528.429 328.89 529.349V549.335C328.89 550.255 329.636 551.001 330.557 551.001H350.557C351.477 551.001 352.223 550.255 352.223 549.335V529.349C352.223 528.429 351.477 527.683 350.557 527.683Z" stroke="#626C84" stroke-width="1.66667" stroke-linecap="round" stroke-linejoin="round"/>
<path d="M314.493 527.683H294.493C293.572 527.683 292.826 528.429 292.826 529.349V549.335C292.826 550.255 293.572 551.001 294.493 551.001H314.493C315.413 551.001 316.16 550.255 316.16 549.335V529.349C316.16 528.429 315.413 527.683 314.493 527.683Z" stroke="#626C84" stroke-width="1.66667" stroke-linecap="round" stroke-linejoin="round"/>
<path d="M530.879 527.683H366.622C365.702 527.683 364.956 528.429 364.956 529.349V549.335C364.956 550.255 365.702 551.001 366.622 551.001H530.879C531.799 551.001 532.546 550.255 532.546 549.335V529.349C532.546 528.429 531.799 527.683 530.879 527.683Z" stroke="#626C84" stroke-width="1.66667" stroke-linecap="round" stroke-linejoin="round"/>
<path d="M566.943 527.683H546.943C546.023 527.683 545.276 528.429 545.276 529.349V549.335C545.276 550.255 546.023 551.001 546.943 551.001H566.943C567.863 551.001 568.61 550.255 568.61 549.335V529.349C568.61 528.429 567.863 527.683 566.943 527.683Z" stroke="#626C84" stroke-width="1.66667" stroke-linecap="round" stroke-linejoin="round"/>
<path d="M619.674 540.8H606.34C605.42 540.8 604.674 541.546 604.674 542.466V549.336C604.674 550.256 605.42 551.002 606.34 551.002H619.674C620.594 551.002 621.341 550.256 621.341 549.336V542.466C621.341 541.546 620.594 540.8 619.674 540.8Z" stroke="#626C84" stroke-width="1.66667" stroke-linecap="round" stroke-linejoin="round"/>
<path d="M619.674 527.683H606.34C605.42 527.683 604.674 528.429 604.674 529.349V536.219C604.674 537.139 605.42 537.885 606.34 537.885H619.674C620.594 537.885 621.341 537.139 621.341 536.219V529.349C621.341 528.429 620.594 527.683 619.674 527.683Z" stroke="#626C84" stroke-width="1.66667" stroke-linecap="round" stroke-linejoin="round"/>
<path d="M643.007 540.8H629.674C628.753 540.8 628.007 541.546 628.007 542.466V549.336C628.007 550.256 628.753 551.002 629.674 551.002H643.007C643.927 551.002 644.674 550.256 644.674 549.336V542.466C644.674 541.546 643.927 540.8 643.007 540.8Z" stroke="#626C84" stroke-width="1.66667" stroke-linecap="round" stroke-linejoin="round"/>
<path d="M596.34 540.8H583.007C582.087 540.8 581.34 541.546 581.34 542.466V549.336C581.34 550.256 582.087 551.002 583.007 551.002H596.34C597.261 551.002 598.007 550.256 598.007 549.336V542.466C598.007 541.546 597.261 540.8 596.34 540.8Z" stroke="#626C84" stroke-width="1.66667" stroke-linecap="round" stroke-linejoin="round"/>
<path d="M347.225 494.507H294.493C293.572 494.507 292.826 495.253 292.826 496.173V516.16C292.826 517.08 293.572 517.825 294.493 517.825H347.225C348.145 517.825 348.891 517.08 348.891 516.16V496.173C348.891 495.253 348.145 494.507 347.225 494.507Z" stroke="#626C84" stroke-width="1.66667" stroke-linecap="round" stroke-linejoin="round"/>
<path d="M383.59 494.507H363.59C362.669 494.507 361.923 495.253 361.923 496.173V516.16C361.923 517.08 362.669 517.825 363.59 517.825H383.59C384.51 517.825 385.256 517.08 385.256 516.16V496.173C385.256 495.253 384.51 494.507 383.59 494.507Z" stroke="#626C84" stroke-width="1.66667" stroke-linecap="round" stroke-linejoin="round"/>
<path d="M419.653 494.507H399.653C398.733 494.507 397.986 495.253 397.986 496.173V516.16C397.986 517.08 398.733 517.825 399.653 517.825H419.653C420.573 517.825 421.32 517.08 421.32 516.16V496.173C421.32 495.253 420.573 494.507 419.653 494.507Z" stroke="#626C84" stroke-width="1.66667" stroke-linecap="round" stroke-linejoin="round"/>
<path d="M455.718 494.507H435.718C434.798 494.507 434.052 495.253 434.052 496.173V516.16C434.052 517.08 434.798 517.825 435.718 517.825H455.718C456.639 517.825 457.385 517.08 457.385 516.16V496.173C457.385 495.253 456.639 494.507 455.718 494.507Z" stroke="#626C84" stroke-width="1.66667" stroke-linecap="round" stroke-linejoin="round"/>
<path d="M491.781 494.507H471.781C470.861 494.507 470.115 495.253 470.115 496.173V516.16C470.115 517.08 470.861 517.825 471.781 517.825H491.781C492.702 517.825 493.448 517.08 493.448 516.16V496.173C493.448 495.253 492.702 494.507 491.781 494.507Z" stroke="#626C84" stroke-width="1.66667" stroke-linecap="round" stroke-linejoin="round"/>
<path d="M527.846 494.507H507.846C506.926 494.507 506.18 495.253 506.18 496.173V516.16C506.18 517.08 506.926 517.825 507.846 517.825H527.846C528.767 517.825 529.513 517.08 529.513 516.16V496.173C529.513 495.253 528.767 494.507 527.846 494.507Z" stroke="#626C84" stroke-width="1.66667" stroke-linecap="round" stroke-linejoin="round"/>
<path d="M563.91 494.507H543.91C542.99 494.507 542.244 495.253 542.244 496.173V516.16C542.244 517.08 542.99 517.825 543.91 517.825H563.91C564.831 517.825 565.577 517.08 565.577 516.16V496.173C565.577 495.253 564.831 494.507 563.91 494.507Z" stroke="#626C84" stroke-width="1.66667" stroke-linecap="round" stroke-linejoin="round"/>
<path d="M643.007 494.507H583.007C582.087 494.507 581.34 495.253 581.34 496.173V516.16C581.34 517.08 582.087 517.825 583.007 517.825H643.007C643.927 517.825 644.674 517.08 644.674 516.16V496.173C644.674 495.253 643.927 494.507 643.007 494.507Z" stroke="#626C84" stroke-width="1.66667" stroke-linecap="round" stroke-linejoin="round"/>
<path d="M370.557 460.396H350.557C349.636 460.396 348.89 461.142 348.89 462.062V482.048C348.89 482.968 349.636 483.714 350.557 483.714H370.557C371.477 483.714 372.223 482.968 372.223 482.048V462.062C372.223 461.142 371.477 460.396 370.557 460.396Z" stroke="#626C84" stroke-width="1.66667" stroke-linecap="round" stroke-linejoin="round"/>
<path d="M334.493 460.396H294.493C293.572 460.396 292.826 461.142 292.826 462.062V482.048C292.826 482.968 293.572 483.714 294.493 483.714H334.493C335.413 483.714 336.16 482.968 336.16 482.048V462.062C336.16 461.142 335.413 460.396 334.493 460.396Z" stroke="#626C84" stroke-width="1.66667" stroke-linecap="round" stroke-linejoin="round"/>
<path d="M406.622 460.396H386.622C385.702 460.396 384.956 461.142 384.956 462.062V482.048C384.956 482.968 385.702 483.714 386.622 483.714H406.622C407.543 483.714 408.289 482.968 408.289 482.048V462.062C408.289 461.142 407.543 460.396 406.622 460.396Z" stroke="#626C84" stroke-width="1.66667" stroke-linecap="round" stroke-linejoin="round"/>
<path d="M442.684 460.396H422.684C421.764 460.396 421.018 461.142 421.018 462.062V482.048C421.018 482.968 421.764 483.714 422.684 483.714H442.684C443.605 483.714 444.351 482.968 444.351 482.048V462.062C444.351 461.142 443.605 460.396 442.684 460.396Z" stroke="#626C84" stroke-width="1.66667" stroke-linecap="round" stroke-linejoin="round"/>
<path d="M478.75 460.396H458.75C457.829 460.396 457.083 461.142 457.083 462.062V482.048C457.083 482.968 457.829 483.714 458.75 483.714H478.75C479.67 483.714 480.416 482.968 480.416 482.048V462.062C480.416 461.142 479.67 460.396 478.75 460.396Z" stroke="#626C84" stroke-width="1.66667" stroke-linecap="round" stroke-linejoin="round"/>
<path d="M514.815 460.396H494.815C493.895 460.396 493.148 461.142 493.148 462.062V482.048C493.148 482.968 493.895 483.714 494.815 483.714H514.815C515.736 483.714 516.482 482.968 516.482 482.048V462.062C516.482 461.142 515.736 460.396 514.815 460.396Z" stroke="#626C84" stroke-width="1.66667" stroke-linecap="round" stroke-linejoin="round"/>
<path d="M550.878 460.396H530.878C529.958 460.396 529.211 461.142 529.211 462.062V482.048C529.211 482.968 529.958 483.714 530.878 483.714H550.878C551.799 483.714 552.545 482.968 552.545 482.048V462.062C552.545 461.142 551.799 460.396 550.878 460.396Z" stroke="#626C84" stroke-width="1.66667" stroke-linecap="round" stroke-linejoin="round"/>
<path d="M586.943 460.396H566.943C566.023 460.396 565.276 461.142 565.276 462.062V482.048C565.276 482.968 566.023 483.714 566.943 483.714H586.943C587.863 483.714 588.61 482.968 588.61 482.048V462.062C588.61 461.142 587.863 460.396 586.943 460.396Z" stroke="#626C84" stroke-width="1.66667" stroke-linecap="round" stroke-linejoin="round"/>
<path d="M643.007 460.396H603.007C602.087 460.396 601.34 461.142 601.34 462.062V482.048C601.34 482.968 602.087 483.714 603.007 483.714H643.007C643.927 483.714 644.674 482.968 644.674 482.048V462.062C644.674 461.142 643.927 460.396 643.007 460.396Z" stroke="#626C84" stroke-width="1.66667" stroke-linecap="round" stroke-linejoin="round"/>
<path d="M350.995 427.75H330.995C330.075 427.75 329.329 428.495 329.329 429.415V449.402C329.329 450.322 330.075 451.067 330.995 451.067H350.995C351.916 451.067 352.662 450.322 352.662 449.402V429.415C352.662 428.495 351.916 427.75 350.995 427.75Z" stroke="#626C84" stroke-width="1.66667" stroke-linecap="round" stroke-linejoin="round"/>
<path d="M314.493 427.75H294.493C293.572 427.75 292.826 428.495 292.826 429.415V449.402C292.826 450.322 293.572 451.067 294.493 451.067H314.493C315.413 451.067 316.16 450.322 316.16 449.402V429.415C316.16 428.495 315.413 427.75 314.493 427.75Z" stroke="#626C84" stroke-width="1.66667" stroke-linecap="round" stroke-linejoin="round"/>
<path d="M387.497 427.75H367.497C366.576 427.75 365.83 428.495 365.83 429.415V449.402C365.83 450.322 366.576 451.067 367.497 451.067H387.497C388.417 451.067 389.163 450.322 389.163 449.402V429.415C389.163 428.495 388.417 427.75 387.497 427.75Z" stroke="#626C84" stroke-width="1.66667" stroke-linecap="round" stroke-linejoin="round"/>
<path d="M423.998 427.75H403.998C403.078 427.75 402.332 428.495 402.332 429.415V449.402C402.332 450.322 403.078 451.067 403.998 451.067H423.998C424.919 451.067 425.665 450.322 425.665 449.402V429.415C425.665 428.495 424.919 427.75 423.998 427.75Z" stroke="#626C84" stroke-width="1.66667" stroke-linecap="round" stroke-linejoin="round"/>
<path d="M460.5 427.75H440.5C439.579 427.75 438.833 428.495 438.833 429.415V449.402C438.833 450.322 439.579 451.067 440.5 451.067H460.5C461.42 451.067 462.166 450.322 462.166 449.402V429.415C462.166 428.495 461.42 427.75 460.5 427.75Z" stroke="#626C84" stroke-width="1.66667" stroke-linecap="round" stroke-linejoin="round"/>
<path d="M497 427.75H477C476.08 427.75 475.333 428.495 475.333 429.415V449.402C475.333 450.322 476.08 451.067 477 451.067H497C497.921 451.067 498.667 450.322 498.667 449.402V429.415C498.667 428.495 497.921 427.75 497 427.75Z" stroke="#626C84" stroke-width="1.66667" stroke-linecap="round" stroke-linejoin="round"/>
<path d="M533.502 427.75H513.502C512.581 427.75 511.835 428.495 511.835 429.415V449.402C511.835 450.322 512.581 451.067 513.502 451.067H533.502C534.422 451.067 535.168 450.322 535.168 449.402V429.415C535.168 428.495 534.422 427.75 533.502 427.75Z" stroke="#626C84" stroke-width="1.66667" stroke-linecap="round" stroke-linejoin="round"/>
<path d="M570.003 427.75H550.003C549.083 427.75 548.336 428.495 548.336 429.415V449.402C548.336 450.322 549.083 451.067 550.003 451.067H570.003C570.924 451.067 571.67 450.322 571.67 449.402V429.415C571.67 428.495 570.924 427.75 570.003 427.75Z" stroke="#626C84" stroke-width="1.66667" stroke-linecap="round" stroke-linejoin="round"/>
<path d="M606.505 427.75H586.505C585.584 427.75 584.838 428.495 584.838 429.415V449.402C584.838 450.322 585.584 451.067 586.505 451.067H606.505C607.425 451.067 608.171 450.322 608.171 449.402V429.415C608.171 428.495 607.425 427.75 606.505 427.75Z" stroke="#626C84" stroke-width="1.66667" stroke-linecap="round" stroke-linejoin="round"/>
<path d="M643.007 427.75H623.007C622.087 427.75 621.34 428.495 621.34 429.415V449.402C621.34 450.322 622.087 451.067 623.007 451.067H643.007C643.927 451.067 644.674 450.322 644.674 449.402V429.415C644.674 428.495 643.927 427.75 643.007 427.75Z" stroke="#626C84" stroke-width="1.66667" stroke-linecap="round" stroke-linejoin="round"/>
<path d="M350.557 527.683H330.557C329.636 527.683 328.89 528.429 328.89 529.349V549.335C328.89 550.255 329.636 551.001 330.557 551.001H350.557C351.477 551.001 352.223 550.255 352.223 549.335V529.349C352.223 528.429 351.477 527.683 350.557 527.683Z" fill="#626C84"/>
<path d="M314.493 527.683H294.493C293.572 527.683 292.826 528.429 292.826 529.349V549.335C292.826 550.255 293.572 551.001 294.493 551.001H314.493C315.413 551.001 316.16 550.255 316.16 549.335V529.349C316.16 528.429 315.413 527.683 314.493 527.683Z" fill="#626C84"/>
<path d="M530.879 527.683H366.622C365.702 527.683 364.956 528.429 364.956 529.349V549.335C364.956 550.255 365.702 551.001 366.622 551.001H530.879C531.799 551.001 532.546 550.255 532.546 549.335V529.349C532.546 528.429 531.799 527.683 530.879 527.683Z" fill="#626C84"/>
<path d="M566.943 527.683H546.943C546.023 527.683 545.276 528.429 545.276 529.349V549.335C545.276 550.255 546.023 551.001 546.943 551.001H566.943C567.863 551.001 568.61 550.255 568.61 549.335V529.349C568.61 528.429 567.863 527.683 566.943 527.683Z" fill="#626C84"/>
<path d="M619.674 540.8H606.34C605.42 540.8 604.674 541.546 604.674 542.466V549.336C604.674 550.256 605.42 551.002 606.34 551.002H619.674C620.594 551.002 621.341 550.256 621.341 549.336V542.466C621.341 541.546 620.594 540.8 619.674 540.8Z" fill="#626C84"/>
<path d="M619.674 527.683H606.34C605.42 527.683 604.674 528.429 604.674 529.349V536.219C604.674 537.139 605.42 537.885 606.34 537.885H619.674C620.594 537.885 621.341 537.139 621.341 536.219V529.349C621.341 528.429 620.594 527.683 619.674 527.683Z" fill="#626C84"/>
<path d="M643.007 540.8H629.674C628.753 540.8 628.007 541.546 628.007 542.466V549.336C628.007 550.256 628.753 551.002 629.674 551.002H643.007C643.927 551.002 644.674 550.256 644.674 549.336V542.466C644.674 541.546 643.927 540.8 643.007 540.8Z" fill="#626C84"/>
<path d="M596.34 540.8H583.007C582.087 540.8 581.34 541.546 581.34 542.466V549.336C581.34 550.256 582.087 551.002 583.007 551.002H596.34C597.261 551.002 598.007 550.256 598.007 549.336V542.466C598.007 541.546 597.261 540.8 596.34 540.8Z" fill="#626C84"/>
<path d="M347.225 494.507H294.493C293.572 494.507 292.826 495.253 292.826 496.173V516.16C292.826 517.08 293.572 517.825 294.493 517.825H347.225C348.145 517.825 348.891 517.08 348.891 516.16V496.173C348.891 495.253 348.145 494.507 347.225 494.507Z" fill="#626C84"/>
<path d="M383.59 494.507H363.59C362.669 494.507 361.923 495.253 361.923 496.173V516.16C361.923 517.08 362.669 517.825 363.59 517.825H383.59C384.51 517.825 385.256 517.08 385.256 516.16V496.173C385.256 495.253 384.51 494.507 383.59 494.507Z" fill="#626C84"/>
<path d="M419.653 494.507H399.653C398.733 494.507 397.986 495.253 397.986 496.173V516.16C397.986 517.08 398.733 517.825 399.653 517.825H419.653C420.573 517.825 421.32 517.08 421.32 516.16V496.173C421.32 495.253 420.573 494.507 419.653 494.507Z" fill="#626C84"/>
<path d="M455.718 494.507H435.718C434.798 494.507 434.052 495.253 434.052 496.173V516.16C434.052 517.08 434.798 517.825 435.718 517.825H455.718C456.639 517.825 457.385 517.08 457.385 516.16V496.173C457.385 495.253 456.639 494.507 455.718 494.507Z" fill="#626C84"/>
<path d="M491.781 494.507H471.781C470.861 494.507 470.115 495.253 470.115 496.173V516.16C470.115 517.08 470.861 517.825 471.781 517.825H491.781C492.702 517.825 493.448 517.08 493.448 516.16V496.173C493.448 495.253 492.702 494.507 491.781 494.507Z" fill="#626C84"/>
<path d="M527.846 494.507H507.846C506.926 494.507 506.18 495.253 506.18 496.173V516.16C506.18 517.08 506.926 517.825 507.846 517.825H527.846C528.767 517.825 529.513 517.08 529.513 516.16V496.173C529.513 495.253 528.767 494.507 527.846 494.507Z" fill="#626C84"/>
<path d="M563.91 494.507H543.91C542.99 494.507 542.244 495.253 542.244 496.173V516.16C542.244 517.08 542.99 517.825 543.91 517.825H563.91C564.831 517.825 565.577 517.08 565.577 516.16V496.173C565.577 495.253 564.831 494.507 563.91 494.507Z" fill="#626C84"/>
<path d="M643.007 494.507H583.007C582.087 494.507 581.34 495.253 581.34 496.173V516.16C581.34 517.08 582.087 517.825 583.007 517.825H643.007C643.927 517.825 644.674 517.08 644.674 516.16V496.173C644.674 495.253 643.927 494.507 643.007 494.507Z" fill="#626C84"/>
<path d="M370.557 460.396H350.557C349.636 460.396 348.89 461.142 348.89 462.062V482.048C348.89 482.968 349.636 483.714 350.557 483.714H370.557C371.477 483.714 372.223 482.968 372.223 482.048V462.062C372.223 461.142 371.477 460.396 370.557 460.396Z" fill="#626C84"/>
<path d="M334.493 460.396H294.493C293.572 460.396 292.826 461.142 292.826 462.062V482.048C292.826 482.968 293.572 483.714 294.493 483.714H334.493C335.413 483.714 336.16 482.968 336.16 482.048V462.062C336.16 461.142 335.413 460.396 334.493 460.396Z" fill="#626C84"/>
<path d="M406.622 460.396H386.622C385.702 460.396 384.956 461.142 384.956 462.062V482.048C384.956 482.968 385.702 483.714 386.622 483.714H406.622C407.543 483.714 408.289 482.968 408.289 482.048V462.062C408.289 461.142 407.543 460.396 406.622 460.396Z" fill="#626C84"/>
<path d="M442.684 460.396H422.684C421.764 460.396 421.018 461.142 421.018 462.062V482.048C421.018 482.968 421.764 483.714 422.684 483.714H442.684C443.605 483.714 444.351 482.968 444.351 482.048V462.062C444.351 461.142 443.605 460.396 442.684 460.396Z" fill="#626C84"/>
<path d="M478.75 460.396H458.75C457.829 460.396 457.083 461.142 457.083 462.062V482.048C457.083 482.968 457.829 483.714 458.75 483.714H478.75C479.67 483.714 480.416 482.968 480.416 482.048V462.062C480.416 461.142 479.67 460.396 478.75 460.396Z" fill="#626C84"/>
<path d="M514.815 460.396H494.815C493.895 460.396 493.148 461.142 493.148 462.062V482.048C493.148 482.968 493.895 483.714 494.815 483.714H514.815C515.736 483.714 516.482 482.968 516.482 482.048V462.062C516.482 461.142 515.736 460.396 514.815 460.396Z" fill="#626C84"/>
<path d="M550.878 460.396H530.878C529.958 460.396 529.211 461.142 529.211 462.062V482.048C529.211 482.968 529.958 483.714 530.878 483.714H550.878C551.799 483.714 552.545 482.968 552.545 482.048V462.062C552.545 461.142 551.799 460.396 550.878 460.396Z" fill="#626C84"/>
<path d="M586.943 460.396H566.943C566.023 460.396 565.276 461.142 565.276 462.062V482.048C565.276 482.968 566.023 483.714 566.943 483.714H586.943C587.863 483.714 588.61 482.968 588.61 482.048V462.062C588.61 461.142 587.863 460.396 586.943 460.396Z" fill="#626C84"/>
<path d="M643.007 460.396H603.007C602.087 460.396 601.34 461.142 601.34 462.062V482.048C601.34 482.968 602.087 483.714 603.007 483.714H643.007C643.927 483.714 644.674 482.968 644.674 482.048V462.062C644.674 461.142 643.927 460.396 643.007 460.396Z" fill="#626C84"/>
<path d="M350.995 427.75H330.995C330.075 427.75 329.329 428.495 329.329 429.415V449.402C329.329 450.322 330.075 451.067 330.995 451.067H350.995C351.916 451.067 352.662 450.322 352.662 449.402V429.415C352.662 428.495 351.916 427.75 350.995 427.75Z" fill="#626C84"/>
<path d="M314.493 427.75H294.493C293.572 427.75 292.826 428.495 292.826 429.415V449.402C292.826 450.322 293.572 451.067 294.493 451.067H314.493C315.413 451.067 316.16 450.322 316.16 449.402V429.415C316.16 428.495 315.413 427.75 314.493 427.75Z" fill="#626C84"/>
<path d="M387.497 427.75H367.497C366.576 427.75 365.83 428.495 365.83 429.415V449.402C365.83 450.322 366.576 451.067 367.497 451.067H387.497C388.417 451.067 389.163 450.322 389.163 449.402V429.415C389.163 428.495 388.417 427.75 387.497 427.75Z" fill="#626C84"/>
<path d="M423.998 427.75H403.998C403.078 427.75 402.332 428.495 402.332 429.415V449.402C402.332 450.322 403.078 451.067 403.998 451.067H423.998C424.919 451.067 425.665 450.322 425.665 449.402V429.415C425.665 428.495 424.919 427.75 423.998 427.75Z" fill="#626C84"/>
<path d="M460.5 427.75H440.5C439.579 427.75 438.833 428.495 438.833 429.415V449.402C438.833 450.322 439.579 451.067 440.5 451.067H460.5C461.42 451.067 462.166 450.322 462.166 449.402V429.415C462.166 428.495 461.42 427.75 460.5 427.75Z" fill="#626C84"/>
<path d="M497 427.75H477C476.08 427.75 475.333 428.495 475.333 429.415V449.402C475.333 450.322 476.08 451.067 477 451.067H497C497.921 451.067 498.667 450.322 498.667 449.402V429.415C498.667 428.495 497.921 427.75 497 427.75Z" fill="#626C84"/>
<path d="M533.502 427.75H513.502C512.581 427.75 511.835 428.495 511.835 429.415V449.402C511.835 450.322 512.581 451.067 513.502 451.067H533.502C534.422 451.067 535.168 450.322 535.168 449.402V429.415C535.168 428.495 534.422 427.75 533.502 427.75Z" fill="#626C84"/>
<path d="M570.003 427.75H550.003C549.083 427.75 548.336 428.495 548.336 429.415V449.402C548.336 450.322 549.083 451.067 550.003 451.067H570.003C570.924 451.067 571.67 450.322 571.67 449.402V429.415C571.67 428.495 570.924 427.75 570.003 427.75Z" fill="#626C84"/>
<path d="M606.505 427.75H586.505C585.584 427.75 584.838 428.495 584.838 429.415V449.402C584.838 450.322 585.584 451.067 586.505 451.067H606.505C607.425 451.067 608.171 450.322 608.171 449.402V429.415C608.171 428.495 607.425 427.75 606.505 427.75Z" fill="#626C84"/>
<path d="M643.007 427.75H623.007C622.087 427.75 621.34 428.495 621.34 429.415V449.402C621.34 450.322 622.087 451.067 623.007 451.067H643.007C643.927 451.067 644.674 450.322 644.674 449.402V429.415C644.674 428.495 643.927 427.75 643.007 427.75Z" fill="#626C84"/>
<path d="M327.083 374.614H610.417V397.009C610.417 398.776 609.714 400.47 608.464 401.72C607.214 402.969 605.518 403.671 603.75 403.671H333.75C331.982 403.671 330.286 402.969 329.036 401.72C327.786 400.47 327.083 398.776 327.083 397.009V374.614Z" fill="#626C84"/>
<path opacity="0.12" d="M610.417 374.614H327.083V377.945H610.417V374.614Z" fill="white"/>
<g style="mix-blend-mode:multiply" opacity="0.25">
<path d="M603.75 397.008H333.75C331.982 397.008 330.286 396.306 329.036 395.056C327.786 393.807 327.083 392.112 327.083 390.345V397.008C327.083 398.774 327.786 400.469 329.036 401.718C330.286 402.968 331.982 403.67 333.75 403.67H603.75C605.518 403.67 607.214 402.968 608.464 401.718C609.714 400.469 610.417 398.774 610.417 397.008V390.345C610.417 392.112 609.714 393.807 608.464 395.056C607.214 396.306 605.518 397.008 603.75 397.008Z" fill="#626C84"/>
</g>
<path d="M327.083 374.614H610.417V397.009C610.417 398.776 609.714 400.47 608.464 401.72C607.214 402.969 605.518 403.671 603.75 403.671H333.75C331.982 403.671 330.286 402.969 329.036 401.72C327.786 400.47 327.083 398.776 327.083 397.009V374.614Z" stroke="#46505C" stroke-width="3.33333" stroke-linecap="round" stroke-linejoin="round"/>
<path d="M527.083 573.487H410.416C408.575 573.487 407.083 574.978 407.083 576.818V655.099C407.083 656.939 408.575 658.43 410.416 658.43H527.083C528.924 658.43 530.416 656.939 530.416 655.099V576.818C530.416 574.978 528.924 573.487 527.083 573.487Z" fill="#E6F3FF"/>
<path d="M527.083 573.487H410.416C408.575 573.487 407.083 574.978 407.083 576.818V655.099C407.083 656.939 408.575 658.43 410.416 658.43H527.083C528.924 658.43 530.416 656.939 530.416 655.099V576.818C530.416 574.978 528.924 573.487 527.083 573.487Z" stroke="#626C84" stroke-width="1.66667" stroke-linecap="round" stroke-linejoin="round"/>
<path opacity="0.52" d="M468.75 138.323C471.511 138.323 473.75 136.086 473.75 133.326C473.75 130.567 471.511 128.33 468.75 128.33C465.989 128.33 463.75 130.567 463.75 133.326C463.75 136.086 465.989 138.323 468.75 138.323Z" fill="white"/>
<path d="M468.75 138.323C471.511 138.323 473.75 136.086 473.75 133.326C473.75 130.567 471.511 128.33 468.75 128.33C465.989 128.33 463.75 130.567 463.75 133.326C463.75 136.086 465.989 138.323 468.75 138.323Z" stroke="#46505C" stroke-width="1.66667" stroke-linecap="round" stroke-linejoin="round"/>
<path d="M572.683 168.431H552.683C551.763 168.431 551.017 169.177 551.017 170.097C551.017 171.017 551.763 171.762 552.683 171.762H572.683C573.604 171.762 574.35 171.017 574.35 170.097C574.35 169.177 573.604 168.431 572.683 168.431Z" fill="white"/>
<path d="M615.973 168.431H595.973C595.053 168.431 594.307 169.177 594.307 170.097C594.307 171.017 595.053 171.762 595.973 171.762H615.973C616.894 171.762 617.64 171.017 617.64 170.097C617.64 169.177 616.894 168.431 615.973 168.431Z" fill="white"/>
<path d="M529.396 168.431H509.396C508.475 168.431 507.729 169.177 507.729 170.097C507.729 171.017 508.475 171.762 509.396 171.762H529.396C530.316 171.762 531.062 171.017 531.062 170.097C531.062 169.177 530.316 168.431 529.396 168.431Z" fill="white"/>
<path d="M314.138 179.022C318.591 179.022 322.2 175.415 322.2 170.966C322.2 166.517 318.591 162.91 314.138 162.91C309.686 162.91 306.077 166.517 306.077 170.966C306.077 175.415 309.686 179.022 314.138 179.022Z" fill="white"/>
<g opacity="0.72">
<path opacity="0.72" d="M553.013 259.173H384.29V265.244H553.013V259.173Z" fill="white"/>
<path opacity="0.72" d="M531.677 239.024H405.629V245.183H531.677V239.024Z" fill="white"/>
</g>
<path d="M497.758 306.368H449.74C444.695 306.368 440.605 310.455 440.605 315.497C440.605 320.538 444.695 324.626 449.74 324.626H497.758C502.803 324.626 506.893 320.538 506.893 315.497C506.893 310.455 502.803 306.368 497.758 306.368Z" stroke="white" stroke-width="1.66667" stroke-miterlimit="10"/>
</svg>
