<svg width="924" height="803" fill="none" xmlns="http://www.w3.org/2000/svg"><g style="mix-blend-mode:multiply" opacity=".47" fill="#76D1FF"><path d="m718.18 226.814 171.666-45.969a37.73 37.73 0 0 0 22.91-17.568 37.686 37.686 0 0 0 3.769-28.612 37.709 37.709 0 0 0-17.58-22.894 37.752 37.752 0 0 0-28.63-3.766L599.826 180.43a37.738 37.738 0 0 1-39.699-13.467 37.683 37.683 0 0 1-2.741-41.804 37.728 37.728 0 0 1 22.907-17.567l123.123-32.978a37.733 37.733 0 0 0 22.913-17.567 37.684 37.684 0 0 0 3.771-28.613A37.709 37.709 0 0 0 712.52 5.54a37.752 37.752 0 0 0-28.63-3.766L58.416 169.251a37.735 37.735 0 0 0-22.91 17.566 37.686 37.686 0 0 0 2.74 41.809 37.748 37.748 0 0 0 39.704 13.471l97.388-26.077a37.752 37.752 0 0 1 28.63 3.767 37.71 37.71 0 0 1 17.58 22.895 37.682 37.682 0 0 1-13.476 39.671 37.74 37.74 0 0 1-13.204 6.507l-166.7 44.637a37.724 37.724 0 0 0-22.91 17.568 37.684 37.684 0 0 0 2.741 41.806A37.73 37.73 0 0 0 33.008 407.3c4.912.647 9.904.32 14.69-.962l104.033-27.858a37.75 37.75 0 0 1 28.631 3.768 37.707 37.707 0 0 1 17.579 22.894 37.694 37.694 0 0 1-13.476 39.672 37.737 37.737 0 0 1-13.204 6.506l-7.381 1.977a37.739 37.739 0 0 0-22.916 17.578 37.686 37.686 0 0 0-3.758 28.623 37.714 37.714 0 0 0 17.579 22.896 37.757 37.757 0 0 0 28.631 3.768l7-1.874a37.77 37.77 0 0 1 14.69-.962 37.732 37.732 0 0 1 25.008 14.43 37.694 37.694 0 0 1 7.474 27.875 37.702 37.702 0 0 1-14.438 24.992 37.757 37.757 0 0 1-13.204 6.507l-103.65 27.753a37.726 37.726 0 0 0-22.909 17.568 37.683 37.683 0 0 0-3.769 28.611 37.706 37.706 0 0 0 17.58 22.894 37.752 37.752 0 0 0 28.63 3.767l189.395-50.715a37.77 37.77 0 0 1 28.631 3.767 37.707 37.707 0 0 1 18.542 37.577 37.682 37.682 0 0 1-4.733 13.932 37.723 37.723 0 0 1-22.913 17.567l-30.354 8.127a37.726 37.726 0 0 0-22.909 17.568 37.683 37.683 0 0 0 2.742 41.806 37.725 37.725 0 0 0 25.009 14.428c4.912.647 9.904.319 14.69-.962l482.25-129.133a37.728 37.728 0 0 0 22.91-17.568 37.683 37.683 0 0 0-2.743-41.806 37.714 37.714 0 0 0-11.068-9.701 37.775 37.775 0 0 0-13.94-4.729 37.775 37.775 0 0 0-14.691.962l-14.186 3.8a37.758 37.758 0 0 1-28.629-3.764 37.706 37.706 0 0 1-17.581-22.89 37.687 37.687 0 0 1 13.48-39.673 37.748 37.748 0 0 1 13.205-6.505l93.285-24.983a37.752 37.752 0 0 0 13.203-6.507 37.705 37.705 0 0 0 14.439-24.992 37.687 37.687 0 0 0-18.542-37.576 37.738 37.738 0 0 0-28.63-3.767l-132.274 35.415a37.738 37.738 0 0 1-39.699-13.467 37.716 37.716 0 0 1-6.511-13.195 37.683 37.683 0 0 1 3.775-28.607 37.726 37.726 0 0 1 22.907-17.564l93.658-25.079a37.715 37.715 0 0 0 27.642-31.499 37.682 37.682 0 0 0-.963-14.68 37.698 37.698 0 0 0-17.575-22.905 37.746 37.746 0 0 0-28.635-3.772l-11.302 3.026a37.752 37.752 0 0 1-28.63-3.766 37.709 37.709 0 0 1-18.545-37.576 37.685 37.685 0 0 1 14.438-24.995 37.733 37.733 0 0 1 13.204-6.508Z" style="mix-blend-mode:multiply" opacity=".47"/><path d="m875.93 262.65-9.928 2.658c-20.128 5.39-32.072 26.065-26.679 46.179l.002.007c5.393 20.114 26.082 32.051 46.209 26.661l9.928-2.658c20.128-5.39 32.073-26.065 26.679-46.179l-.001-.007c-5.393-20.114-26.082-32.051-46.21-26.661Z" style="mix-blend-mode:multiply" opacity=".47"/></g><g style="mix-blend-mode:multiply" opacity=".33"><g style="mix-blend-mode:multiply" opacity=".33"><path d="m114.508 571.803 12.86-18.369a1.153 1.153 0 0 1 1.606-.283l13.125 9.177a1.151 1.151 0 0 1 .284 1.604l-12.86 18.369a8.333 8.333 0 0 1-11.6 2.049l-1.365-.955a8.318 8.318 0 0 1-2.05-11.592Z" fill="#4E4E4E"/><path d="m114.508 571.803 12.86-18.369a1.153 1.153 0 0 1 1.606-.283l13.125 9.177a1.151 1.151 0 0 1 .284 1.604l-12.86 18.369a8.333 8.333 0 0 1-11.6 2.049l-1.365-.955a8.318 8.318 0 0 1-2.05-11.592Z" stroke="#46505C" stroke-width="6.667" stroke-linecap="round" stroke-linejoin="round"/></g><g style="mix-blend-mode:multiply" opacity=".33"><path d="m114.508 571.803 12.86-18.369a1.153 1.153 0 0 1 1.606-.283l13.125 9.177a1.151 1.151 0 0 1 .284 1.604l-12.86 18.369a8.333 8.333 0 0 1-11.6 2.049l-1.365-.955a8.318 8.318 0 0 1-2.05-11.592Z" fill="#4E4E4E"/><path d="m114.508 571.803 12.86-18.369a1.153 1.153 0 0 1 1.606-.283l13.125 9.177a1.151 1.151 0 0 1 .284 1.604l-12.86 18.369a8.333 8.333 0 0 1-11.6 2.049l-1.365-.955a8.318 8.318 0 0 1-2.05-11.592Z" stroke="#46505C" stroke-width="6.667" stroke-linecap="round" stroke-linejoin="round"/></g><g style="mix-blend-mode:multiply" opacity=".33"><path d="M163.89 572.111c29.985 0 54.293-24.292 54.293-54.257 0-29.966-24.308-54.258-54.293-54.258-29.986 0-54.294 24.292-54.294 54.258 0 29.965 24.308 54.257 54.294 54.257Z" fill="#4E4E4E"/><path d="M163.89 572.111c29.985 0 54.293-24.292 54.293-54.257 0-29.966-24.308-54.258-54.293-54.258-29.986 0-54.294 24.292-54.294 54.258 0 29.965 24.308 54.257 54.294 54.257Z" stroke="#46505C" stroke-width="6.667" stroke-linecap="round" stroke-linejoin="round"/></g><g style="mix-blend-mode:multiply" opacity=".33"><path d="M163.89 572.111c29.985 0 54.293-24.292 54.293-54.257 0-29.966-24.308-54.258-54.293-54.258-29.986 0-54.294 24.292-54.294 54.258 0 29.965 24.308 54.257 54.294 54.257Z" fill="#4E4E4E"/><path d="M163.89 572.111c29.985 0 54.293-24.292 54.293-54.257 0-29.966-24.308-54.258-54.293-54.258-29.986 0-54.294 24.292-54.294 54.258 0 29.965 24.308 54.257 54.294 54.257Z" stroke="#46505C" stroke-width="6.667" stroke-linecap="round" stroke-linejoin="round"/></g><g style="mix-blend-mode:multiply" opacity=".33"><path d="M163.89 560.083c23.338 0 42.258-18.907 42.258-42.23 0-23.323-18.92-42.23-42.258-42.23-23.339 0-42.259 18.907-42.259 42.23 0 23.323 18.92 42.23 42.259 42.23Z" fill="#4E4E4E"/><path d="M163.89 560.083c23.338 0 42.258-18.907 42.258-42.23 0-23.323-18.92-42.23-42.258-42.23-23.339 0-42.259 18.907-42.259 42.23 0 23.323 18.92 42.23 42.259 42.23Z" stroke="#46505C" stroke-width="6.667" stroke-linecap="round" stroke-linejoin="round"/></g><g style="mix-blend-mode:multiply" opacity=".33"><path d="M163.89 560.083c23.338 0 42.258-18.907 42.258-42.23 0-23.323-18.92-42.23-42.258-42.23-23.339 0-42.259 18.907-42.259 42.23 0 23.323 18.92 42.23 42.259 42.23Z" fill="#4E4E4E"/><path d="M163.89 560.083c23.338 0 42.258-18.907 42.258-42.23 0-23.323-18.92-42.23-42.258-42.23-23.339 0-42.259 18.907-42.259 42.23 0 23.323 18.92 42.23 42.259 42.23Z" stroke="#46505C" stroke-width="6.667" stroke-linecap="round" stroke-linejoin="round"/></g><g style="mix-blend-mode:multiply" opacity=".33"><path d="M136.265 509.087a76.807 76.807 0 0 1 1.8-3.741c2.833-5.55 6.222-11.303 11.63-14.702 4.592-2.888 11.013-4.019 15.99-1.464 4.317 2.215 6.918 6.77 10.857 9.605a71.155 71.155 0 0 0 8.256 4.339 12.39 12.39 0 0 1 6.355 6.531c1.334 4.07-.865 8.414-.886 12.698a12.612 12.612 0 0 0 1.895 6.69 6.51 6.51 0 0 1 1.458 3.297 4.34 4.34 0 0 1-.952 2.112 4.346 4.346 0 0 1-1.906 1.319c-4.377 2.067-9.489 1.32-14.302.801-4.813-.52-10.143-.63-13.948 2.361a40.487 40.487 0 0 0-4.315 4.651 6.784 6.784 0 0 1-7.903 2.633 6.792 6.792 0 0 1-2.514-1.572 44.625 44.625 0 0 1-8.877-10.062 27.361 27.361 0 0 1-5.288-10.921c-.865-4.955.577-9.913 2.65-14.575Z" fill="#4E4E4E"/><path d="M136.265 509.087a76.807 76.807 0 0 1 1.8-3.741c2.833-5.55 6.222-11.303 11.63-14.702 4.592-2.888 11.013-4.019 15.99-1.464 4.317 2.215 6.918 6.77 10.857 9.605a71.155 71.155 0 0 0 8.256 4.339 12.39 12.39 0 0 1 6.355 6.531c1.334 4.07-.865 8.414-.886 12.698a12.612 12.612 0 0 0 1.895 6.69 6.51 6.51 0 0 1 1.458 3.297 4.34 4.34 0 0 1-.952 2.112 4.346 4.346 0 0 1-1.906 1.319c-4.377 2.067-9.489 1.32-14.302.801-4.813-.52-10.143-.63-13.948 2.361a40.487 40.487 0 0 0-4.315 4.651 6.784 6.784 0 0 1-7.903 2.633 6.792 6.792 0 0 1-2.514-1.572 44.625 44.625 0 0 1-8.877-10.062 27.361 27.361 0 0 1-5.288-10.921c-.865-4.955.577-9.913 2.65-14.575Z" stroke="#46505C" stroke-width="6.667" stroke-linecap="round" stroke-linejoin="round"/></g><g style="mix-blend-mode:multiply" opacity=".33"><path d="M172.436 549.824a2.621 2.621 0 1 0 0-5.243 2.622 2.622 0 1 0 0 5.243Z" fill="#4E4E4E"/><path d="M172.436 549.824a2.621 2.621 0 1 0 0-5.243 2.622 2.622 0 1 0 0 5.243Z" stroke="#46505C" stroke-width="6.667" stroke-linecap="round" stroke-linejoin="round"/></g><g style="mix-blend-mode:multiply" opacity=".33"><path d="M165.608 549.985a1.817 1.817 0 1 0 0-3.633 1.817 1.817 0 0 0 0 3.633Z" fill="#4E4E4E"/><path d="M165.608 549.985a1.817 1.817 0 1 0 0-3.633 1.817 1.817 0 0 0 0 3.633Z" stroke="#46505C" stroke-width="6.667" stroke-linecap="round" stroke-linejoin="round"/></g><g style="mix-blend-mode:multiply" opacity=".33"><path d="M178.635 546.409a1.646 1.646 0 1 0 .002-3.292 1.646 1.646 0 0 0-.002 3.292Z" fill="#4E4E4E"/><path d="M178.635 546.409a1.646 1.646 0 1 0 .002-3.292 1.646 1.646 0 0 0-.002 3.292Z" stroke="#46505C" stroke-width="6.667" stroke-linecap="round" stroke-linejoin="round"/></g><g style="mix-blend-mode:multiply" opacity=".33"><path d="M159.862 550.028a1.18 1.18 0 1 0 .001-2.359 1.18 1.18 0 0 0-.001 2.359Z" fill="#4E4E4E"/><path d="M159.862 550.028a1.18 1.18 0 1 0 .001-2.359 1.18 1.18 0 0 0-.001 2.359Z" stroke="#46505C" stroke-width="6.667" stroke-linecap="round" stroke-linejoin="round"/></g><g style="mix-blend-mode:multiply" opacity=".33"><path d="M183.836 543.746a.72.72 0 1 0 0-1.44.72.72 0 0 0 0 1.44Z" fill="#4E4E4E"/><path d="M183.836 543.746a.72.72 0 1 0 0-1.44.72.72 0 0 0 0 1.44Z" stroke="#46505C" stroke-width="6.667" stroke-linecap="round" stroke-linejoin="round"/></g><g style="mix-blend-mode:multiply" opacity=".33"><path d="M131.098 509.565a1.689 1.689 0 1 0 .002-3.378 1.689 1.689 0 0 0-.002 3.378Z" fill="#4E4E4E"/><path d="M131.098 509.565a1.689 1.689 0 1 0 .002-3.378 1.689 1.689 0 0 0-.002 3.378Z" stroke="#46505C" stroke-width="6.667" stroke-linecap="round" stroke-linejoin="round"/></g><g style="mix-blend-mode:multiply" opacity=".33"><path d="M177.106 489.814a1.59 1.59 0 1 0 .001-3.179 1.59 1.59 0 0 0-.001 3.179Z" fill="#4E4E4E"/><path d="M177.106 489.814a1.59 1.59 0 1 0 .001-3.179 1.59 1.59 0 0 0-.001 3.179Z" stroke="#46505C" stroke-width="6.667" stroke-linecap="round" stroke-linejoin="round"/></g><g style="mix-blend-mode:multiply" opacity=".33"><path d="M187.441 497.492a1.44 1.44 0 1 0 .001-2.879 1.44 1.44 0 0 0-.001 2.879Z" fill="#4E4E4E"/><path d="M187.441 497.492a1.44 1.44 0 1 0 .001-2.879 1.44 1.44 0 0 0-.001 2.879Z" stroke="#46505C" stroke-width="6.667" stroke-linecap="round" stroke-linejoin="round"/></g><g style="mix-blend-mode:multiply" opacity=".33"><path d="M188.623 500.76a.63.63 0 1 0 0-1.26.63.63 0 0 0 0 1.26Z" fill="#4E4E4E"/><path d="M188.623 500.76a.63.63 0 1 0 0-1.26.63.63 0 0 0 0 1.26Z" stroke="#46505C" stroke-width="6.667" stroke-linecap="round" stroke-linejoin="round"/></g></g><path d="m102.71 558.425 12.868-18.373a1.155 1.155 0 0 1 1.606-.284l13.13 9.184a1.15 1.15 0 0 1 .284 1.605l-12.869 18.374a8.334 8.334 0 0 1-11.605 2.047l-1.366-.955a8.321 8.321 0 0 1-2.048-11.598Z" fill="#fff" stroke="#E6F3FF" stroke-width="3.333" stroke-miterlimit="10"/><path opacity=".18" d="M117.184 539.772a1.156 1.156 0 0 0-1.605.285l-5.795 8.271a61.071 61.071 0 0 0 7.115 5.82 61.688 61.688 0 0 0 7.903 4.688l5.795-8.274a1.159 1.159 0 0 0 .192-.861 1.157 1.157 0 0 0-.475-.743l-13.13-9.186Z" fill="#4E4E4E" stroke="#46505C" stroke-width="6.667" stroke-linecap="round" stroke-linejoin="round"/><path d="m102.71 558.425 12.868-18.373a1.155 1.155 0 0 1 1.606-.284l13.13 9.184a1.15 1.15 0 0 1 .284 1.605l-12.869 18.374a8.334 8.334 0 0 1-11.605 2.047l-1.366-.955a8.321 8.321 0 0 1-2.048-11.598Z" stroke="#46505C" stroke-width="6.667" stroke-linecap="round" stroke-linejoin="round"/><path d="M151.854 558.495c29.985 0 54.293-24.292 54.293-54.258 0-29.965-24.308-54.257-54.293-54.257-29.986 0-54.293 24.292-54.293 54.257 0 29.966 24.307 54.258 54.293 54.258Z" fill="#fff" stroke="#E6F3FF" stroke-width="3.333" stroke-miterlimit="10"/><path d="M151.854 558.495c29.985 0 54.293-24.292 54.293-54.258 0-29.965-24.308-54.257-54.293-54.257-29.986 0-54.293 24.292-54.293 54.257 0 29.966 24.307 54.258 54.293 54.258Z" stroke="#46505C" stroke-width="6.667" stroke-linecap="round" stroke-linejoin="round"/><path d="M151.853 546.467c23.339 0 42.258-18.907 42.258-42.23 0-23.323-18.919-42.231-42.258-42.231-23.339 0-42.258 18.908-42.258 42.231s18.919 42.23 42.258 42.23Z" fill="#845B5B"/><path d="M151.853 546.467c23.339 0 42.258-18.907 42.258-42.23 0-23.323-18.919-42.231-42.258-42.231-23.339 0-42.258 18.908-42.258 42.231s18.919 42.23 42.258 42.23Z" stroke="#46505C" stroke-width="3.333" stroke-linecap="round" stroke-linejoin="round"/><path d="M124.228 495.47a77.708 77.708 0 0 1 1.8-3.741c2.834-5.548 6.224-11.3 11.63-14.701 4.594-2.889 11.014-4.018 15.99-1.465 4.317 2.216 6.919 6.773 10.857 9.606a71.199 71.199 0 0 0 8.258 4.33 12.405 12.405 0 0 1 6.355 6.526c1.334 4.072-.865 8.416-.888 12.698a12.622 12.622 0 0 0 1.895 6.691 6.514 6.514 0 0 1 1.46 3.296 4.334 4.334 0 0 1-2.858 3.433c-4.379 2.065-9.49 1.32-14.304.799-4.813-.521-10.141-.628-13.948 2.362-1.557 1.435-3 2.99-4.315 4.65a6.786 6.786 0 0 1-7.902 2.634 6.793 6.793 0 0 1-2.515-1.571 44.652 44.652 0 0 1-8.876-10.064 27.317 27.317 0 0 1-5.284-10.912c-.878-4.95.574-9.909 2.645-14.571Zm36.172 40.736a2.622 2.622 0 1 0-2.624-2.622 2.623 2.623 0 0 0 2.624 2.622Zm-6.828.162a1.817 1.817 0 1 0 0-3.629 1.817 1.817 0 0 0 0 3.629Zm13.027-3.575a1.646 1.646 0 1 0 0-3.292 1.646 1.646 0 0 0 0 3.292Zm-18.774 3.621a1.18 1.18 0 1 0 0-2.36 1.18 1.18 0 0 0 0 2.36Zm23.975-6.286a.72.72 0 1 0 0-1.44.72.72 0 0 0 0 1.44Zm-52.738-34.18a1.69 1.69 0 1 0 0-3.38 1.69 1.69 0 0 0 0 3.38Zm46.008-19.752a1.59 1.59 0 1 0 .001-3.179 1.59 1.59 0 0 0-.001 3.179Zm10.335 7.678a1.44 1.44 0 1 0 .001-2.879 1.44 1.44 0 0 0-.001 2.879Zm1.182 3.268a.63.63 0 1 0 0-1.26.63.63 0 0 0 0 1.26Z" fill="#845B5B" style="mix-blend-mode:multiply" opacity=".33"/><path d="M155.557 511.055a3.332 3.332 0 1 0 0-6.662 3.332 3.332 0 1 0 0 6.662ZM144.7 500.761a5.83 5.83 0 0 0 5.833-5.829c0-3.22-2.611-5.83-5.833-5.83a5.831 5.831 0 0 0-5.833 5.83 5.83 5.83 0 0 0 5.833 5.829Z" fill="#845B5B"/><g style="mix-blend-mode:multiply" opacity=".33"><g style="mix-blend-mode:multiply" opacity=".33"><path d="M675.334 329.518H288.667c-12.887 0-23.334 10.44-23.334 23.318v29.111c0 12.878 10.447 23.317 23.334 23.317h386.667c12.886 0 23.333-10.439 23.333-23.317v-29.111c0-12.878-10.447-23.318-23.333-23.318Z" fill="#4E4E4E"/><path d="M675.334 329.518H288.667c-12.887 0-23.334 10.44-23.334 23.318v29.111c0 12.878 10.447 23.317 23.334 23.317h386.667c12.886 0 23.333-10.439 23.333-23.317v-29.111c0-12.878-10.447-23.318-23.333-23.318Z" stroke="#000" stroke-width="1.667" stroke-linecap="round" stroke-linejoin="round"/></g><path d="M675.334 329.518H288.667c-12.887 0-23.334 10.44-23.334 23.318v29.111c0 12.878 10.447 23.317 23.334 23.317h386.667c12.886 0 23.333-10.439 23.333-23.317v-29.111c0-12.878-10.447-23.318-23.333-23.318Z" fill="#4E4E4E" style="mix-blend-mode:multiply" opacity=".33"/><path d="M288.666 329.518h386.667a23.342 23.342 0 0 1 16.499 6.83 23.31 23.31 0 0 1 6.834 16.488v34.041c0 3.776-1.501 7.398-4.173 10.068a14.254 14.254 0 0 1-10.075 4.171H279.583a14.254 14.254 0 0 1-10.075-4.171 14.234 14.234 0 0 1-4.174-10.068v-34.041a23.31 23.31 0 0 1 6.835-16.488 23.338 23.338 0 0 1 16.499-6.83h-.002Z" fill="#4E4E4E" style="mix-blend-mode:multiply" opacity=".17"/><g style="mix-blend-mode:multiply" opacity=".33"><path d="M675.334 329.518H288.667c-12.887 0-23.334 10.44-23.334 23.318v29.111c0 12.878 10.447 23.317 23.334 23.317h386.667c12.886 0 23.333-10.439 23.333-23.317v-29.111c0-12.878-10.447-23.318-23.333-23.318Z" fill="#4E4E4E"/><path d="M675.334 329.518H288.667c-12.887 0-23.334 10.44-23.334 23.318v29.111c0 12.878 10.447 23.317 23.334 23.317h386.667c12.886 0 23.333-10.439 23.333-23.317v-29.111c0-12.878-10.447-23.318-23.333-23.318Z" stroke="#46505C" stroke-width="6.667" stroke-linecap="round" stroke-linejoin="round"/></g><path d="M668.667 396.248v-58.196H295.334v58.196h373.333Z" fill="#4E4E4E" style="mix-blend-mode:multiply" opacity=".33"/><g style="mix-blend-mode:multiply" opacity=".33"><path d="M668.667 396.248v-58.196H295.334v58.196h373.333Z" fill="#4E4E4E"/><path d="M668.667 396.248v-58.196H295.334v58.196h373.333Z" stroke="#46505C" stroke-width="1.667" stroke-linecap="round" stroke-linejoin="round"/></g><path d="M675.335 405.264H288.669c-12.887 0-23.334 10.44-23.334 23.318v239.84c0 12.878 10.447 23.318 23.334 23.318h386.666c12.887 0 23.334-10.44 23.334-23.318v-239.84c0-12.878-10.447-23.318-23.334-23.318Z" fill="#4E4E4E" style="mix-blend-mode:multiply" opacity=".33"/><g style="mix-blend-mode:multiply" opacity=".33"><path d="M692.002 668.422V428.581c0-9.198-7.462-16.655-16.666-16.655H288.669c-9.205 0-16.667 7.457-16.667 16.655v239.841c0 9.199 7.462 16.656 16.667 16.656h386.667c9.204 0 16.666-7.457 16.666-16.656Z" fill="#4E4E4E"/><path d="M692.002 668.422V428.581c0-9.198-7.462-16.655-16.666-16.655H288.669c-9.205 0-16.667 7.457-16.667 16.655v239.841c0 9.199 7.462 16.656 16.667 16.656h386.667c9.204 0 16.666-7.457 16.666-16.656Z" stroke="#E6F3FF" stroke-width="3.333" stroke-miterlimit="10"/></g><path d="M455.251 678.711h53.5a6.662 6.662 0 0 1 6.667 6.662v6.363h-66.834v-6.363a6.662 6.662 0 0 1 6.667-6.662Z" fill="#4E4E4E" style="mix-blend-mode:multiply" opacity=".33"/><g style="mix-blend-mode:multiply" opacity=".33"><path d="M675.335 405.264H288.669c-12.887 0-23.334 10.44-23.334 23.318v239.84c0 12.878 10.447 23.318 23.334 23.318h386.666c12.887 0 23.334-10.44 23.334-23.318v-239.84c0-12.878-10.447-23.318-23.334-23.318Z" fill="#4E4E4E"/><path d="M675.335 405.264H288.669c-12.887 0-23.334 10.44-23.334 23.318v239.84c0 12.878 10.447 23.318 23.334 23.318h386.666c12.887 0 23.334-10.44 23.334-23.318v-239.84c0-12.878-10.447-23.318-23.334-23.318Z" stroke="#46505C" stroke-width="6.667" stroke-linecap="round" stroke-linejoin="round"/></g><path d="M668.667 427.617H295.334c-2.762 0-5 2.237-5 4.996v143.239a4.998 4.998 0 0 0 5 4.996h373.333c2.761 0 5-2.237 5-4.996V432.613a4.998 4.998 0 0 0-5-4.996Z" fill="#4E4E4E" style="mix-blend-mode:multiply" opacity=".33"/><g style="mix-blend-mode:multiply" opacity=".33"><path d="M363.808 543.373h-19.999c-.921 0-1.667.746-1.667 1.666v19.986c0 .92.746 1.666 1.667 1.666h19.999c.921 0 1.667-.746 1.667-1.666v-19.986c0-.92-.746-1.666-1.667-1.666Z" fill="#4E4E4E"/><path d="M363.808 543.373h-19.999c-.921 0-1.667.746-1.667 1.666v19.986c0 .92.746 1.666 1.667 1.666h19.999c.921 0 1.667-.746 1.667-1.666v-19.986c0-.92-.746-1.666-1.667-1.666Z" stroke="#626C84" stroke-width="1.667" stroke-linecap="round" stroke-linejoin="round"/></g><g style="mix-blend-mode:multiply" opacity=".33"><path d="M327.743 543.373h-20c-.92 0-1.666.746-1.666 1.666v19.986c0 .92.746 1.666 1.666 1.666h20c.921 0 1.667-.746 1.667-1.666v-19.986c0-.92-.746-1.666-1.667-1.666Z" fill="#4E4E4E"/><path d="M327.743 543.373h-20c-.92 0-1.666.746-1.666 1.666v19.986c0 .92.746 1.666 1.666 1.666h20c.921 0 1.667-.746 1.667-1.666v-19.986c0-.92-.746-1.666-1.667-1.666Z" stroke="#626C84" stroke-width="1.667" stroke-linecap="round" stroke-linejoin="round"/></g><g style="mix-blend-mode:multiply" opacity=".33"><path d="M544.129 543.373H379.872c-.92 0-1.666.746-1.666 1.666v19.986c0 .92.746 1.666 1.666 1.666h164.257c.92 0 1.667-.746 1.667-1.666v-19.986c0-.92-.747-1.666-1.667-1.666Z" fill="#4E4E4E"/><path d="M544.129 543.373H379.872c-.92 0-1.666.746-1.666 1.666v19.986c0 .92.746 1.666 1.666 1.666h164.257c.92 0 1.667-.746 1.667-1.666v-19.986c0-.92-.747-1.666-1.667-1.666Z" stroke="#626C84" stroke-width="1.667" stroke-linecap="round" stroke-linejoin="round"/></g><g style="mix-blend-mode:multiply" opacity=".33"><path d="M580.194 543.373h-20c-.921 0-1.667.746-1.667 1.666v19.986c0 .92.746 1.666 1.667 1.666h20c.92 0 1.667-.746 1.667-1.666v-19.986c0-.92-.747-1.666-1.667-1.666Z" fill="#4E4E4E"/><path d="M580.194 543.373h-20c-.921 0-1.667.746-1.667 1.666v19.986c0 .92.746 1.666 1.667 1.666h20c.92 0 1.667-.746 1.667-1.666v-19.986c0-.92-.747-1.666-1.667-1.666Z" stroke="#626C84" stroke-width="1.667" stroke-linecap="round" stroke-linejoin="round"/></g><g style="mix-blend-mode:multiply" opacity=".33"><path d="M632.926 556.489h-13.334c-.92 0-1.666.746-1.666 1.666v6.87c0 .92.746 1.666 1.666 1.666h13.334c.92 0 1.666-.746 1.666-1.666v-6.87c0-.92-.746-1.666-1.666-1.666Z" fill="#4E4E4E"/><path d="M632.926 556.489h-13.334c-.92 0-1.666.746-1.666 1.666v6.87c0 .92.746 1.666 1.666 1.666h13.334c.92 0 1.666-.746 1.666-1.666v-6.87c0-.92-.746-1.666-1.666-1.666Z" stroke="#626C84" stroke-width="1.667" stroke-linecap="round" stroke-linejoin="round"/></g><g style="mix-blend-mode:multiply" opacity=".33"><path d="M632.926 543.373h-13.334c-.92 0-1.666.746-1.666 1.666v6.87c0 .92.746 1.666 1.666 1.666h13.334c.92 0 1.666-.746 1.666-1.666v-6.87c0-.92-.746-1.666-1.666-1.666Z" fill="#4E4E4E"/><path d="M632.926 543.373h-13.334c-.92 0-1.666.746-1.666 1.666v6.87c0 .92.746 1.666 1.666 1.666h13.334c.92 0 1.666-.746 1.666-1.666v-6.87c0-.92-.746-1.666-1.666-1.666Z" stroke="#626C84" stroke-width="1.667" stroke-linecap="round" stroke-linejoin="round"/></g><g style="mix-blend-mode:multiply" opacity=".33"><path d="M656.259 556.489h-13.333c-.921 0-1.667.746-1.667 1.666v6.87c0 .92.746 1.666 1.667 1.666h13.333c.921 0 1.667-.746 1.667-1.666v-6.87c0-.92-.746-1.666-1.667-1.666Z" fill="#4E4E4E"/><path d="M656.259 556.489h-13.333c-.921 0-1.667.746-1.667 1.666v6.87c0 .92.746 1.666 1.667 1.666h13.333c.921 0 1.667-.746 1.667-1.666v-6.87c0-.92-.746-1.666-1.667-1.666Z" stroke="#626C84" stroke-width="1.667" stroke-linecap="round" stroke-linejoin="round"/></g><g style="mix-blend-mode:multiply" opacity=".33"><path d="M609.593 556.489h-13.334c-.92 0-1.666.746-1.666 1.666v6.87c0 .92.746 1.666 1.666 1.666h13.334c.92 0 1.666-.746 1.666-1.666v-6.87c0-.92-.746-1.666-1.666-1.666Z" fill="#4E4E4E"/><path d="M609.593 556.489h-13.334c-.92 0-1.666.746-1.666 1.666v6.87c0 .92.746 1.666 1.666 1.666h13.334c.92 0 1.666-.746 1.666-1.666v-6.87c0-.92-.746-1.666-1.666-1.666Z" stroke="#626C84" stroke-width="1.667" stroke-linecap="round" stroke-linejoin="round"/></g><g style="mix-blend-mode:multiply" opacity=".33"><path d="M360.475 510.194h-52.732c-.92 0-1.666.746-1.666 1.666v19.986c0 .92.746 1.666 1.666 1.666h52.732c.92 0 1.667-.746 1.667-1.666V511.86c0-.92-.747-1.666-1.667-1.666Z" fill="#4E4E4E"/><path d="M360.475 510.194h-52.732c-.92 0-1.666.746-1.666 1.666v19.986c0 .92.746 1.666 1.666 1.666h52.732c.92 0 1.667-.746 1.667-1.666V511.86c0-.92-.747-1.666-1.667-1.666Z" stroke="#626C84" stroke-width="1.667" stroke-linecap="round" stroke-linejoin="round"/></g><g style="mix-blend-mode:multiply" opacity=".33"><path d="M396.84 510.194h-20c-.921 0-1.667.746-1.667 1.666v19.986c0 .92.746 1.666 1.667 1.666h20c.92 0 1.667-.746 1.667-1.666V511.86c0-.92-.747-1.666-1.667-1.666Z" fill="#4E4E4E"/><path d="M396.84 510.194h-20c-.921 0-1.667.746-1.667 1.666v19.986c0 .92.746 1.666 1.667 1.666h20c.92 0 1.667-.746 1.667-1.666V511.86c0-.92-.747-1.666-1.667-1.666Z" stroke="#626C84" stroke-width="1.667" stroke-linecap="round" stroke-linejoin="round"/></g><g style="mix-blend-mode:multiply" opacity=".33"><path d="M432.905 510.194h-20c-.92 0-1.666.746-1.666 1.666v19.986c0 .92.746 1.666 1.666 1.666h20c.921 0 1.667-.746 1.667-1.666V511.86c0-.92-.746-1.666-1.667-1.666Z" fill="#4E4E4E"/><path d="M432.905 510.194h-20c-.92 0-1.666.746-1.666 1.666v19.986c0 .92.746 1.666 1.666 1.666h20c.921 0 1.667-.746 1.667-1.666V511.86c0-.92-.746-1.666-1.667-1.666Z" stroke="#626C84" stroke-width="1.667" stroke-linecap="round" stroke-linejoin="round"/></g><g style="mix-blend-mode:multiply" opacity=".33"><path d="M468.969 510.194h-20c-.92 0-1.667.746-1.667 1.666v19.986c0 .92.747 1.666 1.667 1.666h20c.92 0 1.667-.746 1.667-1.666V511.86c0-.92-.747-1.666-1.667-1.666Z" fill="#4E4E4E"/><path d="M468.969 510.194h-20c-.92 0-1.667.746-1.667 1.666v19.986c0 .92.747 1.666 1.667 1.666h20c.92 0 1.667-.746 1.667-1.666V511.86c0-.92-.747-1.666-1.667-1.666Z" stroke="#626C84" stroke-width="1.667" stroke-linecap="round" stroke-linejoin="round"/></g><g style="mix-blend-mode:multiply" opacity=".33"><path d="M505.033 510.194h-20c-.92 0-1.666.746-1.666 1.666v19.986c0 .92.746 1.666 1.666 1.666h20c.921 0 1.667-.746 1.667-1.666V511.86c0-.92-.746-1.666-1.667-1.666Z" fill="#4E4E4E"/><path d="M505.033 510.194h-20c-.92 0-1.666.746-1.666 1.666v19.986c0 .92.746 1.666 1.666 1.666h20c.921 0 1.667-.746 1.667-1.666V511.86c0-.92-.746-1.666-1.667-1.666Z" stroke="#626C84" stroke-width="1.667" stroke-linecap="round" stroke-linejoin="round"/></g><g style="mix-blend-mode:multiply" opacity=".33"><path d="M541.097 510.194h-20c-.92 0-1.667.746-1.667 1.666v19.986c0 .92.747 1.666 1.667 1.666h20c.921 0 1.667-.746 1.667-1.666V511.86c0-.92-.746-1.666-1.667-1.666Z" fill="#4E4E4E"/><path d="M541.097 510.194h-20c-.92 0-1.667.746-1.667 1.666v19.986c0 .92.747 1.666 1.667 1.666h20c.921 0 1.667-.746 1.667-1.666V511.86c0-.92-.746-1.666-1.667-1.666Z" stroke="#626C84" stroke-width="1.667" stroke-linecap="round" stroke-linejoin="round"/></g><g style="mix-blend-mode:multiply" opacity=".33"><path d="M577.162 510.194h-20c-.92 0-1.666.746-1.666 1.666v19.986c0 .92.746 1.666 1.666 1.666h20c.921 0 1.667-.746 1.667-1.666V511.86c0-.92-.746-1.666-1.667-1.666Z" fill="#4E4E4E"/><path d="M577.162 510.194h-20c-.92 0-1.666.746-1.666 1.666v19.986c0 .92.746 1.666 1.666 1.666h20c.921 0 1.667-.746 1.667-1.666V511.86c0-.92-.746-1.666-1.667-1.666Z" stroke="#626C84" stroke-width="1.667" stroke-linecap="round" stroke-linejoin="round"/></g><g style="mix-blend-mode:multiply" opacity=".33"><path d="M656.259 510.194h-60c-.92 0-1.666.746-1.666 1.666v19.986c0 .92.746 1.666 1.666 1.666h60c.921 0 1.667-.746 1.667-1.666V511.86c0-.92-.746-1.666-1.667-1.666Z" fill="#4E4E4E"/><path d="M656.259 510.194h-60c-.92 0-1.666.746-1.666 1.666v19.986c0 .92.746 1.666 1.666 1.666h60c.921 0 1.667-.746 1.667-1.666V511.86c0-.92-.746-1.666-1.667-1.666Z" stroke="#626C84" stroke-width="1.667" stroke-linecap="round" stroke-linejoin="round"/></g><g style="mix-blend-mode:multiply" opacity=".33"><path d="M383.808 476.084h-20c-.92 0-1.666.746-1.666 1.666v19.986c0 .92.746 1.666 1.666 1.666h20c.921 0 1.667-.746 1.667-1.666V477.75c0-.92-.746-1.666-1.667-1.666Z" fill="#4E4E4E"/><path d="M383.808 476.084h-20c-.92 0-1.666.746-1.666 1.666v19.986c0 .92.746 1.666 1.666 1.666h20c.921 0 1.667-.746 1.667-1.666V477.75c0-.92-.746-1.666-1.667-1.666Z" stroke="#626C84" stroke-width="1.667" stroke-linecap="round" stroke-linejoin="round"/></g><g style="mix-blend-mode:multiply" opacity=".33"><path d="M347.743 476.084h-40c-.92 0-1.666.746-1.666 1.666v19.986c0 .92.746 1.666 1.666 1.666h40c.921 0 1.667-.746 1.667-1.666V477.75c0-.92-.746-1.666-1.667-1.666Z" fill="#4E4E4E"/><path d="M347.743 476.084h-40c-.92 0-1.666.746-1.666 1.666v19.986c0 .92.746 1.666 1.666 1.666h40c.921 0 1.667-.746 1.667-1.666V477.75c0-.92-.746-1.666-1.667-1.666Z" stroke="#626C84" stroke-width="1.667" stroke-linecap="round" stroke-linejoin="round"/></g><g style="mix-blend-mode:multiply" opacity=".33"><path d="M419.872 476.084h-20c-.92 0-1.666.746-1.666 1.666v19.986c0 .92.746 1.666 1.666 1.666h20c.921 0 1.667-.746 1.667-1.666V477.75c0-.92-.746-1.666-1.667-1.666Z" fill="#4E4E4E"/><path d="M419.872 476.084h-20c-.92 0-1.666.746-1.666 1.666v19.986c0 .92.746 1.666 1.666 1.666h20c.921 0 1.667-.746 1.667-1.666V477.75c0-.92-.746-1.666-1.667-1.666Z" stroke="#626C84" stroke-width="1.667" stroke-linecap="round" stroke-linejoin="round"/></g><g style="mix-blend-mode:multiply" opacity=".33"><path d="M455.937 476.084h-20c-.921 0-1.667.746-1.667 1.666v19.986c0 .92.746 1.666 1.667 1.666h20c.92 0 1.666-.746 1.666-1.666V477.75c0-.92-.746-1.666-1.666-1.666Z" fill="#4E4E4E"/><path d="M455.937 476.084h-20c-.921 0-1.667.746-1.667 1.666v19.986c0 .92.746 1.666 1.667 1.666h20c.92 0 1.666-.746 1.666-1.666V477.75c0-.92-.746-1.666-1.666-1.666Z" stroke="#626C84" stroke-width="1.667" stroke-linecap="round" stroke-linejoin="round"/></g><g style="mix-blend-mode:multiply" opacity=".33"><path d="M492 476.084h-20c-.92 0-1.666.746-1.666 1.666v19.986c0 .92.746 1.666 1.666 1.666h20c.921 0 1.667-.746 1.667-1.666V477.75c0-.92-.746-1.666-1.667-1.666Z" fill="#4E4E4E"/><path d="M492 476.084h-20c-.92 0-1.666.746-1.666 1.666v19.986c0 .92.746 1.666 1.666 1.666h20c.921 0 1.667-.746 1.667-1.666V477.75c0-.92-.746-1.666-1.667-1.666Z" stroke="#626C84" stroke-width="1.667" stroke-linecap="round" stroke-linejoin="round"/></g><g style="mix-blend-mode:multiply" opacity=".33"><path d="M528.066 476.084h-20c-.921 0-1.667.746-1.667 1.666v19.986c0 .92.746 1.666 1.667 1.666h20c.92 0 1.666-.746 1.666-1.666V477.75c0-.92-.746-1.666-1.666-1.666Z" fill="#4E4E4E"/><path d="M528.066 476.084h-20c-.921 0-1.667.746-1.667 1.666v19.986c0 .92.746 1.666 1.667 1.666h20c.92 0 1.666-.746 1.666-1.666V477.75c0-.92-.746-1.666-1.666-1.666Z" stroke="#626C84" stroke-width="1.667" stroke-linecap="round" stroke-linejoin="round"/></g><g style="mix-blend-mode:multiply" opacity=".33"><path d="M564.13 476.084h-20c-.92 0-1.667.746-1.667 1.666v19.986c0 .92.747 1.666 1.667 1.666h20c.921 0 1.667-.746 1.667-1.666V477.75c0-.92-.746-1.666-1.667-1.666Z" fill="#4E4E4E"/><path d="M564.13 476.084h-20c-.92 0-1.667.746-1.667 1.666v19.986c0 .92.747 1.666 1.667 1.666h20c.921 0 1.667-.746 1.667-1.666V477.75c0-.92-.746-1.666-1.667-1.666Z" stroke="#626C84" stroke-width="1.667" stroke-linecap="round" stroke-linejoin="round"/></g><g style="mix-blend-mode:multiply" opacity=".33"><path d="M600.194 476.084h-20c-.921 0-1.667.746-1.667 1.666v19.986c0 .92.746 1.666 1.667 1.666h20c.92 0 1.667-.746 1.667-1.666V477.75c0-.92-.747-1.666-1.667-1.666Z" fill="#4E4E4E"/><path d="M600.194 476.084h-20c-.921 0-1.667.746-1.667 1.666v19.986c0 .92.746 1.666 1.667 1.666h20c.92 0 1.667-.746 1.667-1.666V477.75c0-.92-.747-1.666-1.667-1.666Z" stroke="#626C84" stroke-width="1.667" stroke-linecap="round" stroke-linejoin="round"/></g><g style="mix-blend-mode:multiply" opacity=".33"><path d="M656.259 476.084h-40c-.92 0-1.666.746-1.666 1.666v19.986c0 .92.746 1.666 1.666 1.666h40c.921 0 1.667-.746 1.667-1.666V477.75c0-.92-.746-1.666-1.667-1.666Z" fill="#4E4E4E"/><path d="M656.259 476.084h-40c-.92 0-1.666.746-1.666 1.666v19.986c0 .92.746 1.666 1.666 1.666h40c.921 0 1.667-.746 1.667-1.666V477.75c0-.92-.746-1.666-1.667-1.666Z" stroke="#626C84" stroke-width="1.667" stroke-linecap="round" stroke-linejoin="round"/></g><g style="mix-blend-mode:multiply" opacity=".33"><path d="M364.245 443.44h-20c-.92 0-1.666.745-1.666 1.665v19.987c0 .92.746 1.665 1.666 1.665h20c.921 0 1.667-.745 1.667-1.665v-19.987c0-.92-.746-1.665-1.667-1.665Z" fill="#4E4E4E"/><path d="M364.245 443.44h-20c-.92 0-1.666.745-1.666 1.665v19.987c0 .92.746 1.665 1.666 1.665h20c.921 0 1.667-.745 1.667-1.665v-19.987c0-.92-.746-1.665-1.667-1.665Z" stroke="#626C84" stroke-width="1.667" stroke-linecap="round" stroke-linejoin="round"/></g><g style="mix-blend-mode:multiply" opacity=".33"><path d="M327.743 443.44h-20c-.92 0-1.666.745-1.666 1.665v19.987c0 .92.746 1.665 1.666 1.665h20c.921 0 1.667-.745 1.667-1.665v-19.987c0-.92-.746-1.665-1.667-1.665Z" fill="#4E4E4E"/><path d="M327.743 443.44h-20c-.92 0-1.666.745-1.666 1.665v19.987c0 .92.746 1.665 1.666 1.665h20c.921 0 1.667-.745 1.667-1.665v-19.987c0-.92-.746-1.665-1.667-1.665Z" stroke="#626C84" stroke-width="1.667" stroke-linecap="round" stroke-linejoin="round"/></g><g style="mix-blend-mode:multiply" opacity=".33"><path d="M400.747 443.44h-20c-.92 0-1.667.745-1.667 1.665v19.987c0 .92.747 1.665 1.667 1.665h20c.921 0 1.667-.745 1.667-1.665v-19.987c0-.92-.746-1.665-1.667-1.665Z" fill="#4E4E4E"/><path d="M400.747 443.44h-20c-.92 0-1.667.745-1.667 1.665v19.987c0 .92.747 1.665 1.667 1.665h20c.921 0 1.667-.745 1.667-1.665v-19.987c0-.92-.746-1.665-1.667-1.665Z" stroke="#626C84" stroke-width="1.667" stroke-linecap="round" stroke-linejoin="round"/></g><g style="mix-blend-mode:multiply" opacity=".33"><path d="M437.248 443.44h-20c-.92 0-1.666.745-1.666 1.665v19.987c0 .92.746 1.665 1.666 1.665h20c.921 0 1.667-.745 1.667-1.665v-19.987c0-.92-.746-1.665-1.667-1.665Z" fill="#4E4E4E"/><path d="M437.248 443.44h-20c-.92 0-1.666.745-1.666 1.665v19.987c0 .92.746 1.665 1.666 1.665h20c.921 0 1.667-.745 1.667-1.665v-19.987c0-.92-.746-1.665-1.667-1.665Z" stroke="#626C84" stroke-width="1.667" stroke-linecap="round" stroke-linejoin="round"/></g><g style="mix-blend-mode:multiply" opacity=".33"><path d="M473.75 443.44h-20c-.92 0-1.667.745-1.667 1.665v19.987c0 .92.747 1.665 1.667 1.665h20c.921 0 1.667-.745 1.667-1.665v-19.987c0-.92-.746-1.665-1.667-1.665Z" fill="#4E4E4E"/><path d="M473.75 443.44h-20c-.92 0-1.667.745-1.667 1.665v19.987c0 .92.747 1.665 1.667 1.665h20c.921 0 1.667-.745 1.667-1.665v-19.987c0-.92-.746-1.665-1.667-1.665Z" stroke="#626C84" stroke-width="1.667" stroke-linecap="round" stroke-linejoin="round"/></g><g style="mix-blend-mode:multiply" opacity=".33"><path d="M510.252 443.44h-20c-.92 0-1.666.745-1.666 1.665v19.987c0 .92.746 1.665 1.666 1.665h20c.921 0 1.667-.745 1.667-1.665v-19.987c0-.92-.746-1.665-1.667-1.665Z" fill="#4E4E4E"/><path d="M510.252 443.44h-20c-.92 0-1.666.745-1.666 1.665v19.987c0 .92.746 1.665 1.666 1.665h20c.921 0 1.667-.745 1.667-1.665v-19.987c0-.92-.746-1.665-1.667-1.665Z" stroke="#626C84" stroke-width="1.667" stroke-linecap="round" stroke-linejoin="round"/></g><g style="mix-blend-mode:multiply" opacity=".33"><path d="M546.754 443.44h-20c-.921 0-1.667.745-1.667 1.665v19.987c0 .92.746 1.665 1.667 1.665h20c.92 0 1.667-.745 1.667-1.665v-19.987c0-.92-.747-1.665-1.667-1.665Z" fill="#4E4E4E"/><path d="M546.754 443.44h-20c-.921 0-1.667.745-1.667 1.665v19.987c0 .92.746 1.665 1.667 1.665h20c.92 0 1.667-.745 1.667-1.665v-19.987c0-.92-.747-1.665-1.667-1.665Z" stroke="#626C84" stroke-width="1.667" stroke-linecap="round" stroke-linejoin="round"/></g><g style="mix-blend-mode:multiply" opacity=".33"><path d="M583.255 443.44h-20c-.92 0-1.666.745-1.666 1.665v19.987c0 .92.746 1.665 1.666 1.665h20c.921 0 1.667-.745 1.667-1.665v-19.987c0-.92-.746-1.665-1.667-1.665Z" fill="#4E4E4E"/><path d="M583.255 443.44h-20c-.92 0-1.666.745-1.666 1.665v19.987c0 .92.746 1.665 1.666 1.665h20c.921 0 1.667-.745 1.667-1.665v-19.987c0-.92-.746-1.665-1.667-1.665Z" stroke="#626C84" stroke-width="1.667" stroke-linecap="round" stroke-linejoin="round"/></g><g style="mix-blend-mode:multiply" opacity=".33"><path d="M619.757 443.44h-20c-.921 0-1.667.745-1.667 1.665v19.987c0 .92.746 1.665 1.667 1.665h20c.92 0 1.667-.745 1.667-1.665v-19.987c0-.92-.747-1.665-1.667-1.665Z" fill="#4E4E4E"/><path d="M619.757 443.44h-20c-.921 0-1.667.745-1.667 1.665v19.987c0 .92.746 1.665 1.667 1.665h20c.92 0 1.667-.745 1.667-1.665v-19.987c0-.92-.747-1.665-1.667-1.665Z" stroke="#626C84" stroke-width="1.667" stroke-linecap="round" stroke-linejoin="round"/></g><g style="mix-blend-mode:multiply" opacity=".33"><path d="M656.259 443.44h-20c-.92 0-1.667.745-1.667 1.665v19.987c0 .92.747 1.665 1.667 1.665h20c.921 0 1.667-.745 1.667-1.665v-19.987c0-.92-.746-1.665-1.667-1.665Z" fill="#4E4E4E"/><path d="M656.259 443.44h-20c-.92 0-1.667.745-1.667 1.665v19.987c0 .92.747 1.665 1.667 1.665h20c.921 0 1.667-.745 1.667-1.665v-19.987c0-.92-.746-1.665-1.667-1.665Z" stroke="#626C84" stroke-width="1.667" stroke-linecap="round" stroke-linejoin="round"/></g><path d="M363.808 543.373h-19.999c-.921 0-1.667.746-1.667 1.666v19.986c0 .92.746 1.666 1.667 1.666h19.999c.921 0 1.667-.746 1.667-1.666v-19.986c0-.92-.746-1.666-1.667-1.666Zm-36.065 0h-20c-.92 0-1.666.746-1.666 1.666v19.986c0 .92.746 1.666 1.666 1.666h20c.921 0 1.667-.746 1.667-1.666v-19.986c0-.92-.746-1.666-1.667-1.666Zm216.386 0H379.872c-.92 0-1.666.746-1.666 1.666v19.986c0 .92.746 1.666 1.666 1.666h164.257c.92 0 1.667-.746 1.667-1.666v-19.986c0-.92-.747-1.666-1.667-1.666Zm36.065 0h-20c-.921 0-1.667.746-1.667 1.666v19.986c0 .92.746 1.666 1.667 1.666h20c.92 0 1.667-.746 1.667-1.666v-19.986c0-.92-.747-1.666-1.667-1.666Zm52.732 13.116h-13.334c-.92 0-1.666.746-1.666 1.666v6.87c0 .92.746 1.666 1.666 1.666h13.334c.92 0 1.666-.746 1.666-1.666v-6.87c0-.92-.746-1.666-1.666-1.666Zm0-13.116h-13.334c-.92 0-1.666.746-1.666 1.666v6.87c0 .92.746 1.666 1.666 1.666h13.334c.92 0 1.666-.746 1.666-1.666v-6.87c0-.92-.746-1.666-1.666-1.666Zm23.333 13.116h-13.333c-.921 0-1.667.746-1.667 1.666v6.87c0 .92.746 1.666 1.667 1.666h13.333c.921 0 1.667-.746 1.667-1.666v-6.87c0-.92-.746-1.666-1.667-1.666Zm-46.666 0h-13.334c-.92 0-1.666.746-1.666 1.666v6.87c0 .92.746 1.666 1.666 1.666h13.334c.92 0 1.666-.746 1.666-1.666v-6.87c0-.92-.746-1.666-1.666-1.666Zm-249.118-46.295h-52.732c-.92 0-1.666.746-1.666 1.666v19.986c0 .92.746 1.666 1.666 1.666h52.732c.92 0 1.667-.746 1.667-1.666V511.86c0-.92-.747-1.666-1.667-1.666Zm36.365 0h-20c-.921 0-1.667.746-1.667 1.666v19.986c0 .92.746 1.666 1.667 1.666h20c.92 0 1.667-.746 1.667-1.666V511.86c0-.92-.747-1.666-1.667-1.666Zm36.065 0h-20c-.92 0-1.666.746-1.666 1.666v19.986c0 .92.746 1.666 1.666 1.666h20c.921 0 1.667-.746 1.667-1.666V511.86c0-.92-.746-1.666-1.667-1.666Zm36.064 0h-20c-.92 0-1.667.746-1.667 1.666v19.986c0 .92.747 1.666 1.667 1.666h20c.92 0 1.667-.746 1.667-1.666V511.86c0-.92-.747-1.666-1.667-1.666Zm36.064 0h-20c-.92 0-1.666.746-1.666 1.666v19.986c0 .92.746 1.666 1.666 1.666h20c.921 0 1.667-.746 1.667-1.666V511.86c0-.92-.746-1.666-1.667-1.666Zm36.064 0h-20c-.92 0-1.667.746-1.667 1.666v19.986c0 .92.747 1.666 1.667 1.666h20c.921 0 1.667-.746 1.667-1.666V511.86c0-.92-.746-1.666-1.667-1.666Zm36.065 0h-20c-.92 0-1.666.746-1.666 1.666v19.986c0 .92.746 1.666 1.666 1.666h20c.921 0 1.667-.746 1.667-1.666V511.86c0-.92-.746-1.666-1.667-1.666Zm79.097 0h-60c-.92 0-1.666.746-1.666 1.666v19.986c0 .92.746 1.666 1.666 1.666h60c.921 0 1.667-.746 1.667-1.666V511.86c0-.92-.746-1.666-1.667-1.666Zm-272.451-34.11h-20c-.92 0-1.666.746-1.666 1.666v19.986c0 .92.746 1.666 1.666 1.666h20c.921 0 1.667-.746 1.667-1.666V477.75c0-.92-.746-1.666-1.667-1.666Zm-36.065 0h-40c-.92 0-1.666.746-1.666 1.666v19.986c0 .92.746 1.666 1.666 1.666h40c.921 0 1.667-.746 1.667-1.666V477.75c0-.92-.746-1.666-1.667-1.666Zm72.129 0h-20c-.92 0-1.666.746-1.666 1.666v19.986c0 .92.746 1.666 1.666 1.666h20c.921 0 1.667-.746 1.667-1.666V477.75c0-.92-.746-1.666-1.667-1.666Zm36.065 0h-20c-.921 0-1.667.746-1.667 1.666v19.986c0 .92.746 1.666 1.667 1.666h20c.92 0 1.666-.746 1.666-1.666V477.75c0-.92-.746-1.666-1.666-1.666Zm36.063 0h-20c-.92 0-1.666.746-1.666 1.666v19.986c0 .92.746 1.666 1.666 1.666h20c.921 0 1.667-.746 1.667-1.666V477.75c0-.92-.746-1.666-1.667-1.666Zm36.066 0h-20c-.921 0-1.667.746-1.667 1.666v19.986c0 .92.746 1.666 1.667 1.666h20c.92 0 1.666-.746 1.666-1.666V477.75c0-.92-.746-1.666-1.666-1.666Zm36.064 0h-20c-.92 0-1.667.746-1.667 1.666v19.986c0 .92.747 1.666 1.667 1.666h20c.921 0 1.667-.746 1.667-1.666V477.75c0-.92-.746-1.666-1.667-1.666Zm36.064 0h-20c-.921 0-1.667.746-1.667 1.666v19.986c0 .92.746 1.666 1.667 1.666h20c.92 0 1.667-.746 1.667-1.666V477.75c0-.92-.747-1.666-1.667-1.666Zm56.065 0h-40c-.92 0-1.666.746-1.666 1.666v19.986c0 .92.746 1.666 1.666 1.666h40c.921 0 1.667-.746 1.667-1.666V477.75c0-.92-.746-1.666-1.667-1.666ZM364.245 443.44h-20c-.92 0-1.666.745-1.666 1.665v19.987c0 .92.746 1.665 1.666 1.665h20c.921 0 1.667-.745 1.667-1.665v-19.987c0-.92-.746-1.665-1.667-1.665Zm-36.502 0h-20c-.92 0-1.666.745-1.666 1.665v19.987c0 .92.746 1.665 1.666 1.665h20c.921 0 1.667-.745 1.667-1.665v-19.987c0-.92-.746-1.665-1.667-1.665Zm73.004 0h-20c-.92 0-1.667.745-1.667 1.665v19.987c0 .92.747 1.665 1.667 1.665h20c.921 0 1.667-.745 1.667-1.665v-19.987c0-.92-.746-1.665-1.667-1.665Zm36.501 0h-20c-.92 0-1.666.745-1.666 1.665v19.987c0 .92.746 1.665 1.666 1.665h20c.921 0 1.667-.745 1.667-1.665v-19.987c0-.92-.746-1.665-1.667-1.665Zm36.502 0h-20c-.92 0-1.667.745-1.667 1.665v19.987c0 .92.747 1.665 1.667 1.665h20c.921 0 1.667-.745 1.667-1.665v-19.987c0-.92-.746-1.665-1.667-1.665Zm36.502 0h-20c-.92 0-1.666.745-1.666 1.665v19.987c0 .92.746 1.665 1.666 1.665h20c.921 0 1.667-.745 1.667-1.665v-19.987c0-.92-.746-1.665-1.667-1.665Zm36.502 0h-20c-.921 0-1.667.745-1.667 1.665v19.987c0 .92.746 1.665 1.667 1.665h20c.92 0 1.667-.745 1.667-1.665v-19.987c0-.92-.747-1.665-1.667-1.665Zm36.501 0h-20c-.92 0-1.666.745-1.666 1.665v19.987c0 .92.746 1.665 1.666 1.665h20c.921 0 1.667-.745 1.667-1.665v-19.987c0-.92-.746-1.665-1.667-1.665Zm36.502 0h-20c-.921 0-1.667.745-1.667 1.665v19.987c0 .92.746 1.665 1.667 1.665h20c.92 0 1.667-.745 1.667-1.665v-19.987c0-.92-.747-1.665-1.667-1.665Zm36.502 0h-20c-.92 0-1.667.745-1.667 1.665v19.987c0 .92.747 1.665 1.667 1.665h20c.921 0 1.667-.745 1.667-1.665v-19.987c0-.92-.746-1.665-1.667-1.665Zm-315.926-53.139h283.334v22.396a6.667 6.667 0 0 1-6.667 6.662H347a6.667 6.667 0 0 1-6.667-6.662v-22.396Z" fill="#4E4E4E" style="mix-blend-mode:multiply" opacity=".33"/><path d="M617 412.695H347a6.667 6.667 0 0 1-6.667-6.663v6.663a6.667 6.667 0 0 0 6.667 6.662h270a6.667 6.667 0 0 0 6.667-6.662v-6.663a6.667 6.667 0 0 1-6.667 6.663Z" fill="#4E4E4E" style="mix-blend-mode:multiply" opacity=".25"/><g style="mix-blend-mode:multiply" opacity=".33"><path d="M340.333 390.301h283.334v22.396a6.667 6.667 0 0 1-6.667 6.662H347a6.667 6.667 0 0 1-6.667-6.662v-22.396Z" fill="#4E4E4E"/><path d="M340.333 390.301h283.334v22.396a6.667 6.667 0 0 1-6.667 6.662H347a6.667 6.667 0 0 1-6.667-6.662v-22.396Z" stroke="#46505C" stroke-width="3.333" stroke-linecap="round" stroke-linejoin="round"/></g><path d="M540.335 589.175H423.669a3.333 3.333 0 0 0-3.334 3.332v78.281a3.333 3.333 0 0 0 3.334 3.331h116.666a3.333 3.333 0 0 0 3.334-3.331v-78.281a3.333 3.333 0 0 0-3.334-3.332Z" fill="#4E4E4E" style="mix-blend-mode:multiply" opacity=".33"/><g style="mix-blend-mode:multiply" opacity=".33"><path d="M540.335 589.175H423.669a3.333 3.333 0 0 0-3.334 3.332v78.281a3.333 3.333 0 0 0 3.334 3.331h116.666a3.333 3.333 0 0 0 3.334-3.331v-78.281a3.333 3.333 0 0 0-3.334-3.332Z" fill="#4E4E4E"/><path d="M540.335 589.175H423.669a3.333 3.333 0 0 0-3.334 3.332v78.281a3.333 3.333 0 0 0 3.334 3.331h116.666a3.333 3.333 0 0 0 3.334-3.331v-78.281a3.333 3.333 0 0 0-3.334-3.332Z" stroke="#626C84" stroke-width="1.667" stroke-linecap="round" stroke-linejoin="round"/></g></g><path d="M662.084 116.425H275.417c-12.887 0-23.334 10.44-23.334 23.318v226.516c0 12.878 10.447 23.318 23.334 23.318h386.667c12.886 0 23.333-10.44 23.333-23.318V139.743c0-12.878-10.447-23.318-23.333-23.318Z" stroke="#000" stroke-width="1.667" stroke-linecap="round" stroke-linejoin="round"/><path d="M662.084 116.425H275.417c-12.887 0-23.334 10.44-23.334 23.318v226.516c0 12.878 10.447 23.318 23.334 23.318h386.667c12.886 0 23.333-10.44 23.333-23.318V139.743c0-12.878-10.447-23.318-23.333-23.318Z" fill="#626C84"/><path d="M662.084 116.425H275.417c-12.887 0-23.334 10.44-23.334 23.318v226.516c0 12.878 10.447 23.318 23.334 23.318h386.667c12.886 0 23.333-10.44 23.333-23.318V139.743c0-12.878-10.447-23.318-23.333-23.318Z" fill="#626C84"/><path d="M662.084 116.425H275.417c-12.887 0-23.334 10.44-23.334 23.318v211.553c0 12.878 10.447 23.318 23.334 23.318h386.667c12.886 0 23.333-10.44 23.333-23.318V139.743c0-12.878-10.447-23.318-23.333-23.318Z" fill="#626C84" style="mix-blend-mode:multiply" opacity=".17"/><path opacity=".1" d="M275.417 123.081h386.667a23.34 23.34 0 0 1 16.499 6.829 23.31 23.31 0 0 1 6.834 16.489v219.853-226.516a23.31 23.31 0 0 0-6.834-16.488 23.34 23.34 0 0 0-16.499-6.829H275.417a23.34 23.34 0 0 0-16.499 6.829 23.31 23.31 0 0 0-6.835 16.488v6.663a23.31 23.31 0 0 1 6.835-16.489 23.34 23.34 0 0 1 16.499-6.829Z" fill="#fff"/><path opacity=".1" d="M384.128 389.577h26.782l198.588-273.152h-26.781L384.128 389.577Zm42.232 0h8.24l198.59-273.152h-8.242L426.36 389.577Z" fill="#fff"/><path d="M662.084 116.425H275.417c-12.887 0-23.334 10.44-23.334 23.318v226.516c0 12.878 10.447 23.318 23.334 23.318h386.667c12.886 0 23.333-10.44 23.333-23.318V139.743c0-12.878-10.447-23.318-23.333-23.318Z" stroke="#46505C" stroke-width="6.667" stroke-linecap="round" stroke-linejoin="round"/><path d="M655.417 357.064v-209.86H282.084v209.86h373.333Z" fill="#FD848E"/><path opacity=".06" d="M409.432 357.064h26.782l152.573-209.86h-26.782l-152.573 209.86Zm42.232 0h8.241l152.574-209.86h-8.24l-152.575 209.86Z" fill="#fff"/><path d="M655.417 357.064v-209.86H282.084v209.86h373.333Z" stroke="#46505C" stroke-width="1.667" stroke-linecap="round" stroke-linejoin="round"/><path d="M662.084 389.577H275.417c-12.887 0-23.334 10.44-23.334 23.318v239.84c0 12.878 10.447 23.318 23.334 23.318h386.667c12.886 0 23.333-10.44 23.333-23.318v-239.84c0-12.878-10.447-23.318-23.333-23.318Z" fill="#E6F3FF"/><path d="M678.75 652.736V412.895c0-9.198-7.462-16.655-16.667-16.655H275.417c-9.205 0-16.667 7.457-16.667 16.655v239.841c0 9.199 7.462 16.656 16.667 16.656h386.666c9.205 0 16.667-7.457 16.667-16.656Z" fill="#fff" stroke="#E6F3FF" stroke-width="3.333" stroke-miterlimit="10"/><path d="M441.999 663.028h53.5a6.662 6.662 0 0 1 6.666 6.662v6.363h-66.833v-6.363c0-1.767.702-3.461 1.953-4.711a6.67 6.67 0 0 1 4.714-1.951Z" fill="#E6F3FF"/><path d="M662.084 389.577H275.417c-12.887 0-23.334 10.44-23.334 23.318v239.84c0 12.878 10.447 23.318 23.334 23.318h386.667c12.886 0 23.333-10.44 23.333-23.318v-239.84c0-12.878-10.447-23.318-23.333-23.318Z" stroke="#46505C" stroke-width="6.667" stroke-linecap="round" stroke-linejoin="round"/><path d="M655.417 411.927H282.083c-2.761 0-5 2.237-5 4.997v143.238a4.999 4.999 0 0 0 5 4.997h373.334c2.761 0 5-2.237 5-4.997V416.924a4.999 4.999 0 0 0-5-4.997Z" fill="#E6F3FF"/><path d="M350.557 527.683h-20c-.921 0-1.667.746-1.667 1.666v19.986c0 .92.746 1.666 1.667 1.666h20c.92 0 1.666-.746 1.666-1.666v-19.986c0-.92-.746-1.666-1.666-1.666Zm-36.064 0h-20c-.921 0-1.667.746-1.667 1.666v19.986c0 .92.746 1.666 1.667 1.666h20c.92 0 1.667-.746 1.667-1.666v-19.986c0-.92-.747-1.666-1.667-1.666Zm216.386 0H366.622c-.92 0-1.666.746-1.666 1.666v19.986c0 .92.746 1.666 1.666 1.666h164.257c.92 0 1.667-.746 1.667-1.666v-19.986c0-.92-.747-1.666-1.667-1.666Zm36.064 0h-20c-.92 0-1.667.746-1.667 1.666v19.986c0 .92.747 1.666 1.667 1.666h20c.92 0 1.667-.746 1.667-1.666v-19.986c0-.92-.747-1.666-1.667-1.666Zm52.731 13.117H606.34c-.92 0-1.666.746-1.666 1.666v6.87c0 .92.746 1.666 1.666 1.666h13.334c.92 0 1.667-.746 1.667-1.666v-6.87c0-.92-.747-1.666-1.667-1.666Zm0-13.117H606.34c-.92 0-1.666.746-1.666 1.666v6.87c0 .92.746 1.666 1.666 1.666h13.334c.92 0 1.667-.746 1.667-1.666v-6.87c0-.92-.747-1.666-1.667-1.666Zm23.333 13.117h-13.333c-.921 0-1.667.746-1.667 1.666v6.87c0 .92.746 1.666 1.667 1.666h13.333c.92 0 1.667-.746 1.667-1.666v-6.87c0-.92-.747-1.666-1.667-1.666Zm-46.667 0h-13.333c-.92 0-1.667.746-1.667 1.666v6.87c0 .92.747 1.666 1.667 1.666h13.333c.921 0 1.667-.746 1.667-1.666v-6.87c0-.92-.746-1.666-1.667-1.666Zm-249.115-46.293h-52.732c-.921 0-1.667.746-1.667 1.666v19.987c0 .92.746 1.665 1.667 1.665h52.732c.92 0 1.666-.745 1.666-1.665v-19.987c0-.92-.746-1.666-1.666-1.666Zm36.365 0h-20c-.921 0-1.667.746-1.667 1.666v19.987c0 .92.746 1.665 1.667 1.665h20c.92 0 1.666-.745 1.666-1.665v-19.987c0-.92-.746-1.666-1.666-1.666Zm36.063 0h-20c-.92 0-1.667.746-1.667 1.666v19.987c0 .92.747 1.665 1.667 1.665h20c.92 0 1.667-.745 1.667-1.665v-19.987c0-.92-.747-1.666-1.667-1.666Zm36.065 0h-20c-.92 0-1.666.746-1.666 1.666v19.987c0 .92.746 1.665 1.666 1.665h20c.921 0 1.667-.745 1.667-1.665v-19.987c0-.92-.746-1.666-1.667-1.666Zm36.063 0h-20c-.92 0-1.666.746-1.666 1.666v19.987c0 .92.746 1.665 1.666 1.665h20c.921 0 1.667-.745 1.667-1.665v-19.987c0-.92-.746-1.666-1.667-1.666Zm36.065 0h-20c-.92 0-1.666.746-1.666 1.666v19.987c0 .92.746 1.665 1.666 1.665h20c.921 0 1.667-.745 1.667-1.665v-19.987c0-.92-.746-1.666-1.667-1.666Zm36.064 0h-20c-.92 0-1.666.746-1.666 1.666v19.987c0 .92.746 1.665 1.666 1.665h20c.921 0 1.667-.745 1.667-1.665v-19.987c0-.92-.746-1.666-1.667-1.666Zm79.097 0h-60c-.92 0-1.667.746-1.667 1.666v19.987c0 .92.747 1.665 1.667 1.665h60c.92 0 1.667-.745 1.667-1.665v-19.987c0-.92-.747-1.666-1.667-1.666Zm-272.45-34.111h-20c-.921 0-1.667.746-1.667 1.666v19.986c0 .92.746 1.666 1.667 1.666h20c.92 0 1.666-.746 1.666-1.666v-19.986c0-.92-.746-1.666-1.666-1.666Zm-36.064 0h-40c-.921 0-1.667.746-1.667 1.666v19.986c0 .92.746 1.666 1.667 1.666h40c.92 0 1.667-.746 1.667-1.666v-19.986c0-.92-.747-1.666-1.667-1.666Zm72.129 0h-20c-.92 0-1.666.746-1.666 1.666v19.986c0 .92.746 1.666 1.666 1.666h20c.921 0 1.667-.746 1.667-1.666v-19.986c0-.92-.746-1.666-1.667-1.666Zm36.062 0h-20c-.92 0-1.666.746-1.666 1.666v19.986c0 .92.746 1.666 1.666 1.666h20c.921 0 1.667-.746 1.667-1.666v-19.986c0-.92-.746-1.666-1.667-1.666Zm36.066 0h-20c-.921 0-1.667.746-1.667 1.666v19.986c0 .92.746 1.666 1.667 1.666h20c.92 0 1.666-.746 1.666-1.666v-19.986c0-.92-.746-1.666-1.666-1.666Zm36.065 0h-20c-.92 0-1.667.746-1.667 1.666v19.986c0 .92.747 1.666 1.667 1.666h20c.921 0 1.667-.746 1.667-1.666v-19.986c0-.92-.746-1.666-1.667-1.666Zm36.063 0h-20c-.92 0-1.667.746-1.667 1.666v19.986c0 .92.747 1.666 1.667 1.666h20c.921 0 1.667-.746 1.667-1.666v-19.986c0-.92-.746-1.666-1.667-1.666Zm36.065 0h-20c-.92 0-1.667.746-1.667 1.666v19.986c0 .92.747 1.666 1.667 1.666h20c.92 0 1.667-.746 1.667-1.666v-19.986c0-.92-.747-1.666-1.667-1.666Zm56.064 0h-40c-.92 0-1.667.746-1.667 1.666v19.986c0 .92.747 1.666 1.667 1.666h40c.92 0 1.667-.746 1.667-1.666v-19.986c0-.92-.747-1.666-1.667-1.666ZM350.995 427.75h-20c-.92 0-1.666.745-1.666 1.665v19.987c0 .92.746 1.665 1.666 1.665h20c.921 0 1.667-.745 1.667-1.665v-19.987c0-.92-.746-1.665-1.667-1.665Zm-36.502 0h-20c-.921 0-1.667.745-1.667 1.665v19.987c0 .92.746 1.665 1.667 1.665h20c.92 0 1.667-.745 1.667-1.665v-19.987c0-.92-.747-1.665-1.667-1.665Zm73.004 0h-20c-.921 0-1.667.745-1.667 1.665v19.987c0 .92.746 1.665 1.667 1.665h20c.92 0 1.666-.745 1.666-1.665v-19.987c0-.92-.746-1.665-1.666-1.665Zm36.501 0h-20c-.92 0-1.666.745-1.666 1.665v19.987c0 .92.746 1.665 1.666 1.665h20c.921 0 1.667-.745 1.667-1.665v-19.987c0-.92-.746-1.665-1.667-1.665Zm36.502 0h-20c-.921 0-1.667.745-1.667 1.665v19.987c0 .92.746 1.665 1.667 1.665h20c.92 0 1.666-.745 1.666-1.665v-19.987c0-.92-.746-1.665-1.666-1.665Zm36.5 0h-20c-.92 0-1.667.745-1.667 1.665v19.987c0 .92.747 1.665 1.667 1.665h20c.921 0 1.667-.745 1.667-1.665v-19.987c0-.92-.746-1.665-1.667-1.665Zm36.502 0h-20c-.921 0-1.667.745-1.667 1.665v19.987c0 .92.746 1.665 1.667 1.665h20c.92 0 1.666-.745 1.666-1.665v-19.987c0-.92-.746-1.665-1.666-1.665Zm36.501 0h-20c-.92 0-1.667.745-1.667 1.665v19.987c0 .92.747 1.665 1.667 1.665h20c.921 0 1.667-.745 1.667-1.665v-19.987c0-.92-.746-1.665-1.667-1.665Zm36.502 0h-20c-.921 0-1.667.745-1.667 1.665v19.987c0 .92.746 1.665 1.667 1.665h20c.92 0 1.666-.745 1.666-1.665v-19.987c0-.92-.746-1.665-1.666-1.665Zm36.502 0h-20c-.92 0-1.667.745-1.667 1.665v19.987c0 .92.747 1.665 1.667 1.665h20c.92 0 1.667-.745 1.667-1.665v-19.987c0-.92-.747-1.665-1.667-1.665Z" stroke="#626C84" stroke-width="1.667" stroke-linecap="round" stroke-linejoin="round"/><path d="M350.557 527.683h-20c-.921 0-1.667.746-1.667 1.666v19.986c0 .92.746 1.666 1.667 1.666h20c.92 0 1.666-.746 1.666-1.666v-19.986c0-.92-.746-1.666-1.666-1.666Zm-36.064 0h-20c-.921 0-1.667.746-1.667 1.666v19.986c0 .92.746 1.666 1.667 1.666h20c.92 0 1.667-.746 1.667-1.666v-19.986c0-.92-.747-1.666-1.667-1.666Zm216.386 0H366.622c-.92 0-1.666.746-1.666 1.666v19.986c0 .92.746 1.666 1.666 1.666h164.257c.92 0 1.667-.746 1.667-1.666v-19.986c0-.92-.747-1.666-1.667-1.666Zm36.064 0h-20c-.92 0-1.667.746-1.667 1.666v19.986c0 .92.747 1.666 1.667 1.666h20c.92 0 1.667-.746 1.667-1.666v-19.986c0-.92-.747-1.666-1.667-1.666Zm52.731 13.117H606.34c-.92 0-1.666.746-1.666 1.666v6.87c0 .92.746 1.666 1.666 1.666h13.334c.92 0 1.667-.746 1.667-1.666v-6.87c0-.92-.747-1.666-1.667-1.666Zm0-13.117H606.34c-.92 0-1.666.746-1.666 1.666v6.87c0 .92.746 1.666 1.666 1.666h13.334c.92 0 1.667-.746 1.667-1.666v-6.87c0-.92-.747-1.666-1.667-1.666Zm23.333 13.117h-13.333c-.921 0-1.667.746-1.667 1.666v6.87c0 .92.746 1.666 1.667 1.666h13.333c.92 0 1.667-.746 1.667-1.666v-6.87c0-.92-.747-1.666-1.667-1.666Zm-46.667 0h-13.333c-.92 0-1.667.746-1.667 1.666v6.87c0 .92.747 1.666 1.667 1.666h13.333c.921 0 1.667-.746 1.667-1.666v-6.87c0-.92-.746-1.666-1.667-1.666Zm-249.115-46.293h-52.732c-.921 0-1.667.746-1.667 1.666v19.987c0 .92.746 1.665 1.667 1.665h52.732c.92 0 1.666-.745 1.666-1.665v-19.987c0-.92-.746-1.666-1.666-1.666Zm36.365 0h-20c-.921 0-1.667.746-1.667 1.666v19.987c0 .92.746 1.665 1.667 1.665h20c.92 0 1.666-.745 1.666-1.665v-19.987c0-.92-.746-1.666-1.666-1.666Zm36.063 0h-20c-.92 0-1.667.746-1.667 1.666v19.987c0 .92.747 1.665 1.667 1.665h20c.92 0 1.667-.745 1.667-1.665v-19.987c0-.92-.747-1.666-1.667-1.666Zm36.065 0h-20c-.92 0-1.666.746-1.666 1.666v19.987c0 .92.746 1.665 1.666 1.665h20c.921 0 1.667-.745 1.667-1.665v-19.987c0-.92-.746-1.666-1.667-1.666Zm36.063 0h-20c-.92 0-1.666.746-1.666 1.666v19.987c0 .92.746 1.665 1.666 1.665h20c.921 0 1.667-.745 1.667-1.665v-19.987c0-.92-.746-1.666-1.667-1.666Zm36.065 0h-20c-.92 0-1.666.746-1.666 1.666v19.987c0 .92.746 1.665 1.666 1.665h20c.921 0 1.667-.745 1.667-1.665v-19.987c0-.92-.746-1.666-1.667-1.666Zm36.064 0h-20c-.92 0-1.666.746-1.666 1.666v19.987c0 .92.746 1.665 1.666 1.665h20c.921 0 1.667-.745 1.667-1.665v-19.987c0-.92-.746-1.666-1.667-1.666Zm79.097 0h-60c-.92 0-1.667.746-1.667 1.666v19.987c0 .92.747 1.665 1.667 1.665h60c.92 0 1.667-.745 1.667-1.665v-19.987c0-.92-.747-1.666-1.667-1.666Zm-272.45-34.111h-20c-.921 0-1.667.746-1.667 1.666v19.986c0 .92.746 1.666 1.667 1.666h20c.92 0 1.666-.746 1.666-1.666v-19.986c0-.92-.746-1.666-1.666-1.666Zm-36.064 0h-40c-.921 0-1.667.746-1.667 1.666v19.986c0 .92.746 1.666 1.667 1.666h40c.92 0 1.667-.746 1.667-1.666v-19.986c0-.92-.747-1.666-1.667-1.666Zm72.129 0h-20c-.92 0-1.666.746-1.666 1.666v19.986c0 .92.746 1.666 1.666 1.666h20c.921 0 1.667-.746 1.667-1.666v-19.986c0-.92-.746-1.666-1.667-1.666Zm36.062 0h-20c-.92 0-1.666.746-1.666 1.666v19.986c0 .92.746 1.666 1.666 1.666h20c.921 0 1.667-.746 1.667-1.666v-19.986c0-.92-.746-1.666-1.667-1.666Zm36.066 0h-20c-.921 0-1.667.746-1.667 1.666v19.986c0 .92.746 1.666 1.667 1.666h20c.92 0 1.666-.746 1.666-1.666v-19.986c0-.92-.746-1.666-1.666-1.666Zm36.065 0h-20c-.92 0-1.667.746-1.667 1.666v19.986c0 .92.747 1.666 1.667 1.666h20c.921 0 1.667-.746 1.667-1.666v-19.986c0-.92-.746-1.666-1.667-1.666Zm36.063 0h-20c-.92 0-1.667.746-1.667 1.666v19.986c0 .92.747 1.666 1.667 1.666h20c.921 0 1.667-.746 1.667-1.666v-19.986c0-.92-.746-1.666-1.667-1.666Zm36.065 0h-20c-.92 0-1.667.746-1.667 1.666v19.986c0 .92.747 1.666 1.667 1.666h20c.92 0 1.667-.746 1.667-1.666v-19.986c0-.92-.747-1.666-1.667-1.666Zm56.064 0h-40c-.92 0-1.667.746-1.667 1.666v19.986c0 .92.747 1.666 1.667 1.666h40c.92 0 1.667-.746 1.667-1.666v-19.986c0-.92-.747-1.666-1.667-1.666ZM350.995 427.75h-20c-.92 0-1.666.745-1.666 1.665v19.987c0 .92.746 1.665 1.666 1.665h20c.921 0 1.667-.745 1.667-1.665v-19.987c0-.92-.746-1.665-1.667-1.665Zm-36.502 0h-20c-.921 0-1.667.745-1.667 1.665v19.987c0 .92.746 1.665 1.667 1.665h20c.92 0 1.667-.745 1.667-1.665v-19.987c0-.92-.747-1.665-1.667-1.665Zm73.004 0h-20c-.921 0-1.667.745-1.667 1.665v19.987c0 .92.746 1.665 1.667 1.665h20c.92 0 1.666-.745 1.666-1.665v-19.987c0-.92-.746-1.665-1.666-1.665Zm36.501 0h-20c-.92 0-1.666.745-1.666 1.665v19.987c0 .92.746 1.665 1.666 1.665h20c.921 0 1.667-.745 1.667-1.665v-19.987c0-.92-.746-1.665-1.667-1.665Zm36.502 0h-20c-.921 0-1.667.745-1.667 1.665v19.987c0 .92.746 1.665 1.667 1.665h20c.92 0 1.666-.745 1.666-1.665v-19.987c0-.92-.746-1.665-1.666-1.665Zm36.5 0h-20c-.92 0-1.667.745-1.667 1.665v19.987c0 .92.747 1.665 1.667 1.665h20c.921 0 1.667-.745 1.667-1.665v-19.987c0-.92-.746-1.665-1.667-1.665Zm36.502 0h-20c-.921 0-1.667.745-1.667 1.665v19.987c0 .92.746 1.665 1.667 1.665h20c.92 0 1.666-.745 1.666-1.665v-19.987c0-.92-.746-1.665-1.666-1.665Zm36.501 0h-20c-.92 0-1.667.745-1.667 1.665v19.987c0 .92.747 1.665 1.667 1.665h20c.921 0 1.667-.745 1.667-1.665v-19.987c0-.92-.746-1.665-1.667-1.665Zm36.502 0h-20c-.921 0-1.667.745-1.667 1.665v19.987c0 .92.746 1.665 1.667 1.665h20c.92 0 1.666-.745 1.666-1.665v-19.987c0-.92-.746-1.665-1.666-1.665Zm36.502 0h-20c-.92 0-1.667.745-1.667 1.665v19.987c0 .92.747 1.665 1.667 1.665h20c.92 0 1.667-.745 1.667-1.665v-19.987c0-.92-.747-1.665-1.667-1.665Zm-315.924-53.136h283.334v22.395a6.662 6.662 0 0 1-6.667 6.662h-270a6.662 6.662 0 0 1-6.667-6.662v-22.395Z" fill="#626C84"/><path opacity=".12" d="M610.417 374.614H327.083v3.331h283.334v-3.331Z" fill="#fff"/><path d="M603.75 397.008h-270a6.667 6.667 0 0 1-6.667-6.663v6.663a6.667 6.667 0 0 0 6.667 6.662h270a6.667 6.667 0 0 0 6.667-6.662v-6.663a6.667 6.667 0 0 1-6.667 6.663Z" fill="#626C84" style="mix-blend-mode:multiply" opacity=".25"/><path d="M327.083 374.614h283.334v22.395a6.662 6.662 0 0 1-6.667 6.662h-270a6.662 6.662 0 0 1-6.667-6.662v-22.395Z" stroke="#46505C" stroke-width="3.333" stroke-linecap="round" stroke-linejoin="round"/><path d="M527.083 573.487H410.416a3.332 3.332 0 0 0-3.333 3.331v78.281a3.332 3.332 0 0 0 3.333 3.331h116.667a3.332 3.332 0 0 0 3.333-3.331v-78.281a3.332 3.332 0 0 0-3.333-3.331Z" fill="#E6F3FF"/><path d="M527.083 573.487H410.416a3.332 3.332 0 0 0-3.333 3.331v78.281a3.332 3.332 0 0 0 3.333 3.331h116.667a3.332 3.332 0 0 0 3.333-3.331v-78.281a3.332 3.332 0 0 0-3.333-3.331Z" stroke="#626C84" stroke-width="1.667" stroke-linecap="round" stroke-linejoin="round"/><path opacity=".52" d="M468.75 138.323c2.761 0 5-2.237 5-4.997a4.998 4.998 0 0 0-5-4.996c-2.761 0-5 2.237-5 4.996a4.999 4.999 0 0 0 5 4.997Z" fill="#fff"/><path d="M468.75 138.323c2.761 0 5-2.237 5-4.997a4.998 4.998 0 0 0-5-4.996c-2.761 0-5 2.237-5 4.996a4.999 4.999 0 0 0 5 4.997Z" stroke="#46505C" stroke-width="1.667" stroke-linecap="round" stroke-linejoin="round"/><path d="M572.683 168.431h-20a1.666 1.666 0 0 0 0 3.331h20a1.665 1.665 0 1 0 0-3.331Zm43.29 0h-20a1.666 1.666 0 0 0 0 3.331h20a1.665 1.665 0 1 0 0-3.331Zm-86.577 0h-20a1.666 1.666 0 1 0 0 3.331h20a1.665 1.665 0 1 0 0-3.331Zm-215.258 10.591c4.453 0 8.062-3.607 8.062-8.056 0-4.449-3.609-8.056-8.062-8.056-4.452 0-8.061 3.607-8.061 8.056 0 4.449 3.609 8.056 8.061 8.056Z" fill="#fff"/><path opacity=".72" d="M553.013 259.173H384.29v6.071h168.723v-6.071Zm-21.336-20.149H405.629v6.159h126.048v-6.159Z" fill="#fff"/><path d="M497.758 306.368H449.74c-5.045 0-9.135 4.087-9.135 9.129 0 5.041 4.09 9.129 9.135 9.129h48.018c5.045 0 9.135-4.088 9.135-9.129 0-5.042-4.09-9.129-9.135-9.129Z" stroke="#fff" stroke-width="1.667" stroke-miterlimit="10"/></svg>